<?xml version="1.0" encoding="UTF-8" standalone="no"?>
<svg
   xmlns:dc="http://purl.org/dc/elements/1.1/"
   xmlns:cc="http://creativecommons.org/ns#"
   xmlns:rdf="http://www.w3.org/1999/02/22-rdf-syntax-ns#"
   xmlns:svg="http://www.w3.org/2000/svg"
   xmlns="http://www.w3.org/2000/svg"
   xmlns:xlink="http://www.w3.org/1999/xlink"
   xmlns:sodipodi="http://sodipodi.sourceforge.net/DTD/sodipodi-0.dtd"
   xmlns:inkscape="http://www.inkscape.org/namespaces/inkscape"
   width="297mm"
   height="210mm"
   viewBox="0 0 297 210"
   version="1.1"
   id="svg930"
   sodipodi:docname="CCD_5.svg"
   inkscape:version="1.0.1 (3bc2e813f5, 2020-09-07)">
  <defs
     id="defs924">
    <g
       id="g4592">
      <symbol
         overflow="visible"
         id="symbol4091">
        <path
           style="stroke:none;"
           d=""
           id="path3141" />
      </symbol>
      <symbol
         overflow="visible"
         id="symbol8195">
        <path
           style="stroke:none;"
           d="M 5.953125 -5.671875 L 6.09375 -5.8125 C 6.390625 -6.109375 6.71875 -6.453125 7.390625 -6.5 C 7.5 -6.515625 7.59375 -6.515625 7.59375 -6.6875 C 7.59375 -6.765625 7.546875 -6.8125 7.46875 -6.8125 C 7.203125 -6.8125 6.921875 -6.78125 6.65625 -6.78125 C 6.3125 -6.78125 5.96875 -6.8125 5.65625 -6.8125 C 5.59375 -6.8125 5.46875 -6.8125 5.46875 -6.625 C 5.46875 -6.515625 5.5625 -6.5 5.609375 -6.5 C 5.6875 -6.5 5.96875 -6.484375 5.96875 -6.265625 C 5.96875 -6.09375 5.734375 -5.84375 5.703125 -5.796875 L 3.390625 -3.125 L 2.296875 -6.09375 C 2.234375 -6.234375 2.234375 -6.25 2.234375 -6.265625 C 2.234375 -6.5 2.71875 -6.5 2.828125 -6.5 C 2.953125 -6.5 3.0625 -6.5 3.0625 -6.703125 C 3.0625 -6.8125 2.9375 -6.8125 2.90625 -6.8125 C 2.625 -6.8125 1.9375 -6.78125 1.65625 -6.78125 C 1.40625 -6.78125 0.78125 -6.8125 0.53125 -6.8125 C 0.484375 -6.8125 0.34375 -6.8125 0.34375 -6.609375 C 0.34375 -6.5 0.453125 -6.5 0.578125 -6.5 C 1.171875 -6.5 1.21875 -6.40625 1.3125 -6.15625 L 2.53125 -2.875 C 2.546875 -2.84375 2.578125 -2.734375 2.578125 -2.71875 C 2.578125 -2.6875 2.171875 -1.078125 2.125 -0.890625 C 2 -0.34375 1.984375 -0.3125 1.1875 -0.3125 C 1 -0.3125 0.921875 -0.3125 0.921875 -0.109375 C 0.921875 0 1.03125 0 1.0625 0 C 1.328125 0 2.03125 -0.03125 2.3125 -0.03125 C 2.59375 -0.03125 3.3125 0 3.59375 0 C 3.65625 0 3.78125 0 3.78125 -0.203125 C 3.78125 -0.3125 3.6875 -0.3125 3.5 -0.3125 C 3.484375 -0.3125 3.296875 -0.3125 3.125 -0.328125 C 2.90625 -0.34375 2.84375 -0.375 2.84375 -0.484375 C 2.84375 -0.5625 2.9375 -0.90625 2.984375 -1.109375 L 3.34375 -2.515625 C 3.390625 -2.71875 3.40625 -2.734375 3.484375 -2.828125 Z M 5.953125 -5.671875 "
           id="path9624" />
      </symbol>
    </g>
    <g
       id="g9196">
      <symbol
         overflow="visible"
         id="symbol8848">
        <path
           style="stroke:none;"
           d=""
           id="path94" />
      </symbol>
      <symbol
         overflow="visible"
         id="symbol495">
        <path
           style="stroke:none;"
           d="M 5.078125 -4.03125 C 5.0625 -4.0625 5.03125 -4.140625 5.03125 -4.171875 C 5.03125 -4.171875 5.203125 -4.3125 5.3125 -4.390625 L 7.0625 -5.734375 C 8 -6.4375 8.390625 -6.46875 8.6875 -6.5 C 8.765625 -6.515625 8.859375 -6.515625 8.859375 -6.703125 C 8.859375 -6.734375 8.828125 -6.8125 8.75 -6.8125 C 8.53125 -6.8125 8.28125 -6.78125 8.046875 -6.78125 C 7.6875 -6.78125 7.296875 -6.8125 6.9375 -6.8125 C 6.875 -6.8125 6.75 -6.8125 6.75 -6.609375 C 6.75 -6.546875 6.796875 -6.515625 6.875 -6.5 C 7.09375 -6.484375 7.171875 -6.4375 7.171875 -6.296875 C 7.171875 -6.109375 6.875 -5.875 6.8125 -5.828125 L 2.9375 -2.84375 L 3.734375 -6.046875 C 3.8125 -6.40625 3.84375 -6.5 4.5625 -6.5 C 4.8125 -6.5 4.90625 -6.5 4.90625 -6.703125 C 4.90625 -6.78125 4.828125 -6.8125 4.765625 -6.8125 C 4.484375 -6.8125 3.765625 -6.78125 3.484375 -6.78125 C 3.203125 -6.78125 2.5 -6.8125 2.203125 -6.8125 C 2.140625 -6.8125 2 -6.8125 2 -6.625 C 2 -6.5 2.09375 -6.5 2.296875 -6.5 C 2.421875 -6.5 2.609375 -6.484375 2.71875 -6.484375 C 2.875 -6.453125 2.9375 -6.4375 2.9375 -6.3125 C 2.9375 -6.28125 2.9375 -6.25 2.90625 -6.125 L 1.5625 -0.78125 C 1.46875 -0.390625 1.453125 -0.3125 0.65625 -0.3125 C 0.484375 -0.3125 0.375 -0.3125 0.375 -0.125 C 0.375 0 0.5 0 0.53125 0 C 0.8125 0 1.515625 -0.03125 1.796875 -0.03125 C 2 -0.03125 2.21875 -0.015625 2.4375 -0.015625 C 2.65625 -0.015625 2.875 0 3.078125 0 C 3.15625 0 3.28125 0 3.28125 -0.203125 C 3.28125 -0.3125 3.1875 -0.3125 3 -0.3125 C 2.625 -0.3125 2.359375 -0.3125 2.359375 -0.484375 C 2.359375 -0.5625 2.40625 -0.78125 2.4375 -0.921875 C 2.578125 -1.453125 2.71875 -1.96875 2.84375 -2.5 L 4.328125 -3.65625 L 5.484375 -0.96875 C 5.609375 -0.703125 5.609375 -0.671875 5.609375 -0.625 C 5.609375 -0.3125 5.171875 -0.3125 5.078125 -0.3125 C 4.96875 -0.3125 4.859375 -0.3125 4.859375 -0.109375 C 4.859375 0 4.984375 0 5 0 C 5.40625 0 5.828125 -0.03125 6.21875 -0.03125 C 6.4375 -0.03125 6.984375 0 7.203125 0 C 7.25 0 7.375 0 7.375 -0.203125 C 7.375 -0.3125 7.265625 -0.3125 7.171875 -0.3125 C 6.765625 -0.3125 6.640625 -0.40625 6.484375 -0.75 Z M 5.078125 -4.03125 "
           id="path7207" />
      </symbol>
    </g>
    <g
       id="g3143">
      <symbol
         overflow="visible"
         id="symbol4831">
        <path
           style="stroke:none;"
           d=""
           id="path3052" />
      </symbol>
      <symbol
         overflow="visible"
         id="symbol1516">
        <path
           style="stroke:none;"
           d="M 3.734375 -6.03125 C 3.8125 -6.390625 3.84375 -6.5 4.78125 -6.5 C 5.078125 -6.5 5.15625 -6.5 5.15625 -6.6875 C 5.15625 -6.8125 5.046875 -6.8125 5 -6.8125 C 4.671875 -6.8125 3.859375 -6.78125 3.53125 -6.78125 C 3.234375 -6.78125 2.5 -6.8125 2.203125 -6.8125 C 2.140625 -6.8125 2.015625 -6.8125 2.015625 -6.609375 C 2.015625 -6.5 2.109375 -6.5 2.296875 -6.5 C 2.3125 -6.5 2.5 -6.5 2.671875 -6.484375 C 2.84375 -6.453125 2.9375 -6.453125 2.9375 -6.3125 C 2.9375 -6.28125 2.9375 -6.25 2.90625 -6.125 L 1.5625 -0.78125 C 1.46875 -0.390625 1.453125 -0.3125 0.65625 -0.3125 C 0.484375 -0.3125 0.390625 -0.3125 0.390625 -0.109375 C 0.390625 0 0.484375 0 0.65625 0 L 5.28125 0 C 5.515625 0 5.515625 0 5.578125 -0.171875 L 6.375 -2.328125 C 6.40625 -2.4375 6.40625 -2.453125 6.40625 -2.46875 C 6.40625 -2.5 6.375 -2.578125 6.296875 -2.578125 C 6.203125 -2.578125 6.1875 -2.515625 6.125 -2.359375 C 5.78125 -1.453125 5.34375 -0.3125 3.625 -0.3125 L 2.6875 -0.3125 C 2.546875 -0.3125 2.515625 -0.3125 2.46875 -0.3125 C 2.359375 -0.328125 2.328125 -0.34375 2.328125 -0.421875 C 2.328125 -0.453125 2.328125 -0.46875 2.375 -0.640625 Z M 3.734375 -6.03125 "
           id="path8924" />
      </symbol>
    </g>
  </defs>
  <sodipodi:namedview
     id="base"
     pagecolor="#ffffff"
     bordercolor="#666666"
     borderopacity="1.0"
     inkscape:pageopacity="0.0"
     inkscape:pageshadow="2"
     inkscape:zoom="1"
     inkscape:cx="400"
     inkscape:cy="432.34043"
     inkscape:document-units="mm"
     inkscape:current-layer="layer1"
     inkscape:document-rotation="0"
     showgrid="false"
     inkscape:window-width="1920"
     inkscape:window-height="1017"
     inkscape:window-x="-8"
     inkscape:window-y="-8"
     inkscape:window-maximized="1" />
  <metadata
     id="metadata927">
    <rdf:RDF>
      <cc:Work
         rdf:about="">
        <dc:format>image/svg+xml</dc:format>
        <dc:type
           rdf:resource="http://purl.org/dc/dcmitype/StillImage" />
        <dc:title></dc:title>
      </cc:Work>
    </rdf:RDF>
  </metadata>
  <g
     inkscape:label="Layer 1"
     inkscape:groupmode="layer"
     id="layer1">
    <path
       style="fill:none;stroke:#000000;stroke-width:1.31394;stroke-linecap:butt;stroke-linejoin:miter;stroke-miterlimit:4;stroke-dasharray:none;stroke-opacity:1"
       d="m 82.161162,28.66264 0.253367,92.48251 103.132571,24.50606"
       id="path3713"
       inkscape:connector-curvature="0"
       sodipodi:nodetypes="ccc" />
    <path
       sodipodi:nodetypes="cc"
       inkscape:connector-curvature="0"
       id="path4576"
       d="M 82.414529,121.14515 189.80939,76.779128"
       style="fill:none;stroke:#000000;stroke-width:1.31394;stroke-linecap:butt;stroke-linejoin:miter;stroke-miterlimit:4;stroke-dasharray:none;stroke-opacity:1" />
    <path
       sodipodi:nodetypes="cc"
       inkscape:connector-curvature="0"
       id="path4700"
       d="M 126.9744,131.46255 C 115.00636,102.04734 140.78237,66.371717 180.68818,80.345448"
       style="fill:none;stroke:#000000;stroke-width:0.820448;stroke-linecap:butt;stroke-linejoin:miter;stroke-miterlimit:4;stroke-dasharray:none;stroke-opacity:1" />
    <path
       inkscape:connector-curvature="0"
       id="path4702"
       d="m 124.18736,122.42787 -41.772831,-1.28272 41.772831,-6.08767"
       style="fill:none;stroke:#000000;stroke-width:0.820448;stroke-linecap:butt;stroke-linejoin:miter;stroke-miterlimit:4;stroke-dasharray:none;stroke-opacity:1" />
    <path
       inkscape:connector-curvature="0"
       id="path4704"
       d="M 124.94746,109.82688 82.414529,121.14515 133.05521,91.04434"
       style="fill:none;stroke:#000000;stroke-width:0.820448;stroke-linecap:butt;stroke-linejoin:miter;stroke-miterlimit:4;stroke-dasharray:none;stroke-opacity:1" />
    <path
       inkscape:connector-curvature="0"
       id="path4706"
       d="M 82.419096,121.13793 145.14145,81.362021"
       style="fill:none;stroke:#000000;stroke-width:0.838533;stroke-linecap:butt;stroke-linejoin:miter;stroke-miterlimit:4;stroke-dasharray:none;stroke-opacity:1"
       sodipodi:nodetypes="cc" />
    <flowRoot
       xml:space="preserve"
       id="flowRoot4965"
       style="font-style:normal;font-weight:normal;font-size:40px;line-height:1.25;font-family:sans-serif;letter-spacing:0px;word-spacing:0px;fill:#000000;fill-opacity:1;stroke:none"
       transform="matrix(0.33697793,0,0,0.31621376,55.842994,-33.09202)"><flowRegion
         id="flowRegion4967"><rect
           id="rect4969"
           width="300"
           height="107.5188"
           x="75.187973"
           y="594.4527" /></flowRegion><flowPara
         id="flowPara4971"
         style="font-size:26.6667px;text-align:center;text-anchor:middle">Cobb-Douglas Production Function</flowPara></flowRoot>
    <g
       inkscape:label=""
       transform="matrix(1.5110561,0,0,1.3813839,-67.13933,-87.148012)"
       id="g1583">
      <g
         id="g2699">
        <g
           style="fill:#000000;fill-opacity:1"
           id="g6622">
          <use
             xlink:href="#symbol8195"
             x="91.925003"
             y="81.962997"
             id="use1296"
             width="100%"
             height="100%" />
        </g>
      </g>
    </g>
    <g
       inkscape:label=""
       transform="matrix(1.5110561,0,0,1.3813839,53.969269,-36.414777)"
       id="g1641">
      <g
         id="g9599">
        <g
           style="fill:#000000;fill-opacity:1"
           id="g8659">
          <use
             xlink:href="#symbol495"
             x="91.925003"
             y="81.962997"
             id="use3784"
             width="100%"
             height="100%" />
        </g>
      </g>
    </g>
    <g
       inkscape:label=""
       transform="matrix(1.5110561,0,0,1.3813839,49.950777,34.435906)"
       id="g1708">
      <g
         id="g2921">
        <g
           style="fill:#000000;fill-opacity:1"
           id="g3106">
          <use
             xlink:href="#symbol1516"
             x="91.925003"
             y="81.962997"
             id="use6666"
             width="100%"
             height="100%" />
        </g>
      </g>
    </g>
    <path
       inkscape:connector-curvature="0"
       id="path4706-6"
       d="M 82.414529,121.14515 166.03897,77.400491"
       style="fill:none;stroke:#000000;stroke-width:0.838533;stroke-linecap:butt;stroke-linejoin:miter;stroke-miterlimit:4;stroke-dasharray:none;stroke-opacity:1"
       sodipodi:nodetypes="cc" />
  </g>
</svg>
