<?xml version="1.0" encoding="UTF-8" standalone="no"?>
<svg
   xmlns:dc="http://purl.org/dc/elements/1.1/"
   xmlns:cc="http://creativecommons.org/ns#"
   xmlns:rdf="http://www.w3.org/1999/02/22-rdf-syntax-ns#"
   xmlns:svg="http://www.w3.org/2000/svg"
   xmlns="http://www.w3.org/2000/svg"
   xmlns:xlink="http://www.w3.org/1999/xlink"
   xmlns:sodipodi="http://sodipodi.sourceforge.net/DTD/sodipodi-0.dtd"
   xmlns:inkscape="http://www.inkscape.org/namespaces/inkscape"
   width="297mm"
   height="210mm"
   viewBox="0 0 297 210"
   version="1.1"
   id="svg8"
   inkscape:version="1.0.1 (3bc2e813f5, 2020-09-07)"
   sodipodi:docname="ho_8.svg"
   inkscape:export-filename="C:\Users\PHBS\Desktop\Undergrad Trade\slides\figs\ho_4.png"
   inkscape:export-xdpi="96"
   inkscape:export-ydpi="96">
  <sodipodi:namedview
     id="base"
     pagecolor="#ffffff"
     bordercolor="#666666"
     borderopacity="1.0"
     inkscape:pageopacity="0.0"
     inkscape:pageshadow="2"
     inkscape:zoom="1.3289991"
     inkscape:cx="629.67019"
     inkscape:cy="395.13258"
     inkscape:document-units="mm"
     inkscape:current-layer="layer1"
     showgrid="false"
     inkscape:window-width="1920"
     inkscape:window-height="1017"
     inkscape:window-x="-8"
     inkscape:window-y="-8"
     inkscape:window-maximized="1"
     showguides="false"
     inkscape:document-rotation="0" />
  <defs
     id="defs2">
    <rect
       x="127.61327"
       y="241.4897"
       width="103.92219"
       height="23.691074"
       id="rect1242" />
    <rect
       x="68.684208"
       y="194.30663"
       width="22.297482"
       height="20.10755"
       id="rect1057" />
    <rect
       x="53.951943"
       y="162.65217"
       width="22.297482"
       height="16.125857"
       id="rect1051" />
    <rect
       x="228.94736"
       y="192.91304"
       width="43.201371"
       height="28.270022"
       id="rect856" />
    <g
       id="g4051">
      <symbol
         overflow="visible"
         id="symbol3511">
        <path
           style="stroke:none;"
           d=""
           id="path5273" />
      </symbol>
      <symbol
         overflow="visible"
         id="symbol9694">
        <path
           style="stroke:none;"
           d="M 2.078125 -1.9375 C 2.296875 -1.890625 3.109375 -1.734375 3.109375 -1.015625 C 3.109375 -0.515625 2.765625 -0.109375 1.984375 -0.109375 C 1.140625 -0.109375 0.78125 -0.671875 0.59375 -1.53125 C 0.5625 -1.65625 0.5625 -1.6875 0.453125 -1.6875 C 0.328125 -1.6875 0.328125 -1.625 0.328125 -1.453125 L 0.328125 -0.125 C 0.328125 0.046875 0.328125 0.109375 0.4375 0.109375 C 0.484375 0.109375 0.5 0.09375 0.6875 -0.09375 C 0.703125 -0.109375 0.703125 -0.125 0.890625 -0.3125 C 1.328125 0.09375 1.78125 0.109375 1.984375 0.109375 C 3.125 0.109375 3.59375 -0.5625 3.59375 -1.28125 C 3.59375 -1.796875 3.296875 -2.109375 3.171875 -2.21875 C 2.84375 -2.546875 2.453125 -2.625 2.03125 -2.703125 C 1.46875 -2.8125 0.8125 -2.9375 0.8125 -3.515625 C 0.8125 -3.875 1.0625 -4.28125 1.921875 -4.28125 C 3.015625 -4.28125 3.078125 -3.375 3.09375 -3.078125 C 3.09375 -2.984375 3.1875 -2.984375 3.203125 -2.984375 C 3.34375 -2.984375 3.34375 -3.03125 3.34375 -3.21875 L 3.34375 -4.234375 C 3.34375 -4.390625 3.34375 -4.46875 3.234375 -4.46875 C 3.1875 -4.46875 3.15625 -4.46875 3.03125 -4.34375 C 3 -4.3125 2.90625 -4.21875 2.859375 -4.1875 C 2.484375 -4.46875 2.078125 -4.46875 1.921875 -4.46875 C 0.703125 -4.46875 0.328125 -3.796875 0.328125 -3.234375 C 0.328125 -2.890625 0.484375 -2.609375 0.75 -2.390625 C 1.078125 -2.140625 1.359375 -2.078125 2.078125 -1.9375 Z M 2.078125 -1.9375 "
           id="path3863" />
      </symbol>
      <symbol
         overflow="visible"
         id="symbol5050">
        <path
           style="stroke:none;"
           d="M 1.765625 -6.921875 L 0.328125 -6.8125 L 0.328125 -6.5 C 1.03125 -6.5 1.109375 -6.4375 1.109375 -5.9375 L 1.109375 -0.75 C 1.109375 -0.3125 1 -0.3125 0.328125 -0.3125 L 0.328125 0 C 0.65625 -0.015625 1.1875 -0.03125 1.4375 -0.03125 C 1.6875 -0.03125 2.171875 -0.015625 2.546875 0 L 2.546875 -0.3125 C 1.875 -0.3125 1.765625 -0.3125 1.765625 -0.75 Z M 1.765625 -6.921875 "
           id="path2735" />
      </symbol>
      <symbol
         overflow="visible"
         id="symbol3736">
        <path
           style="stroke:none;"
           d="M 4.6875 -2.140625 C 4.6875 -3.40625 3.703125 -4.46875 2.5 -4.46875 C 1.25 -4.46875 0.28125 -3.375 0.28125 -2.140625 C 0.28125 -0.84375 1.3125 0.109375 2.484375 0.109375 C 3.6875 0.109375 4.6875 -0.875 4.6875 -2.140625 Z M 2.5 -0.140625 C 2.0625 -0.140625 1.625 -0.34375 1.359375 -0.8125 C 1.109375 -1.25 1.109375 -1.859375 1.109375 -2.21875 C 1.109375 -2.609375 1.109375 -3.140625 1.34375 -3.578125 C 1.609375 -4.03125 2.078125 -4.25 2.484375 -4.25 C 2.921875 -4.25 3.34375 -4.03125 3.609375 -3.59375 C 3.875 -3.171875 3.875 -2.59375 3.875 -2.21875 C 3.875 -1.859375 3.875 -1.3125 3.65625 -0.875 C 3.421875 -0.421875 2.984375 -0.140625 2.5 -0.140625 Z M 2.5 -0.140625 "
           id="path7884" />
      </symbol>
      <symbol
         overflow="visible"
         id="symbol6329">
        <path
           style="stroke:none;"
           d="M 1.71875 -3.75 L 1.71875 -4.40625 L 0.28125 -4.296875 L 0.28125 -3.984375 C 0.984375 -3.984375 1.0625 -3.921875 1.0625 -3.484375 L 1.0625 1.171875 C 1.0625 1.625 0.953125 1.625 0.28125 1.625 L 0.28125 1.9375 C 0.625 1.921875 1.140625 1.90625 1.390625 1.90625 C 1.671875 1.90625 2.171875 1.921875 2.515625 1.9375 L 2.515625 1.625 C 1.859375 1.625 1.75 1.625 1.75 1.171875 L 1.75 -0.59375 C 1.796875 -0.421875 2.21875 0.109375 2.96875 0.109375 C 4.15625 0.109375 5.1875 -0.875 5.1875 -2.15625 C 5.1875 -3.421875 4.234375 -4.40625 3.109375 -4.40625 C 2.328125 -4.40625 1.90625 -3.96875 1.71875 -3.75 Z M 1.75 -1.140625 L 1.75 -3.359375 C 2.03125 -3.875 2.515625 -4.15625 3.03125 -4.15625 C 3.765625 -4.15625 4.359375 -3.28125 4.359375 -2.15625 C 4.359375 -0.953125 3.671875 -0.109375 2.9375 -0.109375 C 2.53125 -0.109375 2.15625 -0.3125 1.890625 -0.71875 C 1.75 -0.921875 1.75 -0.9375 1.75 -1.140625 Z M 1.75 -1.140625 "
           id="path8281" />
      </symbol>
      <symbol
         overflow="visible"
         id="symbol9438">
        <path
           style="stroke:none;"
           d="M 1.109375 -2.515625 C 1.171875 -4 2.015625 -4.25 2.359375 -4.25 C 3.375 -4.25 3.484375 -2.90625 3.484375 -2.515625 Z M 1.109375 -2.296875 L 3.890625 -2.296875 C 4.109375 -2.296875 4.140625 -2.296875 4.140625 -2.515625 C 4.140625 -3.5 3.59375 -4.46875 2.359375 -4.46875 C 1.203125 -4.46875 0.28125 -3.4375 0.28125 -2.1875 C 0.28125 -0.859375 1.328125 0.109375 2.46875 0.109375 C 3.6875 0.109375 4.140625 -1 4.140625 -1.1875 C 4.140625 -1.28125 4.0625 -1.3125 4 -1.3125 C 3.921875 -1.3125 3.890625 -1.25 3.875 -1.171875 C 3.53125 -0.140625 2.625 -0.140625 2.53125 -0.140625 C 2.03125 -0.140625 1.640625 -0.4375 1.40625 -0.8125 C 1.109375 -1.28125 1.109375 -1.9375 1.109375 -2.296875 Z M 1.109375 -2.296875 "
           id="path2341" />
      </symbol>
      <symbol
         overflow="visible"
         id="symbol7040">
        <path
           style="stroke:none;"
           d="M 6.84375 -3.265625 C 7 -3.265625 7.1875 -3.265625 7.1875 -3.453125 C 7.1875 -3.65625 7 -3.65625 6.859375 -3.65625 L 0.890625 -3.65625 C 0.75 -3.65625 0.5625 -3.65625 0.5625 -3.453125 C 0.5625 -3.265625 0.75 -3.265625 0.890625 -3.265625 Z M 6.859375 -1.328125 C 7 -1.328125 7.1875 -1.328125 7.1875 -1.53125 C 7.1875 -1.71875 7 -1.71875 6.84375 -1.71875 L 0.890625 -1.71875 C 0.75 -1.71875 0.5625 -1.71875 0.5625 -1.53125 C 0.5625 -1.328125 0.75 -1.328125 0.890625 -1.328125 Z M 6.859375 -1.328125 "
           id="path7248" />
      </symbol>
      <symbol
         overflow="visible"
         id="symbol2933">
        <path
           style="stroke:none;"
           d=""
           id="path3412" />
      </symbol>
      <symbol
         overflow="visible"
         id="symbol1739">
        <path
           style="stroke:none;"
           d="M 6.5625 -2.296875 C 6.734375 -2.296875 6.921875 -2.296875 6.921875 -2.5 C 6.921875 -2.6875 6.734375 -2.6875 6.5625 -2.6875 L 1.171875 -2.6875 C 1 -2.6875 0.828125 -2.6875 0.828125 -2.5 C 0.828125 -2.296875 1 -2.296875 1.171875 -2.296875 Z M 6.5625 -2.296875 "
           id="path5646" />
      </symbol>
      <symbol
         overflow="visible"
         id="symbol8842">
        <path
           style="stroke:none;"
           d=""
           id="path4827" />
      </symbol>
      <symbol
         overflow="visible"
         id="symbol5274">
        <path
           style="stroke:none;"
           d="M 0.453125 1.21875 C 0.375 1.5625 0.34375 1.625 -0.09375 1.625 C -0.203125 1.625 -0.3125 1.625 -0.3125 1.8125 C -0.3125 1.890625 -0.265625 1.9375 -0.1875 1.9375 C 0.078125 1.9375 0.375 1.90625 0.640625 1.90625 C 0.984375 1.90625 1.3125 1.9375 1.640625 1.9375 C 1.6875 1.9375 1.8125 1.9375 1.8125 1.734375 C 1.8125 1.625 1.71875 1.625 1.578125 1.625 C 1.078125 1.625 1.078125 1.5625 1.078125 1.46875 C 1.078125 1.34375 1.5 -0.28125 1.5625 -0.53125 C 1.6875 -0.234375 1.96875 0.109375 2.484375 0.109375 C 3.640625 0.109375 4.890625 -1.34375 4.890625 -2.8125 C 4.890625 -3.75 4.3125 -4.40625 3.5625 -4.40625 C 3.0625 -4.40625 2.578125 -4.046875 2.25 -3.65625 C 2.15625 -4.203125 1.71875 -4.40625 1.359375 -4.40625 C 0.890625 -4.40625 0.703125 -4.015625 0.625 -3.84375 C 0.4375 -3.5 0.3125 -2.90625 0.3125 -2.875 C 0.3125 -2.765625 0.40625 -2.765625 0.421875 -2.765625 C 0.53125 -2.765625 0.53125 -2.78125 0.59375 -3 C 0.765625 -3.703125 0.96875 -4.1875 1.328125 -4.1875 C 1.5 -4.1875 1.640625 -4.109375 1.640625 -3.734375 C 1.640625 -3.5 1.609375 -3.390625 1.5625 -3.21875 Z M 2.203125 -3.109375 C 2.265625 -3.375 2.546875 -3.65625 2.71875 -3.8125 C 3.078125 -4.109375 3.359375 -4.1875 3.53125 -4.1875 C 3.921875 -4.1875 4.171875 -3.84375 4.171875 -3.25 C 4.171875 -2.65625 3.84375 -1.515625 3.65625 -1.140625 C 3.3125 -0.4375 2.84375 -0.109375 2.46875 -0.109375 C 1.8125 -0.109375 1.6875 -0.9375 1.6875 -1 C 1.6875 -1.015625 1.6875 -1.03125 1.71875 -1.15625 Z M 2.203125 -3.109375 "
           id="path4245" />
      </symbol>
      <symbol
         overflow="visible"
         id="symbol5478">
        <path
           style="stroke:none;"
           d="M 4.375 -7.09375 C 4.421875 -7.234375 4.421875 -7.265625 4.421875 -7.28125 C 4.421875 -7.390625 4.34375 -7.484375 4.234375 -7.484375 C 4.15625 -7.484375 4.09375 -7.453125 4.0625 -7.390625 L 0.59375 2.109375 C 0.546875 2.25 0.546875 2.28125 0.546875 2.296875 C 0.546875 2.40625 0.640625 2.5 0.75 2.5 C 0.875 2.5 0.90625 2.421875 0.96875 2.25 Z M 4.375 -7.09375 "
           id="path1909" />
      </symbol>
      <symbol
         overflow="visible"
         id="symbol2954">
        <path
           style="stroke:none;"
           d=""
           id="path7608" />
      </symbol>
      <symbol
         overflow="visible"
         id="symbol8010">
        <path
           style="stroke:none;"
           d="M 2.328125 -4.4375 C 2.328125 -4.625 2.328125 -4.625 2.125 -4.625 C 1.671875 -4.1875 1.046875 -4.1875 0.765625 -4.1875 L 0.765625 -3.9375 C 0.921875 -3.9375 1.390625 -3.9375 1.765625 -4.125 L 1.765625 -0.578125 C 1.765625 -0.34375 1.765625 -0.25 1.078125 -0.25 L 0.8125 -0.25 L 0.8125 0 C 0.9375 0 1.796875 -0.03125 2.046875 -0.03125 C 2.265625 -0.03125 3.140625 0 3.296875 0 L 3.296875 -0.25 L 3.03125 -0.25 C 2.328125 -0.25 2.328125 -0.34375 2.328125 -0.578125 Z M 2.328125 -4.4375 "
           id="path1261" />
      </symbol>
      <symbol
         overflow="visible"
         id="symbol3971">
        <path
           style="stroke:none;"
           d="M 3.515625 -1.265625 L 3.28125 -1.265625 C 3.265625 -1.109375 3.1875 -0.703125 3.09375 -0.640625 C 3.046875 -0.59375 2.515625 -0.59375 2.40625 -0.59375 L 1.125 -0.59375 C 1.859375 -1.234375 2.109375 -1.4375 2.515625 -1.765625 C 3.03125 -2.171875 3.515625 -2.609375 3.515625 -3.265625 C 3.515625 -4.109375 2.78125 -4.625 1.890625 -4.625 C 1.03125 -4.625 0.4375 -4.015625 0.4375 -3.375 C 0.4375 -3.03125 0.734375 -2.984375 0.8125 -2.984375 C 0.96875 -2.984375 1.171875 -3.109375 1.171875 -3.359375 C 1.171875 -3.484375 1.125 -3.734375 0.765625 -3.734375 C 0.984375 -4.21875 1.453125 -4.375 1.78125 -4.375 C 2.484375 -4.375 2.84375 -3.828125 2.84375 -3.265625 C 2.84375 -2.65625 2.40625 -2.1875 2.1875 -1.9375 L 0.515625 -0.265625 C 0.4375 -0.203125 0.4375 -0.1875 0.4375 0 L 3.3125 0 Z M 3.515625 -1.265625 "
           id="path66" />
      </symbol>
    </g>
    <g
       id="g5066">
      <symbol
         overflow="visible"
         id="symbol235">
        <path
           style="stroke:none;"
           d=""
           id="path9639" />
      </symbol>
      <symbol
         overflow="visible"
         id="symbol2401">
        <path
           style="stroke:none;"
           d="M 3.296875 2.390625 C 3.296875 2.359375 3.296875 2.34375 3.125 2.171875 C 1.890625 0.921875 1.5625 -0.96875 1.5625 -2.5 C 1.5625 -4.234375 1.9375 -5.96875 3.171875 -7.203125 C 3.296875 -7.328125 3.296875 -7.34375 3.296875 -7.375 C 3.296875 -7.453125 3.265625 -7.484375 3.203125 -7.484375 C 3.09375 -7.484375 2.203125 -6.796875 1.609375 -5.53125 C 1.109375 -4.4375 0.984375 -3.328125 0.984375 -2.5 C 0.984375 -1.71875 1.09375 -0.515625 1.640625 0.625 C 2.25 1.84375 3.09375 2.5 3.203125 2.5 C 3.265625 2.5 3.296875 2.46875 3.296875 2.390625 Z M 3.296875 2.390625 "
           id="path4718" />
      </symbol>
      <symbol
         overflow="visible"
         id="symbol4939">
        <path
           style="stroke:none;"
           d="M 2.875 -2.5 C 2.875 -3.265625 2.765625 -4.46875 2.21875 -5.609375 C 1.625 -6.828125 0.765625 -7.484375 0.671875 -7.484375 C 0.609375 -7.484375 0.5625 -7.4375 0.5625 -7.375 C 0.5625 -7.34375 0.5625 -7.328125 0.75 -7.140625 C 1.734375 -6.15625 2.296875 -4.578125 2.296875 -2.5 C 2.296875 -0.78125 1.9375 0.96875 0.703125 2.21875 C 0.5625 2.34375 0.5625 2.359375 0.5625 2.390625 C 0.5625 2.453125 0.609375 2.5 0.671875 2.5 C 0.765625 2.5 1.671875 1.8125 2.25 0.546875 C 2.765625 -0.546875 2.875 -1.65625 2.875 -2.5 Z M 2.875 -2.5 "
           id="path8132" />
      </symbol>
      <symbol
         overflow="visible"
         id="symbol9661">
        <path
           style="stroke:none;"
           d=""
           id="path217" />
      </symbol>
      <symbol
         overflow="visible"
         id="symbol4195">
        <path
           style="stroke:none;"
           d="M 0.453125 1.21875 C 0.375 1.5625 0.34375 1.625 -0.09375 1.625 C -0.203125 1.625 -0.3125 1.625 -0.3125 1.8125 C -0.3125 1.890625 -0.265625 1.9375 -0.1875 1.9375 C 0.078125 1.9375 0.375 1.90625 0.640625 1.90625 C 0.984375 1.90625 1.3125 1.9375 1.640625 1.9375 C 1.6875 1.9375 1.8125 1.9375 1.8125 1.734375 C 1.8125 1.625 1.71875 1.625 1.578125 1.625 C 1.078125 1.625 1.078125 1.5625 1.078125 1.46875 C 1.078125 1.34375 1.5 -0.28125 1.5625 -0.53125 C 1.6875 -0.234375 1.96875 0.109375 2.484375 0.109375 C 3.640625 0.109375 4.890625 -1.34375 4.890625 -2.8125 C 4.890625 -3.75 4.3125 -4.40625 3.5625 -4.40625 C 3.0625 -4.40625 2.578125 -4.046875 2.25 -3.65625 C 2.15625 -4.203125 1.71875 -4.40625 1.359375 -4.40625 C 0.890625 -4.40625 0.703125 -4.015625 0.625 -3.84375 C 0.4375 -3.5 0.3125 -2.90625 0.3125 -2.875 C 0.3125 -2.765625 0.40625 -2.765625 0.421875 -2.765625 C 0.53125 -2.765625 0.53125 -2.78125 0.59375 -3 C 0.765625 -3.703125 0.96875 -4.1875 1.328125 -4.1875 C 1.5 -4.1875 1.640625 -4.109375 1.640625 -3.734375 C 1.640625 -3.5 1.609375 -3.390625 1.5625 -3.21875 Z M 2.203125 -3.109375 C 2.265625 -3.375 2.546875 -3.65625 2.71875 -3.8125 C 3.078125 -4.109375 3.359375 -4.1875 3.53125 -4.1875 C 3.921875 -4.1875 4.171875 -3.84375 4.171875 -3.25 C 4.171875 -2.65625 3.84375 -1.515625 3.65625 -1.140625 C 3.3125 -0.4375 2.84375 -0.109375 2.46875 -0.109375 C 1.8125 -0.109375 1.6875 -0.9375 1.6875 -1 C 1.6875 -1.015625 1.6875 -1.03125 1.71875 -1.15625 Z M 2.203125 -3.109375 "
           id="path5314" />
      </symbol>
      <symbol
         overflow="visible"
         id="symbol9286">
        <path
           style="stroke:none;"
           d="M 4.375 -7.09375 C 4.421875 -7.234375 4.421875 -7.265625 4.421875 -7.28125 C 4.421875 -7.390625 4.34375 -7.484375 4.234375 -7.484375 C 4.15625 -7.484375 4.09375 -7.453125 4.0625 -7.390625 L 0.59375 2.109375 C 0.546875 2.25 0.546875 2.28125 0.546875 2.296875 C 0.546875 2.40625 0.640625 2.5 0.75 2.5 C 0.875 2.5 0.90625 2.421875 0.96875 2.25 Z M 4.375 -7.09375 "
           id="path3200" />
      </symbol>
      <symbol
         overflow="visible"
         id="symbol9871">
        <path
           style="stroke:none;"
           d=""
           id="path1086" />
      </symbol>
      <symbol
         overflow="visible"
         id="symbol5886">
        <path
           style="stroke:none;"
           d="M 2.328125 -4.4375 C 2.328125 -4.625 2.328125 -4.625 2.125 -4.625 C 1.671875 -4.1875 1.046875 -4.1875 0.765625 -4.1875 L 0.765625 -3.9375 C 0.921875 -3.9375 1.390625 -3.9375 1.765625 -4.125 L 1.765625 -0.578125 C 1.765625 -0.34375 1.765625 -0.25 1.078125 -0.25 L 0.8125 -0.25 L 0.8125 0 C 0.9375 0 1.796875 -0.03125 2.046875 -0.03125 C 2.265625 -0.03125 3.140625 0 3.296875 0 L 3.296875 -0.25 L 3.03125 -0.25 C 2.328125 -0.25 2.328125 -0.34375 2.328125 -0.578125 Z M 2.328125 -4.4375 "
           id="path3559" />
      </symbol>
      <symbol
         overflow="visible"
         id="symbol806">
        <path
           style="stroke:none;"
           d="M 3.515625 -1.265625 L 3.28125 -1.265625 C 3.265625 -1.109375 3.1875 -0.703125 3.09375 -0.640625 C 3.046875 -0.59375 2.515625 -0.59375 2.40625 -0.59375 L 1.125 -0.59375 C 1.859375 -1.234375 2.109375 -1.4375 2.515625 -1.765625 C 3.03125 -2.171875 3.515625 -2.609375 3.515625 -3.265625 C 3.515625 -4.109375 2.78125 -4.625 1.890625 -4.625 C 1.03125 -4.625 0.4375 -4.015625 0.4375 -3.375 C 0.4375 -3.03125 0.734375 -2.984375 0.8125 -2.984375 C 0.96875 -2.984375 1.171875 -3.109375 1.171875 -3.359375 C 1.171875 -3.484375 1.125 -3.734375 0.765625 -3.734375 C 0.984375 -4.21875 1.453125 -4.375 1.78125 -4.375 C 2.484375 -4.375 2.84375 -3.828125 2.84375 -3.265625 C 2.84375 -2.65625 2.40625 -2.1875 2.1875 -1.9375 L 0.515625 -0.265625 C 0.4375 -0.203125 0.4375 -0.1875 0.4375 0 L 3.3125 0 Z M 3.515625 -1.265625 "
           id="path1102" />
      </symbol>
      <symbol
         overflow="visible"
         id="symbol8782">
        <path
           style="stroke:none;"
           d=""
           id="path5655" />
      </symbol>
      <symbol
         overflow="visible"
         id="symbol8380">
        <path
           style="stroke:none;"
           d="M 7.21875 -3.9375 L 7.34375 -4.125 C 7.484375 -4.3125 7.65625 -4.484375 8 -4.515625 C 8.078125 -4.515625 8.15625 -4.515625 8.15625 -4.65625 C 8.15625 -4.703125 8.125 -4.765625 8.0625 -4.765625 C 7.90625 -4.765625 7.703125 -4.734375 7.53125 -4.734375 C 7.296875 -4.734375 6.984375 -4.765625 6.765625 -4.765625 C 6.71875 -4.765625 6.609375 -4.765625 6.609375 -4.609375 C 6.609375 -4.515625 6.703125 -4.515625 6.734375 -4.515625 C 6.890625 -4.5 7.125 -4.453125 7.125 -4.265625 C 7.125 -4.1875 7.046875 -4.0625 7.015625 -4.015625 L 5.046875 -0.78125 L 4.671875 -4.3125 C 4.671875 -4.5 5.078125 -4.515625 5.15625 -4.515625 C 5.25 -4.515625 5.34375 -4.515625 5.34375 -4.65625 C 5.34375 -4.671875 5.34375 -4.765625 5.21875 -4.765625 C 5.09375 -4.765625 4.921875 -4.75 4.796875 -4.734375 C 4.65625 -4.734375 4.46875 -4.734375 4.328125 -4.734375 C 4.171875 -4.734375 3.765625 -4.765625 3.609375 -4.765625 C 3.5625 -4.765625 3.46875 -4.765625 3.46875 -4.609375 C 3.46875 -4.515625 3.546875 -4.515625 3.640625 -4.515625 C 3.9375 -4.515625 3.984375 -4.453125 4 -4.390625 C 4 -4.34375 4.015625 -4.15625 4.046875 -3.9375 L 2.125 -0.78125 L 1.765625 -4.203125 C 1.765625 -4.234375 1.75 -4.296875 1.75 -4.3125 C 1.75 -4.515625 2.1875 -4.515625 2.234375 -4.515625 C 2.328125 -4.515625 2.421875 -4.515625 2.421875 -4.65625 C 2.421875 -4.6875 2.40625 -4.765625 2.3125 -4.765625 C 2.109375 -4.765625 1.609375 -4.734375 1.421875 -4.734375 C 1.1875 -4.734375 0.890625 -4.765625 0.6875 -4.765625 C 0.609375 -4.765625 0.546875 -4.734375 0.546875 -4.609375 C 0.546875 -4.515625 0.625 -4.515625 0.734375 -4.515625 C 1.0625 -4.515625 1.0625 -4.46875 1.09375 -4.296875 L 1.546875 -0.046875 C 1.5625 0.09375 1.578125 0.140625 1.703125 0.140625 C 1.8125 0.140625 1.875 0.078125 1.90625 0 L 4.078125 -3.578125 L 4.46875 -0.046875 C 4.484375 0.109375 4.515625 0.140625 4.625 0.140625 C 4.734375 0.140625 4.78125 0.078125 4.828125 0 Z M 7.21875 -3.9375 "
           id="path3427" />
      </symbol>
    </g>
    <g
       id="g9825">
      <symbol
         overflow="visible"
         id="symbol5232">
        <path
           style="stroke:none;"
           d=""
           id="path7653" />
      </symbol>
      <symbol
         overflow="visible"
         id="symbol3504">
        <path
           style="stroke:none;"
           d="M 4.84375 -3.796875 C 4.890625 -3.9375 4.890625 -3.953125 4.890625 -4.03125 C 4.890625 -4.203125 4.75 -4.296875 4.59375 -4.296875 C 4.5 -4.296875 4.34375 -4.234375 4.25 -4.09375 C 4.234375 -4.03125 4.140625 -3.734375 4.109375 -3.546875 C 4.03125 -3.296875 3.96875 -3.015625 3.90625 -2.75 L 3.453125 -0.953125 C 3.421875 -0.8125 2.984375 -0.109375 2.328125 -0.109375 C 1.828125 -0.109375 1.71875 -0.546875 1.71875 -0.921875 C 1.71875 -1.375 1.890625 -2 2.21875 -2.875 C 2.375 -3.28125 2.421875 -3.390625 2.421875 -3.59375 C 2.421875 -4.03125 2.109375 -4.40625 1.609375 -4.40625 C 0.65625 -4.40625 0.296875 -2.953125 0.296875 -2.875 C 0.296875 -2.765625 0.390625 -2.765625 0.40625 -2.765625 C 0.515625 -2.765625 0.515625 -2.796875 0.5625 -2.953125 C 0.84375 -3.890625 1.234375 -4.1875 1.578125 -4.1875 C 1.65625 -4.1875 1.828125 -4.1875 1.828125 -3.875 C 1.828125 -3.625 1.71875 -3.359375 1.65625 -3.171875 C 1.25 -2.109375 1.078125 -1.546875 1.078125 -1.078125 C 1.078125 -0.1875 1.703125 0.109375 2.296875 0.109375 C 2.6875 0.109375 3.015625 -0.0625 3.296875 -0.34375 C 3.171875 0.171875 3.046875 0.671875 2.65625 1.203125 C 2.390625 1.53125 2.015625 1.828125 1.5625 1.828125 C 1.421875 1.828125 0.96875 1.796875 0.796875 1.40625 C 0.953125 1.40625 1.09375 1.40625 1.21875 1.28125 C 1.328125 1.203125 1.421875 1.0625 1.421875 0.875 C 1.421875 0.5625 1.15625 0.53125 1.0625 0.53125 C 0.828125 0.53125 0.5 0.6875 0.5 1.171875 C 0.5 1.671875 0.9375 2.046875 1.5625 2.046875 C 2.578125 2.046875 3.609375 1.140625 3.890625 0.015625 Z M 4.84375 -3.796875 "
           id="path1754" />
      </symbol>
      <symbol
         overflow="visible"
         id="symbol7858">
        <path
           style="stroke:none;"
           d=""
           id="path3957" />
      </symbol>
      <symbol
         overflow="visible"
         id="symbol9708">
        <path
           style="stroke:none;"
           d="M 5.859375 -4.1875 C 5.921875 -4.453125 5.9375 -4.515625 6.453125 -4.515625 C 6.609375 -4.515625 6.6875 -4.515625 6.6875 -4.65625 C 6.6875 -4.6875 6.671875 -4.765625 6.578125 -4.765625 C 6.375 -4.765625 5.875 -4.734375 5.671875 -4.734375 C 5.546875 -4.734375 5.296875 -4.734375 5.1875 -4.734375 C 5.046875 -4.75 4.875 -4.765625 4.75 -4.765625 C 4.703125 -4.765625 4.59375 -4.765625 4.59375 -4.609375 C 4.59375 -4.515625 4.6875 -4.515625 4.828125 -4.515625 C 4.828125 -4.515625 4.96875 -4.515625 5.09375 -4.5 C 5.234375 -4.484375 5.25 -4.46875 5.25 -4.390625 C 5.25 -4.390625 5.25 -4.34375 5.21875 -4.25 L 4.8125 -2.59375 L 2.46875 -2.59375 L 2.875 -4.21875 C 2.9375 -4.453125 2.953125 -4.515625 3.484375 -4.515625 C 3.609375 -4.515625 3.703125 -4.515625 3.703125 -4.65625 C 3.703125 -4.6875 3.671875 -4.765625 3.59375 -4.765625 C 3.390625 -4.765625 2.875 -4.734375 2.671875 -4.734375 C 2.5625 -4.734375 2.3125 -4.734375 2.1875 -4.734375 C 2.0625 -4.75 1.890625 -4.765625 1.75 -4.765625 C 1.71875 -4.765625 1.609375 -4.765625 1.609375 -4.609375 C 1.609375 -4.515625 1.6875 -4.515625 1.828125 -4.515625 C 1.84375 -4.515625 1.96875 -4.515625 2.09375 -4.5 C 2.25 -4.484375 2.265625 -4.46875 2.265625 -4.390625 C 2.265625 -4.390625 2.265625 -4.34375 2.234375 -4.25 L 1.296875 -0.546875 C 1.25 -0.3125 1.234375 -0.25 0.6875 -0.25 C 0.578125 -0.25 0.484375 -0.25 0.484375 -0.109375 C 0.484375 -0.03125 0.53125 0 0.59375 0 C 0.796875 0 1.296875 -0.03125 1.5 -0.03125 C 1.609375 -0.03125 1.859375 -0.03125 1.984375 -0.015625 C 2.125 -0.015625 2.296875 0 2.421875 0 C 2.453125 0 2.578125 0 2.578125 -0.140625 C 2.578125 -0.25 2.5 -0.25 2.34375 -0.25 C 2.234375 -0.25 2.203125 -0.25 2.078125 -0.265625 C 1.921875 -0.28125 1.921875 -0.296875 1.921875 -0.375 C 1.921875 -0.375 1.921875 -0.421875 1.953125 -0.515625 L 2.40625 -2.34375 L 4.75 -2.34375 L 4.296875 -0.546875 C 4.234375 -0.3125 4.21875 -0.25 3.671875 -0.25 C 3.5625 -0.25 3.46875 -0.25 3.46875 -0.109375 C 3.46875 -0.03125 3.515625 0 3.578125 0 C 3.78125 0 4.28125 -0.03125 4.484375 -0.03125 C 4.609375 -0.03125 4.84375 -0.03125 4.96875 -0.015625 C 5.109375 -0.015625 5.28125 0 5.421875 0 C 5.453125 0 5.5625 0 5.5625 -0.140625 C 5.5625 -0.25 5.484375 -0.25 5.328125 -0.25 C 5.21875 -0.25 5.1875 -0.25 5.0625 -0.265625 C 4.90625 -0.28125 4.90625 -0.296875 4.90625 -0.375 C 4.90625 -0.40625 4.9375 -0.484375 4.9375 -0.515625 Z M 5.859375 -4.1875 "
           id="path4232" />
      </symbol>
      <symbol
         overflow="visible"
         id="symbol6002">
        <path
           style="stroke:none;"
           d=""
           id="path5779" />
      </symbol>
      <symbol
         overflow="visible"
         id="symbol1329">
        <path
           style="stroke:none;"
           d="M 2.328125 -4.4375 C 2.328125 -4.625 2.328125 -4.625 2.125 -4.625 C 1.671875 -4.1875 1.046875 -4.1875 0.765625 -4.1875 L 0.765625 -3.9375 C 0.921875 -3.9375 1.390625 -3.9375 1.765625 -4.125 L 1.765625 -0.578125 C 1.765625 -0.34375 1.765625 -0.25 1.078125 -0.25 L 0.8125 -0.25 L 0.8125 0 C 0.9375 0 1.796875 -0.03125 2.046875 -0.03125 C 2.265625 -0.03125 3.140625 0 3.296875 0 L 3.296875 -0.25 L 3.03125 -0.25 C 2.328125 -0.25 2.328125 -0.34375 2.328125 -0.578125 Z M 2.328125 -4.4375 "
           id="path7584" />
      </symbol>
    </g>
    <g
       id="g9832">
      <symbol
         overflow="visible"
         id="symbol2343">
        <path
           style="stroke:none;"
           d=""
           id="path228" />
      </symbol>
      <symbol
         overflow="visible"
         id="symbol7606">
        <path
           style="stroke:none;"
           d="M 4.84375 -3.796875 C 4.890625 -3.9375 4.890625 -3.953125 4.890625 -4.03125 C 4.890625 -4.203125 4.75 -4.296875 4.59375 -4.296875 C 4.5 -4.296875 4.34375 -4.234375 4.25 -4.09375 C 4.234375 -4.03125 4.140625 -3.734375 4.109375 -3.546875 C 4.03125 -3.296875 3.96875 -3.015625 3.90625 -2.75 L 3.453125 -0.953125 C 3.421875 -0.8125 2.984375 -0.109375 2.328125 -0.109375 C 1.828125 -0.109375 1.71875 -0.546875 1.71875 -0.921875 C 1.71875 -1.375 1.890625 -2 2.21875 -2.875 C 2.375 -3.28125 2.421875 -3.390625 2.421875 -3.59375 C 2.421875 -4.03125 2.109375 -4.40625 1.609375 -4.40625 C 0.65625 -4.40625 0.296875 -2.953125 0.296875 -2.875 C 0.296875 -2.765625 0.390625 -2.765625 0.40625 -2.765625 C 0.515625 -2.765625 0.515625 -2.796875 0.5625 -2.953125 C 0.84375 -3.890625 1.234375 -4.1875 1.578125 -4.1875 C 1.65625 -4.1875 1.828125 -4.1875 1.828125 -3.875 C 1.828125 -3.625 1.71875 -3.359375 1.65625 -3.171875 C 1.25 -2.109375 1.078125 -1.546875 1.078125 -1.078125 C 1.078125 -0.1875 1.703125 0.109375 2.296875 0.109375 C 2.6875 0.109375 3.015625 -0.0625 3.296875 -0.34375 C 3.171875 0.171875 3.046875 0.671875 2.65625 1.203125 C 2.390625 1.53125 2.015625 1.828125 1.5625 1.828125 C 1.421875 1.828125 0.96875 1.796875 0.796875 1.40625 C 0.953125 1.40625 1.09375 1.40625 1.21875 1.28125 C 1.328125 1.203125 1.421875 1.0625 1.421875 0.875 C 1.421875 0.5625 1.15625 0.53125 1.0625 0.53125 C 0.828125 0.53125 0.5 0.6875 0.5 1.171875 C 0.5 1.671875 0.9375 2.046875 1.5625 2.046875 C 2.578125 2.046875 3.609375 1.140625 3.890625 0.015625 Z M 4.84375 -3.796875 "
           id="path7213" />
      </symbol>
      <symbol
         overflow="visible"
         id="symbol6511">
        <path
           style="stroke:none;"
           d=""
           id="path6533" />
      </symbol>
      <symbol
         overflow="visible"
         id="symbol8950">
        <path
           style="stroke:none;"
           d="M 2.390625 -2.25 L 3.125 -2.25 C 3.65625 -2.25 3.75 -2.15625 3.75 -1.9375 C 3.75 -1.828125 3.75 -1.8125 3.703125 -1.609375 C 3.6875 -1.578125 3.671875 -1.546875 3.671875 -1.53125 C 3.671875 -1.46875 3.734375 -1.421875 3.796875 -1.421875 C 3.890625 -1.421875 3.890625 -1.46875 3.9375 -1.59375 L 4.3125 -3.0625 C 4.3125 -3.09375 4.328125 -3.1875 4.328125 -3.203125 C 4.328125 -3.28125 4.28125 -3.3125 4.21875 -3.3125 C 4.125 -3.3125 4.109375 -3.265625 4.078125 -3.140625 C 3.9375 -2.59375 3.734375 -2.5 3.140625 -2.5 L 2.453125 -2.5 L 2.890625 -4.25 C 2.9375 -4.453125 2.953125 -4.484375 3.234375 -4.484375 L 4.3125 -4.484375 C 5.234375 -4.484375 5.40625 -4.265625 5.40625 -3.671875 C 5.40625 -3.453125 5.375 -3.296875 5.375 -3.25 C 5.375 -3.1875 5.40625 -3.125 5.5 -3.125 C 5.609375 -3.125 5.609375 -3.1875 5.625 -3.3125 L 5.75 -4.515625 C 5.765625 -4.734375 5.71875 -4.734375 5.546875 -4.734375 L 1.828125 -4.734375 C 1.6875 -4.734375 1.609375 -4.734375 1.609375 -4.578125 C 1.609375 -4.484375 1.6875 -4.484375 1.828125 -4.484375 C 1.828125 -4.484375 1.96875 -4.484375 2.09375 -4.46875 C 2.234375 -4.453125 2.25 -4.4375 2.25 -4.375 C 2.25 -4.328125 2.234375 -4.25 2.21875 -4.21875 L 1.3125 -0.578125 C 1.234375 -0.296875 1.234375 -0.25 0.6875 -0.25 C 0.578125 -0.25 0.484375 -0.25 0.484375 -0.109375 C 0.484375 -0.03125 0.53125 0 0.59375 0 C 0.796875 0 1.3125 -0.03125 1.515625 -0.03125 L 2.046875 -0.015625 C 2.234375 -0.015625 2.421875 0 2.59375 0 C 2.640625 0 2.75 0 2.75 -0.15625 C 2.75 -0.25 2.671875 -0.25 2.515625 -0.25 C 2.5 -0.25 2.328125 -0.25 2.140625 -0.265625 C 2 -0.28125 1.9375 -0.28125 1.9375 -0.390625 C 1.9375 -0.40625 1.9375 -0.4375 1.953125 -0.515625 Z M 2.390625 -2.25 "
           id="path7496" />
      </symbol>
      <symbol
         overflow="visible"
         id="symbol2700">
        <path
           style="stroke:none;"
           d=""
           id="path9747" />
      </symbol>
      <symbol
         overflow="visible"
         id="symbol4622">
        <path
           style="stroke:none;"
           d="M 2.328125 -4.4375 C 2.328125 -4.625 2.328125 -4.625 2.125 -4.625 C 1.671875 -4.1875 1.046875 -4.1875 0.765625 -4.1875 L 0.765625 -3.9375 C 0.921875 -3.9375 1.390625 -3.9375 1.765625 -4.125 L 1.765625 -0.578125 C 1.765625 -0.34375 1.765625 -0.25 1.078125 -0.25 L 0.8125 -0.25 L 0.8125 0 C 0.9375 0 1.796875 -0.03125 2.046875 -0.03125 C 2.265625 -0.03125 3.140625 0 3.296875 0 L 3.296875 -0.25 L 3.03125 -0.25 C 2.328125 -0.25 2.328125 -0.34375 2.328125 -0.578125 Z M 2.328125 -4.4375 "
           id="path679" />
      </symbol>
    </g>
    <g
       id="g6125">
      <symbol
         overflow="visible"
         id="symbol8665">
        <path
           style="stroke:none;"
           d=""
           id="path3833" />
      </symbol>
      <symbol
         overflow="visible"
         id="symbol5077">
        <path
           style="stroke:none;"
           d="M 4.84375 -3.796875 C 4.890625 -3.9375 4.890625 -3.953125 4.890625 -4.03125 C 4.890625 -4.203125 4.75 -4.296875 4.59375 -4.296875 C 4.5 -4.296875 4.34375 -4.234375 4.25 -4.09375 C 4.234375 -4.03125 4.140625 -3.734375 4.109375 -3.546875 C 4.03125 -3.296875 3.96875 -3.015625 3.90625 -2.75 L 3.453125 -0.953125 C 3.421875 -0.8125 2.984375 -0.109375 2.328125 -0.109375 C 1.828125 -0.109375 1.71875 -0.546875 1.71875 -0.921875 C 1.71875 -1.375 1.890625 -2 2.21875 -2.875 C 2.375 -3.28125 2.421875 -3.390625 2.421875 -3.59375 C 2.421875 -4.03125 2.109375 -4.40625 1.609375 -4.40625 C 0.65625 -4.40625 0.296875 -2.953125 0.296875 -2.875 C 0.296875 -2.765625 0.390625 -2.765625 0.40625 -2.765625 C 0.515625 -2.765625 0.515625 -2.796875 0.5625 -2.953125 C 0.84375 -3.890625 1.234375 -4.1875 1.578125 -4.1875 C 1.65625 -4.1875 1.828125 -4.1875 1.828125 -3.875 C 1.828125 -3.625 1.71875 -3.359375 1.65625 -3.171875 C 1.25 -2.109375 1.078125 -1.546875 1.078125 -1.078125 C 1.078125 -0.1875 1.703125 0.109375 2.296875 0.109375 C 2.6875 0.109375 3.015625 -0.0625 3.296875 -0.34375 C 3.171875 0.171875 3.046875 0.671875 2.65625 1.203125 C 2.390625 1.53125 2.015625 1.828125 1.5625 1.828125 C 1.421875 1.828125 0.96875 1.796875 0.796875 1.40625 C 0.953125 1.40625 1.09375 1.40625 1.21875 1.28125 C 1.328125 1.203125 1.421875 1.0625 1.421875 0.875 C 1.421875 0.5625 1.15625 0.53125 1.0625 0.53125 C 0.828125 0.53125 0.5 0.6875 0.5 1.171875 C 0.5 1.671875 0.9375 2.046875 1.5625 2.046875 C 2.578125 2.046875 3.609375 1.140625 3.890625 0.015625 Z M 4.84375 -3.796875 "
           id="path4561" />
      </symbol>
      <symbol
         overflow="visible"
         id="symbol8559">
        <path
           style="stroke:none;"
           d=""
           id="path4912" />
      </symbol>
      <symbol
         overflow="visible"
         id="symbol5028">
        <path
           style="stroke:none;"
           d="M 2.390625 -2.25 L 3.125 -2.25 C 3.65625 -2.25 3.75 -2.15625 3.75 -1.9375 C 3.75 -1.828125 3.75 -1.8125 3.703125 -1.609375 C 3.6875 -1.578125 3.671875 -1.546875 3.671875 -1.53125 C 3.671875 -1.46875 3.734375 -1.421875 3.796875 -1.421875 C 3.890625 -1.421875 3.890625 -1.46875 3.9375 -1.59375 L 4.3125 -3.0625 C 4.3125 -3.09375 4.328125 -3.1875 4.328125 -3.203125 C 4.328125 -3.28125 4.28125 -3.3125 4.21875 -3.3125 C 4.125 -3.3125 4.109375 -3.265625 4.078125 -3.140625 C 3.9375 -2.59375 3.734375 -2.5 3.140625 -2.5 L 2.453125 -2.5 L 2.890625 -4.25 C 2.9375 -4.453125 2.953125 -4.484375 3.234375 -4.484375 L 4.3125 -4.484375 C 5.234375 -4.484375 5.40625 -4.265625 5.40625 -3.671875 C 5.40625 -3.453125 5.375 -3.296875 5.375 -3.25 C 5.375 -3.1875 5.40625 -3.125 5.5 -3.125 C 5.609375 -3.125 5.609375 -3.1875 5.625 -3.3125 L 5.75 -4.515625 C 5.765625 -4.734375 5.71875 -4.734375 5.546875 -4.734375 L 1.828125 -4.734375 C 1.6875 -4.734375 1.609375 -4.734375 1.609375 -4.578125 C 1.609375 -4.484375 1.6875 -4.484375 1.828125 -4.484375 C 1.828125 -4.484375 1.96875 -4.484375 2.09375 -4.46875 C 2.234375 -4.453125 2.25 -4.4375 2.25 -4.375 C 2.25 -4.328125 2.234375 -4.25 2.21875 -4.21875 L 1.3125 -0.578125 C 1.234375 -0.296875 1.234375 -0.25 0.6875 -0.25 C 0.578125 -0.25 0.484375 -0.25 0.484375 -0.109375 C 0.484375 -0.03125 0.53125 0 0.59375 0 C 0.796875 0 1.3125 -0.03125 1.515625 -0.03125 L 2.046875 -0.015625 C 2.234375 -0.015625 2.421875 0 2.59375 0 C 2.640625 0 2.75 0 2.75 -0.15625 C 2.75 -0.25 2.671875 -0.25 2.515625 -0.25 C 2.5 -0.25 2.328125 -0.25 2.140625 -0.265625 C 2 -0.28125 1.9375 -0.28125 1.9375 -0.390625 C 1.9375 -0.40625 1.9375 -0.4375 1.953125 -0.515625 Z M 2.390625 -2.25 "
           id="path7634" />
      </symbol>
      <symbol
         overflow="visible"
         id="symbol7968">
        <path
           style="stroke:none;"
           d=""
           id="path6918" />
      </symbol>
      <symbol
         overflow="visible"
         id="symbol5821">
        <path
           style="stroke:none;"
           d="M 3.515625 -1.265625 L 3.28125 -1.265625 C 3.265625 -1.109375 3.1875 -0.703125 3.09375 -0.640625 C 3.046875 -0.59375 2.515625 -0.59375 2.40625 -0.59375 L 1.125 -0.59375 C 1.859375 -1.234375 2.109375 -1.4375 2.515625 -1.765625 C 3.03125 -2.171875 3.515625 -2.609375 3.515625 -3.265625 C 3.515625 -4.109375 2.78125 -4.625 1.890625 -4.625 C 1.03125 -4.625 0.4375 -4.015625 0.4375 -3.375 C 0.4375 -3.03125 0.734375 -2.984375 0.8125 -2.984375 C 0.96875 -2.984375 1.171875 -3.109375 1.171875 -3.359375 C 1.171875 -3.484375 1.125 -3.734375 0.765625 -3.734375 C 0.984375 -4.21875 1.453125 -4.375 1.78125 -4.375 C 2.484375 -4.375 2.84375 -3.828125 2.84375 -3.265625 C 2.84375 -2.65625 2.40625 -2.1875 2.1875 -1.9375 L 0.515625 -0.265625 C 0.4375 -0.203125 0.4375 -0.1875 0.4375 0 L 3.3125 0 Z M 3.515625 -1.265625 "
           id="path1708" />
      </symbol>
    </g>
    <g
       id="g2759">
      <symbol
         overflow="visible"
         id="symbol2735">
        <path
           style="stroke:none;"
           d=""
           id="path6896" />
      </symbol>
      <symbol
         overflow="visible"
         id="symbol8423">
        <path
           style="stroke:none;"
           d="M 4.84375 -3.796875 C 4.890625 -3.9375 4.890625 -3.953125 4.890625 -4.03125 C 4.890625 -4.203125 4.75 -4.296875 4.59375 -4.296875 C 4.5 -4.296875 4.34375 -4.234375 4.25 -4.09375 C 4.234375 -4.03125 4.140625 -3.734375 4.109375 -3.546875 C 4.03125 -3.296875 3.96875 -3.015625 3.90625 -2.75 L 3.453125 -0.953125 C 3.421875 -0.8125 2.984375 -0.109375 2.328125 -0.109375 C 1.828125 -0.109375 1.71875 -0.546875 1.71875 -0.921875 C 1.71875 -1.375 1.890625 -2 2.21875 -2.875 C 2.375 -3.28125 2.421875 -3.390625 2.421875 -3.59375 C 2.421875 -4.03125 2.109375 -4.40625 1.609375 -4.40625 C 0.65625 -4.40625 0.296875 -2.953125 0.296875 -2.875 C 0.296875 -2.765625 0.390625 -2.765625 0.40625 -2.765625 C 0.515625 -2.765625 0.515625 -2.796875 0.5625 -2.953125 C 0.84375 -3.890625 1.234375 -4.1875 1.578125 -4.1875 C 1.65625 -4.1875 1.828125 -4.1875 1.828125 -3.875 C 1.828125 -3.625 1.71875 -3.359375 1.65625 -3.171875 C 1.25 -2.109375 1.078125 -1.546875 1.078125 -1.078125 C 1.078125 -0.1875 1.703125 0.109375 2.296875 0.109375 C 2.6875 0.109375 3.015625 -0.0625 3.296875 -0.34375 C 3.171875 0.171875 3.046875 0.671875 2.65625 1.203125 C 2.390625 1.53125 2.015625 1.828125 1.5625 1.828125 C 1.421875 1.828125 0.96875 1.796875 0.796875 1.40625 C 0.953125 1.40625 1.09375 1.40625 1.21875 1.28125 C 1.328125 1.203125 1.421875 1.0625 1.421875 0.875 C 1.421875 0.5625 1.15625 0.53125 1.0625 0.53125 C 0.828125 0.53125 0.5 0.6875 0.5 1.171875 C 0.5 1.671875 0.9375 2.046875 1.5625 2.046875 C 2.578125 2.046875 3.609375 1.140625 3.890625 0.015625 Z M 4.84375 -3.796875 "
           id="path552" />
      </symbol>
      <symbol
         overflow="visible"
         id="symbol3350">
        <path
           style="stroke:none;"
           d=""
           id="path693" />
      </symbol>
      <symbol
         overflow="visible"
         id="symbol9268">
        <path
           style="stroke:none;"
           d="M 5.859375 -4.1875 C 5.921875 -4.453125 5.9375 -4.515625 6.453125 -4.515625 C 6.609375 -4.515625 6.6875 -4.515625 6.6875 -4.65625 C 6.6875 -4.6875 6.671875 -4.765625 6.578125 -4.765625 C 6.375 -4.765625 5.875 -4.734375 5.671875 -4.734375 C 5.546875 -4.734375 5.296875 -4.734375 5.1875 -4.734375 C 5.046875 -4.75 4.875 -4.765625 4.75 -4.765625 C 4.703125 -4.765625 4.59375 -4.765625 4.59375 -4.609375 C 4.59375 -4.515625 4.6875 -4.515625 4.828125 -4.515625 C 4.828125 -4.515625 4.96875 -4.515625 5.09375 -4.5 C 5.234375 -4.484375 5.25 -4.46875 5.25 -4.390625 C 5.25 -4.390625 5.25 -4.34375 5.21875 -4.25 L 4.8125 -2.59375 L 2.46875 -2.59375 L 2.875 -4.21875 C 2.9375 -4.453125 2.953125 -4.515625 3.484375 -4.515625 C 3.609375 -4.515625 3.703125 -4.515625 3.703125 -4.65625 C 3.703125 -4.6875 3.671875 -4.765625 3.59375 -4.765625 C 3.390625 -4.765625 2.875 -4.734375 2.671875 -4.734375 C 2.5625 -4.734375 2.3125 -4.734375 2.1875 -4.734375 C 2.0625 -4.75 1.890625 -4.765625 1.75 -4.765625 C 1.71875 -4.765625 1.609375 -4.765625 1.609375 -4.609375 C 1.609375 -4.515625 1.6875 -4.515625 1.828125 -4.515625 C 1.84375 -4.515625 1.96875 -4.515625 2.09375 -4.5 C 2.25 -4.484375 2.265625 -4.46875 2.265625 -4.390625 C 2.265625 -4.390625 2.265625 -4.34375 2.234375 -4.25 L 1.296875 -0.546875 C 1.25 -0.3125 1.234375 -0.25 0.6875 -0.25 C 0.578125 -0.25 0.484375 -0.25 0.484375 -0.109375 C 0.484375 -0.03125 0.53125 0 0.59375 0 C 0.796875 0 1.296875 -0.03125 1.5 -0.03125 C 1.609375 -0.03125 1.859375 -0.03125 1.984375 -0.015625 C 2.125 -0.015625 2.296875 0 2.421875 0 C 2.453125 0 2.578125 0 2.578125 -0.140625 C 2.578125 -0.25 2.5 -0.25 2.34375 -0.25 C 2.234375 -0.25 2.203125 -0.25 2.078125 -0.265625 C 1.921875 -0.28125 1.921875 -0.296875 1.921875 -0.375 C 1.921875 -0.375 1.921875 -0.421875 1.953125 -0.515625 L 2.40625 -2.34375 L 4.75 -2.34375 L 4.296875 -0.546875 C 4.234375 -0.3125 4.21875 -0.25 3.671875 -0.25 C 3.5625 -0.25 3.46875 -0.25 3.46875 -0.109375 C 3.46875 -0.03125 3.515625 0 3.578125 0 C 3.78125 0 4.28125 -0.03125 4.484375 -0.03125 C 4.609375 -0.03125 4.84375 -0.03125 4.96875 -0.015625 C 5.109375 -0.015625 5.28125 0 5.421875 0 C 5.453125 0 5.5625 0 5.5625 -0.140625 C 5.5625 -0.25 5.484375 -0.25 5.328125 -0.25 C 5.21875 -0.25 5.1875 -0.25 5.0625 -0.265625 C 4.90625 -0.28125 4.90625 -0.296875 4.90625 -0.375 C 4.90625 -0.40625 4.9375 -0.484375 4.9375 -0.515625 Z M 5.859375 -4.1875 "
           id="path1154" />
      </symbol>
      <symbol
         overflow="visible"
         id="symbol6554">
        <path
           style="stroke:none;"
           d=""
           id="path5213" />
      </symbol>
      <symbol
         overflow="visible"
         id="symbol1230">
        <path
           style="stroke:none;"
           d="M 3.515625 -1.265625 L 3.28125 -1.265625 C 3.265625 -1.109375 3.1875 -0.703125 3.09375 -0.640625 C 3.046875 -0.59375 2.515625 -0.59375 2.40625 -0.59375 L 1.125 -0.59375 C 1.859375 -1.234375 2.109375 -1.4375 2.515625 -1.765625 C 3.03125 -2.171875 3.515625 -2.609375 3.515625 -3.265625 C 3.515625 -4.109375 2.78125 -4.625 1.890625 -4.625 C 1.03125 -4.625 0.4375 -4.015625 0.4375 -3.375 C 0.4375 -3.03125 0.734375 -2.984375 0.8125 -2.984375 C 0.96875 -2.984375 1.171875 -3.109375 1.171875 -3.359375 C 1.171875 -3.484375 1.125 -3.734375 0.765625 -3.734375 C 0.984375 -4.21875 1.453125 -4.375 1.78125 -4.375 C 2.484375 -4.375 2.84375 -3.828125 2.84375 -3.265625 C 2.84375 -2.65625 2.40625 -2.1875 2.1875 -1.9375 L 0.515625 -0.265625 C 0.4375 -0.203125 0.4375 -0.1875 0.4375 0 L 3.3125 0 Z M 3.515625 -1.265625 "
           id="path19" />
      </symbol>
    </g>
  </defs>
  <metadata
     id="metadata5">
    <rdf:RDF>
      <cc:Work
         rdf:about="">
        <dc:format>image/svg+xml</dc:format>
        <dc:type
           rdf:resource="http://purl.org/dc/dcmitype/StillImage" />
        <dc:title></dc:title>
      </cc:Work>
    </rdf:RDF>
  </metadata>
  <g
     inkscape:label="Layer 1"
     inkscape:groupmode="layer"
     id="layer1"
     transform="translate(0,-87)">
    <path
       style="fill:none;stroke:#000000;stroke-width:1.06500006;stroke-linecap:butt;stroke-linejoin:miter;stroke-miterlimit:4;stroke-dasharray:none;stroke-opacity:1"
       d="m 133.44827,137.68024 0.19893,95.28657 89.72923,0.0145"
       id="path3713-3"
       inkscape:connector-curvature="0"
       sodipodi:nodetypes="ccc" />
    <g
       id="g7674"
       transform="matrix(0.74831119,0,0,0.85597851,163.32933,147.99167)">
      <g
         id="content"
         transform="matrix(0.3,0,0,-0.3,-52.5,222.75)"
         xml:space="preserve"
         stroke-miterlimit="10.433"
         font-style="normal"
         font-variant="normal"
         font-weight="normal"
         font-stretch="normal"
         font-size-adjust="none"
         letter-spacing="normal"
         word-spacing="normal"
         style="font-style:normal;font-variant:normal;font-weight:normal;font-stretch:normal;letter-spacing:normal;word-spacing:normal;text-anchor:start;fill:none;fill-opacity:1;fill-rule:evenodd;stroke:#000000;stroke-linecap:butt;stroke-linejoin:miter;stroke-miterlimit:10.43299961;stroke-dasharray:none;stroke-dashoffset:0;stroke-opacity:1"><path
           d="m 479.74,425.18 0.01,0.04 0.01,0.03 0.01,0.06 0.02,0.05 0.01,0.06 0.01,0.05 0.02,0.04 0.01,0.05 0.01,0.04 0.01,0.04 v 0.04 l 0.01,0.04 0.01,0.04 0.01,0.03 v 0.03 l 0.01,0.03 v 0.03 l 0.01,0.03 v 0.03 l 0.01,0.05 v 0.06 0.05 0.05 l 0.01,0.05 v 0.03 0.03 0.03 0.03 c 0,0.91 -0.69,1.35 -1.44,1.35 -0.5,0 -1.3,-0.3 -1.75,-1.05 -0.1,-0.25 -0.5,-1.78 -0.69,-2.69 -0.36,-1.29 -0.7,-2.64 -1,-3.98 l -2.25,-8.97 c -0.19,-0.75 -2.33,-4.23 -5.62,-4.23 -2.54,0 -3.1,2.18 -3.1,4.03 0,2.29 0.86,5.39 2.55,9.76 0.8,2.05 1,2.6 1,3.6 0,2.23 -1.59,4.07 -4.09,4.07 -4.74,0 -6.58,-7.21 -6.58,-7.67 0,-0.5 0.5,-0.5 0.61,-0.5 0.5,0 0.54,0.11 0.79,0.91 1.35,4.69 3.33,6.17 5.03,6.17 0.4,0 1.25,0 1.25,-1.59 0,-1.25 -0.5,-2.53 -0.85,-3.49 -1.99,-5.28 -2.9,-8.12 -2.9,-10.47 0,-4.42 3.15,-5.92 6.08,-5.92 1.96,0 3.64,0.85 5.03,2.24 -0.64,-2.58 -1.23,-5.03 -3.23,-7.68 -1.3,-1.68 -3.19,-3.14 -5.48,-3.14 -0.69,0 -2.94,0.16 -3.79,2.1 0.8,0 1.46,0 2.14,0.61 0.5,0.43 1,1.09 1,2.03 0,1.55 -1.34,1.75 -1.84,1.75 -1.14,0 -2.8,-0.8 -2.8,-3.24 0,-2.5 2.21,-4.34 5.29,-4.34 5.14,0 10.26,4.55 11.67,10.17 z"
           id="path7669"
           inkscape:connector-curvature="0"
           style="fill:#000000;stroke-width:0" /><path
           d="m 491.67,420.92 v 0.04 0.04 0.05 0.04 0.03 0.04 0.04 0.03 0.04 l -0.01,0.03 v 0.03 0.03 0.03 l -0.01,0.03 v 0.03 0.02 l -0.01,0.03 v 0.02 l -0.01,0.03 v 0.02 l -0.02,0.04 -0.01,0.04 -0.02,0.03 -0.02,0.03 -0.02,0.03 -0.02,0.03 -0.03,0.02 -0.03,0.02 -0.03,0.02 -0.04,0.01 -0.04,0.01 -0.05,0.02 h -0.02 -0.02 l -0.03,0.01 h -0.03 l -0.02,0.01 h -0.03 -0.03 -0.03 -0.03 l -0.04,0.01 h -0.03 -0.04 -0.03 -0.04 -0.04 -0.04 -0.04 -0.05 -0.04 -0.05 c -2.23,-2.2 -5.39,-2.23 -6.82,-2.23 v -1.25 c 0.84,0 3.14,0 5.04,0.97 v -17.77 c 0,-1.16 0,-1.61 -3.48,-1.61 h -1.31 v -1.25 c 0.62,0.03 4.9,0.14 6.2,0.14 1.08,0 5.47,-0.11 6.23,-0.14 v 1.25 h -1.32 c -3.49,0 -3.49,0.45 -3.49,1.61 z"
           id="path7671"
           inkscape:connector-curvature="0"
           style="fill:#000000;stroke-width:0" /></g>
    </g>
    <g
       id="g7708"
       transform="matrix(0.77150811,0,0,0.87655301,62.877564,43.584172)">
      <g
         word-spacing="normal"
         letter-spacing="normal"
         font-size-adjust="none"
         font-stretch="normal"
         font-weight="normal"
         font-variant="normal"
         font-style="normal"
         stroke-miterlimit="10.433"
         xml:space="preserve"
         transform="matrix(0.3,0,0,-0.3,-52.5,222.75)"
         id="g7706"
         style="font-style:normal;font-variant:normal;font-weight:normal;font-stretch:normal;letter-spacing:normal;word-spacing:normal;text-anchor:start;fill:none;fill-opacity:1;fill-rule:evenodd;stroke:#000000;stroke-linecap:butt;stroke-linejoin:miter;stroke-miterlimit:10.43299961;stroke-dasharray:none;stroke-dashoffset:0;stroke-opacity:1"><path
           id="path7702"
           d="m 479.74,425.18 0.01,0.04 0.01,0.03 0.01,0.06 0.02,0.05 0.01,0.06 0.01,0.05 0.02,0.04 0.01,0.05 0.01,0.04 0.01,0.04 v 0.04 l 0.01,0.04 0.01,0.04 0.01,0.03 v 0.03 l 0.01,0.03 v 0.03 l 0.01,0.03 v 0.03 l 0.01,0.05 v 0.06 0.05 0.05 l 0.01,0.05 v 0.03 0.03 0.03 0.03 c 0,0.91 -0.69,1.35 -1.44,1.35 -0.5,0 -1.3,-0.3 -1.75,-1.05 -0.1,-0.25 -0.5,-1.78 -0.69,-2.69 -0.36,-1.29 -0.7,-2.64 -1,-3.98 l -2.25,-8.97 c -0.19,-0.75 -2.33,-4.23 -5.62,-4.23 -2.54,0 -3.1,2.18 -3.1,4.03 0,2.29 0.86,5.39 2.55,9.76 0.8,2.05 1,2.6 1,3.6 0,2.23 -1.59,4.07 -4.09,4.07 -4.74,0 -6.58,-7.21 -6.58,-7.67 0,-0.5 0.5,-0.5 0.61,-0.5 0.5,0 0.54,0.11 0.79,0.91 1.35,4.69 3.33,6.17 5.03,6.17 0.4,0 1.25,0 1.25,-1.59 0,-1.25 -0.5,-2.53 -0.85,-3.49 -1.99,-5.28 -2.9,-8.12 -2.9,-10.47 0,-4.42 3.15,-5.92 6.08,-5.92 1.96,0 3.64,0.85 5.03,2.24 -0.64,-2.58 -1.23,-5.03 -3.23,-7.68 -1.3,-1.68 -3.19,-3.14 -5.48,-3.14 -0.69,0 -2.94,0.16 -3.79,2.1 0.8,0 1.46,0 2.14,0.61 0.5,0.43 1,1.09 1,2.03 0,1.55 -1.34,1.75 -1.84,1.75 -1.14,0 -2.8,-0.8 -2.8,-3.24 0,-2.5 2.21,-4.34 5.29,-4.34 5.14,0 10.26,4.55 11.67,10.17 z"
           inkscape:connector-curvature="0"
           style="fill:#000000;stroke-width:0" /><path
           id="path7704"
           d="m 497.59,405.11 h -1.18 c -0.1,-0.77 -0.46,-2.83 -0.91,-3.18 -0.27,-0.2 -2.95,-0.2 -3.44,-0.2 h -6.42 c 3.66,3.23 4.88,4.2 6.97,5.84 2.58,2.07 4.98,4.22 4.98,7.54 0,4.21 -3.68,6.79 -8.15,6.79 -4.32,0 -7.25,-3.03 -7.25,-6.23 0,-1.78 1.5,-1.96 1.86,-1.96 0.83,0 1.84,0.6 1.84,1.85 0,0.62 -0.25,1.84 -2.06,1.84 1.08,2.47 3.45,3.24 5.09,3.24 3.49,0 5.3,-2.71 5.3,-5.53 0,-3.04 -2.16,-5.44 -3.28,-6.69 l -8.39,-8.3 c -0.36,-0.31 -0.36,-0.39 -0.36,-1.36 h 14.36 z"
           inkscape:connector-curvature="0"
           style="fill:#000000;stroke-width:0" /></g>
    </g>
    <path
       style="fill:none;stroke:#000000;stroke-width:0.765;stroke-linecap:butt;stroke-linejoin:miter;stroke-miterlimit:4;stroke-dasharray:none;stroke-opacity:1"
       d="m 133.38672,153.45996 c 40.34134,4.79946 44.35784,27.64994 52.35927,79.63386"
       id="path7728"
       inkscape:connector-curvature="0"
       sodipodi:nodetypes="cc" />
    <path
       style="fill:none;stroke:#000000;stroke-width:0.665;stroke-linecap:butt;stroke-linejoin:miter;stroke-miterlimit:4;stroke-dasharray:none;stroke-opacity:1"
       d="m 139.62643,144.53546 81.8238,69.87872"
       id="path852"
       sodipodi:nodetypes="cc" />
    <path
       style="fill:none;stroke:#000000;stroke-width:0.765;stroke-linecap:butt;stroke-linejoin:miter;stroke-miterlimit:4;stroke-dasharray:none;stroke-opacity:1"
       d="m 133.81754,176.45029 c 40.34134,4.79946 73.22511,4.95429 81.22654,56.93821"
       id="path7728-4"
       inkscape:connector-curvature="0"
       sodipodi:nodetypes="cc" />
    <text
       xml:space="preserve"
       id="text1049"
       style="font-size:5.64444px;line-height:1.25;font-family:sans-serif;white-space:pre;shape-inside:url(#rect1051);"
       x="7.9843469"
       y="0"
       transform="translate(135.77574,52.359265)"><tspan
         x="56.840631"
         y="167.80194"><tspan
           style="text-align:center;text-anchor:middle">Home </tspan></tspan><tspan
         x="60.074884"
         y="174.85749"><tspan
           style="text-align:center;text-anchor:middle">PPF</tspan></tspan></text>
    <text
       xml:space="preserve"
       id="text1055"
       style="font-size:5.64444px;line-height:1.25;font-family:sans-serif;white-space:pre;shape-inside:url(#rect1057);"
       x="10.194719"
       y="0"
       transform="translate(88.393589,21.700228)"><tspan
         x="69.362682"
         y="199.45623"><tspan
           style="text-align:center;text-anchor:middle">Foreign </tspan></tspan><tspan
         x="74.807306"
         y="206.51179"><tspan
           style="text-align:center;text-anchor:middle">PPF</tspan></tspan></text>
    <g
       inkscape:label=""
       transform="matrix(0.74388245,0,0,0.89021695,148.42506,134.92105)"
       id="g1167">
      <g
         id="g2010">
        <g
           style="fill:#000000;fill-opacity:1"
           id="g2941">
          <use
             xlink:href="#symbol2401"
             x="91.925003"
             y="81.962997"
             id="use8467"
             width="100%"
             height="100%" />
        </g>
        <g
           style="fill:#000000;fill-opacity:1"
           id="g5931">
          <use
             xlink:href="#symbol4195"
             x="95.800003"
             y="81.962997"
             id="use838"
             width="100%"
             height="100%" />
        </g>
        <g
           style="fill:#000000;fill-opacity:1"
           id="g306">
          <use
             xlink:href="#symbol5886"
             x="100.812"
             y="83.457001"
             id="use9253"
             width="100%"
             height="100%" />
        </g>
        <g
           style="fill:#000000;fill-opacity:1"
           id="g5161">
          <use
             xlink:href="#symbol9286"
             x="105.281"
             y="81.962997"
             id="use9717"
             width="100%"
             height="100%" />
          <use
             xlink:href="#symbol4195"
             x="110.2623"
             y="81.962997"
             id="use8996"
             width="100%"
             height="100%" />
        </g>
        <g
           style="fill:#000000;fill-opacity:1"
           id="g2181">
          <use
             xlink:href="#symbol806"
             x="115.275"
             y="83.457001"
             id="use4624"
             width="100%"
             height="100%" />
        </g>
        <g
           style="fill:#000000;fill-opacity:1"
           id="g8134">
          <use
             xlink:href="#symbol4939"
             x="119.745"
             y="81.962997"
             id="use8157"
             width="100%"
             height="100%" />
        </g>
        <g
           style="fill:#000000;fill-opacity:1"
           id="g6458">
          <use
             xlink:href="#symbol8380"
             x="123.619"
             y="78.348"
             id="use1990"
             width="100%"
             height="100%" />
        </g>
      </g>
    </g>
    <ellipse
       style="opacity:0.996444;fill:#483737;stroke:#000000;stroke-width:0.665001;stroke-miterlimit:4;stroke-dasharray:none;stroke-opacity:0.264706;paint-order:stroke fill markers"
       id="path1223"
       cx="196.79518"
       cy="193.70937"
       rx="1.493135"
       ry="1.5926772" />
    <ellipse
       style="opacity:0.996444;fill:#483737;stroke:#000000;stroke-width:0.665001;stroke-miterlimit:4;stroke-dasharray:none;stroke-opacity:0.264706;paint-order:stroke fill markers"
       id="path1223-6"
       cx="160.86041"
       cy="162.65216"
       rx="1.493135"
       ry="1.5926772" />
    <text
       xml:space="preserve"
       id="text1240"
       style="line-height:1.25;font-family:sans-serif;font-size:5.64444444px;white-space:pre;shape-inside:url(#rect1242);" />
    <path
       style="fill:none;stroke:#000000;stroke-width:0.665;stroke-linecap:butt;stroke-linejoin:miter;stroke-miterlimit:4;stroke-dasharray:0.665, 1.33;stroke-dashoffset:0;stroke-opacity:1"
       d="m 197.29289,232.53088 -0.39816,-39.02059 -62.91076,0.39817"
       id="path1246"
       sodipodi:nodetypes="ccc" />
    <path
       style="fill:none;stroke:#000000;stroke-width:0.665;stroke-linecap:butt;stroke-linejoin:miter;stroke-miterlimit:4;stroke-dasharray:0.665, 1.33;stroke-dashoffset:0;stroke-opacity:1"
       d="m 161.25858,232.53088 -0.19909,-69.87871 -27.47369,0"
       id="path1248"
       sodipodi:nodetypes="ccc" />
    <g
       inkscape:label=""
       transform="translate(99.50847,161.6823)"
       id="g1383">
      <g
         id="g1038">
        <g
           style="fill:#000000;fill-opacity:1"
           id="g4249">
          <use
             xlink:href="#symbol3504"
             x="91.925003"
             y="81.962997"
             id="use1252"
             width="100%"
             height="100%" />
        </g>
        <g
           style="fill:#000000;fill-opacity:1"
           id="g8616">
          <use
             xlink:href="#symbol9708"
             x="97.167"
             y="78.348"
             id="use8906"
             width="100%"
             height="100%" />
        </g>
        <g
           style="fill:#000000;fill-opacity:1"
           id="g7308">
          <use
             xlink:href="#symbol1329"
             x="96.809998"
             y="84.435997"
             id="use3630"
             width="100%"
             height="100%" />
        </g>
      </g>
    </g>
    <g
       inkscape:label=""
       transform="translate(63.275064,162.08047)"
       id="g1571">
      <g
         id="g3540">
        <g
           style="fill:#000000;fill-opacity:1"
           id="g2068">
          <use
             xlink:href="#symbol7606"
             x="91.925003"
             y="81.962997"
             id="use6703"
             width="100%"
             height="100%" />
        </g>
        <g
           style="fill:#000000;fill-opacity:1"
           id="g5950">
          <use
             xlink:href="#symbol8950"
             x="97.167"
             y="78.348"
             id="use3139"
             width="100%"
             height="100%" />
        </g>
        <g
           style="fill:#000000;fill-opacity:1"
           id="g2218">
          <use
             xlink:href="#symbol4622"
             x="96.809998"
             y="84.435997"
             id="use9240"
             width="100%"
             height="100%" />
        </g>
      </g>
    </g>
    <g
       inkscape:label=""
       transform="translate(28.634331,85.831042)"
       id="g1779">
      <g
         id="g1076">
        <g
           style="fill:#000000;fill-opacity:1"
           id="g7949">
          <use
             xlink:href="#symbol5077"
             x="91.925003"
             y="81.962997"
             id="use2323"
             width="100%"
             height="100%" />
        </g>
        <g
           style="fill:#000000;fill-opacity:1"
           id="g3085">
          <use
             xlink:href="#symbol5028"
             x="97.167"
             y="78.348"
             id="use9834"
             width="100%"
             height="100%" />
        </g>
        <g
           style="fill:#000000;fill-opacity:1"
           id="g821">
          <use
             xlink:href="#symbol5821"
             x="96.809998"
             y="84.435997"
             id="use4016"
             width="100%"
             height="100%" />
        </g>
      </g>
    </g>
    <g
       inkscape:label=""
       transform="translate(27.638904,116.49008)"
       id="g2008">
      <g
         id="g6670">
        <g
           style="fill:#000000;fill-opacity:1"
           id="g9218">
          <use
             xlink:href="#symbol8423"
             x="91.925003"
             y="81.962997"
             id="use9972"
             width="100%"
             height="100%" />
        </g>
        <g
           style="fill:#000000;fill-opacity:1"
           id="g8031">
          <use
             xlink:href="#symbol9268"
             x="97.167"
             y="78.348"
             id="use2680"
             width="100%"
             height="100%" />
        </g>
        <g
           style="fill:#000000;fill-opacity:1"
           id="g6229">
          <use
             xlink:href="#symbol1230"
             x="96.809998"
             y="84.435997"
             id="use1853"
             width="100%"
             height="100%" />
        </g>
      </g>
    </g>
  </g>
</svg>
