<?xml version="1.0" encoding="UTF-8" standalone="no"?>
<svg
   xmlns:dc="http://purl.org/dc/elements/1.1/"
   xmlns:cc="http://creativecommons.org/ns#"
   xmlns:rdf="http://www.w3.org/1999/02/22-rdf-syntax-ns#"
   xmlns:svg="http://www.w3.org/2000/svg"
   xmlns="http://www.w3.org/2000/svg"
   xmlns:xlink="http://www.w3.org/1999/xlink"
   xmlns:sodipodi="http://sodipodi.sourceforge.net/DTD/sodipodi-0.dtd"
   xmlns:inkscape="http://www.inkscape.org/namespaces/inkscape"
   width="297mm"
   height="210mm"
   viewBox="0 0 297 210"
   version="1.1"
   id="svg8"
   sodipodi:docname="mid_1_p.svg"
   inkscape:version="1.0.1 (3bc2e813f5, 2020-09-07)">
  <defs
     id="defs2">
    <g
       id="g2525">
      <symbol
         overflow="visible"
         id="symbol2808">
        <path
           style="stroke:none;"
           d=""
           id="path2871" />
      </symbol>
      <symbol
         overflow="visible"
         id="symbol7175">
        <path
           style="stroke:none;"
           d="M 2.046875 -3.984375 L 2.984375 -3.984375 C 3.1875 -3.984375 3.296875 -3.984375 3.296875 -4.1875 C 3.296875 -4.296875 3.1875 -4.296875 3.015625 -4.296875 L 2.140625 -4.296875 C 2.5 -5.71875 2.546875 -5.90625 2.546875 -5.96875 C 2.546875 -6.140625 2.421875 -6.234375 2.25 -6.234375 C 2.21875 -6.234375 1.9375 -6.234375 1.859375 -5.875 L 1.46875 -4.296875 L 0.53125 -4.296875 C 0.328125 -4.296875 0.234375 -4.296875 0.234375 -4.109375 C 0.234375 -3.984375 0.3125 -3.984375 0.515625 -3.984375 L 1.390625 -3.984375 C 0.671875 -1.15625 0.625 -0.984375 0.625 -0.8125 C 0.625 -0.265625 1 0.109375 1.546875 0.109375 C 2.5625 0.109375 3.125 -1.34375 3.125 -1.421875 C 3.125 -1.53125 3.046875 -1.53125 3.015625 -1.53125 C 2.921875 -1.53125 2.90625 -1.5 2.859375 -1.390625 C 2.4375 -0.34375 1.90625 -0.109375 1.5625 -0.109375 C 1.359375 -0.109375 1.25 -0.234375 1.25 -0.5625 C 1.25 -0.8125 1.28125 -0.875 1.3125 -1.046875 Z M 2.046875 -3.984375 "
           id="path9474" />
      </symbol>
    </g>
    <g
       id="g7325">
      <symbol
         overflow="visible"
         id="symbol8261">
        <path
           style="stroke:none;"
           d=""
           id="path74" />
      </symbol>
      <symbol
         overflow="visible"
         id="symbol9325">
        <path
           style="stroke:none;"
           d="M 0.453125 1.21875 C 0.375 1.5625 0.34375 1.625 -0.09375 1.625 C -0.203125 1.625 -0.3125 1.625 -0.3125 1.8125 C -0.3125 1.890625 -0.265625 1.9375 -0.1875 1.9375 C 0.078125 1.9375 0.375 1.90625 0.640625 1.90625 C 0.984375 1.90625 1.3125 1.9375 1.640625 1.9375 C 1.6875 1.9375 1.8125 1.9375 1.8125 1.734375 C 1.8125 1.625 1.71875 1.625 1.578125 1.625 C 1.078125 1.625 1.078125 1.5625 1.078125 1.46875 C 1.078125 1.34375 1.5 -0.28125 1.5625 -0.53125 C 1.6875 -0.234375 1.96875 0.109375 2.484375 0.109375 C 3.640625 0.109375 4.890625 -1.34375 4.890625 -2.8125 C 4.890625 -3.75 4.3125 -4.40625 3.5625 -4.40625 C 3.0625 -4.40625 2.578125 -4.046875 2.25 -3.65625 C 2.15625 -4.203125 1.71875 -4.40625 1.359375 -4.40625 C 0.890625 -4.40625 0.703125 -4.015625 0.625 -3.84375 C 0.4375 -3.5 0.3125 -2.90625 0.3125 -2.875 C 0.3125 -2.765625 0.40625 -2.765625 0.421875 -2.765625 C 0.53125 -2.765625 0.53125 -2.78125 0.59375 -3 C 0.765625 -3.703125 0.96875 -4.1875 1.328125 -4.1875 C 1.5 -4.1875 1.640625 -4.109375 1.640625 -3.734375 C 1.640625 -3.5 1.609375 -3.390625 1.5625 -3.21875 Z M 2.203125 -3.109375 C 2.265625 -3.375 2.546875 -3.65625 2.71875 -3.8125 C 3.078125 -4.109375 3.359375 -4.1875 3.53125 -4.1875 C 3.921875 -4.1875 4.171875 -3.84375 4.171875 -3.25 C 4.171875 -2.65625 3.84375 -1.515625 3.65625 -1.140625 C 3.3125 -0.4375 2.84375 -0.109375 2.46875 -0.109375 C 1.8125 -0.109375 1.6875 -0.9375 1.6875 -1 C 1.6875 -1.015625 1.6875 -1.03125 1.71875 -1.15625 Z M 2.203125 -3.109375 "
           id="path9298" />
      </symbol>
      <symbol
         overflow="visible"
         id="symbol6361">
        <path
           style="stroke:none;"
           d="M 2.046875 -3.984375 L 2.984375 -3.984375 C 3.1875 -3.984375 3.296875 -3.984375 3.296875 -4.1875 C 3.296875 -4.296875 3.1875 -4.296875 3.015625 -4.296875 L 2.140625 -4.296875 C 2.5 -5.71875 2.546875 -5.90625 2.546875 -5.96875 C 2.546875 -6.140625 2.421875 -6.234375 2.25 -6.234375 C 2.21875 -6.234375 1.9375 -6.234375 1.859375 -5.875 L 1.46875 -4.296875 L 0.53125 -4.296875 C 0.328125 -4.296875 0.234375 -4.296875 0.234375 -4.109375 C 0.234375 -3.984375 0.3125 -3.984375 0.515625 -3.984375 L 1.390625 -3.984375 C 0.671875 -1.15625 0.625 -0.984375 0.625 -0.8125 C 0.625 -0.265625 1 0.109375 1.546875 0.109375 C 2.5625 0.109375 3.125 -1.34375 3.125 -1.421875 C 3.125 -1.53125 3.046875 -1.53125 3.015625 -1.53125 C 2.921875 -1.53125 2.90625 -1.5 2.859375 -1.390625 C 2.4375 -0.34375 1.90625 -0.109375 1.5625 -0.109375 C 1.359375 -0.109375 1.25 -0.234375 1.25 -0.5625 C 1.25 -0.8125 1.28125 -0.875 1.3125 -1.046875 Z M 2.046875 -3.984375 "
           id="path4928" />
      </symbol>
      <symbol
         overflow="visible"
         id="symbol5141">
        <path
           style="stroke:none;"
           d=""
           id="path108" />
      </symbol>
      <symbol
         overflow="visible"
         id="symbol9580">
        <path
           style="stroke:none;"
           d="M 3.296875 2.390625 C 3.296875 2.359375 3.296875 2.34375 3.125 2.171875 C 1.890625 0.921875 1.5625 -0.96875 1.5625 -2.5 C 1.5625 -4.234375 1.9375 -5.96875 3.171875 -7.203125 C 3.296875 -7.328125 3.296875 -7.34375 3.296875 -7.375 C 3.296875 -7.453125 3.265625 -7.484375 3.203125 -7.484375 C 3.09375 -7.484375 2.203125 -6.796875 1.609375 -5.53125 C 1.109375 -4.4375 0.984375 -3.328125 0.984375 -2.5 C 0.984375 -1.71875 1.09375 -0.515625 1.640625 0.625 C 2.25 1.84375 3.09375 2.5 3.203125 2.5 C 3.265625 2.5 3.296875 2.46875 3.296875 2.390625 Z M 3.296875 2.390625 "
           id="path8542" />
      </symbol>
      <symbol
         overflow="visible"
         id="symbol2226">
        <path
           style="stroke:none;"
           d="M 2.875 -2.5 C 2.875 -3.265625 2.765625 -4.46875 2.21875 -5.609375 C 1.625 -6.828125 0.765625 -7.484375 0.671875 -7.484375 C 0.609375 -7.484375 0.5625 -7.4375 0.5625 -7.375 C 0.5625 -7.34375 0.5625 -7.328125 0.75 -7.140625 C 1.734375 -6.15625 2.296875 -4.578125 2.296875 -2.5 C 2.296875 -0.78125 1.9375 0.96875 0.703125 2.21875 C 0.5625 2.34375 0.5625 2.359375 0.5625 2.390625 C 0.5625 2.453125 0.609375 2.5 0.671875 2.5 C 0.765625 2.5 1.671875 1.8125 2.25 0.546875 C 2.765625 -0.546875 2.875 -1.65625 2.875 -2.5 Z M 2.875 -2.5 "
           id="path8600" />
      </symbol>
    </g>
    <g
       id="g4214">
      <symbol
         overflow="visible"
         id="symbol9539">
        <path
           style="stroke:none;"
           d=""
           id="path7243" />
      </symbol>
      <symbol
         overflow="visible"
         id="symbol9283">
        <path
           style="stroke:none;"
           d="M 2.6875 -6.5625 C 2.6875 -6.734375 2.6875 -6.921875 2.5 -6.921875 C 2.296875 -6.921875 2.296875 -6.734375 2.296875 -6.5625 L 2.296875 0.546875 C 2.046875 0.171875 1.78125 -0.109375 1.53125 -0.296875 C 0.921875 -0.75 0.3125 -0.859375 0.296875 -0.859375 C 0.171875 -0.859375 0.171875 -0.75 0.171875 -0.671875 C 0.171875 -0.515625 0.171875 -0.5 0.40625 -0.421875 C 1.078125 -0.234375 1.46875 0.125 1.6875 0.375 C 2.203125 0.921875 2.328125 1.515625 2.375 1.828125 C 2.390625 1.875 2.421875 1.921875 2.5 1.921875 C 2.578125 1.921875 2.59375 1.859375 2.609375 1.765625 C 2.828125 0.640625 3.546875 -0.140625 4.640625 -0.453125 C 4.796875 -0.5 4.8125 -0.5 4.8125 -0.671875 C 4.8125 -0.75 4.8125 -0.859375 4.6875 -0.859375 C 4.671875 -0.859375 4.078125 -0.75 3.515625 -0.34375 C 3.1875 -0.09375 2.90625 0.203125 2.6875 0.546875 Z M 2.6875 -6.5625 "
           id="path6719" />
      </symbol>
      <symbol
         overflow="visible"
         id="symbol7432">
        <path
           style="stroke:none;"
           d=""
           id="path129" />
      </symbol>
      <symbol
         overflow="visible"
         id="symbol9372">
        <path
           style="stroke:none;"
           d="M 0.40625 -2.53125 C 0.796875 -3.671875 1.890625 -3.6875 2 -3.6875 C 3.5 -3.6875 3.609375 -1.9375 3.609375 -1.15625 C 3.609375 -0.546875 3.5625 -0.375 3.484375 -0.171875 C 3.265625 0.546875 2.96875 1.703125 2.96875 1.96875 C 2.96875 2.078125 3.015625 2.140625 3.09375 2.140625 C 3.234375 2.140625 3.3125 1.921875 3.421875 1.546875 C 3.65625 0.703125 3.75 0.140625 3.78125 -0.171875 C 3.8125 -0.296875 3.828125 -0.421875 3.875 -0.5625 C 4.1875 -1.546875 4.828125 -3.03125 5.21875 -3.8125 C 5.296875 -3.9375 5.40625 -4.15625 5.40625 -4.203125 C 5.40625 -4.296875 5.3125 -4.296875 5.296875 -4.296875 C 5.265625 -4.296875 5.203125 -4.296875 5.171875 -4.234375 C 4.65625 -3.28125 4.25 -2.28125 3.859375 -1.28125 C 3.84375 -1.578125 3.84375 -2.34375 3.453125 -3.3125 C 3.203125 -3.921875 2.8125 -4.40625 2.125 -4.40625 C 0.875 -4.40625 0.171875 -2.890625 0.171875 -2.578125 C 0.171875 -2.484375 0.265625 -2.484375 0.375 -2.484375 Z M 0.40625 -2.53125 "
           id="path9690" />
      </symbol>
    </g>
    <g
       id="g8039">
      <symbol
         overflow="visible"
         id="symbol6791">
        <path
           style="stroke:none;"
           d=""
           id="path1" />
      </symbol>
      <symbol
         overflow="visible"
         id="symbol9477">
        <path
           style="stroke:none;"
           d="M 2.6875 -5.53125 C 2.9375 -5.15625 3.203125 -4.875 3.453125 -4.6875 C 4.0625 -4.234375 4.671875 -4.125 4.6875 -4.125 C 4.8125 -4.125 4.8125 -4.234375 4.8125 -4.3125 C 4.8125 -4.46875 4.8125 -4.484375 4.578125 -4.5625 C 3.90625 -4.75 3.515625 -5.109375 3.296875 -5.359375 C 2.78125 -5.90625 2.65625 -6.5 2.609375 -6.8125 C 2.59375 -6.875 2.546875 -6.90625 2.5 -6.90625 C 2.40625 -6.90625 2.390625 -6.84375 2.375 -6.734375 C 2.140625 -5.625 1.4375 -4.84375 0.34375 -4.53125 C 0.1875 -4.484375 0.171875 -4.484375 0.171875 -4.3125 C 0.171875 -4.234375 0.171875 -4.125 0.296875 -4.125 C 0.3125 -4.125 0.90625 -4.234375 1.46875 -4.640625 C 1.796875 -4.890625 2.078125 -5.1875 2.296875 -5.53125 L 2.296875 1.578125 C 2.296875 1.75 2.296875 1.9375 2.5 1.9375 C 2.6875 1.9375 2.6875 1.75 2.6875 1.578125 Z M 2.6875 -5.53125 "
           id="path8746" />
      </symbol>
      <symbol
         overflow="visible"
         id="symbol9008">
        <path
           style="stroke:none;"
           d=""
           id="path3954" />
      </symbol>
      <symbol
         overflow="visible"
         id="symbol6895">
        <path
           style="stroke:none;"
           d="M 1.328125 -0.828125 C 1.859375 -1.40625 2.15625 -1.65625 2.515625 -1.96875 C 2.515625 -1.96875 3.125 -2.5 3.484375 -2.859375 C 4.4375 -3.78125 4.65625 -4.265625 4.65625 -4.3125 C 4.65625 -4.40625 4.5625 -4.40625 4.546875 -4.40625 C 4.46875 -4.40625 4.453125 -4.390625 4.390625 -4.296875 C 4.09375 -3.8125 3.890625 -3.65625 3.65625 -3.65625 C 3.40625 -3.65625 3.296875 -3.8125 3.140625 -3.984375 C 2.953125 -4.203125 2.78125 -4.40625 2.453125 -4.40625 C 1.703125 -4.40625 1.25 -3.484375 1.25 -3.265625 C 1.25 -3.21875 1.28125 -3.15625 1.359375 -3.15625 C 1.453125 -3.15625 1.46875 -3.203125 1.5 -3.265625 C 1.6875 -3.734375 2.265625 -3.734375 2.34375 -3.734375 C 2.546875 -3.734375 2.734375 -3.671875 2.96875 -3.59375 C 3.375 -3.4375 3.484375 -3.4375 3.734375 -3.4375 C 3.375 -3.015625 2.546875 -2.296875 2.359375 -2.140625 L 1.453125 -1.296875 C 0.78125 -0.625 0.421875 -0.0625 0.421875 0.015625 C 0.421875 0.109375 0.53125 0.109375 0.546875 0.109375 C 0.625 0.109375 0.640625 0.09375 0.703125 -0.015625 C 0.9375 -0.375 1.234375 -0.640625 1.5625 -0.640625 C 1.78125 -0.640625 1.890625 -0.546875 2.140625 -0.265625 C 2.296875 -0.046875 2.484375 0.109375 2.765625 0.109375 C 3.765625 0.109375 4.34375 -1.15625 4.34375 -1.421875 C 4.34375 -1.46875 4.296875 -1.53125 4.21875 -1.53125 C 4.125 -1.53125 4.109375 -1.46875 4.078125 -1.390625 C 3.84375 -0.75 3.203125 -0.5625 2.875 -0.5625 C 2.6875 -0.5625 2.5 -0.625 2.296875 -0.6875 C 1.953125 -0.8125 1.796875 -0.859375 1.59375 -0.859375 C 1.578125 -0.859375 1.421875 -0.859375 1.328125 -0.828125 Z M 1.328125 -0.828125 "
           id="path1555" />
      </symbol>
    </g>
  </defs>
  <sodipodi:namedview
     id="base"
     pagecolor="#ffffff"
     bordercolor="#666666"
     borderopacity="1.0"
     inkscape:pageopacity="0.0"
     inkscape:pageshadow="2"
     inkscape:zoom="1.08"
     inkscape:cx="400"
     inkscape:cy="485.92593"
     inkscape:document-units="mm"
     inkscape:current-layer="layer1"
     inkscape:document-rotation="0"
     showgrid="false"
     inkscape:window-width="1920"
     inkscape:window-height="1017"
     inkscape:window-x="-8"
     inkscape:window-y="-8"
     inkscape:window-maximized="1" />
  <metadata
     id="metadata5">
    <rdf:RDF>
      <cc:Work
         rdf:about="">
        <dc:format>image/svg+xml</dc:format>
        <dc:type
           rdf:resource="http://purl.org/dc/dcmitype/StillImage" />
        <dc:title></dc:title>
      </cc:Work>
    </rdf:RDF>
  </metadata>
  <g
     inkscape:label="Layer 1"
     inkscape:groupmode="layer"
     id="layer1">
    <path
       style="fill:none;stroke:#000000;stroke-width:1.065;stroke-linecap:butt;stroke-linejoin:miter;stroke-opacity:1;stroke-miterlimit:4;stroke-dasharray:none"
       d="M 21.803626,40.422454 V 168.3044 l 134.496524,-0.48998"
       id="path833"
       sodipodi:nodetypes="ccc"
       inkscape:export-xdpi="96"
       inkscape:export-ydpi="96" />
    <g
       inkscape:label=""
       transform="translate(66.880454,95.005114)"
       id="g847"
       inkscape:export-xdpi="96"
       inkscape:export-ydpi="96">
      <g
         id="g2742">
        <g
           style="fill:#000000;fill-opacity:1"
           id="g5566">
          <use
             xlink:href="#symbol7175"
             x="91.925003"
             y="81.962997"
             id="use7853"
             width="100%"
             height="100%" />
        </g>
      </g>
    </g>
    <g
       inkscape:label=""
       transform="translate(-85.254963,-44.881074)"
       id="g895"
       inkscape:export-xdpi="96"
       inkscape:export-ydpi="96">
      <g
         id="g2707">
        <g
           style="fill:#000000;fill-opacity:1"
           id="g4097">
          <use
             xlink:href="#symbol9325"
             x="91.925003"
             y="81.962997"
             id="use5477"
             width="100%"
             height="100%" />
        </g>
        <g
           style="fill:#000000;fill-opacity:1"
           id="g432">
          <use
             xlink:href="#symbol9580"
             x="96.938004"
             y="81.962997"
             id="use7540"
             width="100%"
             height="100%" />
        </g>
        <g
           style="fill:#000000;fill-opacity:1"
           id="g4240">
          <use
             xlink:href="#symbol6361"
             x="100.812"
             y="81.962997"
             id="use8640"
             width="100%"
             height="100%" />
        </g>
        <g
           style="fill:#000000;fill-opacity:1"
           id="g737">
          <use
             xlink:href="#symbol2226"
             x="104.41"
             y="81.962997"
             id="use4460"
             width="100%"
             height="100%" />
        </g>
      </g>
    </g>
    <path
       style="fill:none;stroke:#000000;stroke-width:0.765;stroke-linecap:butt;stroke-linejoin:miter;stroke-miterlimit:4;stroke-dasharray:none;stroke-opacity:1"
       d="M 31.358025,34.297839 C 30.311493,135.88229 91.72367,133.03913 141.60108,133.02662"
       id="path922"
       sodipodi:nodetypes="cc"
       inkscape:export-xdpi="96"
       inkscape:export-ydpi="96" />
    <path
       style="fill:none;stroke:#000000;stroke-width:0.765;stroke-linecap:butt;stroke-linejoin:miter;stroke-miterlimit:4;stroke-dasharray:none;stroke-opacity:1"
       d="M 26.166146,63.13393 C 25.119614,164.71838 86.531792,161.87522 136.4092,161.86271"
       id="path922-8"
       sodipodi:nodetypes="cc"
       inkscape:export-xdpi="96"
       inkscape:export-ydpi="96" />
    <path
       style="fill:none;stroke:#000000;stroke-width:0.765;stroke-linecap:butt;stroke-linejoin:miter;stroke-miterlimit:4;stroke-dasharray:none;stroke-opacity:1"
       d="M 22.048611,160.95486 C 126.56642,166.95094 145.28535,110.72346 168.79436,59.041279"
       id="path939"
       sodipodi:nodetypes="cc"
       inkscape:export-xdpi="96"
       inkscape:export-ydpi="96" />
    <g
       inkscape:label=""
       transform="translate(-57.081738,-27.48717)"
       id="g994"
       inkscape:export-xdpi="96"
       inkscape:export-ydpi="96">
      <g
         id="g8097">
        <g
           style="fill:#000000;fill-opacity:1"
           id="g8601">
          <use
             xlink:href="#symbol9283"
             x="91.925003"
             y="81.962997"
             id="use2731"
             width="100%"
             height="100%" />
        </g>
        <g
           style="fill:#000000;fill-opacity:1"
           id="g7830">
          <use
             xlink:href="#symbol9372"
             x="99.674004"
             y="81.962997"
             id="use9236"
             width="100%"
             height="100%" />
        </g>
      </g>
    </g>
    <g
       inkscape:label=""
       transform="translate(53.651287,-11.073205)"
       id="g1081"
       inkscape:export-xdpi="96"
       inkscape:export-ydpi="96">
      <g
         id="g8429">
        <g
           style="fill:#000000;fill-opacity:1"
           id="g8918">
          <use
             xlink:href="#symbol9477"
             x="91.925003"
             y="81.962997"
             id="use1329"
             width="100%"
             height="100%" />
        </g>
        <g
           style="fill:#000000;fill-opacity:1"
           id="g4202">
          <use
             xlink:href="#symbol6895"
             x="99.674004"
             y="81.962997"
             id="use1033"
             width="100%"
             height="100%" />
        </g>
      </g>
    </g>
  </g>
</svg>
