<?xml version="1.0" encoding="UTF-8" standalone="no"?>
<!-- Created with Inkscape (http://www.inkscape.org/) -->

<svg
   xmlns:dc="http://purl.org/dc/elements/1.1/"
   xmlns:cc="http://creativecommons.org/ns#"
   xmlns:rdf="http://www.w3.org/1999/02/22-rdf-syntax-ns#"
   xmlns:svg="http://www.w3.org/2000/svg"
   xmlns="http://www.w3.org/2000/svg"
   xmlns:sodipodi="http://sodipodi.sourceforge.net/DTD/sodipodi-0.dtd"
   xmlns:inkscape="http://www.inkscape.org/namespaces/inkscape"
   width="297mm"
   height="210mm"
   viewBox="0 0 297 210"
   version="1.1"
   id="svg8"
   inkscape:version="0.92.3 (2405546, 2018-03-11)"
   sodipodi:docname="fig3.svg">
  <sodipodi:namedview
     id="base"
     pagecolor="#ffffff"
     bordercolor="#666666"
     borderopacity="1.0"
     inkscape:pageopacity="0.0"
     inkscape:pageshadow="2"
     inkscape:zoom="1.3289991"
     inkscape:cx="541.76872"
     inkscape:cy="485.4261"
     inkscape:document-units="mm"
     inkscape:current-layer="layer1"
     showgrid="false"
     inkscape:window-width="1853"
     inkscape:window-height="1025"
     inkscape:window-x="67"
     inkscape:window-y="27"
     inkscape:window-maximized="1"
     showguides="false" />
  <defs
     id="defs2" />
  <metadata
     id="metadata5">
    <rdf:RDF>
      <cc:Work
         rdf:about="">
        <dc:format>image/svg+xml</dc:format>
        <dc:type
           rdf:resource="http://purl.org/dc/dcmitype/StillImage" />
        <dc:title />
      </cc:Work>
    </rdf:RDF>
  </metadata>
  <g
     transform="translate(0,-87)"
     id="layer1"
     inkscape:groupmode="layer"
     inkscape:label="Layer 1">
    <path
       sodipodi:nodetypes="ccc"
       inkscape:connector-curvature="0"
       id="path3713-3"
       d="m 58.835534,114.98459 0.19893,117.98222 160.802216,0.61175"
       style="fill:none;stroke:#000000;stroke-width:1.06500006;stroke-linecap:butt;stroke-linejoin:miter;stroke-miterlimit:4;stroke-dasharray:none;stroke-opacity:1" />
    <flowRoot
       style="font-style:normal;font-weight:normal;font-size:40px;line-height:1.25;font-family:sans-serif;letter-spacing:0px;word-spacing:0px;fill:#000000;fill-opacity:1;stroke:none"
       id="flowRoot7901"
       xml:space="preserve"
       transform="translate(-74.612541)"><flowRegion
         id="flowRegion7903"><rect
           y="280.53265"
           x="838.22479"
           height="91.798409"
           width="91.045959"
           id="rect7905" /></flowRegion><flowPara
         id="flowPara7907" /></flowRoot>    <g
       transform="matrix(0.76266671,0,0,0.80190685,-19.476794,135.12676)"
       id="g26831">
      <g
         style="font-style:normal;font-variant:normal;font-weight:normal;font-stretch:normal;letter-spacing:normal;word-spacing:normal;text-anchor:start;fill:none;fill-opacity:1;fill-rule:evenodd;stroke:#000000;stroke-linecap:butt;stroke-linejoin:miter;stroke-miterlimit:10.43299961;stroke-dasharray:none;stroke-dashoffset:0;stroke-opacity:1"
         id="content"
         transform="matrix(0.3,0,0,-0.3,-52.5,222.75)"
         xml:space="preserve"
         stroke-miterlimit="10.433"
         font-style="normal"
         font-variant="normal"
         font-weight="normal"
         font-stretch="normal"
         font-size-adjust="none"
         letter-spacing="normal"
         word-spacing="normal"><path
           style="fill:#000000;stroke-width:0"
           inkscape:connector-curvature="0"
           d="m 457.75,400.12 -0.03,-0.15 -0.04,-0.15 -0.03,-0.14 -0.03,-0.13 -0.04,-0.13 -0.03,-0.11 -0.04,-0.12 -0.03,-0.1 -0.04,-0.1 -0.04,-0.09 -0.04,-0.09 -0.05,-0.08 -0.05,-0.07 -0.05,-0.07 -0.06,-0.07 -0.06,-0.06 -0.07,-0.05 -0.07,-0.05 -0.08,-0.04 -0.09,-0.04 -0.09,-0.04 -0.1,-0.03 -0.11,-0.03 -0.12,-0.02 -0.13,-0.02 -0.06,-0.01 -0.07,-0.01 -0.07,-0.01 -0.08,-0.01 h -0.07 l -0.08,-0.01 h -0.08 l -0.09,-0.01 h -0.08 -0.09 -0.1 -0.09 l -0.1,-0.01 h -0.1 c -0.6,0 -1.14,0 -1.14,-0.93 0,-0.41 0.25,-0.61 0.64,-0.61 1.36,0 2.79,0.15 4.18,0.15 1.64,0 3.35,-0.15 4.94,-0.15 0.25,0 0.89,0 0.89,1 0,0.54 -0.5,0.54 -1.19,0.54 -2.5,0 -2.5,0.36 -2.5,0.8 0,0.61 2.1,8.72 2.46,9.97 0.64,-1.44 2.03,-3.19 4.58,-3.19 l -0.05,1.1 c -3.3,0 -3.94,4.14 -3.94,4.43 0,0.1 0,0.21 0.14,0.8 l 2.46,9.77 c 0.34,1.34 1.68,2.73 2.57,3.48 1.75,1.55 3.21,1.89 4.05,1.89 1.98,0 3.19,-1.73 3.19,-4.69 0,-2.93 -1.64,-8.65 -2.55,-10.56 -1.69,-3.48 -4.08,-5.12 -5.92,-5.12 l 0.05,-1.1 c 5.78,0 12,7.27 12,14.6 0,4.68 -2.83,7.96 -6.63,7.96 -2.48,0 -4.87,-1.78 -6.51,-3.73 -0.5,2.69 -2.65,3.73 -4.49,3.73 -2.3,0 -3.25,-1.93 -3.69,-2.82 -0.9,-1.71 -1.54,-4.69 -1.54,-4.85 0,-0.5 0.5,-0.5 0.59,-0.5 0.5,0 0.55,0.07 0.84,1.16 0.86,3.53 1.85,5.92 3.64,5.92 0.85,0 1.55,-0.39 1.55,-2.28 0,-1.16 -0.15,-1.7 -0.34,-2.55 z"
           id="path26828" /></g>    </g>
    <g
       transform="matrix(0.76266671,0,0,0.80190685,-19.13928,57.296467)"
       id="g26899">
      <g
         style="font-style:normal;font-variant:normal;font-weight:normal;font-stretch:normal;letter-spacing:normal;word-spacing:normal;text-anchor:start;fill:none;fill-opacity:1;fill-rule:evenodd;stroke:#000000;stroke-linecap:butt;stroke-linejoin:miter;stroke-miterlimit:10.43299961;stroke-dasharray:none;stroke-dashoffset:0;stroke-opacity:1"
         id="g26897"
         transform="matrix(0.3,0,0,-0.3,-52.5,222.75)"
         xml:space="preserve"
         stroke-miterlimit="10.433"
         font-style="normal"
         font-variant="normal"
         font-weight="normal"
         font-stretch="normal"
         font-size-adjust="none"
         letter-spacing="normal"
         word-spacing="normal"><path
           style="fill:#000000;stroke-width:0"
           inkscape:connector-curvature="0"
           d="m 457.75,400.12 -0.03,-0.15 -0.04,-0.15 -0.03,-0.14 -0.03,-0.13 -0.04,-0.13 -0.03,-0.11 -0.04,-0.12 -0.03,-0.1 -0.04,-0.1 -0.04,-0.09 -0.04,-0.09 -0.05,-0.08 -0.05,-0.07 -0.05,-0.07 -0.06,-0.07 -0.06,-0.06 -0.07,-0.05 -0.07,-0.05 -0.08,-0.04 -0.09,-0.04 -0.09,-0.04 -0.1,-0.03 -0.11,-0.03 -0.12,-0.02 -0.13,-0.02 -0.06,-0.01 -0.07,-0.01 -0.07,-0.01 -0.08,-0.01 h -0.07 l -0.08,-0.01 h -0.08 l -0.09,-0.01 h -0.08 -0.09 -0.1 -0.09 l -0.1,-0.01 h -0.1 c -0.6,0 -1.14,0 -1.14,-0.93 0,-0.41 0.25,-0.61 0.64,-0.61 1.36,0 2.79,0.15 4.18,0.15 1.64,0 3.35,-0.15 4.94,-0.15 0.25,0 0.89,0 0.89,1 0,0.54 -0.5,0.54 -1.19,0.54 -2.5,0 -2.5,0.36 -2.5,0.8 0,0.61 2.1,8.72 2.46,9.97 0.64,-1.44 2.03,-3.19 4.58,-3.19 l -0.05,1.1 c -3.3,0 -3.94,4.14 -3.94,4.43 0,0.1 0,0.21 0.14,0.8 l 2.46,9.77 c 0.34,1.34 1.68,2.73 2.57,3.48 1.75,1.55 3.21,1.89 4.05,1.89 1.98,0 3.19,-1.73 3.19,-4.69 0,-2.93 -1.64,-8.65 -2.55,-10.56 -1.69,-3.48 -4.08,-5.12 -5.92,-5.12 l 0.05,-1.1 c 5.78,0 12,7.27 12,14.6 0,4.68 -2.83,7.96 -6.63,7.96 -2.48,0 -4.87,-1.78 -6.51,-3.73 -0.5,2.69 -2.65,3.73 -4.49,3.73 -2.3,0 -3.25,-1.93 -3.69,-2.82 -0.9,-1.71 -1.54,-4.69 -1.54,-4.85 0,-0.5 0.5,-0.5 0.59,-0.5 0.5,0 0.55,0.07 0.84,1.16 0.86,3.53 1.85,5.92 3.64,5.92 0.85,0 1.55,-0.39 1.55,-2.28 0,-1.16 -0.15,-1.7 -0.34,-2.55 z"
           id="path26893" /><path
           style="fill:#000000;stroke-width:0"
           inkscape:connector-curvature="0"
           d="m 491.85,432.87 0.27,0.12 0.25,0.11 0.25,0.11 0.23,0.1 0.23,0.1 0.22,0.1 0.22,0.09 0.2,0.09 0.2,0.08 0.19,0.08 0.18,0.08 0.18,0.07 0.17,0.08 0.16,0.06 0.16,0.07 0.15,0.06 0.14,0.06 0.14,0.06 0.14,0.06 0.13,0.05 0.12,0.06 0.12,0.05 0.11,0.05 0.11,0.04 0.11,0.05 0.1,0.04 0.19,0.09 0.18,0.08 0.17,0.08 c 0.67,0.27 0.98,0.41 0.98,1.08 0,0.59 -0.45,1.11 -1.08,1.11 -0.25,0 -0.31,0 -0.73,-0.31 l -4.74,-3.17 0.52,5.15 c 0.08,0.63 0,1.5 -1.05,1.5 -0.42,0 -1.07,-0.28 -1.07,-1.04 0,-0.32 0.14,-1.36 0.17,-1.71 0.08,-0.59 0.31,-3.11 0.39,-3.9 l -4.71,3.17 c -0.35,0.2 -0.45,0.31 -0.76,0.31 -0.64,0 -1.09,-0.52 -1.09,-1.11 0,-0.7 0.42,-0.87 0.73,-1.01 l 5.27,-2.19 c -2.86,-1.27 -4.15,-1.75 -5.02,-2.17 -0.66,-0.29 -0.98,-0.43 -0.98,-1.08 0,-0.6 0.45,-1.11 1.09,-1.11 0.23,0 0.31,0 0.72,0.31 l 4.75,3.17 -0.56,-5.61 c 0,-0.76 0.65,-1.04 1.07,-1.04 0.43,0 1.08,0.28 1.08,1.04 0,0.32 -0.14,1.36 -0.17,1.71 -0.06,0.59 -0.31,3.09 -0.38,3.9 l 4.18,-2.79 c 0.9,-0.69 0.98,-0.69 1.29,-0.69 0.63,0 1.08,0.51 1.08,1.11 0,0.7 -0.42,0.87 -0.73,1.01 z"
           id="path26895" /></g>    </g>
    <g
       transform="matrix(0.85941851,0,0,0.9221941,150.78787,143.79865)"
       id="g27021">
      <g
         style="font-style:normal;font-variant:normal;font-weight:normal;font-stretch:normal;letter-spacing:normal;word-spacing:normal;text-anchor:start;fill:none;fill-opacity:1;fill-rule:evenodd;stroke:#000000;stroke-linecap:butt;stroke-linejoin:miter;stroke-miterlimit:10.43299961;stroke-dasharray:none;stroke-dashoffset:0;stroke-opacity:1"
         id="g27019"
         transform="matrix(0.3,0,0,-0.3,-52.5,222.75)"
         xml:space="preserve"
         stroke-miterlimit="10.433"
         font-style="normal"
         font-variant="normal"
         font-weight="normal"
         font-stretch="normal"
         font-size-adjust="none"
         letter-spacing="normal"
         word-spacing="normal"><path
           style="fill:#000000;stroke-width:0"
           inkscape:connector-curvature="0"
           d="m 480.89,441.54 0.01,0.02 0.01,0.02 v 0.02 l 0.01,0.02 0.01,0.03 v 0.01 l 0.01,0.04 0.01,0.04 0.01,0.03 0.01,0.03 0.01,0.03 v 0.03 l 0.01,0.03 0.01,0.02 v 0.03 l 0.01,0.02 v 0.02 0.02 l 0.01,0.02 v 0.02 0.02 l 0.01,0.02 v 0.01 0.04 0.03 0.03 0.04 0.02 0.02 0.01 l 0.01,0.02 c 0,0.69 -0.57,1.11 -1.16,1.11 -0.38,0 -1.05,-0.17 -1.42,-0.82 -0.11,-0.22 -0.39,-1.33 -0.57,-2.04 l -0.73,-2.89 c -0.2,-0.82 -1.28,-5.21 -1.39,-5.61 -0.03,0 -1.56,-3.03 -4.28,-3.03 -2.38,0 -2.38,2.27 -2.38,2.89 0,1.89 0.8,4.08 1.85,6.77 0.42,1.11 0.59,1.53 0.59,2.12 0,1.68 -1.42,2.96 -3.31,2.96 -3.52,0 -5.08,-4.74 -5.08,-5.33 0,-0.45 0.48,-0.45 0.59,-0.45 0.49,0 0.52,0.17 0.63,0.56 0.87,2.89 2.37,4.25 3.76,4.25 0.6,0 0.86,-0.39 0.86,-1.22 0,-0.8 -0.31,-1.56 -0.48,-2.02 -1.67,-4.25 -2.02,-5.54 -2.02,-7.07 0,-0.6 0,-2.24 1.36,-3.35 1.08,-0.9 2.55,-1.08 3.49,-1.08 1.39,0 2.64,0.52 3.79,1.57 -0.45,-1.92 -0.84,-3.38 -2.29,-5.13 -0.94,-1.08 -2.35,-2.22 -4.19,-2.22 -0.23,0 -1.87,0 -2.61,1.14 1.88,0.21 1.88,1.89 1.88,1.93 0,1.11 -1,1.31 -1.36,1.31 -0.86,0 -2.02,-0.69 -2.02,-2.3 0,-1.76 1.67,-3.06 4.14,-3.06 3.53,0 7.81,2.72 8.89,7.08 z"
           id="path26993" /><path
           style="fill:#000000;stroke-width:0"
           inkscape:connector-curvature="0"
           d="m 491.6,439.2 v 0.04 0.03 0.03 0.04 0.03 0.02 0.03 0.03 0.03 l -0.01,0.02 v 0.03 0.02 0.02 l -0.01,0.03 v 0.02 0.02 l -0.01,0.02 v 0.01 l -0.01,0.04 -0.01,0.03 -0.02,0.03 -0.01,0.03 -0.02,0.02 -0.02,0.02 -0.02,0.02 -0.03,0.02 -0.02,0.01 -0.03,0.01 -0.03,0.01 -0.04,0.01 -0.04,0.01 -0.04,0.01 h -0.02 -0.02 -0.03 l -0.02,0.01 h -0.03 -0.02 -0.03 -0.03 -0.03 -0.03 -0.03 -0.03 -0.03 -0.04 -0.03 -0.04 -0.04 -0.03 c -1.77,-1.59 -4.54,-1.59 -5.04,-1.59 h -0.42 v -1.09 h 0.42 c 0.58,0 2.19,0.06 3.64,0.68 V 425.5 c 0,-0.77 0,-1.05 -2.64,-1.05 h -1.25 v -1.09 c 1.38,0.09 3.6,0.09 5.04,0.09 1.45,0 3.67,0 5.03,-0.09 v 1.09 h -1.24 c -2.64,0 -2.64,0.28 -2.64,1.05 z"
           id="path26995" /><path
           style="fill:#000000;stroke-width:0"
           inkscape:connector-curvature="0"
           d="m 517.38,436.27 h 10.65 c 0.46,0 1.29,0 1.29,0.85 0,0.86 -0.8,0.86 -1.29,0.86 h -10.65 v 10.7 c 0,0.45 0,1.28 -0.85,1.28 -0.87,0 -0.87,-0.8 -0.87,-1.28 v -10.7 h -10.69 c -0.45,0 -1.29,0 -1.29,-0.83 0,-0.88 0.79,-0.88 1.29,-0.88 h 10.69 v -10.7 c 0,-0.45 0,-1.28 0.84,-1.28 0.88,0 0.88,0.8 0.88,1.28 z"
           id="path26997" /><path
           style="fill:#000000;stroke-width:0"
           inkscape:connector-curvature="0"
           d="m 551.21,441.54 0.01,0.02 v 0.02 l 0.01,0.02 0.01,0.02 v 0.03 l 0.01,0.01 0.01,0.04 0.01,0.04 0.01,0.03 v 0.03 l 0.01,0.03 0.01,0.03 0.01,0.03 v 0.02 l 0.01,0.03 v 0.02 l 0.01,0.02 v 0.02 0.02 l 0.01,0.02 v 0.02 0.02 0.01 l 0.01,0.04 v 0.03 0.03 0.04 0.02 0.02 0.01 0.02 c 0,0.69 -0.56,1.11 -1.15,1.11 -0.38,0 -1.05,-0.17 -1.43,-0.82 -0.11,-0.22 -0.39,-1.33 -0.56,-2.04 l -0.73,-2.89 c -0.21,-0.82 -1.28,-5.21 -1.39,-5.61 -0.04,0 -1.57,-3.03 -4.29,-3.03 -2.37,0 -2.37,2.27 -2.37,2.89 0,1.89 0.8,4.08 1.84,6.77 0.43,1.11 0.6,1.53 0.6,2.12 0,1.68 -1.42,2.96 -3.32,2.96 -3.51,0 -5.07,-4.74 -5.07,-5.33 0,-0.45 0.48,-0.45 0.59,-0.45 0.48,0 0.52,0.17 0.63,0.56 0.87,2.89 2.37,4.25 3.76,4.25 0.59,0 0.86,-0.39 0.86,-1.22 0,-0.8 -0.31,-1.56 -0.48,-2.02 -1.68,-4.25 -2.02,-5.54 -2.02,-7.07 0,-0.6 0,-2.24 1.36,-3.35 1.08,-0.9 2.55,-1.08 3.48,-1.08 1.39,0 2.64,0.52 3.8,1.57 -0.45,-1.92 -0.84,-3.38 -2.3,-5.13 -0.93,-1.08 -2.34,-2.22 -4.18,-2.22 -0.24,0 -1.88,0 -2.61,1.14 1.87,0.21 1.87,1.89 1.87,1.93 0,1.11 -1,1.31 -1.36,1.31 -0.86,0 -2.01,-0.69 -2.01,-2.3 0,-1.76 1.67,-3.06 4.14,-3.06 3.53,0 7.81,2.72 8.89,7.08 z"
           id="path26999" /><path
           style="fill:#000000;stroke-width:0"
           inkscape:connector-curvature="0"
           d="m 561.92,439.2 v 0.04 0.03 0.03 0.04 0.03 0.02 0.03 0.03 0.03 l -0.01,0.02 v 0.03 0.02 0.02 l -0.01,0.03 v 0.02 0.02 l -0.01,0.02 v 0.01 l -0.01,0.04 -0.01,0.03 -0.02,0.03 -0.01,0.03 -0.02,0.02 -0.02,0.02 -0.02,0.02 -0.02,0.02 -0.03,0.01 -0.03,0.01 -0.03,0.01 -0.04,0.01 -0.04,0.01 -0.04,0.01 h -0.02 -0.02 -0.03 l -0.02,0.01 h -0.03 -0.02 -0.03 -0.03 -0.03 -0.03 -0.03 -0.03 -0.03 -0.04 -0.03 -0.04 -0.04 -0.03 c -1.77,-1.59 -4.54,-1.59 -5.04,-1.59 h -0.42 v -1.09 h 0.42 c 0.58,0 2.19,0.06 3.64,0.68 V 425.5 c 0,-0.77 0,-1.05 -2.64,-1.05 h -1.25 v -1.09 c 1.38,0.09 3.6,0.09 5.04,0.09 1.45,0 3.67,0 5.03,-0.09 v 1.09 h -1.24 c -2.64,0 -2.64,0.28 -2.64,1.05 z"
           id="path27001" /><path
           style="fill:#000000;stroke-width:0"
           inkscape:connector-curvature="0"
           d="m 582.69,437.07 0.26,0.12 0.26,0.11 0.25,0.11 0.23,0.1 0.23,0.1 0.22,0.09 0.22,0.1 0.2,0.08 0.2,0.09 0.19,0.08 0.18,0.08 0.18,0.07 0.17,0.07 0.16,0.07 0.16,0.07 0.15,0.06 0.14,0.06 0.14,0.06 0.14,0.06 0.13,0.05 0.12,0.06 0.12,0.05 0.11,0.05 0.11,0.04 0.11,0.05 0.1,0.04 0.19,0.09 0.18,0.08 0.17,0.08 c 0.67,0.27 0.98,0.41 0.98,1.08 0,0.59 -0.45,1.11 -1.08,1.11 -0.25,0 -0.31,0 -0.73,-0.31 l -4.73,-3.17 0.51,5.15 c 0.08,0.63 0,1.5 -1.05,1.5 -0.42,0 -1.08,-0.28 -1.08,-1.05 0,-0.31 0.15,-1.35 0.18,-1.7 0.07,-0.59 0.31,-3.11 0.39,-3.9 l -4.7,3.17 c -0.37,0.2 -0.46,0.31 -0.77,0.31 -0.64,0 -1.1,-0.52 -1.1,-1.11 0,-0.7 0.43,-0.87 0.74,-1.02 l 5.26,-2.18 c -2.85,-1.27 -4.13,-1.75 -5.01,-2.17 -0.66,-0.29 -0.99,-0.43 -0.99,-1.08 0,-0.6 0.46,-1.11 1.1,-1.11 0.23,0 0.31,0 0.72,0.31 l 4.75,3.17 -0.57,-5.61 c 0,-0.76 0.66,-1.04 1.08,-1.04 0.42,0 1.08,0.28 1.08,1.04 0,0.32 -0.14,1.36 -0.17,1.71 -0.06,0.59 -0.31,3.09 -0.37,3.9 l 4.17,-2.79 c 0.9,-0.69 0.98,-0.69 1.29,-0.69 0.63,0 1.08,0.51 1.08,1.11 0,0.7 -0.42,0.87 -0.73,1.01 z"
           id="path27003" /><polyline
           style="fill:#000000;fill-rule:nonzero;stroke-width:0"
           points="462,418 592.32,418 592.32,420.04 462,420.04 "
           id="polyline27005" /><path
           style="fill:#000000;stroke-width:0"
           inkscape:connector-curvature="0"
           d="m 489.77,402.18 0.01,0.02 0.01,0.02 v 0.03 l 0.01,0.02 v 0.02 l 0.01,0.02 0.01,0.03 0.01,0.04 0.01,0.03 0.01,0.03 v 0.03 l 0.01,0.03 0.01,0.03 v 0.02 l 0.01,0.03 v 0.02 l 0.01,0.02 v 0.02 l 0.01,0.02 v 0.02 0.02 0.02 l 0.01,0.01 v 0.04 0.03 0.03 0.04 0.02 0.02 0.02 0.02 c 0,0.68 -0.56,1.1 -1.15,1.1 -0.38,0 -1.05,-0.17 -1.42,-0.82 -0.11,-0.22 -0.39,-1.33 -0.57,-2.03 l -0.73,-2.9 c -0.2,-0.82 -1.28,-5.21 -1.39,-5.6 -0.03,0 -1.56,-3.04 -4.28,-3.04 -2.38,0 -2.38,2.27 -2.38,2.89 0,1.9 0.8,4.08 1.85,6.77 0.42,1.11 0.59,1.53 0.59,2.13 0,1.67 -1.42,2.95 -3.31,2.95 -3.52,0 -5.08,-4.74 -5.08,-5.33 0,-0.45 0.48,-0.45 0.59,-0.45 0.49,0 0.52,0.17 0.63,0.56 0.87,2.89 2.37,4.25 3.76,4.25 0.6,0 0.86,-0.39 0.86,-1.22 0,-0.8 -0.31,-1.56 -0.48,-2.01 -1.67,-4.25 -2.02,-5.55 -2.02,-7.08 0,-0.6 0,-2.24 1.36,-3.35 1.08,-0.9 2.55,-1.07 3.49,-1.07 1.39,0 2.64,0.51 3.79,1.56 -0.45,-1.92 -0.84,-3.38 -2.29,-5.13 -0.94,-1.08 -2.35,-2.22 -4.19,-2.22 -0.24,0 -1.88,0 -2.61,1.14 1.87,0.21 1.87,1.9 1.87,1.93 0,1.11 -1,1.31 -1.35,1.31 -0.86,0 -2.02,-0.69 -2.02,-2.3 0,-1.76 1.67,-3.06 4.14,-3.06 3.53,0 7.81,2.72 8.89,7.08 z"
           id="path27007" /><path
           style="fill:#000000;stroke-width:0"
           inkscape:connector-curvature="0"
           d="m 505.23,388.81 h -1.05 c -0.07,-0.48 -0.32,-2.01 -0.72,-2.26 -0.2,-0.16 -2.29,-0.16 -2.67,-0.16 h -4.87 c 1.64,1.22 3.48,2.61 4.98,3.61 2.24,1.55 4.33,3 4.33,5.64 0,3.19 -3.02,4.95 -6.58,4.95 -3.36,0 -5.83,-1.95 -5.83,-4.39 0,-1.29 1.1,-1.51 1.46,-1.51 0.67,0 1.47,0.45 1.47,1.47 0,0.89 -0.66,1.39 -1.43,1.46 0.69,1.13 2.14,1.88 3.82,1.88 2.4,0 4.42,-1.45 4.42,-3.89 0,-2.09 -1.44,-3.69 -3.36,-5.31 l -6.08,-5.16 c -0.25,-0.22 -0.26,-0.22 -0.3,-0.39 V 384 h 11.58 z"
           id="path27009" /><path
           style="fill:#000000;stroke-width:0"
           inkscape:connector-curvature="0"
           d="m 526.26,396.91 h 10.66 c 0.45,0 1.28,0 1.28,0.85 0,0.86 -0.8,0.86 -1.28,0.86 h -10.66 v 10.7 c 0,0.45 0,1.28 -0.84,1.28 -0.88,0 -0.88,-0.8 -0.88,-1.28 v -10.7 h -10.69 c -0.45,0 -1.29,0 -1.29,-0.83 0,-0.88 0.79,-0.88 1.29,-0.88 h 10.69 v -10.7 c 0,-0.45 0,-1.28 0.85,-1.28 0.87,0 0.87,0.8 0.87,1.28 z"
           id="path27011" /><path
           style="fill:#000000;stroke-width:0"
           inkscape:connector-curvature="0"
           d="m 560.09,402.18 0.01,0.02 0.01,0.02 v 0.03 l 0.01,0.02 v 0.02 l 0.01,0.02 0.01,0.03 0.01,0.04 0.01,0.03 0.01,0.03 v 0.03 l 0.01,0.03 0.01,0.03 v 0.02 l 0.01,0.03 v 0.02 l 0.01,0.02 v 0.02 l 0.01,0.02 v 0.02 0.02 0.02 l 0.01,0.01 v 0.04 0.03 0.03 0.04 0.02 0.02 0.02 0.02 c 0,0.68 -0.56,1.1 -1.15,1.1 -0.38,0 -1.05,-0.17 -1.42,-0.82 -0.11,-0.22 -0.39,-1.33 -0.57,-2.03 l -0.73,-2.9 c -0.2,-0.82 -1.28,-5.21 -1.39,-5.6 -0.03,0 -1.56,-3.04 -4.28,-3.04 -2.38,0 -2.38,2.27 -2.38,2.89 0,1.9 0.8,4.08 1.85,6.77 0.42,1.11 0.59,1.53 0.59,2.13 0,1.67 -1.42,2.95 -3.31,2.95 -3.52,0 -5.08,-4.74 -5.08,-5.33 0,-0.45 0.48,-0.45 0.59,-0.45 0.49,0 0.52,0.17 0.63,0.56 0.87,2.89 2.37,4.25 3.76,4.25 0.6,0 0.86,-0.39 0.86,-1.22 0,-0.8 -0.31,-1.56 -0.48,-2.01 -1.67,-4.25 -2.02,-5.55 -2.02,-7.08 0,-0.6 0,-2.24 1.36,-3.35 1.08,-0.9 2.55,-1.07 3.49,-1.07 1.39,0 2.64,0.51 3.79,1.56 -0.45,-1.92 -0.84,-3.38 -2.29,-5.13 -0.94,-1.08 -2.35,-2.22 -4.19,-2.22 -0.24,0 -1.88,0 -2.61,1.14 1.87,0.21 1.87,1.9 1.87,1.93 0,1.11 -1,1.31 -1.35,1.31 -0.86,0 -2.02,-0.69 -2.02,-2.3 0,-1.76 1.67,-3.06 4.14,-3.06 3.53,0 7.81,2.72 8.89,7.08 z"
           id="path27013" /><path
           style="fill:#000000;stroke-width:0"
           inkscape:connector-curvature="0"
           d="m 571.67,407.91 v 0.03 l 0.01,0.03 v 0.03 0.04 l 0.01,0.04 v 0.04 l 0.01,0.05 v 0.05 l 0.02,0.1 0.01,0.12 0.01,0.13 0.02,0.13 0.02,0.15 0.01,0.15 0.02,0.15 0.02,0.16 0.02,0.16 0.02,0.17 0.04,0.33 0.04,0.33 0.02,0.16 0.01,0.16 0.02,0.15 0.02,0.15 0.01,0.14 0.02,0.13 0.01,0.12 0.01,0.11 0.01,0.05 v 0.05 l 0.01,0.05 v 0.04 l 0.01,0.04 v 0.04 0.03 0.03 l 0.01,0.02 v 0.02 0.02 0.01 c 0,0.45 -0.36,0.8 -0.86,0.8 -0.53,0 -0.87,-0.39 -0.87,-0.77 0,-0.25 0.37,-3.4 0.45,-3.94 l -3.88,2.32 c -0.23,0.15 -0.34,0.23 -0.56,0.23 -0.41,0 -0.84,-0.37 -0.84,-0.92 0,-0.41 0.25,-0.66 0.51,-0.75 1.38,-0.55 2.8,-1.05 4.19,-1.52 -1.39,-0.53 -3.69,-1.36 -4.11,-1.53 -0.17,-0.06 -0.59,-0.22 -0.59,-0.76 0,-0.55 0.43,-0.93 0.84,-0.93 0.27,0 1.05,0.47 4.44,2.55 -0.08,-0.53 -0.45,-3.69 -0.45,-3.94 0,-0.37 0.34,-0.78 0.87,-0.78 0.5,0 0.86,0.36 0.86,0.8 0,0.23 -0.39,3.42 -0.44,3.92 l 3.94,-2.37 c 0.17,-0.1 0.27,-0.18 0.5,-0.18 0.39,0 0.84,0.38 0.84,0.93 0,0.39 -0.25,0.64 -0.53,0.75 -1.36,0.54 -2.78,1.04 -4.19,1.51 1.41,0.52 3.69,1.35 4.13,1.52 0.17,0.08 0.59,0.23 0.59,0.78 0,0.55 -0.45,0.92 -0.84,0.92 -0.23,0 -0.33,-0.08 -0.58,-0.23 z"
           id="path27015" /><path
           style="fill:#000000;stroke-width:0"
           inkscape:connector-curvature="0"
           d="m 575.55,383.05 h -1.05 c -0.07,-0.48 -0.32,-2.01 -0.72,-2.26 -0.2,-0.16 -2.29,-0.16 -2.67,-0.16 h -4.87 c 1.64,1.22 3.48,2.61 4.98,3.61 2.24,1.55 4.33,3 4.33,5.64 0,3.19 -3.02,4.95 -6.58,4.95 -3.36,0 -5.82,-1.95 -5.82,-4.39 0,-1.3 1.09,-1.51 1.45,-1.51 0.67,0 1.47,0.45 1.47,1.46 0,0.9 -0.66,1.4 -1.42,1.47 0.68,1.13 2.13,1.88 3.81,1.88 2.4,0 4.42,-1.45 4.42,-3.89 0,-2.1 -1.44,-3.69 -3.36,-5.31 l -6.08,-5.16 c -0.25,-0.22 -0.26,-0.22 -0.29,-0.39 v -0.75 h 11.57 z"
           id="path27017" /></g>    </g>
    <path
       inkscape:connector-curvature="0"
       id="path27062"
       d="m 59.034462,232.96681 0.292767,-21.97138 76.846671,-0.39817 0.59726,-77.44393 77.8421,-0.19908"
       style="fill:none;stroke:#000000;stroke-width:0.7;stroke-linecap:butt;stroke-linejoin:miter;stroke-opacity:1;stroke-miterlimit:4;stroke-dasharray:none" />
    <flowRoot
       transform="matrix(0.26458333,0,0,0.26458333,-13.338672,98.94508)"
       style="font-style:normal;font-weight:normal;font-size:40px;line-height:1.25;font-family:sans-serif;letter-spacing:0px;word-spacing:0px;fill:#000000;fill-opacity:1;stroke:none"
       id="flowRoot27064"
       xml:space="preserve"><flowRegion
         id="flowRegion27066"><rect
           y="100.69808"
           x="878.85687"
           height="203.91286"
           width="174.56746"
           id="rect27068" /></flowRegion><flowPara
         style="font-size:21.33333397px"
         id="flowPara27070">Relative Supply</flowPara></flowRoot>    <path
       sodipodi:nodetypes="cc"
       inkscape:connector-curvature="0"
       id="path27072"
       d="M 136.77116,133.15333 58.331806,133.5515"
       style="fill:none;stroke:#000000;stroke-width:0.565;stroke-linecap:butt;stroke-linejoin:miter;stroke-miterlimit:4;stroke-dasharray:0.56499997, 1.12999994;stroke-dashoffset:0;stroke-opacity:1" />
    <path
       style="fill:none;stroke:#000000;stroke-width:0.565;stroke-linecap:butt;stroke-linejoin:miter;stroke-opacity:1;stroke-miterlimit:4;stroke-dasharray:0.565,1.13;stroke-dashoffset:0"
       d="m 136.1739,210.59726 -0.19908,22.29748"
       id="path27226"
       inkscape:connector-curvature="0" />
    <g
       transform="matrix(0.68911705,0,0,0.7712839,65.124629,169.54421)"
       id="g27302">
      <g
         style="font-style:normal;font-variant:normal;font-weight:normal;font-stretch:normal;letter-spacing:normal;word-spacing:normal;text-anchor:start;fill:none;fill-opacity:1;fill-rule:evenodd;stroke:#000000;stroke-linecap:butt;stroke-linejoin:miter;stroke-miterlimit:10.43299961;stroke-dasharray:none;stroke-dashoffset:0;stroke-opacity:1"
         id="g27300"
         transform="matrix(0.3,0,0,-0.3,-52.5,222.75)"
         xml:space="preserve"
         stroke-miterlimit="10.433"
         font-style="normal"
         font-variant="normal"
         font-weight="normal"
         font-stretch="normal"
         font-size-adjust="none"
         letter-spacing="normal"
         word-spacing="normal"><path
           style="fill:#000000;stroke-width:0"
           inkscape:connector-curvature="0"
           d="m 487.04,450.78 0.03,0.11 0.03,0.11 0.02,0.11 0.03,0.1 0.03,0.1 0.04,0.09 0.03,0.08 0.04,0.08 0.04,0.08 0.04,0.07 0.05,0.07 0.06,0.06 0.06,0.06 0.07,0.06 0.07,0.05 0.09,0.05 0.09,0.04 0.1,0.04 0.11,0.04 0.12,0.03 0.07,0.02 0.06,0.01 0.07,0.02 0.08,0.01 0.07,0.01 0.08,0.01 0.08,0.01 0.09,0.01 0.09,0.01 0.09,0.01 0.1,0.01 0.1,0.01 h 0.1 l 0.11,0.01 h 0.11 l 0.11,0.01 h 0.12 l 0.12,0.01 h 0.13 0.13 0.13 l 0.14,0.01 h 0.15 0.14 c 1.08,0 1.43,0 1.43,0.76 0,0.03 -0.04,0.49 -0.6,0.49 -0.79,0 -1.73,-0.07 -2.58,-0.11 -0.87,-0.03 -1.9,-0.03 -2.78,-0.03 -0.73,0 -1.67,0.03 -2.4,0.03 -0.74,0 -1.57,0.11 -2.27,0.11 -0.2,0 -0.73,0 -0.73,-0.77 0,-0.48 0.42,-0.48 1.12,-0.48 0.03,0 0.69,0 1.31,-0.08 0.74,-0.06 0.82,-0.14 0.82,-0.49 0,-0.06 0,-0.23 -0.14,-0.76 l -4.64,-18.5 c -0.32,-1.19 -0.4,-1.47 -3.07,-1.47 -0.59,0 -1.04,0 -1.04,-0.73 0,-0.52 0.42,-0.52 1.04,-0.52 h 17.52 c 0.87,0 0.9,0.03 1.19,0.7 0.36,0.94 2.96,7.69 2.96,7.97 0,0.11 -0.07,0.5 -0.59,0.5 -0.42,0 -0.48,-0.19 -0.7,-0.73 -1.31,-3.32 -2.86,-7.19 -9.24,-7.19 h -3.93 c -1.08,0 -1.11,0.05 -1.11,0.36 0,0.03 0,0.2 0.14,0.72 z"
           id="path27278" /><path
           style="fill:#000000;stroke-width:0"
           inkscape:connector-curvature="0"
           d="m 517.49,454.43 0.01,0.02 0.01,0.03 0.01,0.02 0.01,0.01 0.01,0.02 0.01,0.02 0.01,0.02 v 0.02 l 0.01,0.01 0.01,0.02 0.01,0.03 0.02,0.03 0.01,0.03 0.01,0.03 0.01,0.02 0.01,0.03 0.01,0.02 0.01,0.02 v 0.02 l 0.01,0.02 v 0.02 l 0.01,0.01 v 0.02 l 0.01,0.02 v 0.01 0.01 0.02 l 0.01,0.01 v 0.01 0.03 0.02 0.03 0.03 c 0,0.54 -0.45,0.87 -0.84,0.87 -0.6,0 -0.77,-0.42 -0.94,-0.87 l -13,-32.44 c -0.2,-0.46 -0.2,-0.53 -0.2,-0.67 0,-0.55 0.45,-0.88 0.82,-0.88 0.6,0 0.77,0.42 0.94,0.88 z"
           id="path27280" /><path
           style="fill:#000000;stroke-width:0"
           inkscape:connector-curvature="0"
           d="m 535.14,443.15 -0.07,0.11 -0.07,0.1 -0.08,0.11 -0.08,0.1 -0.08,0.1 -0.08,0.09 -0.09,0.1 -0.09,0.09 -0.09,0.09 -0.09,0.09 -0.1,0.09 -0.1,0.08 -0.1,0.08 -0.11,0.08 -0.1,0.07 -0.11,0.07 -0.12,0.07 -0.11,0.06 -0.12,0.07 -0.12,0.05 -0.13,0.06 -0.13,0.04 -0.13,0.05 -0.13,0.04 -0.14,0.04 -0.13,0.03 -0.14,0.03 -0.15,0.02 -0.15,0.02 -0.15,0.01 -0.15,0.01 h -0.15 v -0.97 c 2.43,0 3.11,-2.64 3.11,-3.03 0,-0.14 -0.08,-0.39 -0.11,-0.49 l -1.64,-6.51 c -0.24,-0.99 -1,-1.67 -1.77,-2.34 -0.31,-0.27 -1.72,-1.4 -3.22,-1.4 -1.28,0 -2.53,0.91 -2.53,3.38 0,1.86 1,5.69 1.81,7.08 1.6,2.79 3.38,3.31 4.35,3.31 v 0.97 c -4.46,0 -8.99,-4.91 -8.99,-9.92 0,-3.38 2.27,-5.78 5.27,-5.78 1.87,0 3.55,1.07 4.94,2.43 0.67,-2.09 2.68,-2.43 3.59,-2.43 1.25,0 2.12,0.76 2.75,1.84 0.77,1.36 1.22,3.34 1.22,3.48 0,0.46 -0.45,0.46 -0.55,0.46 -0.5,0 -0.53,-0.14 -0.76,-1.08 -0.43,-1.67 -1.1,-3.74 -2.55,-3.74 -0.91,0 -1.16,0.77 -1.16,1.71 0,0.59 0.28,1.86 0.53,2.76 0.24,0.94 0.6,2.36 0.77,3.13 l 0.69,2.65 c 0.22,0.91 0.62,2.55 0.62,2.72 0,0.77 -0.62,1.11 -1.17,1.11 -0.59,0 -1.41,-0.42 -1.61,-1.39 z"
           id="path27282" /><path
           style="fill:#000000;stroke-width:0"
           inkscape:connector-curvature="0"
           d="m 551.96,440.64 v 0.04 0.03 0.04 0.03 0.03 0.03 0.03 0.02 l -0.01,0.03 v 0.02 0.03 0.02 0.03 l -0.01,0.02 v 0.02 0.02 l -0.01,0.02 v 0.02 l -0.01,0.03 -0.01,0.03 -0.02,0.03 -0.01,0.03 -0.02,0.02 -0.02,0.02 -0.02,0.02 -0.03,0.02 -0.02,0.01 -0.03,0.01 -0.03,0.02 h -0.04 l -0.04,0.01 -0.04,0.01 h -0.02 -0.02 l -0.03,0.01 h -0.02 -0.03 -0.02 -0.03 -0.03 -0.03 -0.03 -0.03 -0.03 -0.03 -0.04 -0.03 -0.04 -0.04 -0.04 c -1.76,-1.59 -4.53,-1.59 -5.03,-1.59 h -0.42 v -1.09 h 0.42 c 0.58,0 2.19,0.06 3.64,0.68 v -12.45 c 0,-0.76 0,-1.05 -2.64,-1.05 h -1.25 v -1.09 c 1.38,0.09 3.6,0.09 5.03,0.09 1.46,0 3.68,0 5.04,-0.09 v 1.09 h -1.24 c -2.64,0 -2.64,0.29 -2.64,1.05 z"
           id="path27284" /><polyline
           style="fill:#000000;fill-rule:nonzero;stroke-width:0"
           points="462,417 573,417 573,419.04 462,419.04 "
           id="polyline27286" /><path
           style="fill:#000000;stroke-width:0"
           inkscape:connector-curvature="0"
           d="m 475.88,409.5 0.03,0.11 0.03,0.11 0.02,0.11 0.03,0.1 0.03,0.09 0.03,0.09 0.04,0.09 0.04,0.08 0.04,0.08 0.04,0.07 0.05,0.07 0.06,0.06 0.06,0.06 0.07,0.06 0.07,0.05 0.09,0.05 0.09,0.04 0.1,0.04 0.11,0.04 0.12,0.03 0.07,0.02 0.06,0.01 0.07,0.01 0.08,0.02 0.07,0.01 0.08,0.01 0.08,0.01 0.09,0.01 0.09,0.01 0.09,0.01 0.1,0.01 0.1,0.01 h 0.1 l 0.11,0.01 h 0.11 l 0.11,0.01 h 0.12 l 0.12,0.01 h 0.13 0.13 0.13 0.14 0.15 l 0.14,0.01 c 1.08,0 1.43,0 1.43,0.76 0,0.03 -0.04,0.49 -0.6,0.49 -0.79,0 -1.73,-0.07 -2.58,-0.11 -0.87,-0.04 -1.9,-0.04 -2.78,-0.04 -0.73,0 -1.67,0.04 -2.4,0.04 -0.74,0 -1.57,0.11 -2.27,0.11 -0.2,0 -0.73,0 -0.73,-0.77 0,-0.48 0.42,-0.48 1.12,-0.48 0.03,0 0.69,0 1.31,-0.08 0.74,-0.07 0.82,-0.14 0.82,-0.49 0,-0.06 0,-0.23 -0.14,-0.76 l -4.64,-18.5 c -0.32,-1.19 -0.4,-1.47 -3.07,-1.47 -0.59,0 -1.04,0 -1.04,-0.74 0,-0.51 0.42,-0.51 1.04,-0.51 h 17.52 c 0.87,0 0.9,0.03 1.19,0.7 0.36,0.94 2.96,7.69 2.96,7.97 0,0.11 -0.07,0.5 -0.59,0.5 -0.42,0 -0.48,-0.19 -0.7,-0.73 -1.31,-3.32 -2.86,-7.19 -9.24,-7.19 h -3.93 c -1.08,0 -1.11,0.05 -1.11,0.36 0,0.03 0,0.2 0.14,0.72 z"
           id="path27288" /><path
           style="fill:#000000;stroke-width:0"
           inkscape:connector-curvature="0"
           d="m 498.47,405.39 0.01,0.03 v 0.03 0.03 l 0.01,0.04 v 0.04 0.04 l 0.01,0.05 0.01,0.05 0.01,0.1 0.01,0.12 0.02,0.13 0.01,0.14 0.02,0.14 0.02,0.15 0.01,0.15 0.02,0.16 0.02,0.17 0.02,0.16 0.04,0.33 0.04,0.33 0.02,0.16 0.01,0.16 0.02,0.15 0.02,0.15 0.01,0.14 0.02,0.13 0.01,0.12 0.01,0.11 0.01,0.05 V 409 l 0.01,0.05 v 0.04 l 0.01,0.04 v 0.04 0.03 l 0.01,0.03 v 0.02 0.02 0.02 0.01 c 0,0.45 -0.36,0.8 -0.86,0.8 -0.53,0 -0.87,-0.39 -0.87,-0.77 0,-0.25 0.37,-3.4 0.45,-3.94 l -3.88,2.32 c -0.23,0.15 -0.34,0.23 -0.56,0.23 -0.4,0 -0.84,-0.37 -0.84,-0.92 0,-0.41 0.25,-0.66 0.51,-0.75 1.38,-0.55 2.8,-1.05 4.19,-1.52 -1.39,-0.53 -3.69,-1.36 -4.11,-1.53 -0.17,-0.06 -0.59,-0.22 -0.59,-0.76 0,-0.55 0.44,-0.92 0.84,-0.92 0.27,0 1.05,0.46 4.44,2.54 -0.08,-0.53 -0.45,-3.69 -0.45,-3.94 0,-0.37 0.34,-0.78 0.87,-0.78 0.5,0 0.86,0.36 0.86,0.8 0,0.23 -0.39,3.42 -0.44,3.92 l 3.94,-2.37 c 0.17,-0.1 0.27,-0.17 0.5,-0.17 0.39,0 0.84,0.37 0.84,0.92 0,0.39 -0.25,0.64 -0.53,0.75 -1.36,0.54 -2.78,1.04 -4.18,1.51 1.4,0.52 3.68,1.35 4.12,1.52 0.17,0.08 0.59,0.23 0.59,0.78 0,0.55 -0.45,0.92 -0.84,0.92 -0.23,0 -0.33,-0.08 -0.58,-0.23 z"
           id="path27290" /><path
           style="fill:#000000;stroke-width:0"
           inkscape:connector-curvature="0"
           d="m 527.09,413.15 0.01,0.02 0.01,0.02 0.01,0.02 0.01,0.02 0.01,0.02 0.01,0.02 0.01,0.02 0.01,0.02 v 0.01 l 0.01,0.02 0.02,0.03 0.01,0.03 0.01,0.03 0.01,0.03 0.01,0.02 0.01,0.02 0.01,0.03 0.01,0.02 v 0.02 l 0.01,0.02 0.01,0.02 v 0.01 0.02 l 0.01,0.01 v 0.02 0.01 l 0.01,0.02 v 0.01 0.01 0.03 0.02 0.03 0.02 c 0,0.55 -0.45,0.88 -0.84,0.88 -0.59,0 -0.77,-0.42 -0.94,-0.88 l -13,-32.43 c -0.2,-0.46 -0.2,-0.53 -0.2,-0.68 0,-0.54 0.45,-0.87 0.83,-0.87 0.59,0 0.76,0.42 0.93,0.87 z"
           id="path27292" /><path
           style="fill:#000000;stroke-width:0"
           inkscape:connector-curvature="0"
           d="m 544.74,401.87 -0.07,0.11 -0.07,0.1 -0.08,0.11 -0.07,0.1 -0.09,0.1 -0.08,0.09 -0.09,0.1 -0.08,0.09 -0.1,0.09 -0.09,0.09 -0.1,0.09 -0.1,0.08 -0.1,0.08 -0.1,0.08 -0.11,0.07 -0.11,0.07 -0.12,0.07 -0.11,0.06 -0.12,0.06 -0.12,0.06 -0.13,0.05 -0.13,0.05 -0.13,0.05 -0.13,0.04 -0.13,0.03 -0.14,0.04 -0.14,0.02 -0.15,0.03 -0.14,0.01 -0.15,0.02 -0.16,0.01 h -0.15 v -0.97 c 2.44,0 3.11,-2.64 3.11,-3.03 0,-0.14 -0.08,-0.39 -0.11,-0.49 l -1.64,-6.51 c -0.24,-0.99 -1,-1.67 -1.77,-2.35 -0.31,-0.26 -1.72,-1.39 -3.22,-1.39 -1.28,0 -2.53,0.91 -2.53,3.38 0,1.86 1,5.69 1.81,7.08 1.6,2.79 3.38,3.31 4.35,3.31 v 0.97 c -4.45,0 -8.99,-4.91 -8.99,-9.92 0,-3.38 2.27,-5.79 5.27,-5.79 1.87,0 3.55,1.08 4.94,2.44 0.67,-2.09 2.68,-2.44 3.59,-2.44 1.25,0 2.13,0.77 2.75,1.85 0.77,1.36 1.22,3.34 1.22,3.48 0,0.46 -0.45,0.46 -0.55,0.46 -0.5,0 -0.53,-0.14 -0.76,-1.08 -0.42,-1.67 -1.1,-3.74 -2.55,-3.74 -0.91,0 -1.16,0.77 -1.16,1.71 0,0.59 0.29,1.86 0.54,2.76 0.23,0.94 0.59,2.36 0.76,3.13 l 0.69,2.65 c 0.22,0.91 0.62,2.55 0.62,2.72 0,0.77 -0.62,1.11 -1.17,1.11 -0.59,0 -1.4,-0.42 -1.61,-1.39 z"
           id="path27294" /><path
           style="fill:#000000;stroke-width:0"
           inkscape:connector-curvature="0"
           d="m 561.23,407.43 0.01,0.03 v 0.03 0.03 l 0.01,0.04 v 0.04 l 0.01,0.04 v 0.05 l 0.01,0.05 0.01,0.1 0.01,0.12 0.02,0.13 0.01,0.13 0.02,0.15 0.02,0.15 0.01,0.15 0.02,0.16 0.02,0.16 0.02,0.17 0.04,0.33 0.04,0.33 0.02,0.16 0.02,0.16 0.01,0.15 0.02,0.15 0.02,0.14 0.01,0.13 0.01,0.12 0.02,0.11 v 0.05 l 0.01,0.05 v 0.05 l 0.01,0.04 v 0.04 0.03 l 0.01,0.04 v 0.03 0.02 0.02 0.02 0.01 c 0,0.45 -0.36,0.8 -0.86,0.8 -0.53,0 -0.87,-0.39 -0.87,-0.77 0,-0.25 0.37,-3.41 0.45,-3.94 l -3.87,2.32 c -0.24,0.15 -0.35,0.23 -0.57,0.23 -0.4,0 -0.84,-0.37 -0.84,-0.92 0,-0.41 0.25,-0.66 0.51,-0.75 1.38,-0.55 2.8,-1.05 4.19,-1.52 -1.39,-0.53 -3.69,-1.36 -4.11,-1.53 -0.17,-0.06 -0.59,-0.22 -0.59,-0.76 0,-0.55 0.44,-0.93 0.84,-0.93 0.27,0 1.05,0.47 4.44,2.55 -0.08,-0.53 -0.45,-3.69 -0.45,-3.94 0,-0.37 0.34,-0.78 0.87,-0.78 0.5,0 0.86,0.36 0.86,0.8 0,0.23 -0.39,3.42 -0.44,3.92 l 3.94,-2.37 c 0.17,-0.1 0.27,-0.18 0.5,-0.18 0.39,0 0.85,0.38 0.85,0.93 0,0.39 -0.25,0.64 -0.54,0.75 -1.36,0.54 -2.78,1.04 -4.18,1.51 1.4,0.52 3.68,1.35 4.12,1.52 0.17,0.08 0.6,0.23 0.6,0.78 0,0.55 -0.46,0.92 -0.85,0.92 -0.23,0 -0.33,-0.08 -0.58,-0.23 z"
           id="path27296" /><path
           style="fill:#000000;stroke-width:0"
           inkscape:connector-curvature="0"
           d="m 566.31,382.45 h -1.04 c -0.08,-0.48 -0.33,-2.01 -0.72,-2.26 -0.21,-0.16 -2.3,-0.16 -2.67,-0.16 H 557 c 1.64,1.22 3.48,2.61 4.98,3.61 2.24,1.55 4.33,3 4.33,5.64 0,3.19 -3.01,4.95 -6.58,4.95 -3.35,0 -5.82,-1.95 -5.82,-4.39 0,-1.29 1.09,-1.51 1.45,-1.51 0.67,0 1.47,0.45 1.47,1.47 0,0.89 -0.66,1.39 -1.42,1.47 0.68,1.12 2.14,1.87 3.81,1.87 2.4,0 4.42,-1.45 4.42,-3.89 0,-2.09 -1.44,-3.69 -3.36,-5.31 l -6.08,-5.16 c -0.25,-0.22 -0.26,-0.22 -0.29,-0.39 v -0.75 h 11.57 z"
           id="path27298" /></g>    </g>
    <g
       id="g926"
       transform="matrix(0.86230002,0,0,0.89685401,-23.914473,20.062605)">
      <g
         word-spacing="normal"
         letter-spacing="normal"
         font-size-adjust="none"
         font-stretch="normal"
         font-weight="normal"
         font-variant="normal"
         font-style="normal"
         stroke-miterlimit="10.433"
         xml:space="preserve"
         transform="matrix(0.3,0,0,-0.3,-52.5,222.75)"
         id="g924"
         style="font-style:normal;font-variant:normal;font-weight:normal;font-stretch:normal;letter-spacing:normal;word-spacing:normal;text-anchor:start;fill:none;fill-opacity:1;fill-rule:evenodd;stroke:#000000;stroke-linecap:butt;stroke-linejoin:miter;stroke-miterlimit:10.43299961;stroke-dasharray:none;stroke-dashoffset:0;stroke-opacity:1"><path
           id="path920"
           d="m 457.75,400.12 -0.03,-0.15 -0.04,-0.15 -0.03,-0.14 -0.03,-0.13 -0.04,-0.13 -0.03,-0.11 -0.04,-0.12 -0.03,-0.1 -0.04,-0.1 -0.04,-0.09 -0.04,-0.09 -0.05,-0.08 -0.05,-0.07 -0.05,-0.07 -0.06,-0.07 -0.06,-0.06 -0.07,-0.05 -0.07,-0.05 -0.08,-0.04 -0.09,-0.04 -0.09,-0.04 -0.1,-0.03 -0.11,-0.03 -0.12,-0.02 -0.13,-0.02 -0.06,-0.01 -0.07,-0.01 -0.07,-0.01 -0.08,-0.01 h -0.07 l -0.08,-0.01 h -0.08 l -0.09,-0.01 h -0.08 -0.09 -0.1 -0.09 l -0.1,-0.01 h -0.1 c -0.6,0 -1.14,0 -1.14,-0.93 0,-0.41 0.25,-0.61 0.64,-0.61 1.36,0 2.79,0.15 4.18,0.15 1.64,0 3.35,-0.15 4.94,-0.15 0.25,0 0.89,0 0.89,1 0,0.54 -0.5,0.54 -1.19,0.54 -2.5,0 -2.5,0.36 -2.5,0.8 0,0.61 2.1,8.72 2.46,9.97 0.64,-1.44 2.03,-3.19 4.58,-3.19 l -0.05,1.1 c -3.3,0 -3.94,4.14 -3.94,4.43 0,0.1 0,0.21 0.14,0.8 l 2.46,9.77 c 0.34,1.34 1.68,2.73 2.57,3.48 1.75,1.55 3.21,1.89 4.05,1.89 1.98,0 3.19,-1.73 3.19,-4.69 0,-2.93 -1.64,-8.65 -2.55,-10.56 -1.69,-3.48 -4.08,-5.12 -5.92,-5.12 l 0.05,-1.1 c 5.78,0 12,7.27 12,14.6 0,4.68 -2.83,7.96 -6.63,7.96 -2.48,0 -4.87,-1.78 -6.51,-3.73 -0.5,2.69 -2.65,3.73 -4.49,3.73 -2.3,0 -3.25,-1.93 -3.69,-2.82 -0.9,-1.71 -1.54,-4.69 -1.54,-4.85 0,-0.5 0.5,-0.5 0.59,-0.5 0.5,0 0.55,0.07 0.84,1.16 0.86,3.53 1.85,5.92 3.64,5.92 0.85,0 1.55,-0.39 1.55,-2.28 0,-1.16 -0.15,-1.7 -0.34,-2.55 z"
           inkscape:connector-curvature="0"
           style="fill:#000000;stroke-width:0" /><path
           id="path922"
           d="m 516.7,443.89 0.62,0.9 c 0.73,0.94 1.58,1.82 3.28,1.96 0.39,0.03 0.8,0.06 0.8,0.76 0,0.25 -0.2,0.49 -0.49,0.49 -0.79,0 -1.81,-0.14 -2.64,-0.14 -1.22,0 -2.72,0.14 -3.87,0.14 -0.17,0 -0.74,0 -0.74,-0.77 0,-0.45 0.5,-0.48 0.63,-0.48 0.78,-0.04 1.92,-0.25 1.92,-1.22 0,-0.39 -0.37,-1.02 -0.51,-1.25 l -9.83,-16.14 -1.92,17.59 c 0,0.98 2.01,1.02 2.43,1.02 0.46,0 0.94,0 0.94,0.76 0,0.03 -0.03,0.49 -0.58,0.49 -0.67,0 -1.5,-0.07 -2.17,-0.11 -0.69,-0.03 -1.59,-0.03 -2.3,-0.03 -0.79,0 -2.86,0.14 -3.65,0.14 -0.17,0 -0.71,0 -0.71,-0.77 0,-0.48 0.46,-0.48 0.91,-0.48 1.5,0 1.67,-0.25 1.78,-0.6 0.03,-0.2 0.11,-1.19 0.25,-2.26 l -9.59,-15.75 -1.85,17.07 c 0,0.15 -0.06,0.49 -0.06,0.52 0,1.02 2.16,1.02 2.44,1.02 0.45,0 0.94,0 0.94,0.76 0,0.14 -0.11,0.49 -0.57,0.49 -1,0 -3.48,-0.14 -4.48,-0.14 -1.16,0 -2.63,0.14 -3.66,0.14 -0.36,0 -0.7,-0.14 -0.7,-0.74 0,-0.51 0.42,-0.51 0.97,-0.51 1.64,0 1.64,-0.22 1.75,-1.08 l 2.33,-21.22 c 0.08,-0.7 0.11,-0.95 0.73,-0.95 0.6,0 0.85,0.31 1.05,0.7 l 10.87,17.91 1.91,-17.71 c 0.08,-0.72 0.25,-0.9 0.78,-0.9 0.58,0 0.8,0.31 1.03,0.73 z"
           inkscape:connector-curvature="0"
           style="fill:#000000;stroke-width:0" /></g>    </g>
  </g>
</svg>
