<?xml version="1.0" encoding="UTF-8" standalone="no"?>
<!-- Created with Inkscape (http://www.inkscape.org/) -->

<svg
   xmlns:dc="http://purl.org/dc/elements/1.1/"
   xmlns:cc="http://creativecommons.org/ns#"
   xmlns:rdf="http://www.w3.org/1999/02/22-rdf-syntax-ns#"
   xmlns:svg="http://www.w3.org/2000/svg"
   xmlns="http://www.w3.org/2000/svg"
   xmlns:sodipodi="http://sodipodi.sourceforge.net/DTD/sodipodi-0.dtd"
   xmlns:inkscape="http://www.inkscape.org/namespaces/inkscape"
   width="297mm"
   height="210mm"
   viewBox="0 0 297 210"
   version="1.1"
   id="svg8"
   inkscape:version="0.92.3 (2405546, 2018-03-11)"
   sodipodi:docname="fig2.svg">
  <sodipodi:namedview
     id="base"
     pagecolor="#ffffff"
     bordercolor="#666666"
     borderopacity="1.0"
     inkscape:pageopacity="0.0"
     inkscape:pageshadow="2"
     inkscape:zoom="1.16"
     inkscape:cx="532.19258"
     inkscape:cy="363.83972"
     inkscape:document-units="mm"
     inkscape:current-layer="layer1"
     showgrid="false"
     inkscape:window-width="1853"
     inkscape:window-height="1025"
     inkscape:window-x="67"
     inkscape:window-y="27"
     inkscape:window-maximized="1" />
  <defs
     id="defs2" />
  <metadata
     id="metadata5">
    <rdf:RDF>
      <cc:Work
         rdf:about="">
        <dc:format>image/svg+xml</dc:format>
        <dc:type
           rdf:resource="http://purl.org/dc/dcmitype/StillImage" />
        <dc:title></dc:title>
      </cc:Work>
    </rdf:RDF>
  </metadata>
  <g
     transform="translate(0,-87)"
     id="layer1"
     inkscape:groupmode="layer"
     inkscape:label="Layer 1">
    <path
       sodipodi:nodetypes="ccc"
       inkscape:connector-curvature="0"
       id="path815"
       d="m 46.073995,121.5995 0.456177,147.34554 163.767958,0.45618"
       style="fill:none;stroke:#000000;stroke-width:1.06500006;stroke-linecap:butt;stroke-linejoin:miter;stroke-miterlimit:4;stroke-dasharray:none;stroke-opacity:1" />
    <path
       sodipodi:nodetypes="cc"
       inkscape:connector-curvature="0"
       id="path817"
       d="m 63.408763,131.86351 c 25.15126,46.66727 54.278977,91.0547 124.308547,111.99174"
       style="fill:none;stroke:#000000;stroke-width:0.76499999;stroke-linecap:butt;stroke-linejoin:miter;stroke-miterlimit:4;stroke-dasharray:none;stroke-opacity:1" />
    <path
       sodipodi:nodetypes="cc"
       inkscape:connector-curvature="0"
       id="path819"
       d="M 161.75016,122.96935 C 149.39609,174.26958 98.756594,196.49668 46.733478,217.6731"
       style="fill:none;stroke:#000000;stroke-width:0.67394447;stroke-linecap:butt;stroke-linejoin:miter;stroke-miterlimit:4;stroke-dasharray:none;stroke-opacity:1" />
    <g
       transform="matrix(0.7490967,0,0,0.76592092,151.50819,196.3183)"
       id="g830">
      <g
         style="font-style:normal;font-variant:normal;font-weight:normal;font-stretch:normal;letter-spacing:normal;word-spacing:normal;text-anchor:start;fill:none;fill-opacity:1;fill-rule:evenodd;stroke:#000000;stroke-linecap:butt;stroke-linejoin:miter;stroke-miterlimit:10.43299961;stroke-dasharray:none;stroke-dashoffset:0;stroke-opacity:1"
         word-spacing="normal"
         letter-spacing="normal"
         font-size-adjust="none"
         font-stretch="normal"
         font-weight="normal"
         font-variant="normal"
         font-style="normal"
         stroke-miterlimit="10.433"
         xml:space="preserve"
         transform="matrix(0.3,0,0,-0.3,-52.5,222.75)"
         id="content"><path
           style="fill:#000000;stroke-width:0"
           inkscape:connector-curvature="0"
           id="path827"
           d="m 475.25,425.14 h -0.14 -0.15 l -0.15,-0.01 h -0.14 l -0.14,-0.01 -0.14,-0.02 -0.07,-0.01 -0.07,-0.01 -0.06,-0.02 -0.07,-0.01 -0.07,-0.02 -0.07,-0.02 -0.07,-0.02 -0.06,-0.02 -0.07,-0.03 -0.07,-0.03 -0.06,-0.03 -0.07,-0.04 -0.07,-0.04 -0.06,-0.04 -0.07,-0.05 -0.07,-0.04 -0.06,-0.06 -0.07,-0.05 -0.06,-0.06 -0.07,-0.07 c -0.8,-0.75 -0.89,-1.59 -0.89,-1.93 0,-1.21 0.89,-1.75 1.84,-1.75 1.44,0 2.8,1.2 2.8,3.18 0,2.44 -2.34,4.28 -5.89,4.28 -6.72,0 -13.34,-7.12 -13.34,-14.14 0,-4.48 2.89,-8.42 8.06,-8.42 7.12,0 11.31,5.28 11.31,5.88 0,0.29 -0.3,0.65 -0.59,0.65 -0.25,0 -0.35,-0.11 -0.66,-0.5 -3.94,-4.93 -9.36,-4.93 -9.95,-4.93 -3.14,0 -4.49,2.43 -4.49,5.43 0,2.03 0.99,6.88 2.69,9.96 1.55,2.84 4.28,4.98 7.02,4.98 1.7,0 3.59,-0.64 4.29,-1.98 z" /></g>    </g>
    <g
       transform="matrix(0.90238237,0,0,0.95924015,-44.187343,23.724818)"
       id="g860">
      <g
         style="font-style:normal;font-variant:normal;font-weight:normal;font-stretch:normal;letter-spacing:normal;word-spacing:normal;text-anchor:start;fill:none;fill-opacity:1;fill-rule:evenodd;stroke:#000000;stroke-linecap:butt;stroke-linejoin:miter;stroke-miterlimit:10.43299961;stroke-dasharray:none;stroke-dashoffset:0;stroke-opacity:1"
         id="g858"
         transform="matrix(0.3,0,0,-0.3,-52.5,222.75)"
         xml:space="preserve"
         stroke-miterlimit="10.433"
         font-style="normal"
         font-variant="normal"
         font-weight="normal"
         font-stretch="normal"
         font-size-adjust="none"
         letter-spacing="normal"
         word-spacing="normal"><path
           style="fill:#000000;stroke-width:0"
           inkscape:connector-curvature="0"
           d="m 468.81,424.15 -0.02,-0.09 -0.02,-0.09 -0.02,-0.08 -0.02,-0.08 -0.03,-0.07 -0.02,-0.07 -0.02,-0.07 -0.02,-0.06 -0.02,-0.06 -0.03,-0.06 -0.03,-0.05 -0.03,-0.05 -0.03,-0.05 -0.03,-0.04 -0.04,-0.04 -0.04,-0.04 -0.04,-0.03 -0.05,-0.03 -0.05,-0.03 -0.06,-0.03 -0.06,-0.02 -0.06,-0.02 -0.07,-0.02 -0.07,-0.02 -0.09,-0.01 -0.04,-0.01 h -0.04 l -0.05,-0.01 h -0.04 -0.05 l -0.05,-0.01 h -0.05 -0.06 l -0.05,-0.01 h -0.06 -0.06 -0.06 -0.06 -0.06 c -0.46,0 -0.94,0 -0.94,-0.74 0,-0.39 0.31,-0.53 0.48,-0.53 0.91,0 2.06,0.14 3,0.14 1.19,0 2.5,-0.14 3.66,-0.14 0.31,0 0.7,0.11 0.7,0.77 0,0.5 -0.5,0.5 -0.9,0.5 -0.79,0 -1.72,0 -1.72,0.4 0,0.19 0.25,1.1 0.39,1.61 0.42,1.85 0.9,3.74 1.28,5.19 0.42,-0.69 1.5,-2.05 3.59,-2.05 v 0.97 c -2.47,0 -3.09,2.69 -3.09,3.03 0,0.15 0.06,0.4 0.09,0.54 l 1.75,7 c 2.02,2.68 3.77,3.2 4.88,3.2 1.36,0 2.54,-1.02 2.54,-3.38 0,-1.43 -0.76,-4.98 -1.81,-7.01 -0.87,-1.7 -2.58,-3.38 -4.36,-3.38 v -0.97 c 4.25,0 8.96,4.71 8.96,9.9 0,4.07 -2.83,5.81 -5.22,5.81 -2.18,0 -4.02,-1.46 -4.96,-2.44 -0.59,1.98 -2.54,2.44 -3.59,2.44 -1.36,0 -2.19,-0.91 -2.75,-1.85 -0.7,-1.18 -1.25,-3.26 -1.25,-3.48 0,-0.45 0.48,-0.45 0.59,-0.45 0.49,0 0.52,0.11 0.77,1.04 0.51,2.03 1.19,3.77 2.55,3.77 0.9,0 1.14,-0.77 1.14,-1.7 0,-0.39 -0.07,-0.85 -0.11,-1.05 z"
           id="path852" /><polyline
           style="fill:#000000;fill-rule:nonzero;stroke-width:0"
           points="462,418 491.76,418 491.76,420.04 462,420.04 "
           id="polyline854" /><path
           style="fill:#000000;stroke-width:0"
           inkscape:connector-curvature="0"
           d="m 479.85,400.15 0.02,0.09 0.03,0.09 0.02,0.1 0.03,0.11 0.02,0.1 0.03,0.11 0.06,0.21 0.05,0.22 0.06,0.23 0.05,0.22 0.02,0.1 0.03,0.11 0.02,0.1 0.03,0.1 0.02,0.1 0.02,0.1 0.02,0.09 0.02,0.08 0.02,0.08 0.02,0.08 0.01,0.07 0.01,0.06 0.02,0.06 0.01,0.05 v 0.05 l 0.01,0.04 v 0.01 0.01 0.02 0.01 c 0,0.68 -0.54,1.1 -1.14,1.1 -0.67,0 -1.29,-0.42 -1.5,-1.01 -0.11,-0.27 -0.45,-1.74 -0.7,-2.61 -0.48,-1.98 -0.48,-2.05 -1,-4 -0.45,-1.92 -0.53,-2.2 -0.56,-3.2 0.14,-0.71 -0.14,-1.36 -0.99,-2.41 -0.43,-0.56 -1.14,-1.16 -2.32,-1.16 -1.36,0 -3.15,0.49 -3.15,3.21 0,1.78 0.99,4.36 1.68,6.14 0.59,1.53 0.73,1.84 0.73,2.44 0,1.67 -1.42,2.95 -3.31,2.95 -3.52,0 -5.08,-4.74 -5.08,-5.33 0,-0.45 0.48,-0.45 0.59,-0.45 0.49,0 0.52,0.17 0.63,0.56 0.87,2.89 2.37,4.25 3.76,4.25 0.6,0 0.86,-0.39 0.86,-1.22 0,-0.8 -0.31,-1.56 -0.48,-2.01 -1.98,-5.1 -1.98,-5.8 -1.98,-6.88 0,-4.11 3.73,-4.62 5.6,-4.62 0.68,0 2.38,0 3.94,2.32 0.8,-1.56 2.72,-2.32 4.85,-2.32 3.11,0 4.64,2.67 5.32,4.1 1.5,2.93 2.44,7.29 2.44,8.9 0,2.6 -1.48,2.75 -1.73,2.75 -0.91,0 -1.88,-0.96 -1.88,-1.86 0,-0.58 0.35,-0.86 0.58,-1.08 0.84,-0.69 1.3,-1.67 1.3,-2.78 0,-0.46 -1.47,-9.07 -5.89,-9.07 -2.83,0 -2.83,2.52 -2.83,3.11 0,0.94 0.14,1.5 0.64,3.49 z"
           id="path856" /></g>    </g>
    <g
       transform="matrix(0.7490967,0,0,0.76592092,91.70105,41.233813)"
       id="g898">
      <g
         style="font-style:normal;font-variant:normal;font-weight:normal;font-stretch:normal;letter-spacing:normal;word-spacing:normal;text-anchor:start;fill:none;fill-opacity:1;fill-rule:evenodd;stroke:#000000;stroke-linecap:butt;stroke-linejoin:miter;stroke-miterlimit:10.43299961;stroke-dasharray:none;stroke-dashoffset:0;stroke-opacity:1"
         word-spacing="normal"
         letter-spacing="normal"
         font-size-adjust="none"
         font-stretch="normal"
         font-weight="normal"
         font-variant="normal"
         font-style="normal"
         stroke-miterlimit="10.433"
         xml:space="preserve"
         transform="matrix(0.3,0,0,-0.3,-52.5,222.75)"
         id="g896"><path
           style="fill:#000000;stroke-width:0"
           inkscape:connector-curvature="0"
           id="path892"
           d="m 466.83,421.95 -0.15,1.28 v 13.45 c 0,1.66 0.11,2 2.43,2 h 4.44 c 7.92,0 7.92,-5.28 7.92,-7.72 0,-2.34 0,-7.73 -7.92,-7.73 h -6.87 l 0.15,-1.28 h 8.42 c 5.97,0 11.36,4.03 11.36,9.01 0,4.88 -4.93,9.27 -11.76,9.27 h -17.58 v -1.55 h 1.19 c 3.84,0 3.93,-0.54 3.93,-2.34 v -26.25 c 0,-1.8 -0.09,-2.34 -3.93,-2.34 h -1.19 v -1.55 c 1.73,0.16 5.42,0.16 7.31,0.16 1.89,0 5.64,0 7.38,-0.16 v 1.55 h -1.19 c -3.84,0 -3.94,0.54 -3.94,2.34 z" /><path
           style="fill:#000000;stroke-width:0"
           inkscape:connector-curvature="0"
           id="path894"
           d="m 500.79,421.95 -0.16,1.28 v 13.45 c 0,1.66 0.11,2 2.44,2 h 4.44 c 7.92,0 7.92,-5.28 7.92,-7.72 0,-2.34 0,-7.73 -7.92,-7.73 h -6.88 l 0.16,-1.28 h 8.42 c 5.97,0 11.36,4.03 11.36,9.01 0,4.88 -4.94,9.27 -11.77,9.27 h -17.57 v -1.55 h 1.18 c 3.85,0 3.94,-0.54 3.94,-2.34 v -26.25 c 0,-1.8 -0.09,-2.34 -3.94,-2.34 h -1.18 v -1.55 c 1.73,0.16 5.42,0.16 7.31,0.16 1.89,0 5.64,0 7.37,-0.16 v 1.55 h -1.18 c -3.85,0 -3.94,0.54 -3.94,2.34 z" /></g>    </g>
    <g
       transform="matrix(0.7490967,0,0,0.76592092,128.89512,170.18073)"
       id="g944">
      <g
         style="font-style:normal;font-variant:normal;font-weight:normal;font-stretch:normal;letter-spacing:normal;word-spacing:normal;text-anchor:start;fill:none;fill-opacity:1;fill-rule:evenodd;stroke:#000000;stroke-linecap:butt;stroke-linejoin:miter;stroke-miterlimit:10.43299961;stroke-dasharray:none;stroke-dashoffset:0;stroke-opacity:1"
         id="g942"
         transform="matrix(0.3,0,0,-0.3,-52.5,222.75)"
         xml:space="preserve"
         stroke-miterlimit="10.433"
         font-style="normal"
         font-variant="normal"
         font-weight="normal"
         font-stretch="normal"
         font-size-adjust="none"
         letter-spacing="normal"
         word-spacing="normal"><path
           style="fill:#000000;stroke-width:0"
           inkscape:connector-curvature="0"
           d="m 484.52,440.07 h -27.36 v -1.54 h 1.2 c 3.83,0 3.94,-0.55 3.94,-2.33 v -26.11 c 0,-1.8 -0.11,-2.34 -3.94,-2.34 h -1.2 v -1.55 c 1.75,0.16 5.64,0.16 7.58,0.16 2.05,0 6.58,0 8.37,-0.16 v 1.55 h -1.65 c -4.74,0 -4.74,0.64 -4.74,2.39 v 12.25 h 4.3 c 4.78,0 5.28,-1.6 5.28,-5.83 h 1.24 v 13.2 h -1.24 c 0,-4.19 -0.5,-5.83 -5.28,-5.83 h -4.3 v 12.61 c 0,1.64 0.11,1.99 2.46,1.99 h 5.96 c 7.49,0 8.72,-2.78 9.52,-9.66 h 1.25 z"
           id="path938" /><path
           style="fill:#000000;stroke-width:0"
           inkscape:connector-curvature="0"
           d="m 494.82,410.09 v -0.16 -0.16 l -0.01,-0.15 v -0.15 l -0.01,-0.13 -0.02,-0.13 -0.01,-0.13 -0.03,-0.11 -0.03,-0.12 -0.03,-0.1 -0.05,-0.1 -0.05,-0.09 -0.06,-0.09 -0.06,-0.08 -0.08,-0.08 -0.09,-0.07 -0.1,-0.06 -0.12,-0.06 -0.06,-0.03 -0.06,-0.03 -0.07,-0.02 -0.07,-0.03 -0.07,-0.02 -0.08,-0.02 -0.08,-0.02 -0.09,-0.02 -0.09,-0.02 -0.09,-0.02 -0.1,-0.02 -0.1,-0.01 -0.1,-0.01 -0.11,-0.02 -0.11,-0.01 -0.12,-0.01 -0.12,-0.01 -0.13,-0.01 -0.13,-0.01 -0.14,-0.01 h -0.14 l -0.15,-0.01 h -0.15 l -0.15,-0.01 h -0.16 -0.17 -0.17 -0.18 -1.2 v -1.55 h 28.75 l 2.09,12.86 h -1.25 c -1.23,-7.67 -2.39,-11.31 -10.95,-11.31 h -6.62 c -2.35,0 -2.46,0.34 -2.46,1.98 v 13.31 h 4.49 c 4.84,0 5.39,-1.59 5.39,-5.83 h 1.23 v 13.21 h -1.23 c 0,-4.3 -0.55,-5.83 -5.39,-5.83 h -4.49 v 11.95 c 0,1.64 0.11,1.99 2.46,1.99 h 6.42 c 7.62,0 8.97,-2.74 9.76,-9.66 h 1.25 l -1.4,11.2 h -28.05 v -1.54 h 1.2 c 3.83,0 3.94,-0.55 3.94,-2.33 z"
           id="path940" /></g>    </g>
    <path
       inkscape:connector-curvature="0"
       id="path970"
       d="m 46.302082,203.93965 31.932469,0.2281 0.68427,65.00539"
       style="fill:none;stroke:#f50000;stroke-width:0.66500002;stroke-linecap:butt;stroke-linejoin:miter;stroke-miterlimit:4;stroke-dasharray:0.665, 1.33;stroke-dashoffset:0;stroke-opacity:1"
       sodipodi:nodetypes="ccc" />
    <g
       transform="matrix(0.70080656,0,0,0.78634827,40.358402,201.15025)"
       id="g1001">
      <g
         style="font-style:normal;font-variant:normal;font-weight:normal;font-stretch:normal;letter-spacing:normal;word-spacing:normal;text-anchor:start;fill:none;fill-opacity:1;fill-rule:evenodd;stroke:#000000;stroke-linecap:butt;stroke-linejoin:miter;stroke-miterlimit:10.43299961;stroke-dasharray:none;stroke-dashoffset:0;stroke-opacity:1"
         word-spacing="normal"
         letter-spacing="normal"
         font-size-adjust="none"
         font-stretch="normal"
         font-weight="normal"
         font-variant="normal"
         font-style="normal"
         stroke-miterlimit="10.433"
         xml:space="preserve"
         transform="matrix(0.3,0,0,-0.3,-52.5,222.75)"
         id="g999"><path
           style="fill:#000000;stroke-width:0"
           inkscape:connector-curvature="0"
           id="path995"
           d="m 475.25,425.14 h -0.14 -0.15 l -0.15,-0.01 h -0.14 l -0.14,-0.01 -0.14,-0.02 -0.07,-0.01 -0.07,-0.01 -0.06,-0.02 -0.07,-0.01 -0.07,-0.02 -0.07,-0.02 -0.07,-0.02 -0.06,-0.02 -0.07,-0.03 -0.07,-0.03 -0.06,-0.03 -0.07,-0.04 -0.07,-0.04 -0.06,-0.04 -0.07,-0.05 -0.07,-0.04 -0.06,-0.06 -0.07,-0.05 -0.06,-0.06 -0.07,-0.07 c -0.8,-0.75 -0.89,-1.59 -0.89,-1.93 0,-1.21 0.89,-1.75 1.84,-1.75 1.44,0 2.8,1.2 2.8,3.18 0,2.44 -2.34,4.28 -5.89,4.28 -6.72,0 -13.34,-7.12 -13.34,-14.14 0,-4.48 2.89,-8.42 8.06,-8.42 7.12,0 11.31,5.28 11.31,5.88 0,0.29 -0.3,0.65 -0.59,0.65 -0.25,0 -0.35,-0.11 -0.66,-0.5 -3.94,-4.93 -9.36,-4.93 -9.95,-4.93 -3.14,0 -4.49,2.43 -4.49,5.43 0,2.03 0.99,6.88 2.69,9.96 1.55,2.84 4.28,4.98 7.02,4.98 1.7,0 3.59,-0.64 4.29,-1.98 z" /><path
           style="fill:#000000;stroke-width:0"
           inkscape:connector-curvature="0"
           id="path997"
           d="m 488.37,432.87 0.26,0.12 0.26,0.11 0.24,0.11 0.24,0.1 0.23,0.1 0.22,0.1 0.21,0.09 0.21,0.09 0.2,0.08 0.19,0.08 0.18,0.08 0.18,0.07 0.17,0.08 0.16,0.06 0.16,0.07 0.15,0.06 0.14,0.06 0.14,0.06 0.14,0.06 0.13,0.05 0.12,0.06 0.12,0.05 0.11,0.05 0.11,0.04 0.11,0.05 0.1,0.04 0.19,0.09 0.18,0.08 0.17,0.08 c 0.67,0.27 0.98,0.41 0.98,1.08 0,0.59 -0.45,1.11 -1.08,1.11 -0.25,0 -0.31,0 -0.73,-0.31 l -4.74,-3.17 0.52,5.15 c 0.08,0.63 0,1.5 -1.05,1.5 -0.42,0 -1.08,-0.28 -1.08,-1.04 0,-0.32 0.15,-1.36 0.18,-1.71 0.07,-0.59 0.31,-3.11 0.39,-3.9 l -4.71,3.17 c -0.36,0.2 -0.45,0.31 -0.76,0.31 -0.64,0 -1.1,-0.52 -1.1,-1.11 0,-0.7 0.43,-0.87 0.74,-1.01 l 5.26,-2.19 c -2.85,-1.27 -4.14,-1.75 -5.01,-2.17 -0.66,-0.29 -0.99,-0.43 -0.99,-1.08 0,-0.6 0.46,-1.11 1.1,-1.11 0.23,0 0.31,0 0.72,0.31 l 4.75,3.17 -0.57,-5.61 c 0,-0.76 0.66,-1.04 1.08,-1.04 0.42,0 1.08,0.28 1.08,1.04 0,0.32 -0.14,1.36 -0.17,1.71 -0.06,0.59 -0.31,3.09 -0.38,3.9 l 4.18,-2.79 c 0.9,-0.69 0.98,-0.69 1.29,-0.69 0.63,0 1.08,0.51 1.08,1.11 0,0.7 -0.42,0.87 -0.73,1.01 z" /></g>    </g>
    <g
       transform="matrix(0.80410777,0,0,0.85198541,-48.758689,106.36196)"
       id="g1073">
      <g
         style="font-style:normal;font-variant:normal;font-weight:normal;font-stretch:normal;letter-spacing:normal;word-spacing:normal;text-anchor:start;fill:none;fill-opacity:1;fill-rule:evenodd;stroke:#000000;stroke-linecap:butt;stroke-linejoin:miter;stroke-miterlimit:10.43299961;stroke-dasharray:none;stroke-dashoffset:0;stroke-opacity:1"
         id="g1071"
         transform="matrix(0.3,0,0,-0.3,-52.5,222.75)"
         xml:space="preserve"
         stroke-miterlimit="10.433"
         font-style="normal"
         font-variant="normal"
         font-weight="normal"
         font-stretch="normal"
         font-size-adjust="none"
         letter-spacing="normal"
         word-spacing="normal"><path
           style="fill:#000000;stroke-width:0"
           inkscape:connector-curvature="0"
           d="m 476.1,389.27 v 0.02 0.02 0.01 l -0.01,0.02 v 0.02 0.01 0.02 l -0.01,0.01 v 0.02 l -0.01,0.01 v 0.02 l -0.01,0.01 v 0.01 l -0.01,0.02 -0.01,0.01 v 0.01 l -0.02,0.03 -0.01,0.02 -0.02,0.03 -0.02,0.02 -0.02,0.03 -0.01,0.03 -0.02,0.02 -0.01,0.02 -0.02,0.01 c -2.29,2.44 -5.67,6.49 -7.76,14.6 -1.16,4.53 -1.59,9.67 -1.59,14.29 0,13.11 3.14,22.28 9.1,28.75 0.46,0.46 0.46,0.55 0.46,0.66 0,0.5 -0.41,0.5 -0.6,0.5 -0.75,0 -3.43,-3 -4.09,-3.75 -5.08,-6.02 -8.31,-14.98 -8.31,-26.09 0,-7.08 1.23,-17.1 7.76,-25.52 0.5,-0.59 3.74,-4.39 4.64,-4.39 0.19,0 0.6,0 0.6,0.5 z"
           id="path1059" /><path
           style="fill:#000000;stroke-width:0"
           inkscape:connector-curvature="0"
           d="m 491.61,424.15 -0.02,-0.09 -0.02,-0.09 -0.02,-0.08 -0.02,-0.08 -0.02,-0.07 -0.03,-0.07 -0.02,-0.07 -0.02,-0.06 -0.02,-0.06 -0.03,-0.06 -0.03,-0.05 -0.03,-0.05 -0.03,-0.05 -0.03,-0.04 -0.04,-0.04 -0.04,-0.04 -0.04,-0.03 -0.05,-0.03 -0.05,-0.03 -0.06,-0.03 -0.06,-0.02 -0.06,-0.02 -0.07,-0.02 -0.07,-0.02 -0.08,-0.01 -0.05,-0.01 h -0.04 l -0.05,-0.01 h -0.04 -0.05 l -0.05,-0.01 h -0.05 -0.06 l -0.05,-0.01 h -0.06 -0.06 -0.06 -0.06 -0.06 c -0.46,0 -0.94,0 -0.94,-0.74 0,-0.39 0.31,-0.53 0.48,-0.53 0.91,0 2.07,0.14 3,0.14 1.19,0 2.5,-0.14 3.66,-0.14 0.31,0 0.7,0.11 0.7,0.77 0,0.5 -0.5,0.5 -0.9,0.5 -0.79,0 -1.72,0 -1.72,0.4 0,0.19 0.25,1.1 0.39,1.61 0.42,1.85 0.9,3.74 1.28,5.19 0.42,-0.69 1.5,-2.05 3.59,-2.05 v 0.97 c -2.47,0 -3.09,2.69 -3.09,3.03 0,0.15 0.06,0.4 0.09,0.54 l 1.75,7 c 2.02,2.68 3.77,3.2 4.88,3.2 1.36,0 2.54,-1.02 2.54,-3.38 0,-1.43 -0.76,-4.98 -1.81,-7.01 -0.87,-1.7 -2.58,-3.38 -4.36,-3.38 v -0.97 c 4.25,0 8.96,4.71 8.96,9.9 0,4.07 -2.83,5.81 -5.22,5.81 -2.17,0 -4.02,-1.46 -4.96,-2.44 -0.59,1.98 -2.54,2.44 -3.59,2.44 -1.36,0 -2.19,-0.91 -2.75,-1.85 -0.7,-1.18 -1.25,-3.26 -1.25,-3.48 0,-0.45 0.48,-0.45 0.59,-0.45 0.49,0 0.52,0.11 0.77,1.04 0.52,2.03 1.19,3.77 2.55,3.77 0.9,0 1.14,-0.77 1.14,-1.7 0,-0.39 -0.07,-0.85 -0.11,-1.05 z"
           id="path1061" /><polyline
           style="fill:#000000;fill-rule:nonzero;stroke-width:0"
           points="484,418 513.76,418 513.76,420.04 484,420.04 "
           id="polyline1063" /><path
           style="fill:#000000;stroke-width:0"
           inkscape:connector-curvature="0"
           d="m 502.65,400.15 0.02,0.09 0.03,0.09 0.02,0.1 0.03,0.11 0.02,0.1 0.03,0.11 0.06,0.21 0.05,0.22 0.06,0.23 0.05,0.22 0.02,0.1 0.03,0.11 0.02,0.1 0.03,0.1 0.02,0.1 0.02,0.1 0.02,0.09 0.02,0.08 0.02,0.08 0.02,0.08 0.01,0.07 0.02,0.06 0.01,0.06 0.01,0.05 v 0.05 l 0.01,0.04 v 0.01 0.01 0.02 0.01 c 0,0.68 -0.54,1.1 -1.14,1.1 -0.67,0 -1.29,-0.42 -1.5,-1.01 -0.11,-0.27 -0.45,-1.74 -0.7,-2.61 -0.48,-1.98 -0.48,-2.05 -1,-4 -0.45,-1.92 -0.53,-2.2 -0.56,-3.2 0.14,-0.71 -0.14,-1.36 -0.99,-2.41 -0.43,-0.56 -1.14,-1.16 -2.32,-1.16 -1.36,0 -3.14,0.49 -3.14,3.21 0,1.78 0.98,4.36 1.67,6.14 0.59,1.53 0.73,1.84 0.73,2.44 0,1.67 -1.42,2.95 -3.31,2.95 -3.52,0 -5.08,-4.74 -5.08,-5.33 0,-0.45 0.49,-0.45 0.59,-0.45 0.49,0 0.52,0.17 0.63,0.56 0.87,2.89 2.37,4.25 3.77,4.25 0.59,0 0.85,-0.39 0.85,-1.22 0,-0.8 -0.31,-1.56 -0.48,-2.01 -1.98,-5.1 -1.98,-5.8 -1.98,-6.88 0,-4.11 3.73,-4.62 5.61,-4.62 0.67,0 2.37,0 3.93,2.32 0.8,-1.56 2.72,-2.32 4.85,-2.32 3.11,0 4.64,2.67 5.32,4.1 1.5,2.93 2.44,7.29 2.44,8.9 0,2.6 -1.48,2.75 -1.73,2.75 -0.91,0 -1.88,-0.96 -1.88,-1.86 0,-0.58 0.35,-0.86 0.58,-1.08 0.84,-0.69 1.3,-1.67 1.3,-2.78 0,-0.46 -1.47,-9.07 -5.89,-9.07 -2.83,0 -2.83,2.52 -2.83,3.11 0,0.94 0.14,1.5 0.64,3.49 z"
           id="path1065" /><path
           style="fill:#000000;stroke-width:0"
           inkscape:connector-curvature="0"
           d="m 535.28,418.61 -0.01,1.36 -0.06,1.43 -0.09,1.47 -0.14,1.53 -0.19,1.57 -0.25,1.61 -0.31,1.63 -0.39,1.66 -0.22,0.83 -0.24,0.84 -0.26,0.84 -0.29,0.84 -0.3,0.84 -0.33,0.84 -0.35,0.85 -0.38,0.83 -0.4,0.84 -0.43,0.83 -0.45,0.83 -0.48,0.82 -0.51,0.82 -0.54,0.81 -0.56,0.8 -0.6,0.8 c -0.5,0.59 -3.73,4.39 -4.62,4.39 -0.26,0 -0.61,-0.11 -0.61,-0.5 0,-0.2 0.11,-0.36 0.29,-0.5 2.39,-2.59 5.64,-6.63 7.67,-14.55 1.16,-4.53 1.61,-9.67 1.61,-14.29 0,-5.04 -0.45,-10.13 -1.75,-15 -1.89,-6.99 -4.82,-10.97 -7.37,-13.75 -0.45,-0.46 -0.45,-0.55 -0.45,-0.66 0,-0.39 0.35,-0.5 0.61,-0.5 0.73,0 3.48,3.05 4.07,3.75 5.08,6.02 8.33,14.98 8.33,26.09 z"
           id="path1067" /><path
           style="fill:#000000;stroke-width:0"
           inkscape:connector-curvature="0"
           d="m 554.13,444.87 0.26,0.12 0.26,0.11 0.24,0.11 0.24,0.1 0.23,0.1 0.22,0.1 0.21,0.09 0.21,0.09 0.2,0.08 0.19,0.08 0.18,0.08 0.18,0.07 0.17,0.08 0.16,0.06 0.16,0.07 0.15,0.06 0.14,0.06 0.14,0.06 0.14,0.06 0.12,0.05 0.13,0.06 0.12,0.05 0.11,0.05 0.11,0.04 0.11,0.05 0.1,0.04 0.19,0.09 0.18,0.08 0.17,0.08 c 0.67,0.27 0.98,0.41 0.98,1.08 0,0.59 -0.45,1.11 -1.08,1.11 -0.25,0 -0.31,0 -0.73,-0.31 l -4.74,-3.17 0.52,5.15 c 0.08,0.63 0,1.5 -1.05,1.5 -0.42,0 -1.08,-0.28 -1.08,-1.04 0,-0.32 0.14,-1.36 0.18,-1.71 0.07,-0.59 0.31,-3.11 0.38,-3.9 l -4.7,3.17 c -0.36,0.2 -0.45,0.31 -0.76,0.31 -0.64,0 -1.1,-0.52 -1.1,-1.11 0,-0.7 0.43,-0.87 0.74,-1.01 l 5.26,-2.19 c -2.86,-1.27 -4.14,-1.75 -5.01,-2.17 -0.66,-0.29 -0.99,-0.43 -0.99,-1.08 0,-0.6 0.46,-1.11 1.1,-1.11 0.23,0 0.31,0 0.71,0.31 l 4.75,3.17 -0.56,-5.61 c 0,-0.76 0.66,-1.04 1.08,-1.04 0.42,0 1.08,0.28 1.08,1.04 0,0.32 -0.14,1.36 -0.17,1.71 -0.06,0.59 -0.31,3.09 -0.38,3.9 l 4.17,-2.79 c 0.91,-0.69 0.99,-0.69 1.3,-0.69 0.63,0 1.08,0.51 1.08,1.11 0,0.7 -0.42,0.87 -0.73,1.01 z"
           id="path1069" /></g>    </g>
    <path
       sodipodi:nodetypes="cc"
       inkscape:connector-curvature="0"
       id="path817-3"
       d="m 49.266766,157.8872 c 25.15126,46.66727 49.945291,83.52776 119.974864,104.4648"
       style="fill:none;stroke:#fb0000;stroke-width:0.76499999;stroke-linecap:butt;stroke-linejoin:miter;stroke-miterlimit:4;stroke-dasharray:none;stroke-opacity:1" />
    <g
       id="g1209"
       transform="matrix(0.71653377,0,0,0.75814731,112.82184,187.80257)"
       style="fill:#ff0000">
      <g
         word-spacing="normal"
         letter-spacing="normal"
         font-size-adjust="none"
         font-stretch="normal"
         font-weight="normal"
         font-variant="normal"
         font-style="normal"
         stroke-miterlimit="10.433"
         xml:space="preserve"
         transform="matrix(0.3,0,0,-0.3,-52.5,222.75)"
         id="g1207"
         style="font-style:normal;font-variant:normal;font-weight:normal;font-stretch:normal;letter-spacing:normal;word-spacing:normal;text-anchor:start;fill:#ff0000;fill-opacity:1;fill-rule:evenodd;stroke:#000000;stroke-linecap:butt;stroke-linejoin:miter;stroke-miterlimit:10.43299961;stroke-dasharray:none;stroke-dashoffset:0;stroke-opacity:1"><path
           id="path1201"
           d="m 484.52,440.07 h -27.36 v -1.54 h 1.2 c 3.83,0 3.94,-0.55 3.94,-2.33 v -26.11 c 0,-1.8 -0.11,-2.34 -3.94,-2.34 h -1.2 v -1.55 c 1.75,0.16 5.64,0.16 7.58,0.16 2.05,0 6.58,0 8.37,-0.16 v 1.55 h -1.65 c -4.74,0 -4.74,0.64 -4.74,2.39 v 12.25 h 4.3 c 4.78,0 5.28,-1.6 5.28,-5.83 h 1.24 v 13.2 h -1.24 c 0,-4.19 -0.5,-5.83 -5.28,-5.83 h -4.3 v 12.61 c 0,1.64 0.11,1.99 2.46,1.99 h 5.96 c 7.49,0 8.72,-2.78 9.52,-9.66 h 1.25 z"
           inkscape:connector-curvature="0"
           style="fill:#ff0000;stroke-width:0" /><path
           id="path1203"
           d="m 494.82,410.09 v -0.16 -0.16 l -0.01,-0.15 v -0.15 l -0.01,-0.13 -0.02,-0.13 -0.01,-0.13 -0.03,-0.11 -0.03,-0.12 -0.03,-0.1 -0.05,-0.1 -0.05,-0.09 -0.06,-0.09 -0.06,-0.08 -0.08,-0.08 -0.09,-0.07 -0.1,-0.06 -0.12,-0.06 -0.06,-0.03 -0.06,-0.03 -0.07,-0.02 -0.07,-0.03 -0.07,-0.02 -0.08,-0.02 -0.08,-0.02 -0.09,-0.02 -0.09,-0.02 -0.09,-0.02 -0.1,-0.02 -0.1,-0.01 -0.1,-0.01 -0.11,-0.02 -0.11,-0.01 -0.12,-0.01 -0.12,-0.01 -0.13,-0.01 -0.13,-0.01 -0.14,-0.01 h -0.14 l -0.15,-0.01 h -0.15 l -0.15,-0.01 h -0.16 -0.17 -0.17 -0.18 -1.2 v -1.55 h 28.75 l 2.09,12.86 h -1.25 c -1.23,-7.67 -2.39,-11.31 -10.95,-11.31 h -6.62 c -2.35,0 -2.46,0.34 -2.46,1.98 v 13.31 h 4.49 c 4.84,0 5.39,-1.59 5.39,-5.83 h 1.23 v 13.21 h -1.23 c 0,-4.3 -0.55,-5.83 -5.39,-5.83 h -4.49 v 11.95 c 0,1.64 0.11,1.99 2.46,1.99 h 6.42 c 7.62,0 8.97,-2.74 9.76,-9.66 h 1.25 l -1.4,11.2 h -28.05 v -1.54 h 1.2 c 3.83,0 3.94,-0.55 3.94,-2.33 z"
           inkscape:connector-curvature="0"
           style="fill:#ff0000;stroke-width:0" /><path
           id="path1205"
           d="m 532.26,435.54 v 0.28 l -0.01,0.27 -0.02,0.27 -0.02,0.26 -0.04,0.26 -0.03,0.25 -0.05,0.25 -0.05,0.24 -0.06,0.23 -0.06,0.23 -0.07,0.22 -0.08,0.21 -0.09,0.2 -0.09,0.2 -0.09,0.19 -0.11,0.18 -0.11,0.17 -0.11,0.16 -0.12,0.15 -0.13,0.15 -0.14,0.13 -0.14,0.12 -0.14,0.12 -0.16,0.1 -0.15,0.09 -0.17,0.08 -0.17,0.07 -0.17,0.05 -0.18,0.05 -0.19,0.03 -0.19,0.02 -0.2,0.01 c -1.74,0 -2.64,-1.35 -2.64,-2.64 0,-1.3 0.84,-2.64 2.64,-2.64 1,0 1.7,0.5 2,0.79 0.05,0.1 0.09,0.14 0.14,0.14 0.11,0 0.11,-0.68 0.11,-0.89 0,-1.59 -0.36,-5.18 -3.5,-8.26 -0.6,-0.6 -0.6,-0.71 -0.6,-0.85 0,-0.36 0.25,-0.56 0.5,-0.56 0.55,0 4.69,3.8 4.69,9.67 z"
           inkscape:connector-curvature="0"
           style="fill:#ff0000;stroke-width:0" /></g>    </g>
    <path
       inkscape:connector-curvature="0"
       id="path970-6"
       d="m 46.365253,191.44678 56.794187,0.2281 -1e-5,76.86602"
       style="fill:none;stroke:#000000;stroke-width:0.66500002;stroke-linecap:butt;stroke-linejoin:miter;stroke-miterlimit:4;stroke-dasharray:0.66500001, 1.33000001;stroke-dashoffset:0;stroke-opacity:1"
       sodipodi:nodetypes="ccc" />
    <g
       id="g1325"
       transform="matrix(0.77764892,0,0,0.8282468,-45.874426,130.63215)"
       style="fill:#ff0000">
      <g
         id="g1323"
         transform="matrix(0.3,0,0,-0.3,-52.5,222.75)"
         xml:space="preserve"
         stroke-miterlimit="10.433"
         font-style="normal"
         font-variant="normal"
         font-weight="normal"
         font-stretch="normal"
         font-size-adjust="none"
         letter-spacing="normal"
         word-spacing="normal"
         style="font-style:normal;font-variant:normal;font-weight:normal;font-stretch:normal;letter-spacing:normal;word-spacing:normal;text-anchor:start;fill:#ff0000;fill-opacity:1;fill-rule:evenodd;stroke:#000000;stroke-linecap:butt;stroke-linejoin:miter;stroke-miterlimit:10.43299961;stroke-dasharray:none;stroke-dashoffset:0;stroke-opacity:1"><path
           d="m 476.1,389.27 v 0.02 0.02 0.01 l -0.01,0.02 v 0.02 0.01 0.02 l -0.01,0.01 v 0.02 l -0.01,0.01 v 0.02 l -0.01,0.01 v 0.01 l -0.01,0.02 -0.01,0.01 v 0.01 l -0.02,0.03 -0.01,0.02 -0.02,0.03 -0.02,0.02 -0.02,0.03 -0.01,0.03 -0.02,0.02 -0.01,0.02 -0.02,0.01 c -2.29,2.44 -5.67,6.49 -7.76,14.6 -1.16,4.53 -1.59,9.67 -1.59,14.29 0,13.11 3.14,22.28 9.1,28.75 0.46,0.46 0.46,0.55 0.46,0.66 0,0.5 -0.41,0.5 -0.6,0.5 -0.75,0 -3.43,-3 -4.09,-3.75 -5.08,-6.02 -8.31,-14.98 -8.31,-26.09 0,-7.08 1.23,-17.1 7.76,-25.52 0.5,-0.59 3.74,-4.39 4.64,-4.39 0.19,0 0.6,0 0.6,0.5 z"
           id="path1311"
           inkscape:connector-curvature="0"
           style="fill:#ff0000;stroke-width:0" /><path
           d="m 491.61,424.15 -0.02,-0.09 -0.02,-0.09 -0.02,-0.08 -0.02,-0.08 -0.02,-0.07 -0.03,-0.07 -0.02,-0.07 -0.02,-0.06 -0.02,-0.06 -0.03,-0.06 -0.03,-0.05 -0.03,-0.05 -0.03,-0.05 -0.03,-0.04 -0.04,-0.04 -0.04,-0.04 -0.04,-0.03 -0.05,-0.03 -0.05,-0.03 -0.06,-0.03 -0.06,-0.02 -0.06,-0.02 -0.07,-0.02 -0.07,-0.02 -0.08,-0.01 -0.05,-0.01 h -0.04 l -0.05,-0.01 h -0.04 -0.05 l -0.05,-0.01 h -0.05 -0.06 l -0.05,-0.01 h -0.06 -0.06 -0.06 -0.06 -0.06 c -0.46,0 -0.94,0 -0.94,-0.74 0,-0.39 0.31,-0.53 0.48,-0.53 0.91,0 2.07,0.14 3,0.14 1.19,0 2.5,-0.14 3.66,-0.14 0.31,0 0.7,0.11 0.7,0.77 0,0.5 -0.5,0.5 -0.9,0.5 -0.79,0 -1.72,0 -1.72,0.4 0,0.19 0.25,1.1 0.39,1.61 0.42,1.85 0.9,3.74 1.28,5.19 0.42,-0.69 1.5,-2.05 3.59,-2.05 v 0.97 c -2.47,0 -3.09,2.69 -3.09,3.03 0,0.15 0.06,0.4 0.09,0.54 l 1.75,7 c 2.02,2.68 3.77,3.2 4.88,3.2 1.36,0 2.54,-1.02 2.54,-3.38 0,-1.43 -0.76,-4.98 -1.81,-7.01 -0.87,-1.7 -2.58,-3.38 -4.36,-3.38 v -0.97 c 4.25,0 8.96,4.71 8.96,9.9 0,4.07 -2.83,5.81 -5.22,5.81 -2.17,0 -4.02,-1.46 -4.96,-2.44 -0.59,1.98 -2.54,2.44 -3.59,2.44 -1.36,0 -2.19,-0.91 -2.75,-1.85 -0.7,-1.18 -1.25,-3.26 -1.25,-3.48 0,-0.45 0.48,-0.45 0.59,-0.45 0.49,0 0.52,0.11 0.77,1.04 0.52,2.03 1.19,3.77 2.55,3.77 0.9,0 1.14,-0.77 1.14,-1.7 0,-0.39 -0.07,-0.85 -0.11,-1.05 z"
           id="path1313"
           inkscape:connector-curvature="0"
           style="fill:#ff0000;stroke-width:0" /><polyline
           points="484,418 513.76,418 513.76,420.04 484,420.04 "
           id="polyline1315"
           style="fill:#ff0000;fill-rule:nonzero;stroke-width:0" /><path
           d="m 502.65,400.15 0.02,0.09 0.03,0.09 0.02,0.1 0.03,0.11 0.02,0.1 0.03,0.11 0.06,0.21 0.05,0.22 0.06,0.23 0.05,0.22 0.02,0.1 0.03,0.11 0.02,0.1 0.03,0.1 0.02,0.1 0.02,0.1 0.02,0.09 0.02,0.08 0.02,0.08 0.02,0.08 0.01,0.07 0.02,0.06 0.01,0.06 0.01,0.05 v 0.05 l 0.01,0.04 v 0.01 0.01 0.02 0.01 c 0,0.68 -0.54,1.1 -1.14,1.1 -0.67,0 -1.29,-0.42 -1.5,-1.01 -0.11,-0.27 -0.45,-1.74 -0.7,-2.61 -0.48,-1.98 -0.48,-2.05 -1,-4 -0.45,-1.92 -0.53,-2.2 -0.56,-3.2 0.14,-0.71 -0.14,-1.36 -0.99,-2.41 -0.43,-0.56 -1.14,-1.16 -2.32,-1.16 -1.36,0 -3.14,0.49 -3.14,3.21 0,1.78 0.98,4.36 1.67,6.14 0.59,1.53 0.73,1.84 0.73,2.44 0,1.67 -1.42,2.95 -3.31,2.95 -3.52,0 -5.08,-4.74 -5.08,-5.33 0,-0.45 0.49,-0.45 0.59,-0.45 0.49,0 0.52,0.17 0.63,0.56 0.87,2.89 2.37,4.25 3.77,4.25 0.59,0 0.85,-0.39 0.85,-1.22 0,-0.8 -0.31,-1.56 -0.48,-2.01 -1.98,-5.1 -1.98,-5.8 -1.98,-6.88 0,-4.11 3.73,-4.62 5.61,-4.62 0.67,0 2.37,0 3.93,2.32 0.8,-1.56 2.72,-2.32 4.85,-2.32 3.11,0 4.64,2.67 5.32,4.1 1.5,2.93 2.44,7.29 2.44,8.9 0,2.6 -1.48,2.75 -1.73,2.75 -0.91,0 -1.88,-0.96 -1.88,-1.86 0,-0.58 0.35,-0.86 0.58,-1.08 0.84,-0.69 1.3,-1.67 1.3,-2.78 0,-0.46 -1.47,-9.07 -5.89,-9.07 -2.83,0 -2.83,2.52 -2.83,3.11 0,0.94 0.14,1.5 0.64,3.49 z"
           id="path1317"
           inkscape:connector-curvature="0"
           style="fill:#ff0000;stroke-width:0" /><path
           d="m 535.28,418.61 -0.01,1.36 -0.06,1.43 -0.09,1.47 -0.14,1.53 -0.19,1.57 -0.25,1.61 -0.31,1.63 -0.39,1.66 -0.22,0.83 -0.24,0.84 -0.26,0.84 -0.29,0.84 -0.3,0.84 -0.33,0.84 -0.35,0.85 -0.38,0.83 -0.4,0.84 -0.43,0.83 -0.45,0.83 -0.48,0.82 -0.51,0.82 -0.54,0.81 -0.56,0.8 -0.6,0.8 c -0.5,0.59 -3.73,4.39 -4.62,4.39 -0.26,0 -0.61,-0.11 -0.61,-0.5 0,-0.2 0.11,-0.36 0.29,-0.5 2.39,-2.59 5.64,-6.63 7.67,-14.55 1.16,-4.53 1.61,-9.67 1.61,-14.29 0,-5.04 -0.45,-10.13 -1.75,-15 -1.89,-6.99 -4.82,-10.97 -7.37,-13.75 -0.45,-0.46 -0.45,-0.55 -0.45,-0.66 0,-0.39 0.35,-0.5 0.61,-0.5 0.73,0 3.48,3.05 4.07,3.75 5.08,6.02 8.33,14.98 8.33,26.09 z"
           id="path1319"
           inkscape:connector-curvature="0"
           style="fill:#ff0000;stroke-width:0" /><path
           d="m 552.99,452.65 0.02,0.06 0.03,0.05 0.02,0.05 0.02,0.05 0.02,0.04 0.02,0.05 0.02,0.04 0.02,0.04 0.01,0.05 0.02,0.04 0.01,0.03 0.01,0.04 0.01,0.04 0.01,0.03 0.01,0.04 0.01,0.03 0.01,0.03 v 0.03 l 0.01,0.03 0.01,0.03 v 0.03 l 0.01,0.03 v 0.03 0.02 l 0.01,0.06 v 0.05 0.04 0.05 c 0,1.08 -0.98,1.92 -2.06,1.92 -1.33,0 -1.74,-1.09 -1.91,-1.64 l -4.61,-15.09 c -0.03,-0.06 -0.17,-0.52 -0.17,-0.56 0,-0.41 1.08,-0.77 1.36,-0.77 0.25,0 0.28,0.08 0.52,0.59 z"
           id="path1321"
           inkscape:connector-curvature="0"
           style="fill:#ff0000;stroke-width:0" /></g>    </g>
    <g
       id="g1435"
       transform="matrix(0.77764892,0,0,0.8282468,10.310558,196.28793)"
       style="fill:#ff0000">
      <g
         word-spacing="normal"
         letter-spacing="normal"
         font-size-adjust="none"
         font-stretch="normal"
         font-weight="normal"
         font-variant="normal"
         font-style="normal"
         stroke-miterlimit="10.433"
         xml:space="preserve"
         transform="matrix(0.3,0,0,-0.3,-52.5,222.75)"
         id="g1433"
         style="font-style:normal;font-variant:normal;font-weight:normal;font-stretch:normal;letter-spacing:normal;word-spacing:normal;text-anchor:start;fill:#ff0000;fill-opacity:1;fill-rule:evenodd;stroke:#000000;stroke-linecap:butt;stroke-linejoin:miter;stroke-miterlimit:10.43299961;stroke-dasharray:none;stroke-dashoffset:0;stroke-opacity:1"><path
           id="path1429"
           d="m 475.25,425.14 h -0.14 -0.15 l -0.15,-0.01 h -0.14 l -0.14,-0.01 -0.14,-0.02 -0.07,-0.01 -0.07,-0.01 -0.06,-0.02 -0.07,-0.01 -0.07,-0.02 -0.07,-0.02 -0.07,-0.02 -0.06,-0.02 -0.07,-0.03 -0.07,-0.03 -0.06,-0.03 -0.07,-0.04 -0.07,-0.04 -0.06,-0.04 -0.07,-0.05 -0.07,-0.04 -0.06,-0.06 -0.07,-0.05 -0.06,-0.06 -0.07,-0.07 c -0.8,-0.75 -0.89,-1.59 -0.89,-1.93 0,-1.21 0.89,-1.75 1.84,-1.75 1.44,0 2.8,1.2 2.8,3.18 0,2.44 -2.34,4.28 -5.89,4.28 -6.72,0 -13.34,-7.12 -13.34,-14.14 0,-4.48 2.89,-8.42 8.06,-8.42 7.12,0 11.31,5.28 11.31,5.88 0,0.29 -0.3,0.65 -0.59,0.65 -0.25,0 -0.35,-0.11 -0.66,-0.5 -3.94,-4.93 -9.36,-4.93 -9.95,-4.93 -3.14,0 -4.49,2.43 -4.49,5.43 0,2.03 0.99,6.88 2.69,9.96 1.55,2.84 4.28,4.98 7.02,4.98 1.7,0 3.59,-0.64 4.29,-1.98 z"
           inkscape:connector-curvature="0"
           style="fill:#ff0000;stroke-width:0" /><path
           id="path1431"
           d="m 487.23,440.65 0.03,0.06 0.02,0.05 0.02,0.05 0.02,0.05 0.02,0.04 0.02,0.05 0.02,0.04 0.02,0.04 0.01,0.05 0.02,0.04 0.01,0.03 0.01,0.04 0.01,0.04 0.01,0.03 0.01,0.04 0.01,0.03 0.01,0.03 0.01,0.03 v 0.03 l 0.01,0.03 v 0.03 l 0.01,0.03 v 0.03 0.02 l 0.01,0.06 v 0.05 0.04 0.05 c 0,1.08 -0.98,1.92 -2.06,1.92 -1.33,0 -1.73,-1.09 -1.91,-1.64 l -4.61,-15.09 c -0.03,-0.06 -0.17,-0.52 -0.17,-0.56 0,-0.41 1.08,-0.77 1.36,-0.77 0.25,0 0.28,0.08 0.52,0.59 z"
           inkscape:connector-curvature="0"
           style="fill:#ff0000;stroke-width:0" /></g>    </g>
  </g>
</svg>
