<?xml version="1.0" encoding="UTF-8" standalone="no"?>
<svg
   xmlns:dc="http://purl.org/dc/elements/1.1/"
   xmlns:cc="http://creativecommons.org/ns#"
   xmlns:rdf="http://www.w3.org/1999/02/22-rdf-syntax-ns#"
   xmlns:svg="http://www.w3.org/2000/svg"
   xmlns="http://www.w3.org/2000/svg"
   xmlns:xlink="http://www.w3.org/1999/xlink"
   xmlns:sodipodi="http://sodipodi.sourceforge.net/DTD/sodipodi-0.dtd"
   xmlns:inkscape="http://www.inkscape.org/namespaces/inkscape"
   width="297mm"
   height="210mm"
   viewBox="0 0 297 210"
   version="1.1"
   id="svg8"
   sodipodi:docname="loss_visual_3.svg"
   inkscape:version="1.0.1 (3bc2e813f5, 2020-09-07)"
   inkscape:export-filename="C:\Users\PHBS\Desktop\Macro (Internationals)\figs_SR\loss_visual_3.png"
   inkscape:export-xdpi="96"
   inkscape:export-ydpi="96">
  <defs
     id="defs2">
    <rect
       x="205.19282"
       y="13.510638"
       width="52.635195"
       height="35.465426"
       id="rect1179" />
    <g
       id="g607">
      <symbol
         overflow="visible"
         id="symbol2049">
        <path
           style="stroke:none;"
           d=""
           id="path3637" />
      </symbol>
      <symbol
         overflow="visible"
         id="symbol2643">
        <path
           style="stroke:none;"
           d="M 4.140625 -6.515625 L 3.984375 -6.65625 C 3.984375 -6.65625 3.609375 -6.1875 3.171875 -6.1875 C 2.9375 -6.1875 2.6875 -6.328125 2.515625 -6.4375 C 2.25 -6.59375 2.078125 -6.65625 1.90625 -6.65625 C 1.53125 -6.65625 1.328125 -6.4375 0.828125 -5.875 L 0.984375 -5.734375 C 0.984375 -5.734375 1.359375 -6.203125 1.796875 -6.203125 C 2.03125 -6.203125 2.28125 -6.0625 2.453125 -5.96875 C 2.71875 -5.796875 2.90625 -5.734375 3.078125 -5.734375 C 3.453125 -5.734375 3.640625 -5.953125 4.140625 -6.515625 Z M 4.140625 -6.515625 "
           id="path1123" />
      </symbol>
      <symbol
         overflow="visible"
         id="symbol3613">
        <path
           style="stroke:none;"
           d=""
           id="path3719" />
      </symbol>
      <symbol
         overflow="visible"
         id="symbol1796">
        <path
           style="stroke:none;"
           d="M 5.953125 -5.671875 L 6.09375 -5.8125 C 6.390625 -6.109375 6.71875 -6.453125 7.390625 -6.5 C 7.5 -6.515625 7.59375 -6.515625 7.59375 -6.6875 C 7.59375 -6.765625 7.546875 -6.8125 7.46875 -6.8125 C 7.203125 -6.8125 6.921875 -6.78125 6.65625 -6.78125 C 6.3125 -6.78125 5.96875 -6.8125 5.65625 -6.8125 C 5.59375 -6.8125 5.46875 -6.8125 5.46875 -6.625 C 5.46875 -6.515625 5.5625 -6.5 5.609375 -6.5 C 5.6875 -6.5 5.96875 -6.484375 5.96875 -6.265625 C 5.96875 -6.09375 5.734375 -5.84375 5.703125 -5.796875 L 3.390625 -3.125 L 2.296875 -6.09375 C 2.234375 -6.234375 2.234375 -6.25 2.234375 -6.265625 C 2.234375 -6.5 2.71875 -6.5 2.828125 -6.5 C 2.953125 -6.5 3.0625 -6.5 3.0625 -6.703125 C 3.0625 -6.8125 2.9375 -6.8125 2.90625 -6.8125 C 2.625 -6.8125 1.9375 -6.78125 1.65625 -6.78125 C 1.40625 -6.78125 0.78125 -6.8125 0.53125 -6.8125 C 0.484375 -6.8125 0.34375 -6.8125 0.34375 -6.609375 C 0.34375 -6.5 0.453125 -6.5 0.578125 -6.5 C 1.171875 -6.5 1.21875 -6.40625 1.3125 -6.15625 L 2.53125 -2.875 C 2.546875 -2.84375 2.578125 -2.734375 2.578125 -2.71875 C 2.578125 -2.6875 2.171875 -1.078125 2.125 -0.890625 C 2 -0.34375 1.984375 -0.3125 1.1875 -0.3125 C 1 -0.3125 0.921875 -0.3125 0.921875 -0.109375 C 0.921875 0 1.03125 0 1.0625 0 C 1.328125 0 2.03125 -0.03125 2.3125 -0.03125 C 2.59375 -0.03125 3.3125 0 3.59375 0 C 3.65625 0 3.78125 0 3.78125 -0.203125 C 3.78125 -0.3125 3.6875 -0.3125 3.5 -0.3125 C 3.484375 -0.3125 3.296875 -0.3125 3.125 -0.328125 C 2.90625 -0.34375 2.84375 -0.375 2.84375 -0.484375 C 2.84375 -0.5625 2.9375 -0.90625 2.984375 -1.109375 L 3.34375 -2.515625 C 3.390625 -2.71875 3.40625 -2.734375 3.484375 -2.828125 Z M 5.953125 -5.671875 "
           id="path7593" />
      </symbol>
      <symbol
         overflow="visible"
         id="symbol1371">
        <path
           style="stroke:none;"
           d=""
           id="path8026" />
      </symbol>
      <symbol
         overflow="visible"
         id="symbol6372">
        <path
           style="stroke:none;"
           d="M 1.71875 -2.75 L 2.421875 -2.75 C 2.5625 -2.75 2.640625 -2.75 2.640625 -2.90625 C 2.640625 -3 2.5625 -3 2.4375 -3 L 1.78125 -3 L 2.03125 -4.03125 C 2.046875 -4.0625 2.0625 -4.109375 2.0625 -4.125 C 2.0625 -4.265625 1.953125 -4.359375 1.8125 -4.359375 C 1.640625 -4.359375 1.546875 -4.234375 1.484375 -4.0625 C 1.4375 -3.875 1.53125 -4.21875 1.21875 -3 L 0.515625 -3 C 0.390625 -3 0.296875 -3 0.296875 -2.84375 C 0.296875 -2.75 0.375 -2.75 0.5 -2.75 L 1.15625 -2.75 L 0.75 -1.109375 C 0.703125 -0.9375 0.640625 -0.6875 0.640625 -0.59375 C 0.640625 -0.1875 1 0.0625 1.390625 0.0625 C 2.171875 0.0625 2.609375 -0.90625 2.609375 -1 C 2.609375 -1.09375 2.515625 -1.09375 2.5 -1.09375 C 2.40625 -1.09375 2.40625 -1.078125 2.34375 -0.953125 C 2.15625 -0.515625 1.796875 -0.125 1.421875 -0.125 C 1.265625 -0.125 1.171875 -0.21875 1.171875 -0.46875 C 1.171875 -0.53125 1.203125 -0.6875 1.21875 -0.75 Z M 1.71875 -2.75 "
           id="path9350" />
      </symbol>
    </g>
    <g
       id="g8555">
      <symbol
         overflow="visible"
         id="symbol4074">
        <path
           style="stroke:none;"
           d=""
           id="path3511" />
      </symbol>
      <symbol
         overflow="visible"
         id="symbol8397">
        <path
           style="stroke:none;"
           d="M 2.640625 -3.71875 L 3.765625 -3.71875 C 3.4375 -2.25 3.34375 -1.8125 3.34375 -1.140625 C 3.34375 -1 3.34375 -0.734375 3.421875 -0.390625 C 3.53125 0.046875 3.640625 0.109375 3.78125 0.109375 C 3.984375 0.109375 4.203125 -0.0625 4.203125 -0.265625 C 4.203125 -0.328125 4.203125 -0.34375 4.140625 -0.484375 C 3.84375 -1.203125 3.84375 -1.859375 3.84375 -2.140625 C 3.84375 -2.65625 3.921875 -3.203125 4.03125 -3.71875 L 5.15625 -3.71875 C 5.296875 -3.71875 5.65625 -3.71875 5.65625 -4.0625 C 5.65625 -4.296875 5.4375 -4.296875 5.25 -4.296875 L 1.90625 -4.296875 C 1.6875 -4.296875 1.3125 -4.296875 0.875 -3.828125 C 0.53125 -3.4375 0.265625 -2.984375 0.265625 -2.9375 C 0.265625 -2.921875 0.265625 -2.828125 0.390625 -2.828125 C 0.46875 -2.828125 0.484375 -2.875 0.546875 -2.953125 C 1.03125 -3.71875 1.609375 -3.71875 1.8125 -3.71875 L 2.375 -3.71875 C 2.0625 -2.515625 1.53125 -1.3125 1.109375 -0.40625 C 1.03125 -0.25 1.03125 -0.234375 1.03125 -0.15625 C 1.03125 0.03125 1.1875 0.109375 1.3125 0.109375 C 1.609375 0.109375 1.6875 -0.171875 1.8125 -0.53125 C 1.953125 -1 1.953125 -1.015625 2.078125 -1.515625 Z M 2.640625 -3.71875 "
           id="path9250" />
      </symbol>
      <symbol
         overflow="visible"
         id="symbol867">
        <path
           style="stroke:none;"
           d=""
           id="path8220" />
      </symbol>
      <symbol
         overflow="visible"
         id="symbol9686">
        <path
           style="stroke:none;"
           d="M 1.71875 -2.75 L 2.421875 -2.75 C 2.5625 -2.75 2.640625 -2.75 2.640625 -2.90625 C 2.640625 -3 2.5625 -3 2.4375 -3 L 1.78125 -3 L 2.03125 -4.03125 C 2.046875 -4.0625 2.0625 -4.109375 2.0625 -4.125 C 2.0625 -4.265625 1.953125 -4.359375 1.8125 -4.359375 C 1.640625 -4.359375 1.546875 -4.234375 1.484375 -4.0625 C 1.4375 -3.875 1.53125 -4.21875 1.21875 -3 L 0.515625 -3 C 0.390625 -3 0.296875 -3 0.296875 -2.84375 C 0.296875 -2.75 0.375 -2.75 0.5 -2.75 L 1.15625 -2.75 L 0.75 -1.109375 C 0.703125 -0.9375 0.640625 -0.6875 0.640625 -0.59375 C 0.640625 -0.1875 1 0.0625 1.390625 0.0625 C 2.171875 0.0625 2.609375 -0.90625 2.609375 -1 C 2.609375 -1.09375 2.515625 -1.09375 2.5 -1.09375 C 2.40625 -1.09375 2.40625 -1.078125 2.34375 -0.953125 C 2.15625 -0.515625 1.796875 -0.125 1.421875 -0.125 C 1.265625 -0.125 1.171875 -0.21875 1.171875 -0.46875 C 1.171875 -0.53125 1.203125 -0.6875 1.21875 -0.75 Z M 1.71875 -2.75 "
           id="path1517" />
      </symbol>
    </g>
    <g
       id="g3801">
      <symbol
         overflow="visible"
         id="symbol7249">
        <path
           style="stroke:none;"
           d=""
           id="path1603" />
      </symbol>
      <symbol
         overflow="visible"
         id="symbol8973">
        <path
           style="stroke:none;"
           d="M 4.28125 -5.578125 L 4.28125 -5.875 L 0.6875 -5.875 L 0.6875 -5.578125 Z M 4.28125 -5.578125 "
           id="path6425" />
      </symbol>
      <symbol
         overflow="visible"
         id="symbol246">
        <path
           style="stroke:none;"
           d=""
           id="path9331" />
      </symbol>
      <symbol
         overflow="visible"
         id="symbol842">
        <path
           style="stroke:none;"
           d="M 2.640625 -3.71875 L 3.765625 -3.71875 C 3.4375 -2.25 3.34375 -1.8125 3.34375 -1.140625 C 3.34375 -1 3.34375 -0.734375 3.421875 -0.390625 C 3.53125 0.046875 3.640625 0.109375 3.78125 0.109375 C 3.984375 0.109375 4.203125 -0.0625 4.203125 -0.265625 C 4.203125 -0.328125 4.203125 -0.34375 4.140625 -0.484375 C 3.84375 -1.203125 3.84375 -1.859375 3.84375 -2.140625 C 3.84375 -2.65625 3.921875 -3.203125 4.03125 -3.71875 L 5.15625 -3.71875 C 5.296875 -3.71875 5.65625 -3.71875 5.65625 -4.0625 C 5.65625 -4.296875 5.4375 -4.296875 5.25 -4.296875 L 1.90625 -4.296875 C 1.6875 -4.296875 1.3125 -4.296875 0.875 -3.828125 C 0.53125 -3.4375 0.265625 -2.984375 0.265625 -2.9375 C 0.265625 -2.921875 0.265625 -2.828125 0.390625 -2.828125 C 0.46875 -2.828125 0.484375 -2.875 0.546875 -2.953125 C 1.03125 -3.71875 1.609375 -3.71875 1.8125 -3.71875 L 2.375 -3.71875 C 2.0625 -2.515625 1.53125 -1.3125 1.109375 -0.40625 C 1.03125 -0.25 1.03125 -0.234375 1.03125 -0.15625 C 1.03125 0.03125 1.1875 0.109375 1.3125 0.109375 C 1.609375 0.109375 1.6875 -0.171875 1.8125 -0.53125 C 1.953125 -1 1.953125 -1.015625 2.078125 -1.515625 Z M 2.640625 -3.71875 "
           id="path1731" />
      </symbol>
    </g>
    <g
       id="g3339">
      <symbol
         overflow="visible"
         id="symbol337">
        <path
           style="stroke:none;"
           d=""
           id="path591" />
      </symbol>
      <symbol
         overflow="visible"
         id="symbol7721">
        <path
           style="stroke:none;"
           d="M 4.578125 -3.1875 C 4.578125 -3.984375 4.53125 -4.78125 4.1875 -5.515625 C 3.734375 -6.484375 2.90625 -6.640625 2.5 -6.640625 C 1.890625 -6.640625 1.171875 -6.375 0.75 -5.453125 C 0.4375 -4.765625 0.390625 -3.984375 0.390625 -3.1875 C 0.390625 -2.4375 0.421875 -1.546875 0.84375 -0.78125 C 1.265625 0.015625 2 0.21875 2.484375 0.21875 C 3.015625 0.21875 3.78125 0.015625 4.21875 -0.9375 C 4.53125 -1.625 4.578125 -2.40625 4.578125 -3.1875 Z M 2.484375 0 C 2.09375 0 1.5 -0.25 1.328125 -1.203125 C 1.21875 -1.796875 1.21875 -2.71875 1.21875 -3.3125 C 1.21875 -3.953125 1.21875 -4.609375 1.296875 -5.140625 C 1.484375 -6.328125 2.234375 -6.421875 2.484375 -6.421875 C 2.8125 -6.421875 3.46875 -6.234375 3.65625 -5.25 C 3.765625 -4.6875 3.765625 -3.9375 3.765625 -3.3125 C 3.765625 -2.5625 3.765625 -1.890625 3.65625 -1.25 C 3.5 -0.296875 2.9375 0 2.484375 0 Z M 2.484375 0 "
           id="path9419" />
      </symbol>
    </g>
    <g
       id="g3988">
      <symbol
         overflow="visible"
         id="symbol2336">
        <path
           style="stroke:none;"
           d=""
           id="path6604" />
      </symbol>
      <symbol
         overflow="visible"
         id="symbol8989">
        <path
           style="stroke:none;"
           d="M 2.640625 -3.71875 L 3.765625 -3.71875 C 3.4375 -2.25 3.34375 -1.8125 3.34375 -1.140625 C 3.34375 -1 3.34375 -0.734375 3.421875 -0.390625 C 3.53125 0.046875 3.640625 0.109375 3.78125 0.109375 C 3.984375 0.109375 4.203125 -0.0625 4.203125 -0.265625 C 4.203125 -0.328125 4.203125 -0.34375 4.140625 -0.484375 C 3.84375 -1.203125 3.84375 -1.859375 3.84375 -2.140625 C 3.84375 -2.65625 3.921875 -3.203125 4.03125 -3.71875 L 5.15625 -3.71875 C 5.296875 -3.71875 5.65625 -3.71875 5.65625 -4.0625 C 5.65625 -4.296875 5.4375 -4.296875 5.25 -4.296875 L 1.90625 -4.296875 C 1.6875 -4.296875 1.3125 -4.296875 0.875 -3.828125 C 0.53125 -3.4375 0.265625 -2.984375 0.265625 -2.9375 C 0.265625 -2.921875 0.265625 -2.828125 0.390625 -2.828125 C 0.46875 -2.828125 0.484375 -2.875 0.546875 -2.953125 C 1.03125 -3.71875 1.609375 -3.71875 1.8125 -3.71875 L 2.375 -3.71875 C 2.0625 -2.515625 1.53125 -1.3125 1.109375 -0.40625 C 1.03125 -0.25 1.03125 -0.234375 1.03125 -0.15625 C 1.03125 0.03125 1.1875 0.109375 1.3125 0.109375 C 1.609375 0.109375 1.6875 -0.171875 1.8125 -0.53125 C 1.953125 -1 1.953125 -1.015625 2.078125 -1.515625 Z M 2.640625 -3.71875 "
           id="path8441" />
      </symbol>
      <symbol
         overflow="visible"
         id="symbol9308">
        <path
           style="stroke:none;"
           d=""
           id="path2787" />
      </symbol>
      <symbol
         overflow="visible"
         id="symbol6779">
        <path
           style="stroke:none;"
           d="M 1.5625 -1.59375 C 1.75 -1.59375 2.3125 -1.609375 2.6875 -1.734375 C 3.203125 -1.921875 3.296875 -2.25 3.296875 -2.453125 C 3.296875 -2.84375 2.90625 -3.078125 2.4375 -3.078125 C 1.59375 -3.078125 0.46875 -2.4375 0.46875 -1.234375 C 0.46875 -0.53125 0.90625 0.0625 1.71875 0.0625 C 2.90625 0.0625 3.453125 -0.625 3.453125 -0.71875 C 3.453125 -0.765625 3.390625 -0.84375 3.328125 -0.84375 C 3.296875 -0.84375 3.28125 -0.828125 3.21875 -0.765625 C 2.671875 -0.125 1.859375 -0.125 1.734375 -0.125 C 1.3125 -0.125 1.03125 -0.40625 1.03125 -0.96875 C 1.03125 -1.0625 1.03125 -1.203125 1.125 -1.59375 Z M 1.171875 -1.78125 C 1.46875 -2.796875 2.234375 -2.875 2.4375 -2.875 C 2.734375 -2.875 3 -2.71875 3 -2.453125 C 3 -1.78125 1.8125 -1.78125 1.515625 -1.78125 Z M 1.171875 -1.78125 "
           id="path4742" />
      </symbol>
      <symbol
         overflow="visible"
         id="symbol797">
        <path
           style="stroke:none;"
           d="M 1.71875 -2.75 L 2.421875 -2.75 C 2.5625 -2.75 2.640625 -2.75 2.640625 -2.90625 C 2.640625 -3 2.5625 -3 2.4375 -3 L 1.78125 -3 L 2.03125 -4.03125 C 2.046875 -4.0625 2.0625 -4.109375 2.0625 -4.125 C 2.0625 -4.265625 1.953125 -4.359375 1.8125 -4.359375 C 1.640625 -4.359375 1.546875 -4.234375 1.484375 -4.0625 C 1.4375 -3.875 1.53125 -4.21875 1.21875 -3 L 0.515625 -3 C 0.390625 -3 0.296875 -3 0.296875 -2.84375 C 0.296875 -2.75 0.375 -2.75 0.5 -2.75 L 1.15625 -2.75 L 0.75 -1.109375 C 0.703125 -0.9375 0.640625 -0.6875 0.640625 -0.59375 C 0.640625 -0.1875 1 0.0625 1.390625 0.0625 C 2.171875 0.0625 2.609375 -0.90625 2.609375 -1 C 2.609375 -1.09375 2.515625 -1.09375 2.5 -1.09375 C 2.40625 -1.09375 2.40625 -1.078125 2.34375 -0.953125 C 2.15625 -0.515625 1.796875 -0.125 1.421875 -0.125 C 1.265625 -0.125 1.171875 -0.21875 1.171875 -0.46875 C 1.171875 -0.53125 1.203125 -0.6875 1.21875 -0.75 Z M 1.71875 -2.75 "
           id="path3403" />
      </symbol>
      <symbol
         overflow="visible"
         id="symbol1229">
        <path
           style="stroke:none;"
           d=""
           id="path8614" />
      </symbol>
      <symbol
         overflow="visible"
         id="symbol9764">
        <path
           style="stroke:none;"
           d="M 6.84375 -3.265625 C 7 -3.265625 7.1875 -3.265625 7.1875 -3.453125 C 7.1875 -3.65625 7 -3.65625 6.859375 -3.65625 L 0.890625 -3.65625 C 0.75 -3.65625 0.5625 -3.65625 0.5625 -3.453125 C 0.5625 -3.265625 0.75 -3.265625 0.890625 -3.265625 Z M 6.859375 -1.328125 C 7 -1.328125 7.1875 -1.328125 7.1875 -1.53125 C 7.1875 -1.71875 7 -1.71875 6.84375 -1.71875 L 0.890625 -1.71875 C 0.75 -1.71875 0.5625 -1.71875 0.5625 -1.53125 C 0.5625 -1.328125 0.75 -1.328125 0.890625 -1.328125 Z M 6.859375 -1.328125 "
           id="path8236" />
      </symbol>
      <symbol
         overflow="visible"
         id="symbol8287">
        <path
           style="stroke:none;"
           d="M 4.28125 -5.578125 L 4.28125 -5.875 L 0.6875 -5.875 L 0.6875 -5.578125 Z M 4.28125 -5.578125 "
           id="path5478" />
      </symbol>
      <symbol
         overflow="visible"
         id="symbol8335">
        <path
           style="stroke:none;"
           d=""
           id="path1714" />
      </symbol>
      <symbol
         overflow="visible"
         id="symbol7867">
        <path
           style="stroke:none;"
           d="M 5.1875 -1.578125 C 5.296875 -1.578125 5.46875 -1.578125 5.46875 -1.734375 C 5.46875 -1.921875 5.296875 -1.921875 5.1875 -1.921875 L 1.03125 -1.921875 C 0.921875 -1.921875 0.75 -1.921875 0.75 -1.75 C 0.75 -1.578125 0.90625 -1.578125 1.03125 -1.578125 Z M 5.1875 -1.578125 "
           id="path7709" />
      </symbol>
      <symbol
         overflow="visible"
         id="symbol9811">
        <path
           style="stroke:none;"
           d=""
           id="path9208" />
      </symbol>
      <symbol
         overflow="visible"
         id="symbol190">
        <path
           style="stroke:none;"
           d="M 2.328125 -4.4375 C 2.328125 -4.625 2.328125 -4.625 2.125 -4.625 C 1.671875 -4.1875 1.046875 -4.1875 0.765625 -4.1875 L 0.765625 -3.9375 C 0.921875 -3.9375 1.390625 -3.9375 1.765625 -4.125 L 1.765625 -0.578125 C 1.765625 -0.34375 1.765625 -0.25 1.078125 -0.25 L 0.8125 -0.25 L 0.8125 0 C 0.9375 0 1.796875 -0.03125 2.046875 -0.03125 C 2.265625 -0.03125 3.140625 0 3.296875 0 L 3.296875 -0.25 L 3.03125 -0.25 C 2.328125 -0.25 2.328125 -0.34375 2.328125 -0.578125 Z M 2.328125 -4.4375 "
           id="path2973" />
      </symbol>
    </g>
    <g
       id="g6148">
      <symbol
         overflow="visible"
         id="symbol3535">
        <path
           style="stroke:none;"
           d=""
           id="path9725" />
      </symbol>
      <symbol
         overflow="visible"
         id="symbol1535">
        <path
           style="stroke:none;"
           d="M 2.640625 -3.71875 L 3.765625 -3.71875 C 3.4375 -2.25 3.34375 -1.8125 3.34375 -1.140625 C 3.34375 -1 3.34375 -0.734375 3.421875 -0.390625 C 3.53125 0.046875 3.640625 0.109375 3.78125 0.109375 C 3.984375 0.109375 4.203125 -0.0625 4.203125 -0.265625 C 4.203125 -0.328125 4.203125 -0.34375 4.140625 -0.484375 C 3.84375 -1.203125 3.84375 -1.859375 3.84375 -2.140625 C 3.84375 -2.65625 3.921875 -3.203125 4.03125 -3.71875 L 5.15625 -3.71875 C 5.296875 -3.71875 5.65625 -3.71875 5.65625 -4.0625 C 5.65625 -4.296875 5.4375 -4.296875 5.25 -4.296875 L 1.90625 -4.296875 C 1.6875 -4.296875 1.3125 -4.296875 0.875 -3.828125 C 0.53125 -3.4375 0.265625 -2.984375 0.265625 -2.9375 C 0.265625 -2.921875 0.265625 -2.828125 0.390625 -2.828125 C 0.46875 -2.828125 0.484375 -2.875 0.546875 -2.953125 C 1.03125 -3.71875 1.609375 -3.71875 1.8125 -3.71875 L 2.375 -3.71875 C 2.0625 -2.515625 1.53125 -1.3125 1.109375 -0.40625 C 1.03125 -0.25 1.03125 -0.234375 1.03125 -0.15625 C 1.03125 0.03125 1.1875 0.109375 1.3125 0.109375 C 1.609375 0.109375 1.6875 -0.171875 1.8125 -0.53125 C 1.953125 -1 1.953125 -1.015625 2.078125 -1.515625 Z M 2.640625 -3.71875 "
           id="path9475" />
      </symbol>
      <symbol
         overflow="visible"
         id="symbol4375">
        <path
           style="stroke:none;"
           d="M 6.734375 -2.265625 C 6.84375 -2.328125 6.921875 -2.375 6.921875 -2.5 C 6.921875 -2.609375 6.84375 -2.65625 6.734375 -2.71875 L 1.203125 -5.3125 C 1.078125 -5.390625 1.0625 -5.390625 1.03125 -5.390625 C 0.921875 -5.390625 0.828125 -5.296875 0.828125 -5.1875 C 0.828125 -5.09375 0.875 -5.03125 1.015625 -4.96875 L 6.25 -2.5 L 1.015625 -0.015625 C 0.875 0.046875 0.828125 0.109375 0.828125 0.203125 C 0.828125 0.3125 0.921875 0.40625 1.03125 0.40625 C 1.0625 0.40625 1.078125 0.40625 1.203125 0.328125 Z M 6.734375 -2.265625 "
           id="path4353" />
      </symbol>
      <symbol
         overflow="visible"
         id="symbol4525">
        <path
           style="stroke:none;"
           d=""
           id="path3604" />
      </symbol>
      <symbol
         overflow="visible"
         id="symbol9487">
        <path
           style="stroke:none;"
           d="M 1.5625 -1.59375 C 1.75 -1.59375 2.3125 -1.609375 2.6875 -1.734375 C 3.203125 -1.921875 3.296875 -2.25 3.296875 -2.453125 C 3.296875 -2.84375 2.90625 -3.078125 2.4375 -3.078125 C 1.59375 -3.078125 0.46875 -2.4375 0.46875 -1.234375 C 0.46875 -0.53125 0.90625 0.0625 1.71875 0.0625 C 2.90625 0.0625 3.453125 -0.625 3.453125 -0.71875 C 3.453125 -0.765625 3.390625 -0.84375 3.328125 -0.84375 C 3.296875 -0.84375 3.28125 -0.828125 3.21875 -0.765625 C 2.671875 -0.125 1.859375 -0.125 1.734375 -0.125 C 1.3125 -0.125 1.03125 -0.40625 1.03125 -0.96875 C 1.03125 -1.0625 1.03125 -1.203125 1.125 -1.59375 Z M 1.171875 -1.78125 C 1.46875 -2.796875 2.234375 -2.875 2.4375 -2.875 C 2.734375 -2.875 3 -2.71875 3 -2.453125 C 3 -1.78125 1.8125 -1.78125 1.515625 -1.78125 Z M 1.171875 -1.78125 "
           id="path2938" />
      </symbol>
      <symbol
         overflow="visible"
         id="symbol2435">
        <path
           style="stroke:none;"
           d="M 1.71875 -2.75 L 2.421875 -2.75 C 2.5625 -2.75 2.640625 -2.75 2.640625 -2.90625 C 2.640625 -3 2.5625 -3 2.4375 -3 L 1.78125 -3 L 2.03125 -4.03125 C 2.046875 -4.0625 2.0625 -4.109375 2.0625 -4.125 C 2.0625 -4.265625 1.953125 -4.359375 1.8125 -4.359375 C 1.640625 -4.359375 1.546875 -4.234375 1.484375 -4.0625 C 1.4375 -3.875 1.53125 -4.21875 1.21875 -3 L 0.515625 -3 C 0.390625 -3 0.296875 -3 0.296875 -2.84375 C 0.296875 -2.75 0.375 -2.75 0.5 -2.75 L 1.15625 -2.75 L 0.75 -1.109375 C 0.703125 -0.9375 0.640625 -0.6875 0.640625 -0.59375 C 0.640625 -0.1875 1 0.0625 1.390625 0.0625 C 2.171875 0.0625 2.609375 -0.90625 2.609375 -1 C 2.609375 -1.09375 2.515625 -1.09375 2.5 -1.09375 C 2.40625 -1.09375 2.40625 -1.078125 2.34375 -0.953125 C 2.15625 -0.515625 1.796875 -0.125 1.421875 -0.125 C 1.265625 -0.125 1.171875 -0.21875 1.171875 -0.46875 C 1.171875 -0.53125 1.203125 -0.6875 1.21875 -0.75 Z M 1.71875 -2.75 "
           id="path8438" />
      </symbol>
      <symbol
         overflow="visible"
         id="symbol4032">
        <path
           style="stroke:none;"
           d=""
           id="path6983" />
      </symbol>
      <symbol
         overflow="visible"
         id="symbol6829">
        <path
           style="stroke:none;"
           d="M 6.84375 -3.265625 C 7 -3.265625 7.1875 -3.265625 7.1875 -3.453125 C 7.1875 -3.65625 7 -3.65625 6.859375 -3.65625 L 0.890625 -3.65625 C 0.75 -3.65625 0.5625 -3.65625 0.5625 -3.453125 C 0.5625 -3.265625 0.75 -3.265625 0.890625 -3.265625 Z M 6.859375 -1.328125 C 7 -1.328125 7.1875 -1.328125 7.1875 -1.53125 C 7.1875 -1.71875 7 -1.71875 6.84375 -1.71875 L 0.890625 -1.71875 C 0.75 -1.71875 0.5625 -1.71875 0.5625 -1.53125 C 0.5625 -1.328125 0.75 -1.328125 0.890625 -1.328125 Z M 6.859375 -1.328125 "
           id="path9842" />
      </symbol>
      <symbol
         overflow="visible"
         id="symbol8355">
        <path
           style="stroke:none;"
           d="M 4.28125 -5.578125 L 4.28125 -5.875 L 0.6875 -5.875 L 0.6875 -5.578125 Z M 4.28125 -5.578125 "
           id="path1402" />
      </symbol>
      <symbol
         overflow="visible"
         id="symbol4853">
        <path
           style="stroke:none;"
           d=""
           id="path2825" />
      </symbol>
      <symbol
         overflow="visible"
         id="symbol7107">
        <path
           style="stroke:none;"
           d="M 5.1875 -1.578125 C 5.296875 -1.578125 5.46875 -1.578125 5.46875 -1.734375 C 5.46875 -1.921875 5.296875 -1.921875 5.1875 -1.921875 L 1.03125 -1.921875 C 0.921875 -1.921875 0.75 -1.921875 0.75 -1.75 C 0.75 -1.578125 0.90625 -1.578125 1.03125 -1.578125 Z M 5.1875 -1.578125 "
           id="path2169" />
      </symbol>
      <symbol
         overflow="visible"
         id="symbol6628">
        <path
           style="stroke:none;"
           d=""
           id="path1977" />
      </symbol>
      <symbol
         overflow="visible"
         id="symbol2922">
        <path
           style="stroke:none;"
           d="M 2.328125 -4.4375 C 2.328125 -4.625 2.328125 -4.625 2.125 -4.625 C 1.671875 -4.1875 1.046875 -4.1875 0.765625 -4.1875 L 0.765625 -3.9375 C 0.921875 -3.9375 1.390625 -3.9375 1.765625 -4.125 L 1.765625 -0.578125 C 1.765625 -0.34375 1.765625 -0.25 1.078125 -0.25 L 0.8125 -0.25 L 0.8125 0 C 0.9375 0 1.796875 -0.03125 2.046875 -0.03125 C 2.265625 -0.03125 3.140625 0 3.296875 0 L 3.296875 -0.25 L 3.03125 -0.25 C 2.328125 -0.25 2.328125 -0.34375 2.328125 -0.578125 Z M 2.328125 -4.4375 "
           id="path5188" />
      </symbol>
    </g>
    <g
       id="g5616">
      <symbol
         overflow="visible"
         id="symbol8838">
        <path
           style="stroke:none;"
           d=""
           id="path2342" />
      </symbol>
      <symbol
         overflow="visible"
         id="symbol8491">
        <path
           style="stroke:none;"
           d="M 2.640625 -3.71875 L 3.765625 -3.71875 C 3.4375 -2.25 3.34375 -1.8125 3.34375 -1.140625 C 3.34375 -1 3.34375 -0.734375 3.421875 -0.390625 C 3.53125 0.046875 3.640625 0.109375 3.78125 0.109375 C 3.984375 0.109375 4.203125 -0.0625 4.203125 -0.265625 C 4.203125 -0.328125 4.203125 -0.34375 4.140625 -0.484375 C 3.84375 -1.203125 3.84375 -1.859375 3.84375 -2.140625 C 3.84375 -2.65625 3.921875 -3.203125 4.03125 -3.71875 L 5.15625 -3.71875 C 5.296875 -3.71875 5.65625 -3.71875 5.65625 -4.0625 C 5.65625 -4.296875 5.4375 -4.296875 5.25 -4.296875 L 1.90625 -4.296875 C 1.6875 -4.296875 1.3125 -4.296875 0.875 -3.828125 C 0.53125 -3.4375 0.265625 -2.984375 0.265625 -2.9375 C 0.265625 -2.921875 0.265625 -2.828125 0.390625 -2.828125 C 0.46875 -2.828125 0.484375 -2.875 0.546875 -2.953125 C 1.03125 -3.71875 1.609375 -3.71875 1.8125 -3.71875 L 2.375 -3.71875 C 2.0625 -2.515625 1.53125 -1.3125 1.109375 -0.40625 C 1.03125 -0.25 1.03125 -0.234375 1.03125 -0.15625 C 1.03125 0.03125 1.1875 0.109375 1.3125 0.109375 C 1.609375 0.109375 1.6875 -0.171875 1.8125 -0.53125 C 1.953125 -1 1.953125 -1.015625 2.078125 -1.515625 Z M 2.640625 -3.71875 "
           id="path9548" />
      </symbol>
      <symbol
         overflow="visible"
         id="symbol1910">
        <path
           style="stroke:none;"
           d="M 6.734375 -2.265625 C 6.84375 -2.328125 6.921875 -2.375 6.921875 -2.5 C 6.921875 -2.609375 6.84375 -2.65625 6.734375 -2.71875 L 1.203125 -5.3125 C 1.078125 -5.390625 1.0625 -5.390625 1.03125 -5.390625 C 0.921875 -5.390625 0.828125 -5.296875 0.828125 -5.1875 C 0.828125 -5.09375 0.875 -5.03125 1.015625 -4.96875 L 6.25 -2.5 L 1.015625 -0.015625 C 0.875 0.046875 0.828125 0.109375 0.828125 0.203125 C 0.828125 0.3125 0.921875 0.40625 1.03125 0.40625 C 1.0625 0.40625 1.078125 0.40625 1.203125 0.328125 Z M 6.734375 -2.265625 "
           id="path4213" />
      </symbol>
      <symbol
         overflow="visible"
         id="symbol7560">
        <path
           style="stroke:none;"
           d=""
           id="path9262" />
      </symbol>
      <symbol
         overflow="visible"
         id="symbol2392">
        <path
           style="stroke:none;"
           d="M 1.71875 -2.75 L 2.421875 -2.75 C 2.5625 -2.75 2.640625 -2.75 2.640625 -2.90625 C 2.640625 -3 2.5625 -3 2.4375 -3 L 1.78125 -3 L 2.03125 -4.03125 C 2.046875 -4.0625 2.0625 -4.109375 2.0625 -4.125 C 2.0625 -4.265625 1.953125 -4.359375 1.8125 -4.359375 C 1.640625 -4.359375 1.546875 -4.234375 1.484375 -4.0625 C 1.4375 -3.875 1.53125 -4.21875 1.21875 -3 L 0.515625 -3 C 0.390625 -3 0.296875 -3 0.296875 -2.84375 C 0.296875 -2.75 0.375 -2.75 0.5 -2.75 L 1.15625 -2.75 L 0.75 -1.109375 C 0.703125 -0.9375 0.640625 -0.6875 0.640625 -0.59375 C 0.640625 -0.1875 1 0.0625 1.390625 0.0625 C 2.171875 0.0625 2.609375 -0.90625 2.609375 -1 C 2.609375 -1.09375 2.515625 -1.09375 2.5 -1.09375 C 2.40625 -1.09375 2.40625 -1.078125 2.34375 -0.953125 C 2.15625 -0.515625 1.796875 -0.125 1.421875 -0.125 C 1.265625 -0.125 1.171875 -0.21875 1.171875 -0.46875 C 1.171875 -0.53125 1.203125 -0.6875 1.21875 -0.75 Z M 1.71875 -2.75 "
           id="path8178" />
      </symbol>
      <symbol
         overflow="visible"
         id="symbol3766">
        <path
           style="stroke:none;"
           d=""
           id="path8565" />
      </symbol>
      <symbol
         overflow="visible"
         id="symbol3912">
        <path
           style="stroke:none;"
           d="M 4.28125 -5.578125 L 4.28125 -5.875 L 0.6875 -5.875 L 0.6875 -5.578125 Z M 4.28125 -5.578125 "
           id="path9256" />
      </symbol>
    </g>
    <g
       id="g3633">
      <symbol
         overflow="visible"
         id="symbol1889">
        <path
           style="stroke:none;"
           d=""
           id="path5206" />
      </symbol>
      <symbol
         overflow="visible"
         id="symbol900">
        <path
           style="stroke:none;"
           d="M 4.140625 -6.515625 L 3.984375 -6.65625 C 3.984375 -6.65625 3.609375 -6.1875 3.171875 -6.1875 C 2.9375 -6.1875 2.6875 -6.328125 2.515625 -6.4375 C 2.25 -6.59375 2.078125 -6.65625 1.90625 -6.65625 C 1.53125 -6.65625 1.328125 -6.4375 0.828125 -5.875 L 0.984375 -5.734375 C 0.984375 -5.734375 1.359375 -6.203125 1.796875 -6.203125 C 2.03125 -6.203125 2.28125 -6.0625 2.453125 -5.96875 C 2.71875 -5.796875 2.90625 -5.734375 3.078125 -5.734375 C 3.453125 -5.734375 3.640625 -5.953125 4.140625 -6.515625 Z M 4.140625 -6.515625 "
           id="path6274" />
      </symbol>
      <symbol
         overflow="visible"
         id="symbol5486">
        <path
           style="stroke:none;"
           d="M 4.578125 -3.1875 C 4.578125 -3.984375 4.53125 -4.78125 4.1875 -5.515625 C 3.734375 -6.484375 2.90625 -6.640625 2.5 -6.640625 C 1.890625 -6.640625 1.171875 -6.375 0.75 -5.453125 C 0.4375 -4.765625 0.390625 -3.984375 0.390625 -3.1875 C 0.390625 -2.4375 0.421875 -1.546875 0.84375 -0.78125 C 1.265625 0.015625 2 0.21875 2.484375 0.21875 C 3.015625 0.21875 3.78125 0.015625 4.21875 -0.9375 C 4.53125 -1.625 4.578125 -2.40625 4.578125 -3.1875 Z M 2.484375 0 C 2.09375 0 1.5 -0.25 1.328125 -1.203125 C 1.21875 -1.796875 1.21875 -2.71875 1.21875 -3.3125 C 1.21875 -3.953125 1.21875 -4.609375 1.296875 -5.140625 C 1.484375 -6.328125 2.234375 -6.421875 2.484375 -6.421875 C 2.8125 -6.421875 3.46875 -6.234375 3.65625 -5.25 C 3.765625 -4.6875 3.765625 -3.9375 3.765625 -3.3125 C 3.765625 -2.5625 3.765625 -1.890625 3.65625 -1.25 C 3.5 -0.296875 2.9375 0 2.484375 0 Z M 2.484375 0 "
           id="path3192" />
      </symbol>
      <symbol
         overflow="visible"
         id="symbol3869">
        <path
           style="stroke:none;"
           d=""
           id="path3368" />
      </symbol>
      <symbol
         overflow="visible"
         id="symbol3534">
        <path
           style="stroke:none;"
           d="M 5.953125 -5.671875 L 6.09375 -5.8125 C 6.390625 -6.109375 6.71875 -6.453125 7.390625 -6.5 C 7.5 -6.515625 7.59375 -6.515625 7.59375 -6.6875 C 7.59375 -6.765625 7.546875 -6.8125 7.46875 -6.8125 C 7.203125 -6.8125 6.921875 -6.78125 6.65625 -6.78125 C 6.3125 -6.78125 5.96875 -6.8125 5.65625 -6.8125 C 5.59375 -6.8125 5.46875 -6.8125 5.46875 -6.625 C 5.46875 -6.515625 5.5625 -6.5 5.609375 -6.5 C 5.6875 -6.5 5.96875 -6.484375 5.96875 -6.265625 C 5.96875 -6.09375 5.734375 -5.84375 5.703125 -5.796875 L 3.390625 -3.125 L 2.296875 -6.09375 C 2.234375 -6.234375 2.234375 -6.25 2.234375 -6.265625 C 2.234375 -6.5 2.71875 -6.5 2.828125 -6.5 C 2.953125 -6.5 3.0625 -6.5 3.0625 -6.703125 C 3.0625 -6.8125 2.9375 -6.8125 2.90625 -6.8125 C 2.625 -6.8125 1.9375 -6.78125 1.65625 -6.78125 C 1.40625 -6.78125 0.78125 -6.8125 0.53125 -6.8125 C 0.484375 -6.8125 0.34375 -6.8125 0.34375 -6.609375 C 0.34375 -6.5 0.453125 -6.5 0.578125 -6.5 C 1.171875 -6.5 1.21875 -6.40625 1.3125 -6.15625 L 2.53125 -2.875 C 2.546875 -2.84375 2.578125 -2.734375 2.578125 -2.71875 C 2.578125 -2.6875 2.171875 -1.078125 2.125 -0.890625 C 2 -0.34375 1.984375 -0.3125 1.1875 -0.3125 C 1 -0.3125 0.921875 -0.3125 0.921875 -0.109375 C 0.921875 0 1.03125 0 1.0625 0 C 1.328125 0 2.03125 -0.03125 2.3125 -0.03125 C 2.59375 -0.03125 3.3125 0 3.59375 0 C 3.65625 0 3.78125 0 3.78125 -0.203125 C 3.78125 -0.3125 3.6875 -0.3125 3.5 -0.3125 C 3.484375 -0.3125 3.296875 -0.3125 3.125 -0.328125 C 2.90625 -0.34375 2.84375 -0.375 2.84375 -0.484375 C 2.84375 -0.5625 2.9375 -0.90625 2.984375 -1.109375 L 3.34375 -2.515625 C 3.390625 -2.71875 3.40625 -2.734375 3.484375 -2.828125 Z M 5.953125 -5.671875 "
           id="path7476" />
      </symbol>
      <symbol
         overflow="visible"
         id="symbol1037">
        <path
           style="stroke:none;"
           d="M 6.734375 -4.96875 C 6.84375 -5.03125 6.921875 -5.078125 6.921875 -5.1875 C 6.921875 -5.296875 6.828125 -5.390625 6.71875 -5.390625 C 6.6875 -5.390625 6.671875 -5.390625 6.546875 -5.3125 L 1.015625 -2.71875 C 0.90625 -2.65625 0.828125 -2.609375 0.828125 -2.5 C 0.828125 -2.375 0.90625 -2.328125 1.015625 -2.265625 L 6.546875 0.328125 C 6.671875 0.40625 6.6875 0.40625 6.71875 0.40625 C 6.828125 0.40625 6.921875 0.3125 6.921875 0.203125 C 6.921875 0.09375 6.84375 0.046875 6.734375 -0.015625 L 1.5 -2.5 Z M 6.734375 -4.96875 "
           id="path3590" />
      </symbol>
      <symbol
         overflow="visible"
         id="symbol2720">
        <path
           style="stroke:none;"
           d=""
           id="path9787" />
      </symbol>
      <symbol
         overflow="visible"
         id="symbol8312">
        <path
           style="stroke:none;"
           d="M 1.71875 -2.75 L 2.421875 -2.75 C 2.5625 -2.75 2.640625 -2.75 2.640625 -2.90625 C 2.640625 -3 2.5625 -3 2.4375 -3 L 1.78125 -3 L 2.03125 -4.03125 C 2.046875 -4.0625 2.0625 -4.109375 2.0625 -4.125 C 2.0625 -4.265625 1.953125 -4.359375 1.8125 -4.359375 C 1.640625 -4.359375 1.546875 -4.234375 1.484375 -4.0625 C 1.4375 -3.875 1.53125 -4.21875 1.21875 -3 L 0.515625 -3 C 0.390625 -3 0.296875 -3 0.296875 -2.84375 C 0.296875 -2.75 0.375 -2.75 0.5 -2.75 L 1.15625 -2.75 L 0.75 -1.109375 C 0.703125 -0.9375 0.640625 -0.6875 0.640625 -0.59375 C 0.640625 -0.1875 1 0.0625 1.390625 0.0625 C 2.171875 0.0625 2.609375 -0.90625 2.609375 -1 C 2.609375 -1.09375 2.515625 -1.09375 2.5 -1.09375 C 2.40625 -1.09375 2.40625 -1.078125 2.34375 -0.953125 C 2.15625 -0.515625 1.796875 -0.125 1.421875 -0.125 C 1.265625 -0.125 1.171875 -0.21875 1.171875 -0.46875 C 1.171875 -0.53125 1.203125 -0.6875 1.21875 -0.75 Z M 1.71875 -2.75 "
           id="path7365" />
      </symbol>
    </g>
  </defs>
  <sodipodi:namedview
     id="base"
     pagecolor="#ffffff"
     bordercolor="#666666"
     borderopacity="1.0"
     inkscape:pageopacity="0.0"
     inkscape:pageshadow="2"
     inkscape:zoom="0.94"
     inkscape:cx="400"
     inkscape:cy="432.34043"
     inkscape:document-units="mm"
     inkscape:current-layer="layer1"
     inkscape:document-rotation="0"
     showgrid="false"
     inkscape:window-width="1920"
     inkscape:window-height="1017"
     inkscape:window-x="-8"
     inkscape:window-y="-8"
     inkscape:window-maximized="1" />
  <metadata
     id="metadata5">
    <rdf:RDF>
      <cc:Work
         rdf:about="">
        <dc:format>image/svg+xml</dc:format>
        <dc:type
           rdf:resource="http://purl.org/dc/dcmitype/StillImage" />
        <dc:title></dc:title>
      </cc:Work>
    </rdf:RDF>
  </metadata>
  <g
     inkscape:label="Layer 1"
     inkscape:groupmode="layer"
     id="layer1">
    <path
       style="fill:none;stroke:#000000;stroke-width:1.065;stroke-linecap:butt;stroke-linejoin:miter;stroke-miterlimit:4;stroke-dasharray:none;stroke-opacity:1"
       d="M 33.191138,41.06109 V 196.71498 L 245.42077,196.4335"
       id="path833"
       sodipodi:nodetypes="ccc" />
    <ellipse
       style="opacity:0.996444;fill:#ffffff;stroke:#040000;stroke-width:1.065;stroke-miterlimit:4;stroke-dasharray:none;stroke-opacity:1;paint-order:stroke fill markers"
       id="path849"
       cx="144.93532"
       cy="112.69561"
       rx="63.894062"
       ry="61.501549" />
    <ellipse
       style="opacity:0.996444;fill:#ffffff;stroke:#040000;stroke-width:0.713114;stroke-miterlimit:4;stroke-dasharray:none;stroke-opacity:1;paint-order:stroke fill markers"
       id="path849-5"
       cx="144.65384"
       cy="114.38441"
       rx="42.115219"
       ry="41.833744" />
    <ellipse
       style="opacity:0.996444;fill:#ffffff;stroke:#040000;stroke-width:0.478307;stroke-miterlimit:4;stroke-dasharray:none;stroke-opacity:1;paint-order:stroke fill markers"
       id="path849-3"
       cx="144.9353"
       cy="114.66589"
       rx="27.596096"
       ry="28.721983" />
    <ellipse
       style="opacity:0.996444;fill:#ffffff;stroke:#040000;stroke-width:0.196211;stroke-miterlimit:4;stroke-dasharray:none;stroke-opacity:1;paint-order:stroke fill markers"
       id="path849-2"
       cx="145.07607"
       cy="114.80662"
       rx="11.271054"
       ry="11.833996" />
    <g
       inkscape:label=""
       transform="translate(156.75688,119.4228)"
       id="g914">
      <g
         id="g3218">
        <g
           style="fill:#000000;fill-opacity:1"
           id="g4516">
          <use
             xlink:href="#symbol2643"
             x="93.432999"
             y="79.445"
             id="use5027"
             width="100%"
             height="100%" />
        </g>
        <g
           style="fill:#000000;fill-opacity:1"
           id="g9553">
          <use
             xlink:href="#symbol1796"
             x="91.925003"
             y="81.962997"
             id="use8412"
             width="100%"
             height="100%" />
        </g>
        <g
           style="fill:#000000;fill-opacity:1"
           id="g2897">
          <use
             xlink:href="#symbol6372"
             x="97.709"
             y="83.457001"
             id="use4459"
             width="100%"
             height="100%" />
        </g>
      </g>
    </g>
    <g
       inkscape:label=""
       transform="translate(-70.390756,-46.364069)"
       id="g982">
      <g
         id="g508">
        <g
           style="fill:#000000;fill-opacity:1"
           id="g8365">
          <use
             xlink:href="#symbol8397"
             x="91.925003"
             y="81.962997"
             id="use9265"
             width="100%"
             height="100%" />
        </g>
        <g
           style="fill:#000000;fill-opacity:1"
           id="g4339">
          <use
             xlink:href="#symbol9686"
             x="97.603996"
             y="83.457001"
             id="use3606"
             width="100%"
             height="100%" />
        </g>
      </g>
    </g>
    <g
       inkscape:label=""
       transform="translate(-68.701926,35.825647)"
       id="g1059">
      <g
         id="g2323">
        <g
           style="fill:#000000;fill-opacity:1"
           id="g9569">
          <use
             xlink:href="#symbol8973"
             x="92.453003"
             y="81.962997"
             id="use2628"
             width="100%"
             height="100%" />
        </g>
        <g
           style="fill:#000000;fill-opacity:1"
           id="g768">
          <use
             xlink:href="#symbol842"
             x="91.925003"
             y="81.962997"
             id="use5513"
             width="100%"
             height="100%" />
        </g>
      </g>
    </g>
    <g
       inkscape:label=""
       transform="translate(50.923518,125.89665)"
       id="g1145">
      <g
         id="g4482">
        <g
           style="fill:#000000;fill-opacity:1"
           id="g5968">
          <use
             xlink:href="#symbol7721"
             x="91.925003"
             y="81.962997"
             id="use3749"
             width="100%"
             height="100%" />
        </g>
      </g>
    </g>
    <path
       style="fill:none;stroke:#000000;stroke-width:0.565;stroke-linecap:butt;stroke-linejoin:miter;stroke-miterlimit:4;stroke-dasharray:0.565, 0.565;stroke-dashoffset:0;stroke-opacity:1"
       d="M 32.065251,114.52526 H 144.9354 l 0.28147,82.47119"
       id="path1158"
       sodipodi:nodetypes="ccc" />
    <path
       style="fill:none;stroke:#000000;stroke-width:0.865;stroke-linecap:butt;stroke-linejoin:miter;stroke-miterlimit:4;stroke-dasharray:none;stroke-opacity:1"
       d="M 60.212414,178.7008 235.56927,46.12758"
       id="path1175" />
    <path
       style="fill:none;stroke:#000000;stroke-width:0.865;stroke-linecap:butt;stroke-linejoin:miter;stroke-miterlimit:4;stroke-dasharray:none;stroke-opacity:1"
       d="M 40.368656,140.03218 215.72552,7.458958"
       id="path1175-0" />
    <g
       inkscape:label=""
       transform="translate(42.760863,-66.033316)"
       id="g1540">
      <g
         id="g6894">
        <g
           style="fill:#000000;fill-opacity:1"
           id="g809">
          <use
             xlink:href="#symbol1535"
             x="91.925003"
             y="81.962997"
             id="use8602"
             width="100%"
             height="100%" />
        </g>
        <g
           style="fill:#000000;fill-opacity:1"
           id="g1457">
          <use
             xlink:href="#symbol9487"
             x="97.961998"
             y="78.348"
             id="use514"
             width="100%"
             height="100%" />
        </g>
        <g
           style="fill:#000000;fill-opacity:1"
           id="g5887">
          <use
             xlink:href="#symbol2435"
             x="97.603996"
             y="84.426003"
             id="use7917"
             width="100%"
             height="100%" />
        </g>
        <g
           style="fill:#000000;fill-opacity:1"
           id="g1260">
          <use
             xlink:href="#symbol6829"
             x="105.007"
             y="81.962997"
             id="use164"
             width="100%"
             height="100%" />
        </g>
        <g
           style="fill:#000000;fill-opacity:1"
           id="g4621">
          <use
             xlink:href="#symbol1535"
             x="115.523"
             y="81.962997"
             id="use6349"
             width="100%"
             height="100%" />
        </g>
        <g
           style="fill:#000000;fill-opacity:1"
           id="g2925">
          <use
             xlink:href="#symbol2435"
             x="121.202"
             y="83.457001"
             id="use8056"
             width="100%"
             height="100%" />
        </g>
        <g
           style="fill:#000000;fill-opacity:1"
           id="g896">
          <use
             xlink:href="#symbol7107"
             x="124.212"
             y="83.457001"
             id="use1256"
             width="100%"
             height="100%" />
        </g>
        <g
           style="fill:#000000;fill-opacity:1"
           id="g9412">
          <use
             xlink:href="#symbol2922"
             x="130.438"
             y="83.457001"
             id="use3469"
             width="100%"
             height="100%" />
        </g>
        <g
           style="fill:#000000;fill-opacity:1"
           id="g4324">
          <use
             xlink:href="#symbol4375"
             x="137.675"
             y="81.962997"
             id="use9359"
             width="100%"
             height="100%" />
        </g>
        <g
           style="fill:#000000;fill-opacity:1"
           id="g4654">
          <use
             xlink:href="#symbol8355"
             x="148.71899"
             y="81.962997"
             id="use4850"
             width="100%"
             height="100%" />
        </g>
        <g
           style="fill:#000000;fill-opacity:1"
           id="g9429">
          <use
             xlink:href="#symbol1535"
             x="148.19099"
             y="81.962997"
             id="use1763"
             width="100%"
             height="100%" />
        </g>
      </g>
    </g>
    <path
       style="fill:none;stroke:#000000;stroke-width:0.564999;stroke-linecap:butt;stroke-linejoin:miter;stroke-miterlimit:4;stroke-dasharray:0.564999, 0.564999;stroke-dashoffset:0;stroke-opacity:1"
       d="m 33.332075,80.782866 86.693285,-0.562943 0.28147,115.966317"
       id="path1158-6"
       sodipodi:nodetypes="ccc" />
    <g
       inkscape:label=""
       transform="translate(-88.967884,1.2384043)"
       id="g1785">
      <g
         id="g8777">
        <g
           style="fill:#000000;fill-opacity:1"
           id="g3685">
          <use
             xlink:href="#symbol8491"
             x="91.925003"
             y="81.962997"
             id="use3219"
             width="100%"
             height="100%" />
        </g>
        <g
           style="fill:#000000;fill-opacity:1"
           id="g6657">
          <use
             xlink:href="#symbol2392"
             x="97.603996"
             y="83.457001"
             id="use2589"
             width="100%"
             height="100%" />
        </g>
        <g
           style="fill:#000000;fill-opacity:1"
           id="g3527">
          <use
             xlink:href="#symbol1910"
             x="103.879"
             y="81.962997"
             id="use6317"
             width="100%"
             height="100%" />
        </g>
        <g
           style="fill:#000000;fill-opacity:1"
           id="g8317">
          <use
             xlink:href="#symbol3912"
             x="114.923"
             y="81.962997"
             id="use4362"
             width="100%"
             height="100%" />
        </g>
        <g
           style="fill:#000000;fill-opacity:1"
           id="g1884">
          <use
             xlink:href="#symbol8491"
             x="114.395"
             y="81.962997"
             id="use8387"
             width="100%"
             height="100%" />
        </g>
      </g>
    </g>
    <g
       inkscape:label=""
       transform="translate(12.643374,125.64887)"
       id="g2020">
      <g
         id="g4213">
        <g
           style="fill:#000000;fill-opacity:1"
           id="g1419">
          <use
             xlink:href="#symbol900"
             x="93.432999"
             y="79.445"
             id="use6886"
             width="100%"
             height="100%" />
        </g>
        <g
           style="fill:#000000;fill-opacity:1"
           id="g2135">
          <use
             xlink:href="#symbol3534"
             x="91.925003"
             y="81.962997"
             id="use365"
             width="100%"
             height="100%" />
        </g>
        <g
           style="fill:#000000;fill-opacity:1"
           id="g1692">
          <use
             xlink:href="#symbol8312"
             x="97.709"
             y="83.457001"
             id="use7506"
             width="100%"
             height="100%" />
        </g>
        <g
           style="fill:#000000;fill-opacity:1"
           id="g6466">
          <use
             xlink:href="#symbol1037"
             x="103.984"
             y="81.962997"
             id="use1855"
             width="100%"
             height="100%" />
        </g>
        <g
           style="fill:#000000;fill-opacity:1"
           id="g3255">
          <use
             xlink:href="#symbol5486"
             x="114.5"
             y="81.962997"
             id="use8071"
             width="100%"
             height="100%" />
        </g>
      </g>
    </g>
  </g>
</svg>
