<?xml version="1.0" encoding="UTF-8" standalone="no"?>
<svg
   xmlns:dc="http://purl.org/dc/elements/1.1/"
   xmlns:cc="http://creativecommons.org/ns#"
   xmlns:rdf="http://www.w3.org/1999/02/22-rdf-syntax-ns#"
   xmlns:svg="http://www.w3.org/2000/svg"
   xmlns="http://www.w3.org/2000/svg"
   xmlns:xlink="http://www.w3.org/1999/xlink"
   xmlns:sodipodi="http://sodipodi.sourceforge.net/DTD/sodipodi-0.dtd"
   xmlns:inkscape="http://www.inkscape.org/namespaces/inkscape"
   width="297mm"
   height="210mm"
   viewBox="0 0 297 210"
   version="1.1"
   id="svg8"
   inkscape:version="1.0.1 (3bc2e813f5, 2020-09-07)"
   sodipodi:docname="wrk3_3.svg"
   inkscape:export-filename="C:\Users\PHBS\Desktop\Undergrad Trade\Worksheets\figs\wrk3_2.png"
   inkscape:export-xdpi="96"
   inkscape:export-ydpi="96">
  <sodipodi:namedview
     id="base"
     pagecolor="#ffffff"
     bordercolor="#666666"
     borderopacity="1.0"
     inkscape:pageopacity="0.0"
     inkscape:pageshadow="2"
     inkscape:zoom="1.3289991"
     inkscape:cx="408.02066"
     inkscape:cy="334.93691"
     inkscape:document-units="mm"
     inkscape:current-layer="layer1"
     showgrid="false"
     inkscape:window-width="1920"
     inkscape:window-height="1017"
     inkscape:window-x="-8"
     inkscape:window-y="-8"
     inkscape:window-maximized="1"
     showguides="false"
     inkscape:document-rotation="0" />
  <defs
     id="defs2">
    <rect
       x="220.38672"
       y="197.09382"
       width="51.363842"
       height="8.1624714"
       id="rect877" />
    <g
       id="g7916">
      <symbol
         overflow="visible"
         id="symbol6309">
        <path
           style="stroke:none;"
           d=""
           id="path7324" />
      </symbol>
      <symbol
         overflow="visible"
         id="symbol3499">
        <path
           style="stroke:none;"
           d="M 0.453125 1.21875 C 0.375 1.5625 0.34375 1.625 -0.09375 1.625 C -0.203125 1.625 -0.3125 1.625 -0.3125 1.8125 C -0.3125 1.890625 -0.265625 1.9375 -0.1875 1.9375 C 0.078125 1.9375 0.375 1.90625 0.640625 1.90625 C 0.984375 1.90625 1.3125 1.9375 1.640625 1.9375 C 1.6875 1.9375 1.8125 1.9375 1.8125 1.734375 C 1.8125 1.625 1.71875 1.625 1.578125 1.625 C 1.078125 1.625 1.078125 1.5625 1.078125 1.46875 C 1.078125 1.34375 1.5 -0.28125 1.5625 -0.53125 C 1.6875 -0.234375 1.96875 0.109375 2.484375 0.109375 C 3.640625 0.109375 4.890625 -1.34375 4.890625 -2.8125 C 4.890625 -3.75 4.3125 -4.40625 3.5625 -4.40625 C 3.0625 -4.40625 2.578125 -4.046875 2.25 -3.65625 C 2.15625 -4.203125 1.71875 -4.40625 1.359375 -4.40625 C 0.890625 -4.40625 0.703125 -4.015625 0.625 -3.84375 C 0.4375 -3.5 0.3125 -2.90625 0.3125 -2.875 C 0.3125 -2.765625 0.40625 -2.765625 0.421875 -2.765625 C 0.53125 -2.765625 0.53125 -2.78125 0.59375 -3 C 0.765625 -3.703125 0.96875 -4.1875 1.328125 -4.1875 C 1.5 -4.1875 1.640625 -4.109375 1.640625 -3.734375 C 1.640625 -3.5 1.609375 -3.390625 1.5625 -3.21875 Z M 2.203125 -3.109375 C 2.265625 -3.375 2.546875 -3.65625 2.71875 -3.8125 C 3.078125 -4.109375 3.359375 -4.1875 3.53125 -4.1875 C 3.921875 -4.1875 4.171875 -3.84375 4.171875 -3.25 C 4.171875 -2.65625 3.84375 -1.515625 3.65625 -1.140625 C 3.3125 -0.4375 2.84375 -0.109375 2.46875 -0.109375 C 1.8125 -0.109375 1.6875 -0.9375 1.6875 -1 C 1.6875 -1.015625 1.6875 -1.03125 1.71875 -1.15625 Z M 2.203125 -3.109375 "
           id="path3523" />
      </symbol>
      <symbol
         overflow="visible"
         id="symbol2312">
        <path
           style="stroke:none;"
           d="M 4.375 -7.09375 C 4.421875 -7.234375 4.421875 -7.265625 4.421875 -7.28125 C 4.421875 -7.390625 4.34375 -7.484375 4.234375 -7.484375 C 4.15625 -7.484375 4.09375 -7.453125 4.0625 -7.390625 L 0.59375 2.109375 C 0.546875 2.25 0.546875 2.28125 0.546875 2.296875 C 0.546875 2.40625 0.640625 2.5 0.75 2.5 C 0.875 2.5 0.90625 2.421875 0.96875 2.25 Z M 4.375 -7.09375 "
           id="path2912" />
      </symbol>
      <symbol
         overflow="visible"
         id="symbol166">
        <path
           style="stroke:none;"
           d=""
           id="path7637" />
      </symbol>
      <symbol
         overflow="visible"
         id="symbol278">
        <path
           style="stroke:none;"
           d="M 3.703125 -2.578125 C 3.734375 -2.671875 3.734375 -2.703125 3.734375 -2.71875 C 3.734375 -2.875 3.609375 -2.9375 3.5 -2.9375 C 3.34375 -2.9375 3.203125 -2.8125 3.171875 -2.671875 C 3.0625 -2.859375 2.828125 -3.078125 2.453125 -3.078125 C 1.59375 -3.078125 0.671875 -2.140625 0.671875 -1.140625 C 0.671875 -0.421875 1.15625 0 1.734375 0 C 2.0625 0 2.359375 -0.15625 2.609375 -0.375 L 2.453125 0.25 C 2.375 0.546875 2.328125 0.734375 2.0625 0.96875 C 1.75 1.21875 1.453125 1.21875 1.28125 1.21875 C 0.96875 1.21875 0.875 1.203125 0.75 1.171875 C 0.921875 1.09375 0.96875 0.921875 0.96875 0.828125 C 0.96875 0.65625 0.84375 0.578125 0.703125 0.578125 C 0.5 0.578125 0.296875 0.734375 0.296875 1 C 0.296875 1.421875 0.90625 1.421875 1.296875 1.421875 C 2.390625 1.421875 2.84375 0.859375 2.953125 0.46875 Z M 2.75 -0.921875 C 2.71875 -0.828125 2.71875 -0.8125 2.59375 -0.671875 C 2.359375 -0.375 2.015625 -0.1875 1.75 -0.1875 C 1.40625 -0.1875 1.234375 -0.5 1.234375 -0.859375 C 1.234375 -1.15625 1.421875 -1.9375 1.609375 -2.25 C 1.890625 -2.734375 2.21875 -2.875 2.453125 -2.875 C 2.953125 -2.875 3.078125 -2.359375 3.078125 -2.28125 C 3.078125 -2.265625 3.078125 -2.265625 3.0625 -2.1875 Z M 2.75 -0.921875 "
           id="path8977" />
      </symbol>
      <symbol
         overflow="visible"
         id="symbol3204">
        <path
           style="stroke:none;"
           d="M 1.84375 -4.625 C 1.84375 -4.640625 1.875 -4.734375 1.875 -4.734375 C 1.875 -4.78125 1.84375 -4.84375 1.75 -4.84375 C 1.609375 -4.84375 1.03125 -4.78125 0.859375 -4.765625 C 0.8125 -4.765625 0.703125 -4.75 0.703125 -4.609375 C 0.703125 -4.515625 0.8125 -4.515625 0.890625 -4.515625 C 1.21875 -4.515625 1.21875 -4.453125 1.21875 -4.40625 C 1.21875 -4.359375 1.15625 -4.078125 1.109375 -3.921875 L 0.953125 -3.28125 C 0.890625 -3.03125 0.515625 -1.515625 0.5 -1.421875 C 0.453125 -1.25 0.453125 -1.15625 0.453125 -1.078125 C 0.453125 -0.375 0.90625 0.0625 1.484375 0.0625 C 2.359375 0.0625 3.28125 -0.875 3.28125 -1.90625 C 3.28125 -2.71875 2.71875 -3.078125 2.234375 -3.078125 C 1.875 -3.078125 1.5625 -2.875 1.359375 -2.6875 Z M 1.484375 -0.125 C 1.15625 -0.125 0.953125 -0.421875 0.953125 -0.84375 C 0.953125 -1.09375 1.015625 -1.328125 1.21875 -2.125 C 1.25 -2.25 1.25 -2.265625 1.390625 -2.421875 C 1.65625 -2.71875 1.96875 -2.875 2.21875 -2.875 C 2.484375 -2.875 2.71875 -2.671875 2.71875 -2.203125 C 2.71875 -1.921875 2.578125 -1.203125 2.359375 -0.796875 C 2.1875 -0.453125 1.84375 -0.125 1.484375 -0.125 Z M 1.484375 -0.125 "
           id="path7226" />
      </symbol>
    </g>
    <g
       id="g13">
      <symbol
         overflow="visible"
         id="symbol393">
        <path
           style="stroke:none;"
           d=""
           id="path8528" />
      </symbol>
      <symbol
         overflow="visible"
         id="symbol7724">
        <path
           style="stroke:none;"
           d="M 3.015625 -3.15625 L 4.71875 -3.15625 C 6.125 -3.15625 7.515625 -4.1875 7.515625 -5.296875 C 7.515625 -6.078125 6.859375 -6.8125 5.546875 -6.8125 L 2.328125 -6.8125 C 2.140625 -6.8125 2.03125 -6.8125 2.03125 -6.625 C 2.03125 -6.5 2.109375 -6.5 2.3125 -6.5 C 2.4375 -6.5 2.625 -6.484375 2.734375 -6.484375 C 2.90625 -6.453125 2.953125 -6.4375 2.953125 -6.3125 C 2.953125 -6.28125 2.953125 -6.25 2.921875 -6.125 L 1.578125 -0.78125 C 1.484375 -0.390625 1.46875 -0.3125 0.671875 -0.3125 C 0.515625 -0.3125 0.40625 -0.3125 0.40625 -0.125 C 0.40625 0 0.515625 0 0.546875 0 C 0.828125 0 1.53125 -0.03125 1.8125 -0.03125 C 2.03125 -0.03125 2.25 -0.015625 2.453125 -0.015625 C 2.671875 -0.015625 2.890625 0 3.09375 0 C 3.171875 0 3.296875 0 3.296875 -0.203125 C 3.296875 -0.3125 3.203125 -0.3125 3.015625 -0.3125 C 2.65625 -0.3125 2.375 -0.3125 2.375 -0.484375 C 2.375 -0.546875 2.390625 -0.59375 2.40625 -0.65625 Z M 3.734375 -6.125 C 3.828125 -6.46875 3.84375 -6.5 4.28125 -6.5 L 5.234375 -6.5 C 6.0625 -6.5 6.59375 -6.234375 6.59375 -5.546875 C 6.59375 -5.15625 6.390625 -4.296875 6 -3.9375 C 5.5 -3.484375 4.90625 -3.40625 4.46875 -3.40625 L 3.0625 -3.40625 Z M 3.734375 -6.125 "
           id="path1192" />
      </symbol>
      <symbol
         overflow="visible"
         id="symbol44">
        <path
           style="stroke:none;"
           d="M 4.375 -7.09375 C 4.421875 -7.234375 4.421875 -7.265625 4.421875 -7.28125 C 4.421875 -7.390625 4.34375 -7.484375 4.234375 -7.484375 C 4.15625 -7.484375 4.09375 -7.453125 4.0625 -7.390625 L 0.59375 2.109375 C 0.546875 2.25 0.546875 2.28125 0.546875 2.296875 C 0.546875 2.40625 0.640625 2.5 0.75 2.5 C 0.875 2.5 0.90625 2.421875 0.96875 2.25 Z M 4.375 -7.09375 "
           id="path1957" />
      </symbol>
      <symbol
         overflow="visible"
         id="symbol5134">
        <path
           style="stroke:none;"
           d=""
           id="path1001" />
      </symbol>
      <symbol
         overflow="visible"
         id="symbol5696">
        <path
           style="stroke:none;"
           d="M 5.875 -4.8125 C 5.875 -4.84375 5.859375 -4.90625 5.78125 -4.90625 C 5.734375 -4.90625 5.71875 -4.890625 5.65625 -4.8125 L 5.15625 -4.28125 C 5.09375 -4.359375 4.703125 -4.90625 3.84375 -4.90625 C 2.140625 -4.90625 0.484375 -3.40625 0.484375 -1.828125 C 0.484375 -0.75 1.3125 0.140625 2.640625 0.140625 C 3.265625 0.140625 3.90625 -0.015625 4.265625 -0.40625 C 4.34375 -0.265625 4.53125 0 4.609375 0 C 4.671875 0 4.6875 -0.03125 4.71875 -0.1875 L 4.859375 -0.71875 C 4.890625 -0.84375 4.984375 -1.265625 5.015625 -1.34375 C 5.09375 -1.65625 5.09375 -1.671875 5.515625 -1.671875 C 5.5625 -1.671875 5.671875 -1.671875 5.671875 -1.8125 C 5.671875 -1.890625 5.609375 -1.921875 5.5625 -1.921875 C 5.328125 -1.921875 5.03125 -1.890625 4.796875 -1.890625 C 4.625 -1.890625 4.390625 -1.890625 4.21875 -1.90625 C 4.046875 -1.90625 3.84375 -1.921875 3.671875 -1.921875 C 3.609375 -1.921875 3.515625 -1.921875 3.515625 -1.765625 C 3.515625 -1.671875 3.59375 -1.671875 3.765625 -1.671875 C 3.890625 -1.671875 4.03125 -1.671875 4.171875 -1.65625 C 4.390625 -1.640625 4.390625 -1.609375 4.390625 -1.53125 C 4.390625 -1.5 4.390625 -1.484375 4.34375 -1.296875 C 4.296875 -1.109375 4.21875 -0.796875 4.1875 -0.71875 C 4 -0.296875 3.34375 -0.109375 2.796875 -0.109375 C 2.109375 -0.109375 1.1875 -0.453125 1.1875 -1.625 C 1.1875 -2.375 1.546875 -3.296875 2.0625 -3.828125 C 2.78125 -4.53125 3.515625 -4.640625 3.90625 -4.640625 C 4.71875 -4.640625 5.1875 -4.0625 5.1875 -3.28125 C 5.1875 -3.09375 5.171875 -3.03125 5.171875 -3 C 5.171875 -2.90625 5.265625 -2.90625 5.296875 -2.90625 C 5.40625 -2.90625 5.40625 -2.921875 5.4375 -3.0625 Z M 5.875 -4.8125 "
           id="path5947" />
      </symbol>
      <symbol
         overflow="visible"
         id="symbol7809">
        <path
           style="stroke:none;"
           d="M 1.328125 -0.546875 C 1.265625 -0.3125 1.25 -0.25 0.703125 -0.25 C 0.59375 -0.25 0.5 -0.25 0.5 -0.109375 C 0.5 0 0.578125 0 0.703125 0 L 3.40625 0 C 4.578125 0 5.484375 -0.796875 5.484375 -1.484375 C 5.484375 -1.984375 5.03125 -2.40625 4.28125 -2.484375 C 5.125 -2.640625 5.828125 -3.171875 5.828125 -3.765625 C 5.828125 -4.296875 5.296875 -4.765625 4.390625 -4.765625 L 1.859375 -4.765625 C 1.71875 -4.765625 1.625 -4.765625 1.625 -4.609375 C 1.625 -4.515625 1.71875 -4.515625 1.859375 -4.515625 C 1.859375 -4.515625 2 -4.515625 2.125 -4.5 C 2.265625 -4.484375 2.28125 -4.46875 2.28125 -4.390625 C 2.28125 -4.390625 2.28125 -4.34375 2.25 -4.25 Z M 2.4375 -2.578125 L 2.859375 -4.265625 C 2.921875 -4.484375 2.921875 -4.515625 3.21875 -4.515625 L 4.28125 -4.515625 C 4.984375 -4.515625 5.15625 -4.046875 5.15625 -3.78125 C 5.15625 -3.21875 4.515625 -2.578125 3.578125 -2.578125 Z M 2.109375 -0.25 C 1.890625 -0.25 1.875 -0.265625 1.875 -0.328125 C 1.875 -0.328125 1.875 -0.359375 1.90625 -0.46875 L 2.390625 -2.375 L 3.875 -2.375 C 4.515625 -2.375 4.78125 -1.9375 4.78125 -1.546875 C 4.78125 -0.84375 4.0625 -0.25 3.21875 -0.25 Z M 2.109375 -0.25 "
           id="path1434" />
      </symbol>
    </g>
    <g
       id="g6785">
      <symbol
         overflow="visible"
         id="symbol2424">
        <path
           style="stroke:none;"
           d=""
           id="path650" />
      </symbol>
      <symbol
         overflow="visible"
         id="symbol5877">
        <path
           style="stroke:none;"
           d="M 4.71875 -3.921875 C 4.859375 -4.0625 5 -4.1875 5.15625 -4.296875 C 5.4375 -4.484375 5.6875 -4.5 5.78125 -4.515625 C 5.859375 -4.515625 5.9375 -4.515625 5.9375 -4.65625 C 5.9375 -4.703125 5.90625 -4.765625 5.84375 -4.765625 C 5.671875 -4.765625 5.46875 -4.734375 5.28125 -4.734375 C 5.0625 -4.734375 4.765625 -4.765625 4.5625 -4.765625 C 4.515625 -4.765625 4.421875 -4.765625 4.421875 -4.609375 C 4.421875 -4.515625 4.515625 -4.515625 4.546875 -4.515625 C 4.75 -4.5 4.75 -4.421875 4.75 -4.375 C 4.75 -4.3125 4.703125 -4.265625 4.65625 -4.1875 C 4.609375 -4.125 4.578125 -4.078125 4.53125 -4.046875 L 2.796875 -2.21875 L 1.875 -4.265625 C 1.828125 -4.359375 1.828125 -4.375 1.828125 -4.390625 C 1.828125 -4.515625 2.15625 -4.515625 2.203125 -4.515625 C 2.296875 -4.515625 2.390625 -4.515625 2.390625 -4.65625 C 2.390625 -4.671875 2.390625 -4.765625 2.265625 -4.765625 C 2.0625 -4.765625 1.546875 -4.734375 1.34375 -4.734375 C 1.15625 -4.734375 0.71875 -4.765625 0.546875 -4.765625 C 0.484375 -4.765625 0.40625 -4.734375 0.40625 -4.609375 C 0.40625 -4.515625 0.5 -4.515625 0.59375 -4.515625 C 1 -4.515625 1.03125 -4.453125 1.09375 -4.296875 L 2.171875 -1.90625 L 1.859375 -0.640625 C 1.765625 -0.28125 1.765625 -0.265625 1.21875 -0.25 C 1.09375 -0.25 1.015625 -0.25 1.015625 -0.109375 C 1.015625 -0.03125 1.0625 0 1.125 0 C 1.25 0 1.421875 -0.015625 1.546875 -0.015625 C 1.6875 -0.015625 1.890625 -0.03125 2.015625 -0.03125 C 2.15625 -0.03125 2.3125 -0.015625 2.453125 -0.015625 C 2.609375 -0.015625 2.78125 0 2.921875 0 C 2.96875 0 3.078125 0 3.078125 -0.15625 C 3.078125 -0.25 3 -0.25 2.84375 -0.25 C 2.734375 -0.25 2.703125 -0.25 2.578125 -0.265625 C 2.453125 -0.28125 2.421875 -0.296875 2.421875 -0.359375 C 2.421875 -0.40625 2.515625 -0.734375 2.5625 -0.921875 C 2.609375 -1.15625 2.765625 -1.75 2.78125 -1.78125 C 2.796875 -1.890625 2.796875 -1.90625 2.875 -1.96875 Z M 4.71875 -3.921875 "
           id="path10" />
      </symbol>
      <symbol
         overflow="visible"
         id="symbol2977">
        <path
           style="stroke:none;"
           d=""
           id="path4300" />
      </symbol>
      <symbol
         overflow="visible"
         id="symbol3195">
        <path
           style="stroke:none;"
           d="M 4.265625 -1.046875 C 4.296875 -1.140625 4.328125 -1.15625 4.609375 -1.15625 C 4.671875 -1.15625 4.75 -1.15625 4.75 -1.296875 C 4.75 -1.34375 4.71875 -1.390625 4.671875 -1.390625 C 4.578125 -1.390625 4.46875 -1.375 4.359375 -1.375 C 4.25 -1.375 4.140625 -1.359375 4.03125 -1.359375 C 3.875 -1.359375 3.734375 -1.375 3.578125 -1.375 C 3.4375 -1.375 3.296875 -1.390625 3.15625 -1.390625 C 3.109375 -1.390625 3.015625 -1.390625 3.015625 -1.25 C 3.015625 -1.15625 3.09375 -1.15625 3.1875 -1.15625 L 3.28125 -1.15625 C 3.390625 -1.15625 3.578125 -1.15625 3.671875 -1.140625 C 3.71875 -1.125 3.75 -1.125 3.75 -1.078125 C 3.75 -1.046875 3.640625 -0.640625 3.625 -0.578125 C 3.5 -0.171875 2.859375 -0.109375 2.53125 -0.109375 C 1.859375 -0.109375 1.125 -0.40625 1.125 -1.25 C 1.125 -1.703125 1.34375 -2.3125 1.78125 -2.703125 C 2.296875 -3.1875 2.921875 -3.296875 3.28125 -3.296875 C 3.921875 -3.296875 4.3125 -2.875 4.3125 -2.296875 C 4.3125 -2.1875 4.3125 -2.171875 4.3125 -2.140625 C 4.3125 -2.0625 4.375 -2.0625 4.421875 -2.0625 C 4.515625 -2.0625 4.515625 -2.078125 4.546875 -2.171875 L 4.859375 -3.4375 C 4.859375 -3.453125 4.859375 -3.515625 4.78125 -3.515625 C 4.75 -3.515625 4.734375 -3.515625 4.6875 -3.453125 L 4.34375 -3.109375 C 4.328125 -3.09375 4.296875 -3.0625 4.28125 -3.0625 C 4.265625 -3.0625 4.265625 -3.078125 4.25 -3.078125 C 4.140625 -3.203125 3.84375 -3.515625 3.203125 -3.515625 C 1.84375 -3.515625 0.578125 -2.453125 0.578125 -1.34375 C 0.578125 -0.59375 1.1875 0.109375 2.359375 0.109375 C 2.546875 0.109375 2.8125 0.09375 3.078125 0.03125 C 3.4375 -0.046875 3.609375 -0.1875 3.6875 -0.265625 C 3.75 -0.171875 3.890625 0 3.953125 0 C 3.96875 0 4 -0.015625 4.015625 -0.046875 C 4.015625 -0.09375 4.09375 -0.359375 4.109375 -0.4375 Z M 4.265625 -1.046875 "
           id="path1333" />
      </symbol>
      <symbol
         overflow="visible"
         id="symbol8196">
        <path
           style="stroke:none;"
           d="M 1.234375 -0.40625 C 1.203125 -0.265625 1.1875 -0.21875 0.8125 -0.21875 C 0.6875 -0.21875 0.609375 -0.21875 0.609375 -0.078125 C 0.609375 0 0.6875 0 0.765625 0 L 2.9375 0 C 3.828125 0 4.5625 -0.5625 4.5625 -1.0625 C 4.5625 -1.359375 4.265625 -1.703125 3.59375 -1.78125 C 4.09375 -1.84375 4.796875 -2.171875 4.796875 -2.671875 C 4.796875 -3.09375 4.296875 -3.40625 3.625 -3.40625 L 1.578125 -3.40625 C 1.484375 -3.40625 1.40625 -3.40625 1.40625 -3.265625 C 1.40625 -3.1875 1.46875 -3.1875 1.578125 -3.1875 C 1.640625 -3.1875 1.796875 -3.1875 1.90625 -3.15625 C 1.90625 -3.09375 1.90625 -3.078125 1.890625 -3.03125 Z M 2.078125 -1.859375 L 2.375 -3.015625 C 2.40625 -3.171875 2.40625 -3.1875 2.609375 -3.1875 L 3.53125 -3.1875 C 4.015625 -3.1875 4.25 -2.921875 4.25 -2.65625 C 4.25 -2.265625 3.71875 -1.859375 3.015625 -1.859375 Z M 1.84375 -0.21875 C 1.796875 -0.21875 1.734375 -0.21875 1.6875 -0.234375 C 1.6875 -0.28125 1.6875 -0.28125 1.6875 -0.328125 L 2.03125 -1.6875 L 3.25 -1.6875 C 3.765625 -1.6875 4.015625 -1.390625 4.015625 -1.078125 C 4.015625 -0.59375 3.421875 -0.21875 2.796875 -0.21875 Z M 1.84375 -0.21875 "
           id="path751" />
      </symbol>
      <symbol
         overflow="visible"
         id="symbol2709">
        <path
           style="stroke:none;"
           d=""
           id="path982" />
      </symbol>
      <symbol
         overflow="visible"
         id="symbol8959">
        <path
           style="stroke:none;"
           d="M 3.21875 -1.578125 L 5.359375 -1.578125 C 5.453125 -1.578125 5.609375 -1.578125 5.609375 -1.734375 C 5.609375 -1.921875 5.453125 -1.921875 5.359375 -1.921875 L 3.21875 -1.921875 L 3.21875 -4.0625 C 3.21875 -4.140625 3.21875 -4.3125 3.0625 -4.3125 C 2.890625 -4.3125 2.890625 -4.15625 2.890625 -4.0625 L 2.890625 -1.921875 L 0.75 -1.921875 C 0.65625 -1.921875 0.484375 -1.921875 0.484375 -1.75 C 0.484375 -1.578125 0.640625 -1.578125 0.75 -1.578125 L 2.890625 -1.578125 L 2.890625 0.5625 C 2.890625 0.65625 2.890625 0.828125 3.046875 0.828125 C 3.21875 0.828125 3.21875 0.65625 3.21875 0.5625 Z M 3.21875 -1.578125 "
           id="path6715" />
      </symbol>
      <symbol
         overflow="visible"
         id="symbol7245">
        <path
           style="stroke:none;"
           d=""
           id="path4904" />
      </symbol>
      <symbol
         overflow="visible"
         id="symbol7603">
        <path
           style="stroke:none;"
           d="M 1.921875 -1.375 C 1.921875 -1.46875 2.015625 -2.109375 2.015625 -2.15625 C 2.015625 -2.25 1.9375 -2.3125 1.828125 -2.3125 C 1.734375 -2.3125 1.65625 -2.234375 1.65625 -2.15625 C 1.65625 -2.109375 1.734375 -1.484375 1.75 -1.375 L 0.984375 -1.84375 C 0.921875 -1.875 0.90625 -1.890625 0.859375 -1.890625 C 0.78125 -1.890625 0.6875 -1.8125 0.6875 -1.703125 C 0.6875 -1.625 0.75 -1.5625 0.796875 -1.546875 C 1.078125 -1.4375 1.359375 -1.34375 1.640625 -1.25 C 1.359375 -1.140625 0.890625 -0.984375 0.8125 -0.9375 C 0.78125 -0.921875 0.6875 -0.890625 0.6875 -0.78125 C 0.6875 -0.671875 0.78125 -0.609375 0.859375 -0.609375 C 0.921875 -0.609375 1.078125 -0.703125 1.75 -1.109375 C 1.734375 -1 1.65625 -0.375 1.65625 -0.328125 C 1.65625 -0.25 1.734375 -0.171875 1.828125 -0.171875 C 1.9375 -0.171875 2.015625 -0.234375 2.015625 -0.328125 C 2.015625 -0.375 1.921875 -1.015625 1.921875 -1.109375 L 2.703125 -0.640625 C 2.734375 -0.625 2.765625 -0.609375 2.8125 -0.609375 C 2.890625 -0.609375 2.96875 -0.671875 2.96875 -0.78125 C 2.96875 -0.875 2.921875 -0.921875 2.875 -0.9375 C 2.59375 -1.046875 2.3125 -1.140625 2.03125 -1.234375 C 2.3125 -1.34375 2.765625 -1.515625 2.859375 -1.546875 C 2.890625 -1.5625 2.96875 -1.59375 2.96875 -1.703125 C 2.96875 -1.8125 2.890625 -1.890625 2.8125 -1.890625 C 2.765625 -1.890625 2.734375 -1.875 2.6875 -1.84375 Z M 1.921875 -1.375 "
           id="path8536" />
      </symbol>
    </g>
    <g
       id="g4000">
      <symbol
         overflow="visible"
         id="symbol1263">
        <path
           style="stroke:none;"
           d=""
           id="path6011" />
      </symbol>
      <symbol
         overflow="visible"
         id="symbol4324">
        <path
           style="stroke:none;"
           d="M 3.296875 2.390625 C 3.296875 2.359375 3.296875 2.34375 3.125 2.171875 C 1.890625 0.921875 1.5625 -0.96875 1.5625 -2.5 C 1.5625 -4.234375 1.9375 -5.96875 3.171875 -7.203125 C 3.296875 -7.328125 3.296875 -7.34375 3.296875 -7.375 C 3.296875 -7.453125 3.265625 -7.484375 3.203125 -7.484375 C 3.09375 -7.484375 2.203125 -6.796875 1.609375 -5.53125 C 1.109375 -4.4375 0.984375 -3.328125 0.984375 -2.5 C 0.984375 -1.71875 1.09375 -0.515625 1.640625 0.625 C 2.25 1.84375 3.09375 2.5 3.203125 2.5 C 3.265625 2.5 3.296875 2.46875 3.296875 2.390625 Z M 3.296875 2.390625 "
           id="path2728" />
      </symbol>
      <symbol
         overflow="visible"
         id="symbol1834">
        <path
           style="stroke:none;"
           d="M 2.875 -2.5 C 2.875 -3.265625 2.765625 -4.46875 2.21875 -5.609375 C 1.625 -6.828125 0.765625 -7.484375 0.671875 -7.484375 C 0.609375 -7.484375 0.5625 -7.4375 0.5625 -7.375 C 0.5625 -7.34375 0.5625 -7.328125 0.75 -7.140625 C 1.734375 -6.15625 2.296875 -4.578125 2.296875 -2.5 C 2.296875 -0.78125 1.9375 0.96875 0.703125 2.21875 C 0.5625 2.34375 0.5625 2.359375 0.5625 2.390625 C 0.5625 2.453125 0.609375 2.5 0.671875 2.5 C 0.765625 2.5 1.671875 1.8125 2.25 0.546875 C 2.765625 -0.546875 2.875 -1.65625 2.875 -2.5 Z M 2.875 -2.5 "
           id="path4511" />
      </symbol>
      <symbol
         overflow="visible"
         id="symbol3936">
        <path
           style="stroke:none;"
           d=""
           id="path5081" />
      </symbol>
      <symbol
         overflow="visible"
         id="symbol4142">
        <path
           style="stroke:none;"
           d="M 3.015625 -3.15625 L 4.71875 -3.15625 C 6.125 -3.15625 7.515625 -4.1875 7.515625 -5.296875 C 7.515625 -6.078125 6.859375 -6.8125 5.546875 -6.8125 L 2.328125 -6.8125 C 2.140625 -6.8125 2.03125 -6.8125 2.03125 -6.625 C 2.03125 -6.5 2.109375 -6.5 2.3125 -6.5 C 2.4375 -6.5 2.625 -6.484375 2.734375 -6.484375 C 2.90625 -6.453125 2.953125 -6.4375 2.953125 -6.3125 C 2.953125 -6.28125 2.953125 -6.25 2.921875 -6.125 L 1.578125 -0.78125 C 1.484375 -0.390625 1.46875 -0.3125 0.671875 -0.3125 C 0.515625 -0.3125 0.40625 -0.3125 0.40625 -0.125 C 0.40625 0 0.515625 0 0.546875 0 C 0.828125 0 1.53125 -0.03125 1.8125 -0.03125 C 2.03125 -0.03125 2.25 -0.015625 2.453125 -0.015625 C 2.671875 -0.015625 2.890625 0 3.09375 0 C 3.171875 0 3.296875 0 3.296875 -0.203125 C 3.296875 -0.3125 3.203125 -0.3125 3.015625 -0.3125 C 2.65625 -0.3125 2.375 -0.3125 2.375 -0.484375 C 2.375 -0.546875 2.390625 -0.59375 2.40625 -0.65625 Z M 3.734375 -6.125 C 3.828125 -6.46875 3.84375 -6.5 4.28125 -6.5 L 5.234375 -6.5 C 6.0625 -6.5 6.59375 -6.234375 6.59375 -5.546875 C 6.59375 -5.15625 6.390625 -4.296875 6 -3.9375 C 5.5 -3.484375 4.90625 -3.40625 4.46875 -3.40625 L 3.0625 -3.40625 Z M 3.734375 -6.125 "
           id="path8665" />
      </symbol>
      <symbol
         overflow="visible"
         id="symbol2691">
        <path
           style="stroke:none;"
           d="M 4.375 -7.09375 C 4.421875 -7.234375 4.421875 -7.265625 4.421875 -7.28125 C 4.421875 -7.390625 4.34375 -7.484375 4.234375 -7.484375 C 4.15625 -7.484375 4.09375 -7.453125 4.0625 -7.390625 L 0.59375 2.109375 C 0.546875 2.25 0.546875 2.28125 0.546875 2.296875 C 0.546875 2.40625 0.640625 2.5 0.75 2.5 C 0.875 2.5 0.90625 2.421875 0.96875 2.25 Z M 4.375 -7.09375 "
           id="path6384" />
      </symbol>
      <symbol
         overflow="visible"
         id="symbol2980">
        <path
           style="stroke:none;"
           d=""
           id="path2835" />
      </symbol>
      <symbol
         overflow="visible"
         id="symbol6492">
        <path
           style="stroke:none;"
           d="M 5.875 -4.8125 C 5.875 -4.84375 5.859375 -4.90625 5.78125 -4.90625 C 5.734375 -4.90625 5.71875 -4.890625 5.65625 -4.8125 L 5.15625 -4.28125 C 5.09375 -4.359375 4.703125 -4.90625 3.84375 -4.90625 C 2.140625 -4.90625 0.484375 -3.40625 0.484375 -1.828125 C 0.484375 -0.75 1.3125 0.140625 2.640625 0.140625 C 3.265625 0.140625 3.90625 -0.015625 4.265625 -0.40625 C 4.34375 -0.265625 4.53125 0 4.609375 0 C 4.671875 0 4.6875 -0.03125 4.71875 -0.1875 L 4.859375 -0.71875 C 4.890625 -0.84375 4.984375 -1.265625 5.015625 -1.34375 C 5.09375 -1.65625 5.09375 -1.671875 5.515625 -1.671875 C 5.5625 -1.671875 5.671875 -1.671875 5.671875 -1.8125 C 5.671875 -1.890625 5.609375 -1.921875 5.5625 -1.921875 C 5.328125 -1.921875 5.03125 -1.890625 4.796875 -1.890625 C 4.625 -1.890625 4.390625 -1.890625 4.21875 -1.90625 C 4.046875 -1.90625 3.84375 -1.921875 3.671875 -1.921875 C 3.609375 -1.921875 3.515625 -1.921875 3.515625 -1.765625 C 3.515625 -1.671875 3.59375 -1.671875 3.765625 -1.671875 C 3.890625 -1.671875 4.03125 -1.671875 4.171875 -1.65625 C 4.390625 -1.640625 4.390625 -1.609375 4.390625 -1.53125 C 4.390625 -1.5 4.390625 -1.484375 4.34375 -1.296875 C 4.296875 -1.109375 4.21875 -0.796875 4.1875 -0.71875 C 4 -0.296875 3.34375 -0.109375 2.796875 -0.109375 C 2.109375 -0.109375 1.1875 -0.453125 1.1875 -1.625 C 1.1875 -2.375 1.546875 -3.296875 2.0625 -3.828125 C 2.78125 -4.53125 3.515625 -4.640625 3.90625 -4.640625 C 4.71875 -4.640625 5.1875 -4.0625 5.1875 -3.28125 C 5.1875 -3.09375 5.171875 -3.03125 5.171875 -3 C 5.171875 -2.90625 5.265625 -2.90625 5.296875 -2.90625 C 5.40625 -2.90625 5.40625 -2.921875 5.4375 -3.0625 Z M 5.875 -4.8125 "
           id="path7574" />
      </symbol>
      <symbol
         overflow="visible"
         id="symbol3390">
        <path
           style="stroke:none;"
           d="M 1.328125 -0.546875 C 1.265625 -0.3125 1.25 -0.25 0.703125 -0.25 C 0.59375 -0.25 0.5 -0.25 0.5 -0.109375 C 0.5 0 0.578125 0 0.703125 0 L 3.40625 0 C 4.578125 0 5.484375 -0.796875 5.484375 -1.484375 C 5.484375 -1.984375 5.03125 -2.40625 4.28125 -2.484375 C 5.125 -2.640625 5.828125 -3.171875 5.828125 -3.765625 C 5.828125 -4.296875 5.296875 -4.765625 4.390625 -4.765625 L 1.859375 -4.765625 C 1.71875 -4.765625 1.625 -4.765625 1.625 -4.609375 C 1.625 -4.515625 1.71875 -4.515625 1.859375 -4.515625 C 1.859375 -4.515625 2 -4.515625 2.125 -4.5 C 2.265625 -4.484375 2.28125 -4.46875 2.28125 -4.390625 C 2.28125 -4.390625 2.28125 -4.34375 2.25 -4.25 Z M 2.4375 -2.578125 L 2.859375 -4.265625 C 2.921875 -4.484375 2.921875 -4.515625 3.21875 -4.515625 L 4.28125 -4.515625 C 4.984375 -4.515625 5.15625 -4.046875 5.15625 -3.78125 C 5.15625 -3.21875 4.515625 -2.578125 3.578125 -2.578125 Z M 2.109375 -0.25 C 1.890625 -0.25 1.875 -0.265625 1.875 -0.328125 C 1.875 -0.328125 1.875 -0.359375 1.90625 -0.46875 L 2.390625 -2.375 L 3.875 -2.375 C 4.515625 -2.375 4.78125 -1.9375 4.78125 -1.546875 C 4.78125 -0.84375 4.0625 -0.25 3.21875 -0.25 Z M 2.109375 -0.25 "
           id="path527" />
      </symbol>
      <symbol
         overflow="visible"
         id="symbol946">
        <path
           style="stroke:none;"
           d="M 7.21875 -3.9375 L 7.34375 -4.125 C 7.484375 -4.3125 7.65625 -4.484375 8 -4.515625 C 8.078125 -4.515625 8.15625 -4.515625 8.15625 -4.65625 C 8.15625 -4.703125 8.125 -4.765625 8.0625 -4.765625 C 7.90625 -4.765625 7.703125 -4.734375 7.53125 -4.734375 C 7.296875 -4.734375 6.984375 -4.765625 6.765625 -4.765625 C 6.71875 -4.765625 6.609375 -4.765625 6.609375 -4.609375 C 6.609375 -4.515625 6.703125 -4.515625 6.734375 -4.515625 C 6.890625 -4.5 7.125 -4.453125 7.125 -4.265625 C 7.125 -4.1875 7.046875 -4.0625 7.015625 -4.015625 L 5.046875 -0.78125 L 4.671875 -4.3125 C 4.671875 -4.5 5.078125 -4.515625 5.15625 -4.515625 C 5.25 -4.515625 5.34375 -4.515625 5.34375 -4.65625 C 5.34375 -4.671875 5.34375 -4.765625 5.21875 -4.765625 C 5.09375 -4.765625 4.921875 -4.75 4.796875 -4.734375 C 4.65625 -4.734375 4.46875 -4.734375 4.328125 -4.734375 C 4.171875 -4.734375 3.765625 -4.765625 3.609375 -4.765625 C 3.5625 -4.765625 3.46875 -4.765625 3.46875 -4.609375 C 3.46875 -4.515625 3.546875 -4.515625 3.640625 -4.515625 C 3.9375 -4.515625 3.984375 -4.453125 4 -4.390625 C 4 -4.34375 4.015625 -4.15625 4.046875 -3.9375 L 2.125 -0.78125 L 1.765625 -4.203125 C 1.765625 -4.234375 1.75 -4.296875 1.75 -4.3125 C 1.75 -4.515625 2.1875 -4.515625 2.234375 -4.515625 C 2.328125 -4.515625 2.421875 -4.515625 2.421875 -4.65625 C 2.421875 -4.6875 2.40625 -4.765625 2.3125 -4.765625 C 2.109375 -4.765625 1.609375 -4.734375 1.421875 -4.734375 C 1.1875 -4.734375 0.890625 -4.765625 0.6875 -4.765625 C 0.609375 -4.765625 0.546875 -4.734375 0.546875 -4.609375 C 0.546875 -4.515625 0.625 -4.515625 0.734375 -4.515625 C 1.0625 -4.515625 1.0625 -4.46875 1.09375 -4.296875 L 1.546875 -0.046875 C 1.5625 0.09375 1.578125 0.140625 1.703125 0.140625 C 1.8125 0.140625 1.875 0.078125 1.90625 0 L 4.078125 -3.578125 L 4.46875 -0.046875 C 4.484375 0.109375 4.515625 0.140625 4.625 0.140625 C 4.734375 0.140625 4.78125 0.078125 4.828125 0 Z M 7.21875 -3.9375 "
           id="path4828" />
      </symbol>
    </g>
  </defs>
  <metadata
     id="metadata5">
    <rdf:RDF>
      <cc:Work
         rdf:about="">
        <dc:format>image/svg+xml</dc:format>
        <dc:type
           rdf:resource="http://purl.org/dc/dcmitype/StillImage" />
        <dc:title></dc:title>
      </cc:Work>
    </rdf:RDF>
  </metadata>
  <g
     transform="translate(0,-87)"
     id="layer1"
     inkscape:groupmode="layer"
     inkscape:label="Layer 1">
    <path
       sodipodi:nodetypes="ccc"
       inkscape:connector-curvature="0"
       id="path3713-3"
       d="m 58.835534,114.98459 0.19893,117.98222 160.802216,0.61175"
       style="fill:none;stroke:#000000;stroke-width:1.06500006;stroke-linecap:butt;stroke-linejoin:miter;stroke-miterlimit:4;stroke-dasharray:none;stroke-opacity:1" />
    <flowRoot
       style="font-style:normal;font-weight:normal;font-size:40px;line-height:1.25;font-family:sans-serif;letter-spacing:0px;word-spacing:0px;fill:#000000;fill-opacity:1;stroke:none"
       id="flowRoot7901"
       xml:space="preserve"
       transform="translate(-74.612541)"><flowRegion
         id="flowRegion7903"><rect
           y="280.53265"
           x="838.22479"
           height="91.798409"
           width="91.045959"
           id="rect7905" /></flowRegion><flowPara
         id="flowPara7907" /></flowRoot>
    <path
       inkscape:connector-curvature="0"
       id="path27062"
       d="m 59.034462,232.96681 0.292767,-21.97138 76.846671,-0.39817 0.59726,-77.44393 77.8421,-0.19908"
       style="fill:none;stroke:#000000;stroke-width:0.7;stroke-linecap:butt;stroke-linejoin:miter;stroke-opacity:1;stroke-miterlimit:4;stroke-dasharray:none" />
    <flowRoot
       transform="matrix(0.26458333,0,0,0.26458333,-13.338672,98.94508)"
       style="font-style:normal;font-weight:normal;font-size:40px;line-height:1.25;font-family:sans-serif;letter-spacing:0px;word-spacing:0px;fill:#000000;fill-opacity:1;stroke:none"
       id="flowRoot27064"
       xml:space="preserve"><flowRegion
         id="flowRegion27066"><rect
           y="100.69808"
           x="878.85687"
           height="203.91286"
           width="174.56746"
           id="rect27068" /></flowRegion><flowPara
         style="font-size:21.3333px"
         id="flowPara27070">Relative Supply</flowPara></flowRoot>
    <path
       sodipodi:nodetypes="cc"
       inkscape:connector-curvature="0"
       id="path27072"
       d="M 136.77116,133.15333 58.331806,133.5515"
       style="fill:none;stroke:#000000;stroke-width:0.565;stroke-linecap:butt;stroke-linejoin:miter;stroke-miterlimit:4;stroke-dasharray:0.56499997, 1.12999994;stroke-dashoffset:0;stroke-opacity:1" />
    <path
       style="fill:none;stroke:#000000;stroke-width:0.565;stroke-linecap:butt;stroke-linejoin:miter;stroke-opacity:1;stroke-miterlimit:4;stroke-dasharray:0.565,1.13;stroke-dashoffset:0"
       d="m 136.1739,210.59726 -0.19908,22.29748"
       id="path27226"
       inkscape:connector-curvature="0" />
    <flowRoot
       xml:space="preserve"
       id="flowRoot2501"
       style="font-style:normal;font-weight:normal;font-size:40px;line-height:1.25;font-family:sans-serif;letter-spacing:0px;word-spacing:0px;fill:#000000;fill-opacity:1;stroke:none"
       transform="matrix(0.26458333,0,0,0.26458333,33.048053,119.64988)"><flowRegion
         id="flowRegion2503"><rect
           id="rect2505"
           width="112.86689"
           height="139.2025"
           x="36.117405"
           y="317.4025" /></flowRegion><flowPara
         id="flowPara2507"
         style="font-size:29.3333px">1/2</flowPara></flowRoot>
    <flowRoot
       xml:space="preserve"
       id="flowRoot2509"
       style="font-style:normal;font-weight:normal;font-size:40px;line-height:1.25;font-family:sans-serif;letter-spacing:0px;word-spacing:0px;fill:#000000;fill-opacity:1;stroke:none"
       transform="matrix(0.26458333,0,0,0.26458333,30.061784,92.97254)"><flowRegion
         id="flowRegion2511"><rect
           id="rect2513"
           width="127.16337"
           height="139.95494"
           x="71.482368"
           y="125.52878" /></flowRegion><flowPara
         id="flowPara2515"
         style="font-size:29.3333px">2</flowPara></flowRoot>
    <flowRoot
       xml:space="preserve"
       id="flowRoot2517"
       style="font-style:normal;font-weight:normal;font-size:40px;line-height:1.25;font-family:sans-serif;letter-spacing:0px;word-spacing:0px;fill:#000000;fill-opacity:1;stroke:none"
       transform="matrix(0.26458333,0,0,0.26458333,6.5697938,73.661328)"><flowRegion
         id="flowRegion2519"><rect
           id="rect2521"
           width="179.83458"
           height="75.244598"
           x="464.25916"
           y="604.08441" /></flowRegion><flowPara
         id="flowPara2523"
         style="font-size:29.3333px">1/4</flowPara></flowRoot>
    <path
       style="fill:none;stroke:#000000;stroke-width:0.765;stroke-linecap:butt;stroke-linejoin:miter;stroke-miterlimit:4;stroke-dasharray:none;stroke-opacity:1"
       d="m 78.24027,123.43249 c 32.49893,49.30882 80.19236,78.35831 139.75743,91.57894"
       id="path873"
       sodipodi:nodetypes="cc" />
    <text
       xml:space="preserve"
       id="text875"
       style="font-size:5.64444px;line-height:1.25;font-family:sans-serif;white-space:pre;shape-inside:url(#rect877);"
       transform="translate(-3.7826085,9.1578943)"><tspan
         x="220.38672"
         y="202.24334"><tspan>Relative Demand</tspan></tspan></text>
    <g
       inkscape:label=""
       transform="translate(-58.245142,28.296048)"
       id="g1080">
      <g
         id="g9584">
        <g
           style="fill:#000000;fill-opacity:1"
           id="g9724">
          <use
             xlink:href="#symbol7724"
             x="91.925003"
             y="81.962997"
             id="use2544"
             width="100%"
             height="100%" />
        </g>
        <g
           style="fill:#000000;fill-opacity:1"
           id="g89">
          <use
             xlink:href="#symbol5696"
             x="98.320999"
             y="83.457001"
             id="use3004"
             width="100%"
             height="100%" />
        </g>
        <g
           style="fill:#000000;fill-opacity:1"
           id="g3418">
          <use
             xlink:href="#symbol44"
             x="105.022"
             y="81.962997"
             id="use794"
             width="100%"
             height="100%" />
          <use
             xlink:href="#symbol7724"
             x="110.0033"
             y="81.962997"
             id="use9810"
             width="100%"
             height="100%" />
        </g>
        <g
           style="fill:#000000;fill-opacity:1"
           id="g4541">
          <use
             xlink:href="#symbol7809"
             x="116.4"
             y="83.457001"
             id="use9786"
             width="100%"
             height="100%" />
        </g>
      </g>
    </g>
    <g
       inkscape:label=""
       transform="translate(131.48254,156.90474)"
       id="g1252">
      <g
         id="g2662">
        <g
           style="fill:#000000;fill-opacity:1"
           id="g1885">
          <use
             xlink:href="#symbol5877"
             x="93.178001"
             y="77.323997"
             id="use545"
             width="100%"
             height="100%" />
        </g>
        <g
           style="fill:#000000;fill-opacity:1"
           id="g5435">
          <use
             xlink:href="#symbol3195"
             x="97.861"
             y="78.325996"
             id="use8776"
             width="100%"
             height="100%" />
        </g>
        <g
           style="fill:#000000;fill-opacity:1"
           id="g7819">
          <use
             xlink:href="#symbol8959"
             x="103.659"
             y="77.323997"
             id="use8530"
             width="100%"
             height="100%" />
        </g>
        <g
           style="fill:#000000;fill-opacity:1"
           id="g7302">
          <use
             xlink:href="#symbol5877"
             x="109.775"
             y="77.323997"
             id="use9607"
             width="100%"
             height="100%" />
        </g>
        <g
           style="fill:#000000;fill-opacity:1"
           id="g6332">
          <use
             xlink:href="#symbol7603"
             x="116.174"
             y="74.318001"
             id="use8750"
             width="100%"
             height="100%" />
        </g>
        <g
           style="fill:#000000;fill-opacity:1"
           id="g2508">
          <use
             xlink:href="#symbol3195"
             x="114.458"
             y="79.317001"
             id="use409"
             width="100%"
             height="100%" />
        </g>
        <path
           style="fill:none;stroke:#000000;stroke-width:0.398;stroke-linecap:butt;stroke-linejoin:miter;stroke-miterlimit:10;stroke-opacity:1"
           d="M 9.375e-5,9.375e-4 H 27.273531"
           transform="matrix(1,0,0,-1,93.121,79.915)"
           id="path8176" />
        <g
           style="fill:#000000;fill-opacity:1"
           id="g7146">
          <use
             xlink:href="#symbol5877"
             x="93.121002"
             y="85.841003"
             id="use5813"
             width="100%"
             height="100%" />
        </g>
        <g
           style="fill:#000000;fill-opacity:1"
           id="g3643">
          <use
             xlink:href="#symbol8196"
             x="97.804001"
             y="86.843002"
             id="use8956"
             width="100%"
             height="100%" />
        </g>
        <g
           style="fill:#000000;fill-opacity:1"
           id="g799">
          <use
             xlink:href="#symbol8959"
             x="103.7"
             y="85.841003"
             id="use43"
             width="100%"
             height="100%" />
        </g>
        <g
           style="fill:#000000;fill-opacity:1"
           id="g2154">
          <use
             xlink:href="#symbol5877"
             x="109.816"
             y="85.841003"
             id="use6948"
             width="100%"
             height="100%" />
        </g>
        <g
           style="fill:#000000;fill-opacity:1"
           id="g3275">
          <use
             xlink:href="#symbol7603"
             x="116.215"
             y="83.439003"
             id="use5154"
             width="100%"
             height="100%" />
        </g>
        <g
           style="fill:#000000;fill-opacity:1"
           id="g859">
          <use
             xlink:href="#symbol8196"
             x="114.499"
             y="88.197998"
             id="use2529"
             width="100%"
             height="100%" />
        </g>
      </g>
    </g>
    <ellipse
       style="opacity:0.996444;fill:#000000;stroke:#f90000;stroke-width:0.765;stroke-miterlimit:4;stroke-dasharray:none;paint-order:stroke fill markers"
       id="path1304"
       cx="136.27345"
       cy="181.66475"
       rx="1.2940502"
       ry="1.493135" />
    <path
       style="fill:none;stroke:#000000;stroke-width:0.665;stroke-linecap:butt;stroke-linejoin:miter;stroke-opacity:1;stroke-miterlimit:4;stroke-dasharray:1.33,0.665;stroke-dashoffset:0"
       d="M 136.37299,181.36613 59.128143,181.16704"
       id="path1306" />
    <g
       inkscape:label=""
       transform="matrix(0.80200375,0,0,0.8536226,-55.015417,113.92268)"
       id="g1464">
      <g
         id="g9551">
        <g
           style="fill:#000000;fill-opacity:1"
           id="g7622">
          <use
             xlink:href="#symbol4324"
             x="91.925003"
             y="81.962997"
             id="use4108"
             width="100%"
             height="100%" />
        </g>
        <g
           style="fill:#000000;fill-opacity:1"
           id="g6372">
          <use
             xlink:href="#symbol4142"
             x="95.800003"
             y="81.962997"
             id="use1999"
             width="100%"
             height="100%" />
        </g>
        <g
           style="fill:#000000;fill-opacity:1"
           id="g4193">
          <use
             xlink:href="#symbol6492"
             x="102.196"
             y="83.457001"
             id="use4670"
             width="100%"
             height="100%" />
        </g>
        <g
           style="fill:#000000;fill-opacity:1"
           id="g5331">
          <use
             xlink:href="#symbol2691"
             x="108.897"
             y="81.962997"
             id="use9938"
             width="100%"
             height="100%" />
          <use
             xlink:href="#symbol4142"
             x="113.8783"
             y="81.962997"
             id="use7072"
             width="100%"
             height="100%" />
        </g>
        <g
           style="fill:#000000;fill-opacity:1"
           id="g1238">
          <use
             xlink:href="#symbol3390"
             x="120.274"
             y="83.457001"
             id="use8404"
             width="100%"
             height="100%" />
        </g>
        <g
           style="fill:#000000;fill-opacity:1"
           id="g1513">
          <use
             xlink:href="#symbol1834"
             x="127.131"
             y="81.962997"
             id="use7050"
             width="100%"
             height="100%" />
        </g>
        <g
           style="fill:#000000;fill-opacity:1"
           id="g9221">
          <use
             xlink:href="#symbol946"
             x="131.006"
             y="78.348"
             id="use6198"
             width="100%"
             height="100%" />
        </g>
      </g>
    </g>
  </g>
</svg>
