<?xml version="1.0" encoding="UTF-8" standalone="no"?>
<!-- Created with Inkscape (http://www.inkscape.org/) -->

<svg
   xmlns:dc="http://purl.org/dc/elements/1.1/"
   xmlns:cc="http://creativecommons.org/ns#"
   xmlns:rdf="http://www.w3.org/1999/02/22-rdf-syntax-ns#"
   xmlns:svg="http://www.w3.org/2000/svg"
   xmlns="http://www.w3.org/2000/svg"
   xmlns:sodipodi="http://sodipodi.sourceforge.net/DTD/sodipodi-0.dtd"
   xmlns:inkscape="http://www.inkscape.org/namespaces/inkscape"
   width="297mm"
   height="210mm"
   viewBox="0 0 297 210"
   version="1.1"
   id="svg8"
   inkscape:version="0.92.3 (2405546, 2018-03-11)"
   sodipodi:docname="fig1.svg">
  <sodipodi:namedview
     id="base"
     pagecolor="#ffffff"
     bordercolor="#666666"
     borderopacity="1.0"
     inkscape:pageopacity="0.0"
     inkscape:pageshadow="2"
     inkscape:zoom="1.3289991"
     inkscape:cx="541.76872"
     inkscape:cy="455.32825"
     inkscape:document-units="mm"
     inkscape:current-layer="layer1"
     showgrid="false"
     inkscape:window-width="1853"
     inkscape:window-height="1025"
     inkscape:window-x="67"
     inkscape:window-y="27"
     inkscape:window-maximized="1"
     showguides="false" />
  <defs
     id="defs2" />
  <metadata
     id="metadata5">
    <rdf:RDF>
      <cc:Work
         rdf:about="">
        <dc:format>image/svg+xml</dc:format>
        <dc:type
           rdf:resource="http://purl.org/dc/dcmitype/StillImage" />
        <dc:title></dc:title>
      </cc:Work>
    </rdf:RDF>
  </metadata>
  <g
     transform="translate(0,-87)"
     id="layer1"
     inkscape:groupmode="layer"
     inkscape:label="Layer 1">
    <path
       sodipodi:nodetypes="ccc"
       inkscape:connector-curvature="0"
       id="path3713-3"
       d="m 58.835534,114.98459 0.19893,117.98222 160.802216,0.61175"
       style="fill:none;stroke:#000000;stroke-width:1.06500006;stroke-linecap:butt;stroke-linejoin:miter;stroke-miterlimit:4;stroke-dasharray:none;stroke-opacity:1" />
    <g
       transform="matrix(0.74831119,0,0,0.85597851,159.65865,150.64785)"
       id="g7674">
      <g
         style="font-style:normal;font-variant:normal;font-weight:normal;font-stretch:normal;letter-spacing:normal;word-spacing:normal;text-anchor:start;fill:none;fill-opacity:1;fill-rule:evenodd;stroke:#000000;stroke-linecap:butt;stroke-linejoin:miter;stroke-miterlimit:10.43299961;stroke-dasharray:none;stroke-dashoffset:0;stroke-opacity:1"
         word-spacing="normal"
         letter-spacing="normal"
         font-size-adjust="none"
         font-stretch="normal"
         font-weight="normal"
         font-variant="normal"
         font-style="normal"
         stroke-miterlimit="10.433"
         xml:space="preserve"
         transform="matrix(0.3,0,0,-0.3,-52.5,222.75)"
         id="content"><path
           style="fill:#000000;stroke-width:0"
           inkscape:connector-curvature="0"
           id="path7669"
           d="m 479.74,425.18 0.01,0.04 0.01,0.03 0.01,0.06 0.02,0.05 0.01,0.06 0.01,0.05 0.02,0.04 0.01,0.05 0.01,0.04 0.01,0.04 v 0.04 l 0.01,0.04 0.01,0.04 0.01,0.03 v 0.03 l 0.01,0.03 v 0.03 l 0.01,0.03 v 0.03 l 0.01,0.05 v 0.06 0.05 0.05 l 0.01,0.05 v 0.03 0.03 0.03 0.03 c 0,0.91 -0.69,1.35 -1.44,1.35 -0.5,0 -1.3,-0.3 -1.75,-1.05 -0.1,-0.25 -0.5,-1.78 -0.69,-2.69 -0.36,-1.29 -0.7,-2.64 -1,-3.98 l -2.25,-8.97 c -0.19,-0.75 -2.33,-4.23 -5.62,-4.23 -2.54,0 -3.1,2.18 -3.1,4.03 0,2.29 0.86,5.39 2.55,9.76 0.8,2.05 1,2.6 1,3.6 0,2.23 -1.59,4.07 -4.09,4.07 -4.74,0 -6.58,-7.21 -6.58,-7.67 0,-0.5 0.5,-0.5 0.61,-0.5 0.5,0 0.54,0.11 0.79,0.91 1.35,4.69 3.33,6.17 5.03,6.17 0.4,0 1.25,0 1.25,-1.59 0,-1.25 -0.5,-2.53 -0.85,-3.49 -1.99,-5.28 -2.9,-8.12 -2.9,-10.47 0,-4.42 3.15,-5.92 6.08,-5.92 1.96,0 3.64,0.85 5.03,2.24 -0.64,-2.58 -1.23,-5.03 -3.23,-7.68 -1.3,-1.68 -3.19,-3.14 -5.48,-3.14 -0.69,0 -2.94,0.16 -3.79,2.1 0.8,0 1.46,0 2.14,0.61 0.5,0.43 1,1.09 1,2.03 0,1.55 -1.34,1.75 -1.84,1.75 -1.14,0 -2.8,-0.8 -2.8,-3.24 0,-2.5 2.21,-4.34 5.29,-4.34 5.14,0 10.26,4.55 11.67,10.17 z" /><path
           style="fill:#000000;stroke-width:0"
           inkscape:connector-curvature="0"
           id="path7671"
           d="m 491.67,420.92 v 0.04 0.04 0.05 0.04 0.03 0.04 0.04 0.03 0.04 l -0.01,0.03 v 0.03 0.03 0.03 l -0.01,0.03 v 0.03 0.02 l -0.01,0.03 v 0.02 l -0.01,0.03 v 0.02 l -0.02,0.04 -0.01,0.04 -0.02,0.03 -0.02,0.03 -0.02,0.03 -0.02,0.03 -0.03,0.02 -0.03,0.02 -0.03,0.02 -0.04,0.01 -0.04,0.01 -0.05,0.02 h -0.02 -0.02 l -0.03,0.01 h -0.03 l -0.02,0.01 h -0.03 -0.03 -0.03 -0.03 l -0.04,0.01 h -0.03 -0.04 -0.03 -0.04 -0.04 -0.04 -0.04 -0.05 -0.04 -0.05 c -2.23,-2.2 -5.39,-2.23 -6.82,-2.23 v -1.25 c 0.84,0 3.14,0 5.04,0.97 v -17.77 c 0,-1.16 0,-1.61 -3.48,-1.61 h -1.31 v -1.25 c 0.62,0.03 4.9,0.14 6.2,0.14 1.08,0 5.47,-0.11 6.23,-0.14 v 1.25 h -1.32 c -3.49,0 -3.49,0.45 -3.49,1.61 z" /></g>    </g>
    <g
       transform="matrix(0.77150811,0,0,0.87655301,-11.734971,22.946659)"
       id="g7708">
      <g
         style="font-style:normal;font-variant:normal;font-weight:normal;font-stretch:normal;letter-spacing:normal;word-spacing:normal;text-anchor:start;fill:none;fill-opacity:1;fill-rule:evenodd;stroke:#000000;stroke-linecap:butt;stroke-linejoin:miter;stroke-miterlimit:10.43299961;stroke-dasharray:none;stroke-dashoffset:0;stroke-opacity:1"
         id="g7706"
         transform="matrix(0.3,0,0,-0.3,-52.5,222.75)"
         xml:space="preserve"
         stroke-miterlimit="10.433"
         font-style="normal"
         font-variant="normal"
         font-weight="normal"
         font-stretch="normal"
         font-size-adjust="none"
         letter-spacing="normal"
         word-spacing="normal"><path
           style="fill:#000000;stroke-width:0"
           inkscape:connector-curvature="0"
           d="m 479.74,425.18 0.01,0.04 0.01,0.03 0.01,0.06 0.02,0.05 0.01,0.06 0.01,0.05 0.02,0.04 0.01,0.05 0.01,0.04 0.01,0.04 v 0.04 l 0.01,0.04 0.01,0.04 0.01,0.03 v 0.03 l 0.01,0.03 v 0.03 l 0.01,0.03 v 0.03 l 0.01,0.05 v 0.06 0.05 0.05 l 0.01,0.05 v 0.03 0.03 0.03 0.03 c 0,0.91 -0.69,1.35 -1.44,1.35 -0.5,0 -1.3,-0.3 -1.75,-1.05 -0.1,-0.25 -0.5,-1.78 -0.69,-2.69 -0.36,-1.29 -0.7,-2.64 -1,-3.98 l -2.25,-8.97 c -0.19,-0.75 -2.33,-4.23 -5.62,-4.23 -2.54,0 -3.1,2.18 -3.1,4.03 0,2.29 0.86,5.39 2.55,9.76 0.8,2.05 1,2.6 1,3.6 0,2.23 -1.59,4.07 -4.09,4.07 -4.74,0 -6.58,-7.21 -6.58,-7.67 0,-0.5 0.5,-0.5 0.61,-0.5 0.5,0 0.54,0.11 0.79,0.91 1.35,4.69 3.33,6.17 5.03,6.17 0.4,0 1.25,0 1.25,-1.59 0,-1.25 -0.5,-2.53 -0.85,-3.49 -1.99,-5.28 -2.9,-8.12 -2.9,-10.47 0,-4.42 3.15,-5.92 6.08,-5.92 1.96,0 3.64,0.85 5.03,2.24 -0.64,-2.58 -1.23,-5.03 -3.23,-7.68 -1.3,-1.68 -3.19,-3.14 -5.48,-3.14 -0.69,0 -2.94,0.16 -3.79,2.1 0.8,0 1.46,0 2.14,0.61 0.5,0.43 1,1.09 1,2.03 0,1.55 -1.34,1.75 -1.84,1.75 -1.14,0 -2.8,-0.8 -2.8,-3.24 0,-2.5 2.21,-4.34 5.29,-4.34 5.14,0 10.26,4.55 11.67,10.17 z"
           id="path7702" /><path
           style="fill:#000000;stroke-width:0"
           inkscape:connector-curvature="0"
           d="m 497.59,405.11 h -1.18 c -0.1,-0.77 -0.46,-2.83 -0.91,-3.18 -0.27,-0.2 -2.95,-0.2 -3.44,-0.2 h -6.42 c 3.66,3.23 4.88,4.2 6.97,5.84 2.58,2.07 4.98,4.22 4.98,7.54 0,4.21 -3.68,6.79 -8.15,6.79 -4.32,0 -7.25,-3.03 -7.25,-6.23 0,-1.78 1.5,-1.96 1.86,-1.96 0.83,0 1.84,0.6 1.84,1.85 0,0.62 -0.25,1.84 -2.06,1.84 1.08,2.47 3.45,3.24 5.09,3.24 3.49,0 5.3,-2.71 5.3,-5.53 0,-3.04 -2.16,-5.44 -3.28,-6.69 l -8.39,-8.3 c -0.36,-0.31 -0.36,-0.39 -0.36,-1.36 h 14.36 z"
           id="path7704" /></g>    </g>
    <flowRoot
       style="font-style:normal;font-weight:normal;font-size:40px;line-height:1.25;font-family:sans-serif;letter-spacing:0px;word-spacing:0px;fill:#000000;fill-opacity:1;stroke:none"
       id="flowRoot7901"
       xml:space="preserve"
       transform="translate(-74.612541)"><flowRegion
         id="flowRegion7903"><rect
           y="280.53265"
           x="838.22479"
           height="91.798409"
           width="91.045959"
           id="rect7905" /></flowRegion><flowPara
         id="flowPara7907" /></flowRoot>    <path
       style="fill:none;stroke:#000000;stroke-width:0.665;stroke-linecap:butt;stroke-linejoin:miter;stroke-opacity:1;stroke-miterlimit:4;stroke-dasharray:none"
       d="M 58.729975,178.54463 193.11212,233.492"
       id="path26431"
       inkscape:connector-curvature="0" />
    <path
       style="fill:none;stroke:#000000;stroke-width:0.565;stroke-linecap:butt;stroke-linejoin:miter;stroke-opacity:1;stroke-miterlimit:4;stroke-dasharray:none"
       d="M 111.68649,233.09383 58.530889,127.37987"
       id="path26433"
       inkscape:connector-curvature="0" />
    <g
       id="g26463"
       transform="matrix(0.6545529,0,0,0.68573211,50.634377,175.74819)">
      <g
         id="g26461"
         transform="matrix(0.3,0,0,-0.3,-52.5,222.75)"
         xml:space="preserve"
         stroke-miterlimit="10.433"
         font-style="normal"
         font-variant="normal"
         font-weight="normal"
         font-stretch="normal"
         font-size-adjust="none"
         letter-spacing="normal"
         word-spacing="normal"
         style="font-style:normal;font-variant:normal;font-weight:normal;font-stretch:normal;letter-spacing:normal;word-spacing:normal;text-anchor:start;fill:none;fill-opacity:1;fill-rule:evenodd;stroke:#000000;stroke-linecap:butt;stroke-linejoin:miter;stroke-miterlimit:10.43299961;stroke-dasharray:none;stroke-dashoffset:0;stroke-opacity:1"><path
           d="m 482.72,446.7 0.03,0.12 0.03,0.11 0.02,0.1 0.03,0.1 0.03,0.1 0.03,0.09 0.04,0.08 0.04,0.08 0.04,0.08 0.04,0.07 0.05,0.07 0.06,0.06 0.06,0.06 0.07,0.06 0.07,0.05 0.09,0.05 0.09,0.04 0.1,0.04 0.11,0.04 0.12,0.03 0.07,0.02 0.06,0.01 0.07,0.02 0.08,0.01 0.07,0.01 0.08,0.01 0.08,0.02 0.09,0.01 h 0.09 l 0.09,0.01 0.1,0.01 0.1,0.01 0.1,0.01 h 0.11 l 0.11,0.01 h 0.11 l 0.12,0.01 h 0.12 0.13 0.13 l 0.13,0.01 h 0.14 0.15 0.14 c 1.08,0 1.43,0 1.43,0.76 0,0.04 -0.04,0.49 -0.6,0.49 -0.79,0 -1.73,-0.06 -2.58,-0.11 -0.87,-0.03 -1.9,-0.03 -2.78,-0.03 -0.73,0 -1.67,0.03 -2.4,0.03 -0.74,0 -1.57,0.11 -2.27,0.11 -0.2,0 -0.73,0 -0.73,-0.77 0,-0.48 0.42,-0.48 1.12,-0.48 0.03,0 0.69,0 1.31,-0.08 0.74,-0.06 0.82,-0.14 0.82,-0.48 0,-0.07 0,-0.24 -0.14,-0.77 l -4.64,-18.5 c -0.32,-1.19 -0.4,-1.47 -3.07,-1.47 -0.59,0 -1.04,0 -1.04,-0.73 0,-0.52 0.42,-0.52 1.04,-0.52 h 17.52 c 0.87,0 0.9,0.03 1.19,0.7 0.36,0.94 2.96,7.69 2.96,7.97 0,0.11 -0.07,0.5 -0.59,0.5 -0.42,0 -0.48,-0.18 -0.7,-0.73 -1.31,-3.31 -2.86,-7.19 -9.24,-7.19 h -3.93 c -1.08,0 -1.11,0.05 -1.11,0.36 0,0.03 0,0.2 0.14,0.72 z"
           id="path26453"
           inkscape:connector-curvature="0"
           style="fill:#000000;stroke-width:0" /><polyline
           points="462,418 503.16,418 503.16,420.04 462,420.04 "
           id="polyline26455"
           style="fill:#000000;fill-rule:nonzero;stroke-width:0" /><path
           d="m 476.22,402.35 -0.07,0.11 -0.07,0.1 -0.08,0.11 -0.07,0.1 -0.08,0.1 -0.09,0.09 -0.08,0.1 -0.09,0.09 -0.1,0.09 -0.09,0.09 -0.1,0.09 -0.1,0.08 -0.1,0.08 -0.1,0.08 -0.11,0.07 -0.11,0.07 -0.12,0.07 -0.11,0.06 -0.12,0.06 -0.12,0.06 -0.13,0.05 -0.12,0.05 -0.13,0.05 -0.14,0.04 -0.13,0.03 -0.14,0.04 -0.14,0.02 -0.15,0.03 -0.14,0.01 -0.15,0.02 -0.16,0.01 h -0.15 v -0.97 c 2.44,0 3.11,-2.64 3.11,-3.03 0,-0.14 -0.08,-0.39 -0.11,-0.49 l -1.64,-6.51 c -0.24,-0.99 -1,-1.67 -1.77,-2.35 -0.31,-0.26 -1.72,-1.39 -3.22,-1.39 -1.28,0 -2.53,0.91 -2.53,3.38 0,1.86 1,5.69 1.82,7.08 1.59,2.79 3.37,3.31 4.34,3.31 v 0.97 c -4.45,0 -8.99,-4.91 -8.99,-9.92 0,-3.38 2.27,-5.78 5.27,-5.78 1.88,0 3.55,1.07 4.94,2.43 0.67,-2.09 2.69,-2.43 3.59,-2.43 1.25,0 2.13,0.76 2.75,1.84 0.77,1.36 1.22,3.34 1.22,3.48 0,0.46 -0.45,0.46 -0.55,0.46 -0.5,0 -0.53,-0.14 -0.76,-1.08 -0.42,-1.67 -1.1,-3.74 -2.55,-3.74 -0.91,0 -1.16,0.77 -1.16,1.71 0,0.59 0.29,1.86 0.54,2.76 0.23,0.94 0.59,2.36 0.76,3.13 l 0.69,2.65 c 0.22,0.91 0.62,2.55 0.62,2.72 0,0.77 -0.62,1.11 -1.17,1.11 -0.59,0 -1.4,-0.42 -1.61,-1.39 z"
           id="path26457"
           inkscape:connector-curvature="0"
           style="fill:#000000;stroke-width:0" /><path
           d="m 493.04,399.84 v 0.04 0.03 0.03 0.04 0.03 0.03 0.02 0.03 0.03 l -0.01,0.02 v 0.03 0.02 0.02 l -0.01,0.03 v 0.02 0.02 l -0.01,0.02 v 0.02 l -0.01,0.03 -0.01,0.03 -0.02,0.03 -0.01,0.03 -0.02,0.02 -0.02,0.02 -0.02,0.02 -0.02,0.02 -0.03,0.01 -0.03,0.01 -0.03,0.01 -0.04,0.01 -0.04,0.01 -0.04,0.01 h -0.02 -0.02 -0.03 l -0.02,0.01 h -0.03 -0.02 -0.03 -0.03 -0.03 -0.03 -0.03 -0.03 -0.03 -0.04 -0.03 -0.04 -0.03 -0.04 C 490.37,399 487.61,399 487.11,399 h -0.43 v -1.09 h 0.43 c 0.57,0 2.18,0.06 3.64,0.68 v -12.45 c 0,-0.76 0,-1.05 -2.64,-1.05 h -1.25 V 384 c 1.37,0.09 3.59,0.09 5.03,0.09 1.45,0 3.67,0 5.03,-0.09 v 1.09 h -1.24 c -2.64,0 -2.64,0.29 -2.64,1.05 z"
           id="path26459"
           inkscape:connector-curvature="0"
           style="fill:#000000;stroke-width:0" /></g>    </g>
    <g
       id="g26525"
       transform="matrix(0.6545529,0,0,0.68573211,-9.6127018,62.101851)">
      <g
         word-spacing="normal"
         letter-spacing="normal"
         font-size-adjust="none"
         font-stretch="normal"
         font-weight="normal"
         font-variant="normal"
         font-style="normal"
         stroke-miterlimit="10.433"
         xml:space="preserve"
         transform="matrix(0.3,0,0,-0.3,-52.5,222.75)"
         id="g26523"
         style="font-style:normal;font-variant:normal;font-weight:normal;font-stretch:normal;letter-spacing:normal;word-spacing:normal;text-anchor:start;fill:none;fill-opacity:1;fill-rule:evenodd;stroke:#000000;stroke-linecap:butt;stroke-linejoin:miter;stroke-miterlimit:10.43299961;stroke-dasharray:none;stroke-dashoffset:0;stroke-opacity:1"><path
           id="path26515"
           d="m 482.72,446.7 0.03,0.12 0.03,0.11 0.02,0.1 0.03,0.1 0.03,0.1 0.03,0.09 0.04,0.08 0.04,0.08 0.04,0.08 0.04,0.07 0.05,0.07 0.06,0.06 0.06,0.06 0.07,0.06 0.07,0.05 0.09,0.05 0.09,0.04 0.1,0.04 0.11,0.04 0.12,0.03 0.07,0.02 0.06,0.01 0.07,0.02 0.08,0.01 0.07,0.01 0.08,0.01 0.08,0.02 0.09,0.01 h 0.09 l 0.09,0.01 0.1,0.01 0.1,0.01 0.1,0.01 h 0.11 l 0.11,0.01 h 0.11 l 0.12,0.01 h 0.12 0.13 0.13 l 0.13,0.01 h 0.14 0.15 0.14 c 1.08,0 1.43,0 1.43,0.76 0,0.04 -0.04,0.49 -0.6,0.49 -0.79,0 -1.73,-0.06 -2.58,-0.11 -0.87,-0.03 -1.9,-0.03 -2.78,-0.03 -0.73,0 -1.67,0.03 -2.4,0.03 -0.74,0 -1.57,0.11 -2.27,0.11 -0.2,0 -0.73,0 -0.73,-0.77 0,-0.48 0.42,-0.48 1.12,-0.48 0.03,0 0.69,0 1.31,-0.08 0.74,-0.06 0.82,-0.14 0.82,-0.48 0,-0.07 0,-0.24 -0.14,-0.77 l -4.64,-18.5 c -0.32,-1.19 -0.4,-1.47 -3.07,-1.47 -0.59,0 -1.04,0 -1.04,-0.73 0,-0.52 0.42,-0.52 1.04,-0.52 h 17.52 c 0.87,0 0.9,0.03 1.19,0.7 0.36,0.94 2.96,7.69 2.96,7.97 0,0.11 -0.07,0.5 -0.59,0.5 -0.42,0 -0.48,-0.18 -0.7,-0.73 -1.31,-3.31 -2.86,-7.19 -9.24,-7.19 h -3.93 c -1.08,0 -1.11,0.05 -1.11,0.36 0,0.03 0,0.2 0.14,0.72 z"
           inkscape:connector-curvature="0"
           style="fill:#000000;stroke-width:0" /><polyline
           id="polyline26517"
           points="462,418 503.16,418 503.16,420.04 462,420.04 "
           style="fill:#000000;fill-rule:nonzero;stroke-width:0" /><path
           id="path26519"
           d="m 476.22,402.35 -0.07,0.11 -0.07,0.1 -0.08,0.11 -0.07,0.1 -0.08,0.1 -0.09,0.09 -0.08,0.1 -0.09,0.09 -0.1,0.09 -0.09,0.09 -0.1,0.09 -0.1,0.08 -0.1,0.08 -0.1,0.08 -0.11,0.07 -0.11,0.07 -0.12,0.07 -0.11,0.06 -0.12,0.06 -0.12,0.06 -0.13,0.05 -0.12,0.05 -0.13,0.05 -0.14,0.04 -0.13,0.03 -0.14,0.04 -0.14,0.02 -0.15,0.03 -0.14,0.01 -0.15,0.02 -0.16,0.01 h -0.15 v -0.97 c 2.44,0 3.11,-2.64 3.11,-3.03 0,-0.14 -0.08,-0.39 -0.11,-0.49 l -1.64,-6.51 c -0.24,-0.99 -1,-1.67 -1.77,-2.35 -0.31,-0.26 -1.72,-1.39 -3.22,-1.39 -1.28,0 -2.53,0.91 -2.53,3.38 0,1.86 1,5.69 1.82,7.08 1.59,2.79 3.37,3.31 4.34,3.31 v 0.97 c -4.45,0 -8.99,-4.91 -8.99,-9.92 0,-3.38 2.27,-5.78 5.27,-5.78 1.88,0 3.55,1.07 4.94,2.43 0.67,-2.09 2.69,-2.43 3.59,-2.43 1.25,0 2.13,0.76 2.75,1.84 0.77,1.36 1.22,3.34 1.22,3.48 0,0.46 -0.45,0.46 -0.55,0.46 -0.5,0 -0.53,-0.14 -0.76,-1.08 -0.42,-1.67 -1.1,-3.74 -2.55,-3.74 -0.91,0 -1.16,0.77 -1.16,1.71 0,0.59 0.29,1.86 0.54,2.76 0.23,0.94 0.59,2.36 0.76,3.13 l 0.69,2.65 c 0.22,0.91 0.62,2.55 0.62,2.72 0,0.77 -0.62,1.11 -1.17,1.11 -0.59,0 -1.4,-0.42 -1.61,-1.39 z"
           inkscape:connector-curvature="0"
           style="fill:#000000;stroke-width:0" /><path
           id="path26521"
           d="m 497.79,388.81 h -1.04 c -0.08,-0.48 -0.33,-2.01 -0.72,-2.26 -0.21,-0.16 -2.3,-0.16 -2.67,-0.16 h -4.88 c 1.64,1.22 3.48,2.61 4.98,3.61 2.24,1.55 4.33,3 4.33,5.64 0,3.19 -3.01,4.95 -6.58,4.95 -3.35,0 -5.82,-1.95 -5.82,-4.39 0,-1.29 1.09,-1.51 1.45,-1.51 0.67,0 1.47,0.45 1.47,1.47 0,0.89 -0.66,1.39 -1.42,1.46 0.68,1.13 2.14,1.88 3.81,1.88 2.41,0 4.42,-1.45 4.42,-3.89 0,-2.09 -1.44,-3.69 -3.36,-5.31 l -6.08,-5.16 c -0.25,-0.22 -0.26,-0.22 -0.29,-0.39 V 384 h 11.57 z"
           inkscape:connector-curvature="0"
           style="fill:#000000;stroke-width:0" /></g>    </g>
    <g
       id="g26603"
       transform="matrix(0.6545529,0,0,0.68573211,-9.9310973,111.51322)">
      <g
         id="g26601"
         transform="matrix(0.3,0,0,-0.3,-52.5,222.75)"
         xml:space="preserve"
         stroke-miterlimit="10.433"
         font-style="normal"
         font-variant="normal"
         font-weight="normal"
         font-stretch="normal"
         font-size-adjust="none"
         letter-spacing="normal"
         word-spacing="normal"
         style="font-style:normal;font-variant:normal;font-weight:normal;font-stretch:normal;letter-spacing:normal;word-spacing:normal;text-anchor:start;fill:none;fill-opacity:1;fill-rule:evenodd;stroke:#000000;stroke-linecap:butt;stroke-linejoin:miter;stroke-miterlimit:10.43299961;stroke-dasharray:none;stroke-dashoffset:0;stroke-opacity:1"><path
           d="m 475.88,446.7 0.03,0.12 0.03,0.11 0.02,0.1 0.03,0.1 0.03,0.1 0.03,0.09 0.04,0.08 0.04,0.08 0.04,0.08 0.04,0.07 0.05,0.07 0.06,0.06 0.06,0.06 0.07,0.06 0.07,0.05 0.09,0.05 0.09,0.04 0.1,0.04 0.11,0.04 0.12,0.03 0.07,0.02 0.06,0.01 0.07,0.02 0.08,0.01 0.07,0.01 0.08,0.01 0.08,0.02 0.09,0.01 h 0.09 l 0.09,0.01 0.1,0.01 0.1,0.01 0.1,0.01 h 0.11 l 0.11,0.01 h 0.11 l 0.12,0.01 h 0.12 0.13 0.13 l 0.13,0.01 h 0.14 0.15 0.14 c 1.08,0 1.43,0 1.43,0.76 0,0.04 -0.04,0.49 -0.6,0.49 -0.79,0 -1.73,-0.06 -2.58,-0.11 -0.87,-0.03 -1.9,-0.03 -2.78,-0.03 -0.73,0 -1.67,0.03 -2.4,0.03 -0.74,0 -1.57,0.11 -2.27,0.11 -0.2,0 -0.73,0 -0.73,-0.77 0,-0.48 0.42,-0.48 1.12,-0.48 0.03,0 0.69,0 1.31,-0.08 0.74,-0.06 0.82,-0.14 0.82,-0.48 0,-0.07 0,-0.24 -0.14,-0.77 l -4.64,-18.5 c -0.32,-1.19 -0.4,-1.47 -3.07,-1.47 -0.59,0 -1.04,0 -1.04,-0.73 0,-0.52 0.42,-0.52 1.04,-0.52 h 17.52 c 0.87,0 0.9,0.03 1.19,0.7 0.36,0.94 2.96,7.69 2.96,7.97 0,0.11 -0.07,0.5 -0.59,0.5 -0.42,0 -0.48,-0.18 -0.7,-0.73 -1.31,-3.31 -2.86,-7.19 -9.24,-7.19 h -3.93 c -1.08,0 -1.11,0.05 -1.11,0.36 0,0.03 0,0.2 0.14,0.72 z"
           id="path26589"
           inkscape:connector-curvature="0"
           style="fill:#000000;stroke-width:0" /><path
           d="m 498.47,447.75 0.01,0.03 v 0.03 0.03 l 0.01,0.04 v 0.04 0.04 l 0.01,0.05 0.01,0.05 0.01,0.1 0.01,0.12 0.02,0.13 0.01,0.13 0.02,0.15 0.02,0.15 0.01,0.15 0.02,0.16 0.02,0.16 0.02,0.17 0.04,0.33 0.04,0.33 0.02,0.16 0.01,0.16 0.02,0.15 0.02,0.15 0.01,0.14 0.02,0.13 0.01,0.12 0.01,0.11 0.01,0.05 v 0.05 l 0.01,0.05 v 0.04 l 0.01,0.04 v 0.03 0.04 l 0.01,0.03 v 0.02 0.02 0.02 0.01 c 0,0.45 -0.36,0.8 -0.86,0.8 -0.53,0 -0.87,-0.39 -0.87,-0.77 0,-0.25 0.37,-3.4 0.45,-3.94 l -3.88,2.32 c -0.23,0.15 -0.34,0.23 -0.56,0.23 -0.4,0 -0.84,-0.37 -0.84,-0.92 0,-0.41 0.25,-0.66 0.51,-0.75 1.38,-0.55 2.8,-1.05 4.19,-1.52 -1.39,-0.53 -3.69,-1.36 -4.11,-1.53 -0.17,-0.06 -0.59,-0.22 -0.59,-0.76 0,-0.55 0.44,-0.93 0.84,-0.93 0.27,0 1.05,0.47 4.44,2.55 -0.08,-0.53 -0.45,-3.69 -0.45,-3.94 0,-0.37 0.34,-0.78 0.87,-0.78 0.5,0 0.86,0.36 0.86,0.8 0,0.23 -0.39,3.42 -0.44,3.92 l 3.94,-2.37 c 0.17,-0.1 0.27,-0.18 0.5,-0.18 0.39,0 0.84,0.38 0.84,0.93 0,0.39 -0.25,0.64 -0.53,0.75 -1.36,0.54 -2.78,1.04 -4.18,1.51 1.4,0.52 3.68,1.35 4.12,1.52 0.17,0.08 0.59,0.23 0.59,0.78 0,0.55 -0.45,0.92 -0.84,0.92 -0.23,0 -0.33,-0.08 -0.58,-0.23 z"
           id="path26591"
           inkscape:connector-curvature="0"
           style="fill:#000000;stroke-width:0" /><polyline
           points="462,418 510.24,418 510.24,420.04 462,420.04 "
           id="polyline26593"
           style="fill:#000000;fill-rule:nonzero;stroke-width:0" /><path
           d="m 479.1,402.35 -0.07,0.11 -0.07,0.1 -0.08,0.11 -0.07,0.1 -0.09,0.1 -0.08,0.09 -0.09,0.1 -0.08,0.09 -0.1,0.09 -0.09,0.09 -0.1,0.09 -0.1,0.08 -0.1,0.08 -0.11,0.08 -0.1,0.07 -0.11,0.07 -0.12,0.07 -0.11,0.06 -0.12,0.06 -0.12,0.06 -0.13,0.05 -0.13,0.05 -0.13,0.05 -0.13,0.04 -0.13,0.03 -0.14,0.04 -0.14,0.02 -0.15,0.03 -0.14,0.01 -0.15,0.02 -0.16,0.01 h -0.15 v -0.97 c 2.44,0 3.11,-2.64 3.11,-3.03 0,-0.14 -0.08,-0.39 -0.11,-0.49 l -1.64,-6.51 c -0.24,-0.99 -1,-1.67 -1.77,-2.35 -0.31,-0.26 -1.72,-1.39 -3.22,-1.39 -1.28,0 -2.53,0.91 -2.53,3.38 0,1.86 1,5.69 1.81,7.08 1.6,2.79 3.38,3.31 4.35,3.31 v 0.97 c -4.46,0 -8.99,-4.91 -8.99,-9.92 0,-3.38 2.27,-5.78 5.27,-5.78 1.87,0 3.55,1.07 4.94,2.43 0.67,-2.09 2.68,-2.43 3.59,-2.43 1.25,0 2.13,0.76 2.75,1.84 0.77,1.36 1.22,3.34 1.22,3.48 0,0.46 -0.45,0.46 -0.55,0.46 -0.5,0 -0.53,-0.14 -0.76,-1.08 -0.43,-1.67 -1.1,-3.74 -2.55,-3.74 -0.91,0 -1.16,0.77 -1.16,1.71 0,0.59 0.28,1.86 0.53,2.76 0.24,0.94 0.6,2.36 0.77,3.13 l 0.69,2.65 c 0.22,0.91 0.62,2.55 0.62,2.72 0,0.77 -0.62,1.11 -1.17,1.11 -0.59,0 -1.41,-0.42 -1.61,-1.39 z"
           id="path26595"
           inkscape:connector-curvature="0"
           style="fill:#000000;stroke-width:0" /><path
           d="m 495.59,407.91 0.01,0.03 v 0.03 0.03 l 0.01,0.04 v 0.04 l 0.01,0.04 v 0.05 l 0.01,0.05 0.01,0.1 0.01,0.12 0.02,0.13 0.01,0.13 0.02,0.15 0.02,0.15 0.01,0.15 0.02,0.16 0.02,0.16 0.02,0.17 0.04,0.33 0.04,0.33 0.02,0.16 0.02,0.16 0.01,0.15 0.02,0.15 0.01,0.14 0.02,0.13 0.01,0.12 0.01,0.11 0.01,0.05 0.01,0.05 v 0.05 0.04 l 0.01,0.04 v 0.04 0.03 l 0.01,0.03 v 0.02 0.02 0.02 0.01 c 0,0.45 -0.36,0.8 -0.86,0.8 -0.53,0 -0.87,-0.39 -0.87,-0.77 0,-0.25 0.37,-3.4 0.45,-3.94 l -3.87,2.32 c -0.24,0.15 -0.35,0.23 -0.57,0.23 -0.4,0 -0.84,-0.37 -0.84,-0.92 0,-0.41 0.25,-0.66 0.51,-0.75 1.38,-0.55 2.8,-1.05 4.19,-1.52 -1.39,-0.53 -3.69,-1.36 -4.11,-1.53 -0.17,-0.06 -0.59,-0.22 -0.59,-0.76 0,-0.55 0.44,-0.93 0.84,-0.93 0.27,0 1.05,0.47 4.44,2.55 -0.08,-0.53 -0.45,-3.69 -0.45,-3.94 0,-0.37 0.34,-0.78 0.87,-0.78 0.5,0 0.86,0.36 0.86,0.8 0,0.23 -0.39,3.42 -0.44,3.92 l 3.94,-2.37 c 0.17,-0.1 0.27,-0.18 0.5,-0.18 0.39,0 0.85,0.38 0.85,0.93 0,0.39 -0.26,0.64 -0.54,0.75 -1.36,0.54 -2.78,1.04 -4.18,1.51 1.4,0.52 3.68,1.35 4.12,1.52 0.17,0.08 0.6,0.23 0.6,0.78 0,0.55 -0.46,0.92 -0.85,0.92 -0.23,0 -0.33,-0.08 -0.58,-0.23 z"
           id="path26597"
           inkscape:connector-curvature="0"
           style="fill:#000000;stroke-width:0" /><path
           d="m 500.67,383.05 h -1.05 c -0.07,-0.48 -0.32,-2.01 -0.71,-2.26 -0.21,-0.16 -2.3,-0.16 -2.68,-0.16 h -4.87 c 1.64,1.22 3.48,2.61 4.98,3.61 2.24,1.55 4.33,3 4.33,5.64 0,3.19 -3.01,4.95 -6.58,4.95 -3.36,0 -5.82,-1.95 -5.82,-4.39 0,-1.3 1.09,-1.51 1.45,-1.51 0.67,0 1.47,0.45 1.47,1.46 0,0.9 -0.66,1.4 -1.42,1.47 0.68,1.13 2.14,1.88 3.81,1.88 2.4,0 4.42,-1.45 4.42,-3.89 0,-2.1 -1.44,-3.69 -3.36,-5.31 l -6.08,-5.16 c -0.25,-0.22 -0.26,-0.22 -0.29,-0.39 v -0.75 h 11.57 z"
           id="path26599"
           inkscape:connector-curvature="0"
           style="fill:#000000;stroke-width:0" /></g>    </g>
    <g
       id="g26697"
       transform="matrix(0.6545529,0,0,0.68573211,131.69552,176.82427)">
      <g
         word-spacing="normal"
         letter-spacing="normal"
         font-size-adjust="none"
         font-stretch="normal"
         font-weight="normal"
         font-variant="normal"
         font-style="normal"
         stroke-miterlimit="10.433"
         xml:space="preserve"
         transform="matrix(0.3,0,0,-0.3,-52.5,222.75)"
         id="g26695"
         style="font-style:normal;font-variant:normal;font-weight:normal;font-stretch:normal;letter-spacing:normal;word-spacing:normal;text-anchor:start;fill:none;fill-opacity:1;fill-rule:evenodd;stroke:#000000;stroke-linecap:butt;stroke-linejoin:miter;stroke-miterlimit:10.43299961;stroke-dasharray:none;stroke-dashoffset:0;stroke-opacity:1"><path
           id="path26683"
           d="m 475.88,446.7 0.03,0.12 0.03,0.11 0.02,0.1 0.03,0.1 0.03,0.1 0.03,0.09 0.04,0.08 0.04,0.08 0.04,0.08 0.04,0.07 0.05,0.07 0.06,0.06 0.06,0.06 0.07,0.06 0.07,0.05 0.09,0.05 0.09,0.04 0.1,0.04 0.11,0.04 0.12,0.03 0.07,0.02 0.06,0.01 0.07,0.02 0.08,0.01 0.07,0.01 0.08,0.01 0.08,0.02 0.09,0.01 h 0.09 l 0.09,0.01 0.1,0.01 0.1,0.01 0.1,0.01 h 0.11 l 0.11,0.01 h 0.11 l 0.12,0.01 h 0.12 0.13 0.13 l 0.13,0.01 h 0.14 0.15 0.14 c 1.08,0 1.43,0 1.43,0.76 0,0.04 -0.04,0.49 -0.6,0.49 -0.79,0 -1.73,-0.06 -2.58,-0.11 -0.87,-0.03 -1.9,-0.03 -2.78,-0.03 -0.73,0 -1.67,0.03 -2.4,0.03 -0.74,0 -1.57,0.11 -2.27,0.11 -0.2,0 -0.73,0 -0.73,-0.77 0,-0.48 0.42,-0.48 1.12,-0.48 0.03,0 0.69,0 1.31,-0.08 0.74,-0.06 0.82,-0.14 0.82,-0.48 0,-0.07 0,-0.24 -0.14,-0.77 l -4.64,-18.5 c -0.32,-1.19 -0.4,-1.47 -3.07,-1.47 -0.59,0 -1.04,0 -1.04,-0.73 0,-0.52 0.42,-0.52 1.04,-0.52 h 17.52 c 0.87,0 0.9,0.03 1.19,0.7 0.36,0.94 2.96,7.69 2.96,7.97 0,0.11 -0.07,0.5 -0.59,0.5 -0.42,0 -0.48,-0.18 -0.7,-0.73 -1.31,-3.31 -2.86,-7.19 -9.24,-7.19 h -3.93 c -1.08,0 -1.11,0.05 -1.11,0.36 0,0.03 0,0.2 0.14,0.72 z"
           inkscape:connector-curvature="0"
           style="fill:#000000;stroke-width:0" /><path
           id="path26685"
           d="m 498.47,447.75 0.01,0.03 v 0.03 0.03 l 0.01,0.04 v 0.04 0.04 l 0.01,0.05 0.01,0.05 0.01,0.1 0.01,0.12 0.02,0.13 0.01,0.13 0.02,0.15 0.02,0.15 0.01,0.15 0.02,0.16 0.02,0.16 0.02,0.17 0.04,0.33 0.04,0.33 0.02,0.16 0.01,0.16 0.02,0.15 0.02,0.15 0.01,0.14 0.02,0.13 0.01,0.12 0.01,0.11 0.01,0.05 v 0.05 l 0.01,0.05 v 0.04 l 0.01,0.04 v 0.03 0.04 l 0.01,0.03 v 0.02 0.02 0.02 0.01 c 0,0.45 -0.36,0.8 -0.86,0.8 -0.53,0 -0.87,-0.39 -0.87,-0.77 0,-0.25 0.37,-3.4 0.45,-3.94 l -3.88,2.32 c -0.23,0.15 -0.34,0.23 -0.56,0.23 -0.4,0 -0.84,-0.37 -0.84,-0.92 0,-0.41 0.25,-0.66 0.51,-0.75 1.38,-0.55 2.8,-1.05 4.19,-1.52 -1.39,-0.53 -3.69,-1.36 -4.11,-1.53 -0.17,-0.06 -0.59,-0.22 -0.59,-0.76 0,-0.55 0.44,-0.93 0.84,-0.93 0.27,0 1.05,0.47 4.44,2.55 -0.08,-0.53 -0.45,-3.69 -0.45,-3.94 0,-0.37 0.34,-0.78 0.87,-0.78 0.5,0 0.86,0.36 0.86,0.8 0,0.23 -0.39,3.42 -0.44,3.92 l 3.94,-2.37 c 0.17,-0.1 0.27,-0.18 0.5,-0.18 0.39,0 0.84,0.38 0.84,0.93 0,0.39 -0.25,0.64 -0.53,0.75 -1.36,0.54 -2.78,1.04 -4.18,1.51 1.4,0.52 3.68,1.35 4.12,1.52 0.17,0.08 0.59,0.23 0.59,0.78 0,0.55 -0.45,0.92 -0.84,0.92 -0.23,0 -0.33,-0.08 -0.58,-0.23 z"
           inkscape:connector-curvature="0"
           style="fill:#000000;stroke-width:0" /><polyline
           id="polyline26687"
           points="462,418 510.24,418 510.24,420.04 462,420.04 "
           style="fill:#000000;fill-rule:nonzero;stroke-width:0" /><path
           id="path26689"
           d="m 479.1,402.35 -0.07,0.11 -0.07,0.1 -0.08,0.11 -0.07,0.1 -0.09,0.1 -0.08,0.09 -0.09,0.1 -0.08,0.09 -0.1,0.09 -0.09,0.09 -0.1,0.09 -0.1,0.08 -0.1,0.08 -0.11,0.08 -0.1,0.07 -0.11,0.07 -0.12,0.07 -0.11,0.06 -0.12,0.06 -0.12,0.06 -0.13,0.05 -0.13,0.05 -0.13,0.05 -0.13,0.04 -0.13,0.03 -0.14,0.04 -0.14,0.02 -0.15,0.03 -0.14,0.01 -0.15,0.02 -0.16,0.01 h -0.15 v -0.97 c 2.44,0 3.11,-2.64 3.11,-3.03 0,-0.14 -0.08,-0.39 -0.11,-0.49 l -1.64,-6.51 c -0.24,-0.99 -1,-1.67 -1.77,-2.35 -0.31,-0.26 -1.72,-1.39 -3.22,-1.39 -1.28,0 -2.53,0.91 -2.53,3.38 0,1.86 1,5.69 1.81,7.08 1.6,2.79 3.38,3.31 4.35,3.31 v 0.97 c -4.46,0 -8.99,-4.91 -8.99,-9.92 0,-3.38 2.27,-5.78 5.27,-5.78 1.87,0 3.55,1.07 4.94,2.43 0.67,-2.09 2.68,-2.43 3.59,-2.43 1.25,0 2.13,0.76 2.75,1.84 0.77,1.36 1.22,3.34 1.22,3.48 0,0.46 -0.45,0.46 -0.55,0.46 -0.5,0 -0.53,-0.14 -0.76,-1.08 -0.43,-1.67 -1.1,-3.74 -2.55,-3.74 -0.91,0 -1.16,0.77 -1.16,1.71 0,0.59 0.28,1.86 0.53,2.76 0.24,0.94 0.6,2.36 0.77,3.13 l 0.69,2.65 c 0.22,0.91 0.62,2.55 0.62,2.72 0,0.77 -0.62,1.11 -1.17,1.11 -0.59,0 -1.41,-0.42 -1.61,-1.39 z"
           inkscape:connector-curvature="0"
           style="fill:#000000;stroke-width:0" /><path
           id="path26691"
           d="m 495.59,407.91 0.01,0.03 v 0.03 0.03 l 0.01,0.04 v 0.04 l 0.01,0.04 v 0.05 l 0.01,0.05 0.01,0.1 0.01,0.12 0.02,0.13 0.01,0.13 0.02,0.15 0.02,0.15 0.01,0.15 0.02,0.16 0.02,0.16 0.02,0.17 0.04,0.33 0.04,0.33 0.02,0.16 0.02,0.16 0.01,0.15 0.02,0.15 0.01,0.14 0.02,0.13 0.01,0.12 0.01,0.11 0.01,0.05 0.01,0.05 v 0.05 0.04 l 0.01,0.04 v 0.04 0.03 l 0.01,0.03 v 0.02 0.02 0.02 0.01 c 0,0.45 -0.36,0.8 -0.86,0.8 -0.53,0 -0.87,-0.39 -0.87,-0.77 0,-0.25 0.37,-3.4 0.45,-3.94 l -3.87,2.32 c -0.24,0.15 -0.35,0.23 -0.57,0.23 -0.4,0 -0.84,-0.37 -0.84,-0.92 0,-0.41 0.25,-0.66 0.51,-0.75 1.38,-0.55 2.8,-1.05 4.19,-1.52 -1.39,-0.53 -3.69,-1.36 -4.11,-1.53 -0.17,-0.06 -0.59,-0.22 -0.59,-0.76 0,-0.55 0.44,-0.93 0.84,-0.93 0.27,0 1.05,0.47 4.44,2.55 -0.08,-0.53 -0.45,-3.69 -0.45,-3.94 0,-0.37 0.34,-0.78 0.87,-0.78 0.5,0 0.86,0.36 0.86,0.8 0,0.23 -0.39,3.42 -0.44,3.92 l 3.94,-2.37 c 0.17,-0.1 0.27,-0.18 0.5,-0.18 0.39,0 0.85,0.38 0.85,0.93 0,0.39 -0.26,0.64 -0.54,0.75 -1.36,0.54 -2.78,1.04 -4.18,1.51 1.4,0.52 3.68,1.35 4.12,1.52 0.17,0.08 0.6,0.23 0.6,0.78 0,0.55 -0.46,0.92 -0.85,0.92 -0.23,0 -0.33,-0.08 -0.58,-0.23 z"
           inkscape:connector-curvature="0"
           style="fill:#000000;stroke-width:0" /><path
           id="path26693"
           d="m 495.92,394.08 v 0.04 0.03 0.03 0.03 0.03 0.03 0.03 0.03 0.03 l -0.01,0.02 v 0.03 0.02 0.02 l -0.01,0.02 v 0.03 0.02 l -0.01,0.01 v 0.02 l -0.01,0.04 -0.01,0.03 -0.02,0.03 -0.01,0.03 -0.02,0.02 -0.02,0.02 -0.02,0.02 -0.02,0.01 -0.03,0.02 -0.03,0.01 -0.03,0.01 -0.04,0.01 -0.04,0.01 -0.04,0.01 h -0.02 -0.02 -0.03 -0.02 l -0.03,0.01 h -0.02 -0.03 -0.03 -0.03 -0.03 -0.03 -0.03 -0.03 -0.04 -0.03 -0.04 -0.04 -0.03 c -1.77,-1.59 -4.54,-1.59 -5.04,-1.59 h -0.42 v -1.1 h 0.42 c 0.58,0 2.19,0.07 3.64,0.69 v -12.45 c 0,-0.77 0,-1.05 -2.64,-1.05 h -1.25 v -1.09 c 1.38,0.09 3.6,0.09 5.04,0.09 1.45,0 3.67,0 5.03,-0.09 v 1.09 h -1.24 c -2.64,0 -2.64,0.28 -2.64,1.05 z"
           inkscape:connector-curvature="0"
           style="fill:#000000;stroke-width:0" /></g>    </g>
    <flowRoot
       xml:space="preserve"
       id="flowRoot26747"
       style="font-style:normal;font-weight:normal;font-size:40px;line-height:1.25;font-family:sans-serif;letter-spacing:0px;word-spacing:0px;fill:#000000;fill-opacity:1;stroke:none"
       transform="matrix(0.26458333,0,0,0.26458333,-45.789472,105.71396)"><flowRegion
         id="flowRegion26749"><rect
           id="rect26751"
           width="215.19954"
           height="125.65848"
           x="462.75427"
           y="160.14131" /></flowRegion><flowPara
         id="flowPara26753"
         style="font-size:24px">Home PPF</flowPara></flowRoot>    <flowRoot
       xml:space="preserve"
       id="flowRoot26755"
       style="font-style:normal;font-weight:normal;font-size:40px;line-height:1.25;font-family:sans-serif;letter-spacing:0px;word-spacing:0px;fill:#000000;fill-opacity:1;stroke:none"
       transform="matrix(0.26458333,0,0,0.26458333,-30.659038,125.42334)"><flowRegion
         id="flowRegion26757"><rect
           id="rect26759"
           width="340.85803"
           height="85.026398"
           x="607.22388"
           y="257.20685" /></flowRegion><flowPara
         id="flowPara26761"
         style="font-size:24px">Foreign PPF</flowPara></flowRoot>  </g>
</svg>
