<?xml version="1.0" encoding="UTF-8" standalone="no"?>
<!-- Created with Inkscape (http://www.inkscape.org/) -->

<svg
   xmlns:dc="http://purl.org/dc/elements/1.1/"
   xmlns:cc="http://creativecommons.org/ns#"
   xmlns:rdf="http://www.w3.org/1999/02/22-rdf-syntax-ns#"
   xmlns:svg="http://www.w3.org/2000/svg"
   xmlns="http://www.w3.org/2000/svg"
   xmlns:sodipodi="http://sodipodi.sourceforge.net/DTD/sodipodi-0.dtd"
   xmlns:inkscape="http://www.inkscape.org/namespaces/inkscape"
   width="297mm"
   height="210mm"
   viewBox="0 0 297 210"
   version="1.1"
   id="svg8"
   inkscape:version="0.92.3 (2405546, 2018-03-11)"
   sodipodi:docname="fig9.svg">
  <sodipodi:namedview
     id="base"
     pagecolor="#ffffff"
     bordercolor="#666666"
     borderopacity="1.0"
     inkscape:pageopacity="0.0"
     inkscape:pageshadow="2"
     inkscape:zoom="1.3289991"
     inkscape:cx="541.76872"
     inkscape:cy="455.32826"
     inkscape:document-units="mm"
     inkscape:current-layer="layer1"
     showgrid="false"
     inkscape:window-width="1853"
     inkscape:window-height="1025"
     inkscape:window-x="67"
     inkscape:window-y="27"
     inkscape:window-maximized="1"
     showguides="false" />
  <defs
     id="defs2" />
  <metadata
     id="metadata5">
    <rdf:RDF>
      <cc:Work
         rdf:about="">
        <dc:format>image/svg+xml</dc:format>
        <dc:type
           rdf:resource="http://purl.org/dc/dcmitype/StillImage" />
        <dc:title></dc:title>
      </cc:Work>
    </rdf:RDF>
  </metadata>
  <g
     inkscape:label="Layer 1"
     inkscape:groupmode="layer"
     id="layer1"
     transform="translate(0,-87)">
    <path
       style="fill:none;stroke:#000000;stroke-width:1.06500006;stroke-linecap:butt;stroke-linejoin:miter;stroke-miterlimit:4;stroke-dasharray:none;stroke-opacity:1"
       d="m 58.835534,114.98459 0.19893,117.98222 160.802216,0.61175"
       id="path3713-3"
       inkscape:connector-curvature="0"
       sodipodi:nodetypes="ccc" />
    <flowRoot
       transform="translate(-74.612541)"
       xml:space="preserve"
       id="flowRoot7901"
       style="font-style:normal;font-weight:normal;font-size:40px;line-height:1.25;font-family:sans-serif;letter-spacing:0px;word-spacing:0px;fill:#000000;fill-opacity:1;stroke:none"><flowRegion
         id="flowRegion7903"><rect
           id="rect7905"
           width="91.045959"
           height="91.798409"
           x="838.22479"
           y="280.53265" /></flowRegion><flowPara
         id="flowPara7907" /></flowRoot>    <path
       inkscape:connector-curvature="0"
       id="path871"
       d="M 71.471393,120.4119 207.04805,216.17162"
       style="fill:none;stroke:#000000;stroke-width:0.66500002;stroke-linecap:butt;stroke-linejoin:miter;stroke-miterlimit:4;stroke-dasharray:none;stroke-opacity:1" />
    <g
       id="g929"
       transform="matrix(0.84296841,0,0,0.91175326,152.07797,144.09626)">
      <g
         id="g927"
         transform="matrix(0.3,0,0,-0.3,-52.5,222.75)"
         xml:space="preserve"
         stroke-miterlimit="10.433"
         font-style="normal"
         font-variant="normal"
         font-weight="normal"
         font-stretch="normal"
         font-size-adjust="none"
         letter-spacing="normal"
         word-spacing="normal"
         style="font-style:normal;font-variant:normal;font-weight:normal;font-stretch:normal;letter-spacing:normal;word-spacing:normal;text-anchor:start;fill:none;fill-opacity:1;fill-rule:evenodd;stroke:#000000;stroke-linecap:butt;stroke-linejoin:miter;stroke-miterlimit:10.43299961;stroke-dasharray:none;stroke-dashoffset:0;stroke-opacity:1"><path
           d="m 462.14,410.34 0.25,0.27 0.24,0.25 0.24,0.25 0.23,0.24 0.22,0.23 0.22,0.22 0.21,0.22 0.2,0.21 0.2,0.2 0.2,0.19 0.19,0.19 0.19,0.19 0.18,0.17 0.19,0.18 0.35,0.33 0.34,0.32 0.33,0.3 0.33,0.29 0.32,0.29 0.65,0.56 0.33,0.29 0.33,0.28 c 0,0.05 3.08,2.69 4.88,4.49 4.73,4.64 5.83,7.03 5.83,7.21 0,0.5 -0.46,0.5 -0.55,0.5 -0.35,0 -0.5,-0.09 -0.75,-0.54 -1.49,-2.39 -2.53,-3.19 -3.74,-3.19 -1.2,0 -1.79,0.75 -2.54,1.59 -0.94,1.16 -1.78,2.14 -3.44,2.14 -3.73,0 -6.02,-4.62 -6.02,-5.67 0,-0.25 0.14,-0.54 0.6,-0.54 0.45,0 0.54,0.25 0.64,0.54 0.95,2.3 3.84,2.35 4.23,2.35 1.05,0 2,-0.36 3.14,-0.75 2,-0.75 2.55,-0.75 3.85,-0.75 -1.8,-2.14 -5.99,-5.74 -6.92,-6.53 l -4.49,-4.18 c -3.39,-3.34 -5.14,-6.18 -5.14,-6.53 0,-0.5 0.5,-0.5 0.59,-0.5 0.41,0 0.5,0.1 0.8,0.64 1.16,1.75 2.64,3.1 4.24,3.1 1.15,0 1.65,-0.46 2.89,-1.89 0.86,-1.05 1.75,-1.85 3.18,-1.85 4.94,0 7.83,6.33 7.83,7.67 0,0.25 -0.2,0.5 -0.59,0.5 -0.46,0 -0.55,-0.29 -0.71,-0.65 -1.14,-3.24 -4.32,-4.17 -5.98,-4.17 -0.98,0 -1.89,0.29 -2.94,0.64 -1.68,0.64 -2.43,0.84 -3.48,0.84 -0.1,0 -0.89,0 -1.35,-0.14 z"
           id="path925"
           inkscape:connector-curvature="0"
           style="fill:#000000;stroke-width:0" /></g>    </g>
    <g
       id="g979"
       transform="matrix(0.67727758,0,0,0.73354125,148.37193,134.38853)">
      <g
         word-spacing="normal"
         letter-spacing="normal"
         font-size-adjust="none"
         font-stretch="normal"
         font-weight="normal"
         font-variant="normal"
         font-style="normal"
         stroke-miterlimit="10.433"
         xml:space="preserve"
         transform="matrix(0.3,0,0,-0.3,-52.5,222.75)"
         id="g977"
         style="font-style:normal;font-variant:normal;font-weight:normal;font-stretch:normal;letter-spacing:normal;word-spacing:normal;text-anchor:start;fill:none;fill-opacity:1;fill-rule:evenodd;stroke:#000000;stroke-linecap:butt;stroke-linejoin:miter;stroke-miterlimit:10.43299961;stroke-dasharray:none;stroke-dashoffset:0;stroke-opacity:1"><path
           id="path969"
           d="m 464.44,411.93 -0.19,-0.3 -0.18,-0.29 -0.19,-0.28 -0.19,-0.26 -0.18,-0.25 -0.19,-0.23 -0.19,-0.22 -0.18,-0.21 -0.19,-0.2 -0.19,-0.18 -0.18,-0.17 -0.19,-0.16 -0.19,-0.15 -0.18,-0.14 -0.19,-0.13 -0.19,-0.12 -0.19,-0.11 -0.19,-0.1 -0.19,-0.09 -0.19,-0.09 -0.19,-0.07 -0.2,-0.07 -0.19,-0.07 -0.2,-0.05 -0.19,-0.05 -0.2,-0.04 -0.2,-0.04 -0.19,-0.03 -0.41,-0.05 -0.4,-0.03 c -0.61,-0.05 -1.05,-0.05 -1.05,-1 0,-0.3 0.25,-0.55 0.64,-0.55 1.34,0 2.89,0.16 4.28,0.16 1.64,0 3.39,-0.16 4.99,-0.16 0.29,0 0.95,0 0.95,0.95 0,0.55 -0.45,0.6 -0.8,0.6 -1.15,0.09 -2.34,0.5 -2.34,1.73 0,0.61 0.3,1.16 0.69,1.84 l 3.79,6.39 h 12.5 l -0.14,1.54 h -11.42 l 9.83,16.45 1.59,-16.45 0.14,-1.54 c 0.11,-1.04 0.8,-7.82 0.8,-8.32 0,-1.5 -2.59,-1.64 -3.58,-1.64 -0.7,0 -1.2,0 -1.2,-1 0,-0.55 0.59,-0.55 0.7,-0.55 2.03,0 4.19,0.16 6.22,0.16 1.25,0 4.39,-0.16 5.64,-0.16 0.3,0 0.89,0 0.89,1 0,0.55 -0.5,0.55 -1.14,0.55 -3.09,0 -3.09,0.34 -3.25,1.79 l -3.03,31.13 c -0.11,1 -0.11,1.2 -0.95,1.2 -0.8,0 -0.99,-0.34 -1.3,-0.84 z"
           inkscape:connector-curvature="0"
           style="fill:#000000;stroke-width:0" /><path
           id="path971"
           d="m 509.32,394.25 v 0.02 0.03 0.01 l -0.01,0.02 v 0.01 0.02 l -0.01,0.01 -0.01,0.02 v 0.02 l -0.01,0.02 -0.02,0.02 -0.01,0.03 -0.02,0.02 -0.02,0.03 -0.02,0.03 -0.02,0.03 -0.03,0.03 -0.03,0.04 -0.01,0.02 -0.02,0.02 -0.02,0.02 -0.01,0.02 -0.02,0.02 -0.02,0.03 -0.02,0.02 -0.03,0.02 -0.02,0.03 -0.02,0.02 -0.03,0.03 -0.02,0.03 -0.03,0.03 -0.03,0.03 -0.03,0.03 -0.02,0.03 -0.04,0.03 -0.03,0.03 -0.03,0.04 -0.03,0.03 -0.04,0.04 -0.04,0.03 -0.03,0.04 -0.04,0.04 c -6.22,6.28 -7.82,15.69 -7.82,23.31 0,8.67 1.89,17.35 8.02,23.56 0.64,0.61 0.64,0.71 0.64,0.86 0,0.35 -0.19,0.49 -0.48,0.49 -0.5,0 -4.99,-3.38 -7.93,-9.7 -2.54,-5.49 -3.14,-11.02 -3.14,-15.21 0,-3.89 0.55,-9.9 3.28,-15.54 2.99,-6.13 7.29,-9.36 7.79,-9.36 0.29,0 0.48,0.14 0.48,0.5 z"
           inkscape:connector-curvature="0"
           style="fill:#000000;stroke-width:0" /><path
           id="path973"
           d="m 518.78,410.34 0.25,0.27 0.24,0.25 0.23,0.25 0.23,0.24 0.22,0.23 0.22,0.22 0.21,0.22 0.21,0.21 0.2,0.2 0.19,0.19 0.2,0.19 0.18,0.19 0.19,0.17 0.18,0.18 0.35,0.33 0.34,0.32 0.34,0.3 0.32,0.29 0.33,0.29 0.64,0.56 0.33,0.29 0.34,0.28 c 0,0.05 3.07,2.69 4.87,4.49 4.73,4.64 5.83,7.03 5.83,7.21 0,0.5 -0.45,0.5 -0.55,0.5 -0.34,0 -0.5,-0.09 -0.75,-0.54 -1.48,-2.39 -2.53,-3.19 -3.73,-3.19 -1.21,0 -1.8,0.75 -2.55,1.59 -0.94,1.16 -1.78,2.14 -3.44,2.14 -3.73,0 -6.01,-4.62 -6.01,-5.67 0,-0.25 0.14,-0.54 0.59,-0.54 0.45,0 0.55,0.25 0.64,0.54 0.95,2.3 3.85,2.35 4.23,2.35 1.05,0 2,-0.36 3.15,-0.75 2,-0.75 2.54,-0.75 3.84,-0.75 -1.8,-2.14 -5.99,-5.74 -6.92,-6.53 l -4.49,-4.18 c -3.39,-3.34 -5.14,-6.18 -5.14,-6.53 0,-0.5 0.5,-0.5 0.6,-0.5 0.4,0 0.5,0.1 0.79,0.64 1.16,1.75 2.64,3.1 4.24,3.1 1.15,0 1.65,-0.46 2.89,-1.89 0.86,-1.05 1.75,-1.85 3.19,-1.85 4.93,0 7.82,6.33 7.82,7.67 0,0.25 -0.2,0.5 -0.59,0.5 -0.45,0 -0.55,-0.29 -0.7,-0.65 -1.14,-3.24 -4.33,-4.17 -5.99,-4.17 -0.98,0 -1.89,0.29 -2.94,0.64 -1.68,0.64 -2.43,0.84 -3.48,0.84 -0.09,0 -0.89,0 -1.34,-0.14 z"
           inkscape:connector-curvature="0"
           style="fill:#000000;stroke-width:0" /><path
           id="path975"
           d="m 551.86,418.65 v 0.37 l -0.01,0.39 -0.01,0.39 -0.01,0.41 -0.04,0.84 -0.06,0.88 -0.08,0.92 -0.11,0.95 -0.13,0.97 -0.17,1.01 -0.19,1.02 -0.23,1.03 -0.27,1.05 -0.31,1.06 -0.34,1.07 -0.4,1.07 -0.21,0.53 -0.22,0.53 -0.24,0.53 -0.25,0.53 c -2.99,6.12 -7.27,9.36 -7.77,9.36 -0.29,0 -0.5,-0.19 -0.5,-0.49 0,-0.15 0,-0.25 0.94,-1.15 4.89,-4.92 7.73,-12.85 7.73,-23.27 0,-8.51 -1.84,-17.28 -8.03,-23.56 -0.64,-0.59 -0.64,-0.7 -0.64,-0.84 0,-0.3 0.21,-0.5 0.5,-0.5 0.5,0 4.97,3.39 7.92,9.71 2.54,5.47 3.13,11 3.13,15.19 z"
           inkscape:connector-curvature="0"
           style="fill:#000000;stroke-width:0" /></g>    </g>
    <path
       sodipodi:nodetypes="cc"
       inkscape:connector-curvature="0"
       id="path1400"
       d="M 59.034462,232.96681 C 126.25833,202.91207 197.03697,175.58265 217.9977,110.05951"
       style="fill:none;stroke:#000000;stroke-width:0.66500002;stroke-linecap:butt;stroke-linejoin:miter;stroke-miterlimit:4;stroke-dasharray:none;stroke-opacity:1" />
    <g
       transform="matrix(0.63583158,0,0,0.61363481,162.25801,60.740447)"
       id="g1449">
      <g
         style="font-style:normal;font-variant:normal;font-weight:normal;font-stretch:normal;letter-spacing:normal;word-spacing:normal;text-anchor:start;fill:none;fill-opacity:1;fill-rule:evenodd;stroke:#000000;stroke-linecap:butt;stroke-linejoin:miter;stroke-miterlimit:10.43299961;stroke-dasharray:none;stroke-dashoffset:0;stroke-opacity:1"
         word-spacing="normal"
         letter-spacing="normal"
         font-size-adjust="none"
         font-stretch="normal"
         font-weight="normal"
         font-variant="normal"
         font-style="normal"
         stroke-miterlimit="10.433"
         xml:space="preserve"
         transform="matrix(0.3,0,0,-0.3,-52.5,222.75)"
         id="g1447"><path
           style="fill:#000000;stroke-width:0"
           inkscape:connector-curvature="0"
           id="path1427"
           d="m 473.8,426.12 h 4.28 c 1,0 1.5,0 1.5,1 0,0.55 -0.5,0.55 -1.34,0.55 h -4.14 l 1.04,5.69 c 0.21,1.04 0.91,4.57 1.21,5.17 0.45,0.95 1.29,1.7 2.34,1.7 0.19,0 1.49,0 2.44,-0.91 -2.19,-0.18 -2.69,-1.93 -2.69,-2.68 0,-1.14 0.89,-1.74 1.85,-1.74 1.29,0 2.73,1.1 2.73,2.99 0,2.29 -2.3,3.43 -4.33,3.43 -1.7,0 -4.84,-0.89 -6.33,-5.82 -0.29,-1.05 -0.45,-1.55 -1.64,-7.83 h -3.43 c -0.96,0 -1.5,0 -1.5,-0.94 0,-0.61 0.45,-0.61 1.39,-0.61 h 3.29 l -3.75,-19.67 c -0.89,-4.83 -1.73,-9.38 -4.33,-9.38 -0.2,0 -1.43,0 -2.39,0.91 2.3,0.14 2.74,1.94 2.74,2.69 0,1.14 -0.89,1.75 -1.85,1.75 -1.29,0 -2.73,-1.1 -2.73,-3 0,-2.24 2.19,-3.44 4.23,-3.44 2.74,0 4.74,2.94 5.63,4.84 1.59,3.14 2.75,9.16 2.8,9.52 z" /><path
           style="fill:#000000;stroke-width:0"
           inkscape:connector-curvature="0"
           id="path1429"
           d="m 501.77,394.25 v 0.02 l -0.01,0.03 v 0.01 0.02 0.01 l -0.01,0.02 v 0.01 l -0.01,0.02 -0.01,0.02 -0.01,0.02 -0.01,0.02 -0.01,0.03 -0.02,0.02 -0.02,0.03 -0.02,0.03 -0.02,0.03 -0.03,0.03 -0.03,0.04 -0.02,0.02 -0.01,0.02 -0.02,0.02 -0.02,0.02 -0.02,0.02 -0.02,0.03 -0.02,0.02 -0.02,0.02 -0.02,0.03 -0.03,0.02 -0.02,0.03 -0.03,0.03 -0.02,0.03 -0.03,0.03 -0.03,0.03 -0.03,0.03 -0.03,0.03 -0.03,0.03 -0.04,0.04 -0.03,0.03 -0.03,0.04 -0.04,0.03 -0.04,0.04 -0.04,0.04 c -6.22,6.28 -7.81,15.69 -7.81,23.31 0,8.67 1.89,17.35 8.01,23.56 0.65,0.61 0.65,0.71 0.65,0.86 0,0.35 -0.19,0.49 -0.49,0.49 -0.5,0 -4.98,-3.38 -7.92,-9.7 -2.55,-5.49 -3.14,-11.02 -3.14,-15.21 0,-3.89 0.55,-9.9 3.28,-15.54 2.98,-6.13 7.28,-9.36 7.78,-9.36 0.3,0 0.49,0.14 0.49,0.5 z" /><path
           style="fill:#000000;stroke-width:0"
           inkscape:connector-curvature="0"
           id="path1431"
           d="m 528.32,438.73 -0.8,0.75 c 0,-0.05 -1.89,-2.39 -4.08,-2.39 -1.14,0 -2.39,0.75 -3.23,1.25 -1.35,0.8 -2.25,1.14 -3.1,1.14 -1.89,0 -2.84,-1.09 -5.37,-3.89 l 0.79,-0.75 c 0,0.06 1.9,2.39 4.08,2.39 1.14,0 2.39,-0.73 3.24,-1.23 1.34,-0.8 2.25,-1.16 3.09,-1.16 1.89,0 2.84,1.11 5.38,3.89 z" /><path
           style="fill:#000000;stroke-width:0"
           inkscape:connector-curvature="0"
           id="path1433"
           d="m 511.22,410.34 0.25,0.27 0.24,0.25 0.23,0.25 0.23,0.24 0.22,0.23 0.22,0.22 0.21,0.22 0.21,0.21 0.2,0.2 0.19,0.19 0.2,0.19 0.18,0.19 0.19,0.17 0.18,0.18 0.35,0.33 0.34,0.32 0.34,0.3 0.32,0.29 0.33,0.29 0.65,0.56 0.32,0.29 0.34,0.28 c 0,0.05 3.07,2.69 4.87,4.49 4.74,4.64 5.83,7.03 5.83,7.21 0,0.5 -0.45,0.5 -0.55,0.5 -0.34,0 -0.5,-0.09 -0.75,-0.54 -1.48,-2.39 -2.53,-3.19 -3.73,-3.19 -1.21,0 -1.8,0.75 -2.55,1.59 -0.94,1.16 -1.78,2.14 -3.44,2.14 -3.73,0 -6.01,-4.62 -6.01,-5.67 0,-0.25 0.14,-0.54 0.59,-0.54 0.46,0 0.55,0.25 0.64,0.54 0.96,2.3 3.85,2.35 4.24,2.35 1.04,0 2,-0.36 3.14,-0.75 2,-0.75 2.54,-0.75 3.84,-0.75 -1.8,-2.14 -5.98,-5.74 -6.92,-6.53 l -4.48,-4.18 c -3.4,-3.34 -5.15,-6.18 -5.15,-6.53 0,-0.5 0.5,-0.5 0.6,-0.5 0.4,0 0.5,0.1 0.79,0.64 1.16,1.75 2.65,3.1 4.24,3.1 1.16,0 1.66,-0.46 2.89,-1.89 0.86,-1.05 1.75,-1.85 3.19,-1.85 4.94,0 7.83,6.33 7.83,7.67 0,0.25 -0.21,0.5 -0.6,0.5 -0.45,0 -0.55,-0.29 -0.7,-0.65 -1.14,-3.24 -4.33,-4.17 -5.99,-4.17 -0.98,0 -1.89,0.29 -2.93,0.64 -1.69,0.64 -2.44,0.84 -3.49,0.84 -0.09,0 -0.89,0 -1.34,-0.14 z" /><path
           style="fill:#000000;stroke-width:0"
           inkscape:connector-curvature="0"
           id="path1435"
           d="m 540.14,406.25 -0.01,0.3 -0.01,0.3 -0.02,0.29 -0.02,0.28 -0.03,0.27 -0.04,0.26 -0.04,0.26 -0.06,0.24 -0.05,0.24 -0.07,0.23 -0.07,0.22 -0.08,0.21 -0.08,0.2 -0.09,0.19 -0.09,0.19 -0.1,0.17 -0.11,0.16 -0.11,0.16 -0.12,0.14 -0.12,0.13 -0.13,0.13 -0.14,0.11 -0.14,0.1 -0.14,0.1 -0.15,0.08 -0.15,0.07 -0.16,0.06 -0.16,0.05 -0.17,0.04 -0.17,0.03 -0.18,0.01 -0.18,0.01 c -1.64,0 -2.64,-1.25 -2.64,-2.64 0,-1.34 1,-2.64 2.64,-2.64 0.59,0 1.25,0.2 1.75,0.64 0.14,0.11 0.2,0.16 0.25,0.16 0.05,0 0.09,-0.05 0.09,-0.75 0,-3.69 -1.73,-6.68 -3.39,-8.32 -0.55,-0.54 -0.55,-0.65 -0.55,-0.79 0,-0.36 0.25,-0.55 0.5,-0.55 0.55,0 4.54,3.83 4.54,9.66 z" /><path
           style="fill:#000000;stroke-width:0"
           inkscape:connector-curvature="0"
           id="path1437"
           d="m 570.75,436.34 0.04,0.16 0.04,0.16 0.04,0.15 0.04,0.15 0.04,0.13 0.04,0.13 0.05,0.13 0.06,0.11 0.06,0.12 0.06,0.1 0.07,0.1 0.08,0.09 0.09,0.09 0.1,0.08 0.11,0.08 0.12,0.07 0.14,0.06 0.14,0.06 0.17,0.06 0.17,0.05 0.1,0.02 0.09,0.02 0.11,0.02 0.1,0.02 0.11,0.02 0.12,0.02 0.12,0.02 0.13,0.01 0.13,0.01 0.13,0.02 0.14,0.01 0.15,0.01 0.15,0.01 0.15,0.01 0.17,0.01 0.16,0.01 h 0.18 l 0.17,0.01 h 0.19 l 0.19,0.01 h 0.2 0.2 0.21 0.22 c 1.48,0 1.89,0 1.89,0.96 0,0.59 -0.55,0.59 -0.8,0.59 -1.65,0 -5.73,-0.16 -7.37,-0.16 -1.5,0 -5.15,0.16 -6.63,0.16 -0.36,0 -0.95,0 -0.95,-1 0,-0.55 0.45,-0.55 1.39,-0.55 0.11,0 1.04,0 1.91,-0.09 0.88,-0.11 1.34,-0.16 1.34,-0.8 0,-0.2 -0.06,-0.36 -0.21,-0.95 l -6.67,-26.75 c -0.5,-1.95 -0.61,-2.34 -4.54,-2.34 -0.85,0 -1.35,0 -1.35,-1 0,-0.55 0.46,-0.55 1.35,-0.55 h 23.08 c 1.18,0 1.23,0 1.54,0.84 l 3.92,10.77 c 0.21,0.55 0.21,0.64 0.21,0.7 0,0.19 -0.14,0.55 -0.6,0.55 -0.45,0 -0.5,-0.25 -0.84,-1.05 -1.7,-4.59 -3.89,-10.26 -12.52,-10.26 h -4.67 c -0.7,0 -0.79,0 -1.09,0.04 -0.5,0.05 -0.66,0.1 -0.66,0.5 0,0.14 0,0.25 0.25,1.14 z" /><path
           style="fill:#000000;stroke-width:0"
           inkscape:connector-curvature="0"
           id="path1439"
           d="m 597.33,432.87 0.26,0.12 0.26,0.11 0.24,0.11 0.24,0.1 0.23,0.1 0.22,0.1 0.21,0.09 0.21,0.09 0.2,0.08 0.19,0.08 0.18,0.08 0.18,0.07 0.16,0.08 0.17,0.06 0.16,0.07 0.15,0.06 0.14,0.06 0.14,0.06 0.13,0.06 0.13,0.05 0.13,0.06 0.12,0.05 0.11,0.05 0.11,0.04 0.11,0.05 0.1,0.04 0.19,0.09 0.18,0.08 0.16,0.08 c 0.68,0.27 0.99,0.41 0.99,1.08 0,0.59 -0.45,1.11 -1.08,1.11 -0.25,0 -0.31,0 -0.73,-0.31 l -4.74,-3.17 0.52,5.15 c 0.08,0.63 0,1.5 -1.05,1.5 -0.42,0 -1.08,-0.28 -1.08,-1.04 0,-0.32 0.14,-1.36 0.17,-1.71 0.08,-0.59 0.32,-3.11 0.39,-3.9 l -4.7,3.17 c -0.36,0.2 -0.45,0.31 -0.76,0.31 -0.65,0 -1.1,-0.52 -1.1,-1.11 0,-0.7 0.42,-0.87 0.74,-1.01 l 5.26,-2.19 c -2.86,-1.27 -4.14,-1.75 -5.01,-2.17 -0.66,-0.29 -0.99,-0.43 -0.99,-1.08 0,-0.6 0.45,-1.11 1.1,-1.11 0.23,0 0.31,0 0.71,0.31 l 4.75,3.17 -0.56,-5.61 c 0,-0.76 0.66,-1.04 1.08,-1.04 0.42,0 1.08,0.28 1.08,1.04 0,0.32 -0.14,1.36 -0.17,1.71 -0.07,0.59 -0.32,3.09 -0.38,3.9 l 4.17,-2.79 c 0.91,-0.69 0.99,-0.69 1.3,-0.69 0.63,0 1.08,0.51 1.08,1.11 0,0.7 -0.42,0.87 -0.74,1.01 z" /><path
           style="fill:#000000;stroke-width:0"
           inkscape:connector-curvature="0"
           id="path1441"
           d="m 630.88,441.67 0.01,0.03 0.01,0.03 0.01,0.03 0.01,0.03 0.01,0.02 0.01,0.03 0.01,0.03 0.01,0.02 0.01,0.05 0.02,0.05 0.02,0.04 0.01,0.05 0.01,0.04 0.01,0.04 0.01,0.03 0.01,0.04 0.01,0.03 0.01,0.03 0.01,0.03 v 0.02 l 0.01,0.03 v 0.02 l 0.01,0.02 v 0.02 0.02 l 0.01,0.02 v 0.01 0.02 0.01 0.01 0.01 0.01 0.01 0.01 0.01 0 c 0,0.55 -0.45,0.99 -1,0.99 -0.34,0 -0.7,-0.14 -0.84,-0.44 l -17.3,-47.48 c -0.25,-0.64 -0.25,-0.85 -0.25,-0.89 0,-0.55 0.46,-1 1,-1 0.66,0 0.8,0.34 1.1,1.18 z" /><path
           style="fill:#000000;stroke-width:0"
           inkscape:connector-curvature="0"
           id="path1443"
           d="m 652.6,436.34 0.04,0.16 0.04,0.16 0.04,0.15 0.04,0.15 0.04,0.13 0.05,0.13 0.04,0.13 0.06,0.11 0.06,0.12 0.06,0.1 0.07,0.1 0.08,0.09 0.09,0.09 0.1,0.08 0.11,0.08 0.12,0.07 0.14,0.06 0.15,0.06 0.16,0.06 0.17,0.05 0.1,0.02 0.1,0.02 0.1,0.02 0.1,0.02 0.12,0.02 0.11,0.02 0.12,0.02 0.13,0.01 0.13,0.01 0.13,0.02 0.14,0.01 0.15,0.01 0.15,0.01 0.16,0.01 0.16,0.01 0.16,0.01 h 0.18 l 0.18,0.01 h 0.18 l 0.19,0.01 h 0.2 0.2 0.21 0.22 c 1.48,0 1.89,0 1.89,0.96 0,0.59 -0.55,0.59 -0.8,0.59 -1.65,0 -5.73,-0.16 -7.37,-0.16 -1.5,0 -5.14,0.16 -6.63,0.16 -0.36,0 -0.95,0 -0.95,-1 0,-0.55 0.45,-0.55 1.39,-0.55 0.11,0 1.05,0 1.91,-0.09 0.89,-0.11 1.34,-0.16 1.34,-0.8 0,-0.2 -0.06,-0.36 -0.2,-0.95 l -6.68,-26.75 c -0.5,-1.95 -0.6,-2.34 -4.54,-2.34 -0.84,0 -1.34,0 -1.34,-1 0,-0.55 0.45,-0.55 1.34,-0.55 h 23.08 c 1.18,0 1.23,0 1.54,0.84 l 3.92,10.77 c 0.21,0.55 0.21,0.64 0.21,0.7 0,0.19 -0.14,0.55 -0.59,0.55 -0.46,0 -0.5,-0.25 -0.85,-1.05 -1.7,-4.59 -3.89,-10.26 -12.52,-10.26 h -4.67 c -0.7,0 -0.79,0 -1.09,0.04 -0.5,0.05 -0.66,0.1 -0.66,0.5 0,0.14 0,0.25 0.25,1.14 z" /><path
           style="fill:#000000;stroke-width:0"
           inkscape:connector-curvature="0"
           id="path1445"
           d="m 682.3,418.65 v 0.37 0.39 l -0.01,0.39 -0.01,0.41 -0.04,0.84 -0.06,0.88 -0.09,0.92 -0.1,0.95 -0.14,0.97 -0.16,1.01 -0.2,1.02 -0.23,1.03 -0.26,1.05 -0.31,1.06 -0.35,1.07 -0.39,1.07 -0.21,0.53 -0.23,0.53 -0.24,0.53 -0.25,0.53 c -2.98,6.12 -7.26,9.36 -7.76,9.36 -0.3,0 -0.5,-0.19 -0.5,-0.49 0,-0.15 0,-0.25 0.94,-1.15 4.89,-4.92 7.73,-12.85 7.73,-23.27 0,-8.51 -1.84,-17.28 -8.03,-23.56 -0.64,-0.59 -0.64,-0.7 -0.64,-0.84 0,-0.3 0.2,-0.5 0.5,-0.5 0.5,0 4.97,3.39 7.92,9.71 2.53,5.47 3.12,11 3.12,15.19 z" /></g>    </g>
    <g
       transform="matrix(0.72323728,0,0,0.86268672,95.736656,160.40251)"
       id="g1533">
      <g
         style="font-style:normal;font-variant:normal;font-weight:normal;font-stretch:normal;letter-spacing:normal;word-spacing:normal;text-anchor:start;fill:none;fill-opacity:1;fill-rule:evenodd;stroke:#000000;stroke-linecap:butt;stroke-linejoin:miter;stroke-miterlimit:10.43299961;stroke-dasharray:none;stroke-dashoffset:0;stroke-opacity:1"
         id="g1531"
         transform="matrix(0.3,0,0,-0.3,-52.5,222.75)"
         xml:space="preserve"
         stroke-miterlimit="10.433"
         font-style="normal"
         font-variant="normal"
         font-weight="normal"
         font-stretch="normal"
         font-size-adjust="none"
         letter-spacing="normal"
         word-spacing="normal"><path
           style="fill:#000000;stroke-width:0"
           inkscape:connector-curvature="0"
           d="m 479.24,438.73 -0.8,0.75 c 0,-0.05 -1.89,-2.39 -4.08,-2.39 -1.14,0 -2.39,0.75 -3.23,1.25 -1.34,0.8 -2.25,1.14 -3.09,1.14 -1.9,0 -2.85,-1.09 -5.38,-3.89 l 0.8,-0.75 c 0,0.06 1.89,2.39 4.08,2.39 1.14,0 2.39,-0.73 3.23,-1.23 1.34,-0.8 2.25,-1.16 3.09,-1.16 1.89,0 2.85,1.11 5.38,3.89 z"
           id="path1527" /><path
           style="fill:#000000;stroke-width:0"
           inkscape:connector-curvature="0"
           d="m 462.14,410.34 0.25,0.27 0.24,0.25 0.24,0.25 0.22,0.24 0.23,0.23 0.21,0.22 0.21,0.22 0.21,0.21 0.2,0.2 0.2,0.19 0.19,0.19 0.19,0.19 0.18,0.17 0.18,0.18 0.35,0.33 0.34,0.32 0.34,0.3 0.33,0.29 0.32,0.29 0.65,0.56 0.32,0.29 0.34,0.28 c 0,0.05 3.08,2.69 4.87,4.49 4.74,4.64 5.83,7.03 5.83,7.21 0,0.5 -0.45,0.5 -0.55,0.5 -0.34,0 -0.5,-0.09 -0.75,-0.54 -1.48,-2.39 -2.53,-3.19 -3.73,-3.19 -1.2,0 -1.8,0.75 -2.55,1.59 -0.93,1.16 -1.78,2.14 -3.43,2.14 -3.74,0 -6.02,-4.62 -6.02,-5.67 0,-0.25 0.14,-0.54 0.59,-0.54 0.46,0 0.55,0.25 0.64,0.54 0.96,2.3 3.85,2.35 4.24,2.35 1.05,0 2,-0.36 3.14,-0.75 2,-0.75 2.55,-0.75 3.84,-0.75 -1.79,-2.14 -5.98,-5.74 -6.92,-6.53 l -4.48,-4.18 c -3.39,-3.34 -5.14,-6.18 -5.14,-6.53 0,-0.5 0.5,-0.5 0.59,-0.5 0.41,0 0.5,0.1 0.8,0.64 1.15,1.75 2.64,3.1 4.23,3.1 1.16,0 1.66,-0.46 2.89,-1.89 0.86,-1.05 1.75,-1.85 3.19,-1.85 4.94,0 7.83,6.33 7.83,7.67 0,0.25 -0.21,0.5 -0.6,0.5 -0.45,0 -0.54,-0.29 -0.7,-0.65 -1.14,-3.24 -4.33,-4.17 -5.98,-4.17 -0.99,0 -1.89,0.29 -2.94,0.64 -1.69,0.64 -2.44,0.84 -3.49,0.84 -0.09,0 -0.89,0 -1.34,-0.14 z"
           id="path1529" /></g>    </g>
    <g
       transform="matrix(0.70805409,0,0,0.7646058,-11.612734,109.79234)"
       id="g1625">
      <g
         style="font-style:normal;font-variant:normal;font-weight:normal;font-stretch:normal;letter-spacing:normal;word-spacing:normal;text-anchor:start;fill:none;fill-opacity:1;fill-rule:evenodd;stroke:#000000;stroke-linecap:butt;stroke-linejoin:miter;stroke-miterlimit:10.43299961;stroke-dasharray:none;stroke-dashoffset:0;stroke-opacity:1"
         word-spacing="normal"
         letter-spacing="normal"
         font-size-adjust="none"
         font-stretch="normal"
         font-weight="normal"
         font-variant="normal"
         font-style="normal"
         stroke-miterlimit="10.433"
         xml:space="preserve"
         transform="matrix(0.3,0,0,-0.3,-52.5,222.75)"
         id="g1623"><path
           style="fill:#000000;stroke-width:0"
           inkscape:connector-curvature="0"
           id="path1619"
           d="m 480.2,438.73 -0.8,0.75 c 0,-0.05 -1.89,-2.39 -4.08,-2.39 -1.14,0 -2.39,0.75 -3.23,1.25 -1.34,0.8 -2.25,1.14 -3.09,1.14 -1.89,0 -2.85,-1.09 -5.38,-3.89 l 0.8,-0.75 c 0,0.06 1.89,2.39 4.08,2.39 1.14,0 2.39,-0.73 3.23,-1.23 1.34,-0.8 2.25,-1.16 3.09,-1.16 1.89,0 2.85,1.11 5.38,3.89 z" /><path
           style="fill:#000000;stroke-width:0"
           inkscape:connector-curvature="0"
           id="path1621"
           d="m 485.66,424.73 -0.01,0.21 v 0.2 l -0.02,0.2 -0.01,0.19 -0.03,0.18 -0.02,0.18 -0.03,0.17 -0.04,0.16 -0.04,0.16 -0.04,0.16 -0.05,0.14 -0.05,0.14 -0.06,0.13 -0.06,0.13 -0.06,0.12 -0.07,0.12 -0.06,0.1 -0.08,0.1 -0.07,0.1 -0.08,0.09 -0.08,0.08 -0.08,0.07 -0.09,0.07 -0.09,0.06 -0.09,0.05 -0.09,0.05 -0.09,0.04 -0.1,0.03 -0.1,0.02 -0.1,0.02 -0.1,0.01 h -0.1 c -1.29,0 -2.64,-1.18 -2.64,-2.34 0,-0.48 0.24,-1.03 0.74,-1.48 0.85,-0.75 1.75,-2.1 1.75,-4.19 0,-2 -0.96,-4.83 -2.49,-7.13 -1.5,-2.14 -3.34,-3.82 -5.69,-3.82 -2.84,0 -4.39,1.78 -4.82,4.46 0.54,1.3 1.68,4.49 1.68,5.9 0,0.59 -0.25,1.09 -0.89,1.09 -0.4,0 -0.95,-0.11 -1.34,-0.84 -0.55,-1 -1.16,-4.24 -1.16,-6.04 -1.64,-2.34 -3.62,-4.57 -6.76,-4.57 -3.3,0 -4.35,2.93 -4.35,5.71 0,6.24 5.1,11.47 5.1,12.11 0,0.55 -0.41,0.96 -0.96,0.96 -0.65,0 -1,-0.66 -1.29,-1.11 -2.55,-3.69 -4.44,-9.61 -4.44,-14.14 0,-3.44 1.16,-7.13 5.23,-7.13 3.54,0 5.88,2.49 7.68,5.24 0.45,-2.89 2.39,-5.24 5.48,-5.24 3.89,0 6.28,3.03 8.06,6.78 1.21,2.44 3.1,9.21 3.1,12.3 z" /></g>    </g>
    <g
       transform="matrix(0.70805409,0,0,0.8529221,-7.2328704,22.62726)"
       id="g1723">
      <g
         style="font-style:normal;font-variant:normal;font-weight:normal;font-stretch:normal;letter-spacing:normal;word-spacing:normal;text-anchor:start;fill:none;fill-opacity:1;fill-rule:evenodd;stroke:#000000;stroke-linecap:butt;stroke-linejoin:miter;stroke-miterlimit:10.43299961;stroke-dasharray:none;stroke-dashoffset:0;stroke-opacity:1"
         id="g1721"
         transform="matrix(0.3,0,0,-0.3,-52.5,222.75)"
         xml:space="preserve"
         stroke-miterlimit="10.433"
         font-style="normal"
         font-variant="normal"
         font-weight="normal"
         font-stretch="normal"
         font-size-adjust="none"
         letter-spacing="normal"
         word-spacing="normal"><path
           style="fill:#000000;stroke-width:0"
           inkscape:connector-curvature="0"
           d="m 485.66,424.73 v 0.21 l -0.01,0.2 -0.01,0.2 -0.02,0.19 -0.02,0.18 -0.03,0.18 -0.03,0.17 -0.04,0.16 -0.04,0.16 -0.04,0.16 -0.05,0.14 -0.05,0.14 -0.05,0.13 -0.06,0.13 -0.07,0.12 -0.06,0.12 -0.07,0.1 -0.07,0.1 -0.08,0.1 -0.08,0.09 -0.08,0.08 -0.08,0.07 -0.08,0.07 -0.09,0.06 -0.09,0.05 -0.09,0.05 -0.1,0.04 -0.09,0.03 -0.1,0.02 -0.1,0.02 -0.1,0.01 h -0.1 c -1.3,0 -2.64,-1.18 -2.64,-2.34 0,-0.48 0.23,-1.03 0.73,-1.48 0.86,-0.75 1.75,-2.1 1.75,-4.19 0,-2 -0.95,-4.83 -2.48,-7.13 -1.5,-2.14 -3.35,-3.82 -5.69,-3.82 -2.85,0 -4.39,1.78 -4.83,4.46 0.55,1.3 1.69,4.49 1.69,5.9 0,0.59 -0.25,1.09 -0.89,1.09 -0.41,0 -0.96,-0.11 -1.35,-0.84 -0.54,-1 -1.15,-4.24 -1.15,-6.04 -1.64,-2.34 -3.63,-4.57 -6.77,-4.57 -3.3,0 -4.34,2.93 -4.34,5.71 0,6.24 5.09,11.47 5.09,12.11 0,0.55 -0.41,0.96 -0.95,0.96 -0.66,0 -1,-0.66 -1.3,-1.11 -2.55,-3.69 -4.44,-9.61 -4.44,-14.14 0,-3.44 1.16,-7.13 5.24,-7.13 3.53,0 5.87,2.49 7.67,5.24 0.45,-2.89 2.39,-5.24 5.48,-5.24 3.89,0 6.29,3.03 8.07,6.78 1.2,2.44 3.09,9.21 3.09,12.3 z"
           id="path1719" /></g>    </g>
    <path
       inkscape:connector-curvature="0"
       id="path1775"
       d="M 159.26773,233.69108 V 182.52632 L 59.128144,181.92907"
       style="fill:none;stroke:#000000;stroke-width:0.565;stroke-linecap:butt;stroke-linejoin:miter;stroke-opacity:1;stroke-miterlimit:4;stroke-dasharray:0.565,1.695;stroke-dashoffset:0" />
    <path
       sodipodi:nodetypes="cc"
       inkscape:connector-curvature="0"
       id="path1400-6"
       d="M 59.034464,232.96681 C 126.25833,202.91207 162.85353,165.33388 183.81426,99.810738"
       style="fill:none;stroke:#000000;stroke-width:0.66500002;stroke-linecap:butt;stroke-linejoin:miter;stroke-miterlimit:4;stroke-dasharray:none;stroke-opacity:1" />
    <g
       id="g1897"
       transform="matrix(0.59268692,0,0,0.62785431,133.92375,40.218574)">
      <g
         word-spacing="normal"
         letter-spacing="normal"
         font-size-adjust="none"
         font-stretch="normal"
         font-weight="normal"
         font-variant="normal"
         font-style="normal"
         stroke-miterlimit="10.433"
         xml:space="preserve"
         transform="matrix(0.3,0,0,-0.3,-52.5,222.75)"
         id="content"
         style="font-style:normal;font-variant:normal;font-weight:normal;font-stretch:normal;letter-spacing:normal;word-spacing:normal;text-anchor:start;fill:none;fill-opacity:1;fill-rule:evenodd;stroke:#000000;stroke-linecap:butt;stroke-linejoin:miter;stroke-miterlimit:10.43299961;stroke-dasharray:none;stroke-dashoffset:0;stroke-opacity:1"><path
           id="path1874"
           d="m 473.8,426.12 h 4.28 c 1,0 1.5,0 1.5,1 0,0.55 -0.5,0.55 -1.34,0.55 h -4.14 l 1.04,5.69 c 0.21,1.04 0.91,4.57 1.21,5.17 0.45,0.95 1.29,1.7 2.34,1.7 0.19,0 1.49,0 2.44,-0.91 -2.19,-0.18 -2.69,-1.93 -2.69,-2.68 0,-1.14 0.89,-1.74 1.85,-1.74 1.29,0 2.73,1.1 2.73,2.99 0,2.29 -2.3,3.43 -4.33,3.43 -1.7,0 -4.84,-0.89 -6.33,-5.82 -0.29,-1.05 -0.45,-1.55 -1.64,-7.83 h -3.43 c -0.96,0 -1.5,0 -1.5,-0.94 0,-0.61 0.45,-0.61 1.39,-0.61 h 3.29 l -3.75,-19.67 c -0.89,-4.83 -1.73,-9.38 -4.33,-9.38 -0.2,0 -1.43,0 -2.39,0.91 2.3,0.14 2.74,1.94 2.74,2.69 0,1.14 -0.89,1.75 -1.85,1.75 -1.29,0 -2.73,-1.1 -2.73,-3 0,-2.24 2.19,-3.44 4.23,-3.44 2.74,0 4.74,2.94 5.63,4.84 1.59,3.14 2.75,9.16 2.8,9.52 z"
           inkscape:connector-curvature="0"
           style="fill:#000000;stroke-width:0" /><path
           id="path1876"
           d="m 501.77,394.25 v 0.02 l -0.01,0.03 v 0.01 0.02 0.01 l -0.01,0.02 v 0.01 l -0.01,0.02 -0.01,0.02 -0.01,0.02 -0.01,0.02 -0.01,0.03 -0.02,0.02 -0.02,0.03 -0.02,0.03 -0.02,0.03 -0.03,0.03 -0.03,0.04 -0.02,0.02 -0.01,0.02 -0.02,0.02 -0.02,0.02 -0.02,0.02 -0.02,0.03 -0.02,0.02 -0.02,0.02 -0.02,0.03 -0.03,0.02 -0.02,0.03 -0.03,0.03 -0.02,0.03 -0.03,0.03 -0.03,0.03 -0.03,0.03 -0.03,0.03 -0.03,0.03 -0.04,0.04 -0.03,0.03 -0.03,0.04 -0.04,0.03 -0.04,0.04 -0.04,0.04 c -6.22,6.28 -7.81,15.69 -7.81,23.31 0,8.67 1.89,17.35 8.01,23.56 0.65,0.61 0.65,0.71 0.65,0.86 0,0.35 -0.19,0.49 -0.49,0.49 -0.5,0 -4.98,-3.38 -7.92,-9.7 -2.55,-5.49 -3.14,-11.02 -3.14,-15.21 0,-3.89 0.55,-9.9 3.28,-15.54 2.98,-6.13 7.28,-9.36 7.78,-9.36 0.3,0 0.49,0.14 0.49,0.5 z"
           inkscape:connector-curvature="0"
           style="fill:#000000;stroke-width:0" /><path
           id="path1878"
           d="m 528.32,438.73 -0.8,0.75 c 0,-0.05 -1.89,-2.39 -4.08,-2.39 -1.14,0 -2.39,0.75 -3.23,1.25 -1.35,0.8 -2.25,1.14 -3.1,1.14 -1.89,0 -2.84,-1.09 -5.37,-3.89 l 0.79,-0.75 c 0,0.06 1.9,2.39 4.08,2.39 1.14,0 2.39,-0.73 3.24,-1.23 1.34,-0.8 2.25,-1.16 3.09,-1.16 1.89,0 2.84,1.11 5.38,3.89 z"
           inkscape:connector-curvature="0"
           style="fill:#000000;stroke-width:0" /><path
           id="path1880"
           d="m 511.22,410.34 0.25,0.27 0.24,0.25 0.23,0.25 0.23,0.24 0.22,0.23 0.22,0.22 0.21,0.22 0.21,0.21 0.2,0.2 0.19,0.19 0.2,0.19 0.18,0.19 0.19,0.17 0.18,0.18 0.35,0.33 0.34,0.32 0.34,0.3 0.32,0.29 0.33,0.29 0.65,0.56 0.32,0.29 0.34,0.28 c 0,0.05 3.07,2.69 4.87,4.49 4.74,4.64 5.83,7.03 5.83,7.21 0,0.5 -0.45,0.5 -0.55,0.5 -0.34,0 -0.5,-0.09 -0.75,-0.54 -1.48,-2.39 -2.53,-3.19 -3.73,-3.19 -1.21,0 -1.8,0.75 -2.55,1.59 -0.94,1.16 -1.78,2.14 -3.44,2.14 -3.73,0 -6.01,-4.62 -6.01,-5.67 0,-0.25 0.14,-0.54 0.59,-0.54 0.46,0 0.55,0.25 0.64,0.54 0.96,2.3 3.85,2.35 4.24,2.35 1.04,0 2,-0.36 3.14,-0.75 2,-0.75 2.54,-0.75 3.84,-0.75 -1.8,-2.14 -5.98,-5.74 -6.92,-6.53 l -4.48,-4.18 c -3.4,-3.34 -5.15,-6.18 -5.15,-6.53 0,-0.5 0.5,-0.5 0.6,-0.5 0.4,0 0.5,0.1 0.79,0.64 1.16,1.75 2.65,3.1 4.24,3.1 1.16,0 1.66,-0.46 2.89,-1.89 0.86,-1.05 1.75,-1.85 3.19,-1.85 4.94,0 7.83,6.33 7.83,7.67 0,0.25 -0.21,0.5 -0.6,0.5 -0.45,0 -0.55,-0.29 -0.7,-0.65 -1.14,-3.24 -4.33,-4.17 -5.99,-4.17 -0.98,0 -1.89,0.29 -2.93,0.64 -1.69,0.64 -2.44,0.84 -3.49,0.84 -0.09,0 -0.89,0 -1.34,-0.14 z"
           inkscape:connector-curvature="0"
           style="fill:#000000;stroke-width:0" /><path
           id="path1882"
           d="m 540.14,406.25 -0.01,0.3 -0.01,0.3 -0.02,0.29 -0.02,0.28 -0.03,0.27 -0.04,0.26 -0.04,0.26 -0.06,0.24 -0.05,0.24 -0.07,0.23 -0.07,0.22 -0.08,0.21 -0.08,0.2 -0.09,0.19 -0.09,0.19 -0.1,0.17 -0.11,0.16 -0.11,0.16 -0.12,0.14 -0.12,0.13 -0.13,0.13 -0.14,0.11 -0.14,0.1 -0.14,0.1 -0.15,0.08 -0.15,0.07 -0.16,0.06 -0.16,0.05 -0.17,0.04 -0.17,0.03 -0.18,0.01 -0.18,0.01 c -1.64,0 -2.64,-1.25 -2.64,-2.64 0,-1.34 1,-2.64 2.64,-2.64 0.59,0 1.25,0.2 1.75,0.64 0.14,0.11 0.2,0.16 0.25,0.16 0.05,0 0.09,-0.05 0.09,-0.75 0,-3.69 -1.73,-6.68 -3.39,-8.32 -0.55,-0.54 -0.55,-0.65 -0.55,-0.79 0,-0.36 0.25,-0.55 0.5,-0.55 0.55,0 4.54,3.83 4.54,9.66 z"
           inkscape:connector-curvature="0"
           style="fill:#000000;stroke-width:0" /><path
           id="path1884"
           d="m 570.75,436.34 0.04,0.16 0.04,0.16 0.04,0.15 0.04,0.15 0.04,0.13 0.04,0.13 0.05,0.13 0.06,0.11 0.06,0.12 0.06,0.1 0.07,0.1 0.08,0.09 0.09,0.09 0.1,0.08 0.11,0.08 0.12,0.07 0.14,0.06 0.14,0.06 0.17,0.06 0.17,0.05 0.1,0.02 0.09,0.02 0.11,0.02 0.1,0.02 0.11,0.02 0.12,0.02 0.12,0.02 0.13,0.01 0.13,0.01 0.13,0.02 0.14,0.01 0.15,0.01 0.15,0.01 0.15,0.01 0.17,0.01 0.16,0.01 h 0.18 l 0.17,0.01 h 0.19 l 0.19,0.01 h 0.2 0.2 0.21 0.22 c 1.48,0 1.89,0 1.89,0.96 0,0.59 -0.55,0.59 -0.8,0.59 -1.65,0 -5.73,-0.16 -7.37,-0.16 -1.5,0 -5.15,0.16 -6.63,0.16 -0.36,0 -0.95,0 -0.95,-1 0,-0.55 0.45,-0.55 1.39,-0.55 0.11,0 1.04,0 1.91,-0.09 0.88,-0.11 1.34,-0.16 1.34,-0.8 0,-0.2 -0.06,-0.36 -0.21,-0.95 l -6.67,-26.75 c -0.5,-1.95 -0.61,-2.34 -4.54,-2.34 -0.85,0 -1.35,0 -1.35,-1 0,-0.55 0.46,-0.55 1.35,-0.55 h 23.08 c 1.18,0 1.23,0 1.54,0.84 l 3.92,10.77 c 0.21,0.55 0.21,0.64 0.21,0.7 0,0.19 -0.14,0.55 -0.6,0.55 -0.45,0 -0.5,-0.25 -0.84,-1.05 -1.7,-4.59 -3.89,-10.26 -12.52,-10.26 h -4.67 c -0.7,0 -0.79,0 -1.09,0.04 -0.5,0.05 -0.66,0.1 -0.66,0.5 0,0.14 0,0.25 0.25,1.14 z"
           inkscape:connector-curvature="0"
           style="fill:#000000;stroke-width:0" /><path
           id="path1886"
           d="m 597.33,432.87 0.26,0.12 0.26,0.11 0.24,0.11 0.24,0.1 0.23,0.1 0.22,0.1 0.21,0.09 0.21,0.09 0.2,0.08 0.19,0.08 0.18,0.08 0.18,0.07 0.16,0.08 0.17,0.06 0.16,0.07 0.15,0.06 0.14,0.06 0.14,0.06 0.13,0.06 0.13,0.05 0.13,0.06 0.12,0.05 0.11,0.05 0.11,0.04 0.11,0.05 0.1,0.04 0.19,0.09 0.18,0.08 0.16,0.08 c 0.68,0.27 0.99,0.41 0.99,1.08 0,0.59 -0.45,1.11 -1.08,1.11 -0.25,0 -0.31,0 -0.73,-0.31 l -4.74,-3.17 0.52,5.15 c 0.08,0.63 0,1.5 -1.05,1.5 -0.42,0 -1.08,-0.28 -1.08,-1.04 0,-0.32 0.14,-1.36 0.17,-1.71 0.08,-0.59 0.32,-3.11 0.39,-3.9 l -4.7,3.17 c -0.36,0.2 -0.45,0.31 -0.76,0.31 -0.65,0 -1.1,-0.52 -1.1,-1.11 0,-0.7 0.42,-0.87 0.74,-1.01 l 5.26,-2.19 c -2.86,-1.27 -4.14,-1.75 -5.01,-2.17 -0.66,-0.29 -0.99,-0.43 -0.99,-1.08 0,-0.6 0.45,-1.11 1.1,-1.11 0.23,0 0.31,0 0.71,0.31 l 4.75,3.17 -0.56,-5.61 c 0,-0.76 0.66,-1.04 1.08,-1.04 0.42,0 1.08,0.28 1.08,1.04 0,0.32 -0.14,1.36 -0.17,1.71 -0.07,0.59 -0.32,3.09 -0.38,3.9 l 4.17,-2.79 c 0.91,-0.69 0.99,-0.69 1.3,-0.69 0.63,0 1.08,0.51 1.08,1.11 0,0.7 -0.42,0.87 -0.74,1.01 z"
           inkscape:connector-curvature="0"
           style="fill:#000000;stroke-width:0" /><path
           id="path1888"
           d="m 630.88,441.67 0.01,0.03 0.01,0.03 0.01,0.03 0.01,0.03 0.01,0.02 0.01,0.03 0.01,0.03 0.01,0.02 0.01,0.05 0.02,0.05 0.02,0.04 0.01,0.05 0.01,0.04 0.01,0.04 0.01,0.03 0.01,0.04 0.01,0.03 0.01,0.03 0.01,0.03 v 0.02 l 0.01,0.03 v 0.02 l 0.01,0.02 v 0.02 0.02 l 0.01,0.02 v 0.01 0.02 0.01 0.01 0.01 0.01 0.01 0.01 0.01 0 c 0,0.55 -0.45,0.99 -1,0.99 -0.34,0 -0.7,-0.14 -0.84,-0.44 l -17.3,-47.48 c -0.25,-0.64 -0.25,-0.85 -0.25,-0.89 0,-0.55 0.46,-1 1,-1 0.66,0 0.8,0.34 1.1,1.18 z"
           inkscape:connector-curvature="0"
           style="fill:#000000;stroke-width:0" /><path
           id="path1890"
           d="m 652.6,436.34 0.04,0.16 0.04,0.16 0.04,0.15 0.04,0.15 0.04,0.13 0.05,0.13 0.04,0.13 0.06,0.11 0.06,0.12 0.06,0.1 0.07,0.1 0.08,0.09 0.09,0.09 0.1,0.08 0.11,0.08 0.12,0.07 0.14,0.06 0.15,0.06 0.16,0.06 0.17,0.05 0.1,0.02 0.1,0.02 0.1,0.02 0.1,0.02 0.12,0.02 0.11,0.02 0.12,0.02 0.13,0.01 0.13,0.01 0.13,0.02 0.14,0.01 0.15,0.01 0.15,0.01 0.16,0.01 0.16,0.01 0.16,0.01 h 0.18 l 0.18,0.01 h 0.18 l 0.19,0.01 h 0.2 0.2 0.21 0.22 c 1.48,0 1.89,0 1.89,0.96 0,0.59 -0.55,0.59 -0.8,0.59 -1.65,0 -5.73,-0.16 -7.37,-0.16 -1.5,0 -5.14,0.16 -6.63,0.16 -0.36,0 -0.95,0 -0.95,-1 0,-0.55 0.45,-0.55 1.39,-0.55 0.11,0 1.05,0 1.91,-0.09 0.89,-0.11 1.34,-0.16 1.34,-0.8 0,-0.2 -0.06,-0.36 -0.2,-0.95 l -6.68,-26.75 c -0.5,-1.95 -0.6,-2.34 -4.54,-2.34 -0.84,0 -1.34,0 -1.34,-1 0,-0.55 0.45,-0.55 1.34,-0.55 h 23.08 c 1.18,0 1.23,0 1.54,0.84 l 3.92,10.77 c 0.21,0.55 0.21,0.64 0.21,0.7 0,0.19 -0.14,0.55 -0.59,0.55 -0.46,0 -0.5,-0.25 -0.85,-1.05 -1.7,-4.59 -3.89,-10.26 -12.52,-10.26 h -4.67 c -0.7,0 -0.79,0 -1.09,0.04 -0.5,0.05 -0.66,0.1 -0.66,0.5 0,0.14 0,0.25 0.25,1.14 z"
           inkscape:connector-curvature="0"
           style="fill:#000000;stroke-width:0" /><path
           id="path1892"
           d="m 682.3,418.65 v 0.37 0.39 l -0.01,0.39 -0.01,0.41 -0.04,0.84 -0.06,0.88 -0.09,0.92 -0.1,0.95 -0.14,0.97 -0.16,1.01 -0.2,1.02 -0.23,1.03 -0.26,1.05 -0.31,1.06 -0.35,1.07 -0.39,1.07 -0.21,0.53 -0.23,0.53 -0.24,0.53 -0.25,0.53 c -2.98,6.12 -7.26,9.36 -7.76,9.36 -0.3,0 -0.5,-0.19 -0.5,-0.49 0,-0.15 0,-0.25 0.94,-1.15 4.89,-4.92 7.73,-12.85 7.73,-23.27 0,-8.51 -1.84,-17.28 -8.03,-23.56 -0.64,-0.59 -0.64,-0.7 -0.64,-0.84 0,-0.3 0.2,-0.5 0.5,-0.5 0.5,0 4.97,3.39 7.92,9.71 2.53,5.47 3.12,11 3.12,15.19 z"
           inkscape:connector-curvature="0"
           style="fill:#000000;stroke-width:0" /><path
           id="path1894"
           d="m 697.35,440.65 0.02,0.06 0.03,0.05 0.02,0.05 0.02,0.05 0.02,0.04 0.02,0.05 0.02,0.04 0.02,0.04 0.01,0.05 0.01,0.04 0.02,0.03 0.01,0.04 0.01,0.04 0.01,0.03 0.01,0.04 0.01,0.03 0.01,0.03 v 0.03 l 0.01,0.03 0.01,0.03 v 0.03 0.03 l 0.01,0.03 v 0.02 l 0.01,0.06 v 0.05 0.04 0.05 c 0,1.08 -0.98,1.92 -2.06,1.92 -1.33,0 -1.74,-1.09 -1.91,-1.64 l -4.61,-15.09 c -0.03,-0.06 -0.17,-0.52 -0.17,-0.56 0,-0.41 1.08,-0.77 1.36,-0.77 0.25,0 0.28,0.08 0.51,0.59 z"
           inkscape:connector-curvature="0"
           style="fill:#000000;stroke-width:0" /></g>    </g>
    <g
       id="g2287"
       transform="matrix(0.66633094,0,0,0.71060248,-7.7599415,100.03559)">
      <g
         id="g2285"
         transform="matrix(0.3,0,0,-0.3,-52.5,222.75)"
         xml:space="preserve"
         stroke-miterlimit="10.433"
         font-style="normal"
         font-variant="normal"
         font-weight="normal"
         font-stretch="normal"
         font-size-adjust="none"
         letter-spacing="normal"
         word-spacing="normal"
         style="font-style:normal;font-variant:normal;font-weight:normal;font-stretch:normal;letter-spacing:normal;word-spacing:normal;text-anchor:start;fill:none;fill-opacity:1;fill-rule:evenodd;stroke:#000000;stroke-linecap:butt;stroke-linejoin:miter;stroke-miterlimit:10.43299961;stroke-dasharray:none;stroke-dashoffset:0;stroke-opacity:1"><path
           d="m 480.2,438.73 -0.8,0.75 c 0,-0.05 -1.89,-2.39 -4.08,-2.39 -1.14,0 -2.39,0.75 -3.23,1.25 -1.34,0.8 -2.25,1.14 -3.09,1.14 -1.89,0 -2.85,-1.09 -5.38,-3.89 l 0.8,-0.75 c 0,0.06 1.89,2.39 4.08,2.39 1.14,0 2.39,-0.73 3.23,-1.23 1.34,-0.8 2.25,-1.16 3.09,-1.16 1.89,0 2.85,1.11 5.38,3.89 z"
           id="path2279"
           inkscape:connector-curvature="0"
           style="fill:#000000;stroke-width:0" /><path
           d="m 485.66,424.73 -0.01,0.21 v 0.2 l -0.02,0.2 -0.01,0.19 -0.03,0.18 -0.02,0.18 -0.03,0.17 -0.04,0.16 -0.04,0.16 -0.04,0.16 -0.05,0.14 -0.05,0.14 -0.06,0.13 -0.06,0.13 -0.06,0.12 -0.07,0.12 -0.06,0.1 -0.08,0.1 -0.07,0.1 -0.08,0.09 -0.08,0.08 -0.08,0.07 -0.09,0.07 -0.09,0.06 -0.09,0.05 -0.09,0.05 -0.09,0.04 -0.1,0.03 -0.1,0.02 -0.1,0.02 -0.1,0.01 h -0.1 c -1.29,0 -2.64,-1.18 -2.64,-2.34 0,-0.48 0.24,-1.03 0.74,-1.48 0.85,-0.75 1.75,-2.1 1.75,-4.19 0,-2 -0.96,-4.83 -2.49,-7.13 -1.5,-2.14 -3.34,-3.82 -5.69,-3.82 -2.84,0 -4.39,1.78 -4.82,4.46 0.54,1.3 1.68,4.49 1.68,5.9 0,0.59 -0.25,1.09 -0.89,1.09 -0.4,0 -0.95,-0.11 -1.34,-0.84 -0.55,-1 -1.16,-4.24 -1.16,-6.04 -1.64,-2.34 -3.62,-4.57 -6.76,-4.57 -3.3,0 -4.35,2.93 -4.35,5.71 0,6.24 5.1,11.47 5.1,12.11 0,0.55 -0.41,0.96 -0.96,0.96 -0.65,0 -1,-0.66 -1.29,-1.11 -2.55,-3.69 -4.44,-9.61 -4.44,-14.14 0,-3.44 1.16,-7.13 5.23,-7.13 3.54,0 5.88,2.49 7.68,5.24 0.45,-2.89 2.39,-5.24 5.48,-5.24 3.89,0 6.28,3.03 8.06,6.78 1.21,2.44 3.1,9.21 3.1,12.3 z"
           id="path2281"
           inkscape:connector-curvature="0"
           style="fill:#000000;stroke-width:0" /><path
           d="m 498.39,440.65 0.03,0.06 0.02,0.05 0.02,0.05 0.03,0.05 0.02,0.04 0.01,0.05 0.02,0.04 0.02,0.04 0.01,0.05 0.02,0.04 0.01,0.03 0.01,0.04 0.01,0.04 0.01,0.03 0.01,0.04 0.01,0.03 0.01,0.03 0.01,0.03 v 0.03 l 0.01,0.03 v 0.03 l 0.01,0.03 v 0.03 0.02 l 0.01,0.06 v 0.05 0.04 0.05 c 0,1.08 -0.98,1.92 -2.06,1.92 -1.33,0 -1.73,-1.09 -1.91,-1.64 l -4.61,-15.09 c -0.03,-0.06 -0.17,-0.52 -0.17,-0.56 0,-0.41 1.08,-0.77 1.36,-0.77 0.25,0 0.28,0.08 0.52,0.59 z"
           id="path2283"
           inkscape:connector-curvature="0"
           style="fill:#000000;stroke-width:0" /></g>    </g>
    <g
       id="g2423"
       transform="matrix(0.66633094,0,0,0.71060248,84.662105,174.86382)">
      <g
         word-spacing="normal"
         letter-spacing="normal"
         font-size-adjust="none"
         font-stretch="normal"
         font-weight="normal"
         font-variant="normal"
         font-style="normal"
         stroke-miterlimit="10.433"
         xml:space="preserve"
         transform="matrix(0.3,0,0,-0.3,-52.5,222.75)"
         id="g2421"
         style="font-style:normal;font-variant:normal;font-weight:normal;font-stretch:normal;letter-spacing:normal;word-spacing:normal;text-anchor:start;fill:none;fill-opacity:1;fill-rule:evenodd;stroke:#000000;stroke-linecap:butt;stroke-linejoin:miter;stroke-miterlimit:10.43299961;stroke-dasharray:none;stroke-dashoffset:0;stroke-opacity:1"><path
           id="path2415"
           d="m 479.24,438.73 -0.8,0.75 c 0,-0.05 -1.89,-2.39 -4.08,-2.39 -1.14,0 -2.39,0.75 -3.23,1.25 -1.34,0.8 -2.25,1.14 -3.09,1.14 -1.9,0 -2.85,-1.09 -5.38,-3.89 l 0.8,-0.75 c 0,0.06 1.89,2.39 4.08,2.39 1.14,0 2.39,-0.73 3.23,-1.23 1.34,-0.8 2.25,-1.16 3.09,-1.16 1.89,0 2.85,1.11 5.38,3.89 z"
           inkscape:connector-curvature="0"
           style="fill:#000000;stroke-width:0" /><path
           id="path2417"
           d="m 462.14,410.34 0.25,0.27 0.24,0.25 0.24,0.25 0.22,0.24 0.23,0.23 0.21,0.22 0.21,0.22 0.21,0.21 0.2,0.2 0.2,0.19 0.19,0.19 0.19,0.19 0.18,0.17 0.18,0.18 0.35,0.33 0.34,0.32 0.34,0.3 0.33,0.29 0.32,0.29 0.65,0.56 0.32,0.29 0.34,0.28 c 0,0.05 3.08,2.69 4.87,4.49 4.74,4.64 5.83,7.03 5.83,7.21 0,0.5 -0.45,0.5 -0.55,0.5 -0.34,0 -0.5,-0.09 -0.75,-0.54 -1.48,-2.39 -2.53,-3.19 -3.73,-3.19 -1.2,0 -1.8,0.75 -2.55,1.59 -0.93,1.16 -1.78,2.14 -3.43,2.14 -3.74,0 -6.02,-4.62 -6.02,-5.67 0,-0.25 0.14,-0.54 0.59,-0.54 0.46,0 0.55,0.25 0.64,0.54 0.96,2.3 3.85,2.35 4.24,2.35 1.05,0 2,-0.36 3.14,-0.75 2,-0.75 2.55,-0.75 3.84,-0.75 -1.79,-2.14 -5.98,-5.74 -6.92,-6.53 l -4.48,-4.18 c -3.39,-3.34 -5.14,-6.18 -5.14,-6.53 0,-0.5 0.5,-0.5 0.59,-0.5 0.41,0 0.5,0.1 0.8,0.64 1.15,1.75 2.64,3.1 4.23,3.1 1.16,0 1.66,-0.46 2.89,-1.89 0.86,-1.05 1.75,-1.85 3.19,-1.85 4.94,0 7.83,6.33 7.83,7.67 0,0.25 -0.21,0.5 -0.6,0.5 -0.45,0 -0.54,-0.29 -0.7,-0.65 -1.14,-3.24 -4.33,-4.17 -5.98,-4.17 -0.99,0 -1.89,0.29 -2.94,0.64 -1.69,0.64 -2.44,0.84 -3.49,0.84 -0.09,0 -0.89,0 -1.34,-0.14 z"
           inkscape:connector-curvature="0"
           style="fill:#000000;stroke-width:0" /><path
           id="path2419"
           d="m 490.95,440.65 0.02,0.06 0.03,0.05 0.02,0.05 0.02,0.05 0.02,0.04 0.02,0.05 0.02,0.04 0.02,0.04 0.01,0.05 0.02,0.04 0.01,0.03 0.01,0.04 0.01,0.04 0.01,0.03 0.01,0.04 0.01,0.03 0.01,0.03 0.01,0.03 v 0.03 l 0.01,0.03 v 0.03 l 0.01,0.03 v 0.03 0.02 l 0.01,0.06 v 0.05 0.04 0.05 c 0,1.08 -0.98,1.92 -2.06,1.92 -1.33,0 -1.74,-1.09 -1.91,-1.64 l -4.61,-15.09 c -0.03,-0.06 -0.17,-0.52 -0.17,-0.56 0,-0.41 1.08,-0.77 1.36,-0.77 0.25,0 0.28,0.08 0.52,0.59 z"
           inkscape:connector-curvature="0"
           style="fill:#000000;stroke-width:0" /></g>    </g>
    <path
       style="fill:none;stroke:#000000;stroke-width:0.565;stroke-linecap:butt;stroke-linejoin:miter;stroke-opacity:1;stroke-miterlimit:4;stroke-dasharray:0.565,1.13;stroke-dashoffset:0"
       d="m 144.73455,233.09383 0.39816,-60.72082 -86.203651,-1.59268"
       id="path2494"
       inkscape:connector-curvature="0"
       sodipodi:nodetypes="cc" />
  </g>
</svg>
