<?xml version="1.0" encoding="UTF-8" standalone="no"?>
<svg
   xmlns:dc="http://purl.org/dc/elements/1.1/"
   xmlns:cc="http://creativecommons.org/ns#"
   xmlns:rdf="http://www.w3.org/1999/02/22-rdf-syntax-ns#"
   xmlns:svg="http://www.w3.org/2000/svg"
   xmlns="http://www.w3.org/2000/svg"
   xmlns:xlink="http://www.w3.org/1999/xlink"
   xmlns:sodipodi="http://sodipodi.sourceforge.net/DTD/sodipodi-0.dtd"
   xmlns:inkscape="http://www.inkscape.org/namespaces/inkscape"
   width="297mm"
   height="210mm"
   viewBox="0 0 297 210"
   version="1.1"
   id="svg8"
   inkscape:version="1.0.1 (3bc2e813f5, 2020-09-07)"
   sodipodi:docname="wrk4_3.svg"
   inkscape:export-filename="C:\Users\PHBS\Desktop\Undergrad Trade\Worksheets\figs\wrk4_3.png"
   inkscape:export-xdpi="96"
   inkscape:export-ydpi="96">
  <sodipodi:namedview
     id="base"
     pagecolor="#ffffff"
     bordercolor="#666666"
     borderopacity="1.0"
     inkscape:pageopacity="0.0"
     inkscape:pageshadow="2"
     inkscape:zoom="1.3289991"
     inkscape:cx="663.66497"
     inkscape:cy="425.23041"
     inkscape:document-units="mm"
     inkscape:current-layer="layer1"
     showgrid="false"
     inkscape:window-width="1920"
     inkscape:window-height="1017"
     inkscape:window-x="-8"
     inkscape:window-y="-8"
     inkscape:window-maximized="1"
     showguides="false"
     inkscape:document-rotation="0" />
  <defs
     id="defs2">
    <rect
       x="173.99999"
       y="240.0961"
       width="18.913043"
       height="8.162471"
       id="rect1068" />
    <rect
       x="99.741414"
       y="148.71624"
       width="26.47826"
       height="18.713958"
       id="rect1062" />
    <rect
       x="145.3318"
       y="185.34782"
       width="40.812355"
       height="34.043477"
       id="rect854" />
    <g
       id="g2484">
      <symbol
         overflow="visible"
         id="symbol9310">
        <path
           style="stroke:none;"
           d=""
           id="path2281" />
      </symbol>
      <symbol
         overflow="visible"
         id="symbol2413">
        <path
           style="stroke:none;"
           d="M 5.953125 -5.671875 L 6.09375 -5.8125 C 6.390625 -6.109375 6.71875 -6.453125 7.390625 -6.5 C 7.5 -6.515625 7.59375 -6.515625 7.59375 -6.6875 C 7.59375 -6.765625 7.546875 -6.8125 7.46875 -6.8125 C 7.203125 -6.8125 6.921875 -6.78125 6.65625 -6.78125 C 6.3125 -6.78125 5.96875 -6.8125 5.65625 -6.8125 C 5.59375 -6.8125 5.46875 -6.8125 5.46875 -6.625 C 5.46875 -6.515625 5.5625 -6.5 5.609375 -6.5 C 5.6875 -6.5 5.96875 -6.484375 5.96875 -6.265625 C 5.96875 -6.09375 5.734375 -5.84375 5.703125 -5.796875 L 3.390625 -3.125 L 2.296875 -6.09375 C 2.234375 -6.234375 2.234375 -6.25 2.234375 -6.265625 C 2.234375 -6.5 2.71875 -6.5 2.828125 -6.5 C 2.953125 -6.5 3.0625 -6.5 3.0625 -6.703125 C 3.0625 -6.8125 2.9375 -6.8125 2.90625 -6.8125 C 2.625 -6.8125 1.9375 -6.78125 1.65625 -6.78125 C 1.40625 -6.78125 0.78125 -6.8125 0.53125 -6.8125 C 0.484375 -6.8125 0.34375 -6.8125 0.34375 -6.609375 C 0.34375 -6.5 0.453125 -6.5 0.578125 -6.5 C 1.171875 -6.5 1.21875 -6.40625 1.3125 -6.15625 L 2.53125 -2.875 C 2.546875 -2.84375 2.578125 -2.734375 2.578125 -2.71875 C 2.578125 -2.6875 2.171875 -1.078125 2.125 -0.890625 C 2 -0.34375 1.984375 -0.3125 1.1875 -0.3125 C 1 -0.3125 0.921875 -0.3125 0.921875 -0.109375 C 0.921875 0 1.03125 0 1.0625 0 C 1.328125 0 2.03125 -0.03125 2.3125 -0.03125 C 2.59375 -0.03125 3.3125 0 3.59375 0 C 3.65625 0 3.78125 0 3.78125 -0.203125 C 3.78125 -0.3125 3.6875 -0.3125 3.5 -0.3125 C 3.484375 -0.3125 3.296875 -0.3125 3.125 -0.328125 C 2.90625 -0.34375 2.84375 -0.375 2.84375 -0.484375 C 2.84375 -0.5625 2.9375 -0.90625 2.984375 -1.109375 L 3.34375 -2.515625 C 3.390625 -2.71875 3.40625 -2.734375 3.484375 -2.828125 Z M 5.953125 -5.671875 "
           id="path483" />
      </symbol>
      <symbol
         overflow="visible"
         id="symbol2327">
        <path
           style="stroke:none;"
           d=""
           id="path5769" />
      </symbol>
      <symbol
         overflow="visible"
         id="symbol7685">
        <path
           style="stroke:none;"
           d="M 2.390625 -2.25 L 3.125 -2.25 C 3.65625 -2.25 3.75 -2.15625 3.75 -1.9375 C 3.75 -1.828125 3.75 -1.8125 3.703125 -1.609375 C 3.6875 -1.578125 3.671875 -1.546875 3.671875 -1.53125 C 3.671875 -1.46875 3.734375 -1.421875 3.796875 -1.421875 C 3.890625 -1.421875 3.890625 -1.46875 3.9375 -1.59375 L 4.3125 -3.0625 C 4.3125 -3.09375 4.328125 -3.1875 4.328125 -3.203125 C 4.328125 -3.28125 4.28125 -3.3125 4.21875 -3.3125 C 4.125 -3.3125 4.109375 -3.265625 4.078125 -3.140625 C 3.9375 -2.59375 3.734375 -2.5 3.140625 -2.5 L 2.453125 -2.5 L 2.890625 -4.25 C 2.9375 -4.453125 2.953125 -4.484375 3.234375 -4.484375 L 4.3125 -4.484375 C 5.234375 -4.484375 5.40625 -4.265625 5.40625 -3.671875 C 5.40625 -3.453125 5.375 -3.296875 5.375 -3.25 C 5.375 -3.1875 5.40625 -3.125 5.5 -3.125 C 5.609375 -3.125 5.609375 -3.1875 5.625 -3.3125 L 5.75 -4.515625 C 5.765625 -4.734375 5.71875 -4.734375 5.546875 -4.734375 L 1.828125 -4.734375 C 1.6875 -4.734375 1.609375 -4.734375 1.609375 -4.578125 C 1.609375 -4.484375 1.6875 -4.484375 1.828125 -4.484375 C 1.828125 -4.484375 1.96875 -4.484375 2.09375 -4.46875 C 2.234375 -4.453125 2.25 -4.4375 2.25 -4.375 C 2.25 -4.328125 2.234375 -4.25 2.21875 -4.21875 L 1.3125 -0.578125 C 1.234375 -0.296875 1.234375 -0.25 0.6875 -0.25 C 0.578125 -0.25 0.484375 -0.25 0.484375 -0.109375 C 0.484375 -0.03125 0.53125 0 0.59375 0 C 0.796875 0 1.3125 -0.03125 1.515625 -0.03125 L 2.046875 -0.015625 C 2.234375 -0.015625 2.421875 0 2.59375 0 C 2.640625 0 2.75 0 2.75 -0.15625 C 2.75 -0.25 2.671875 -0.25 2.515625 -0.25 C 2.5 -0.25 2.328125 -0.25 2.140625 -0.265625 C 2 -0.28125 1.9375 -0.28125 1.9375 -0.390625 C 1.9375 -0.40625 1.9375 -0.4375 1.953125 -0.515625 Z M 2.390625 -2.25 "
           id="path5457" />
      </symbol>
    </g>
    <g
       id="g1296">
      <symbol
         overflow="visible"
         id="symbol1764">
        <path
           style="stroke:none;"
           d=""
           id="path7994" />
      </symbol>
      <symbol
         overflow="visible"
         id="symbol5867">
        <path
           style="stroke:none;"
           d="M 5.953125 -5.671875 L 6.09375 -5.8125 C 6.390625 -6.109375 6.71875 -6.453125 7.390625 -6.5 C 7.5 -6.515625 7.59375 -6.515625 7.59375 -6.6875 C 7.59375 -6.765625 7.546875 -6.8125 7.46875 -6.8125 C 7.203125 -6.8125 6.921875 -6.78125 6.65625 -6.78125 C 6.3125 -6.78125 5.96875 -6.8125 5.65625 -6.8125 C 5.59375 -6.8125 5.46875 -6.8125 5.46875 -6.625 C 5.46875 -6.515625 5.5625 -6.5 5.609375 -6.5 C 5.6875 -6.5 5.96875 -6.484375 5.96875 -6.265625 C 5.96875 -6.09375 5.734375 -5.84375 5.703125 -5.796875 L 3.390625 -3.125 L 2.296875 -6.09375 C 2.234375 -6.234375 2.234375 -6.25 2.234375 -6.265625 C 2.234375 -6.5 2.71875 -6.5 2.828125 -6.5 C 2.953125 -6.5 3.0625 -6.5 3.0625 -6.703125 C 3.0625 -6.8125 2.9375 -6.8125 2.90625 -6.8125 C 2.625 -6.8125 1.9375 -6.78125 1.65625 -6.78125 C 1.40625 -6.78125 0.78125 -6.8125 0.53125 -6.8125 C 0.484375 -6.8125 0.34375 -6.8125 0.34375 -6.609375 C 0.34375 -6.5 0.453125 -6.5 0.578125 -6.5 C 1.171875 -6.5 1.21875 -6.40625 1.3125 -6.15625 L 2.53125 -2.875 C 2.546875 -2.84375 2.578125 -2.734375 2.578125 -2.71875 C 2.578125 -2.6875 2.171875 -1.078125 2.125 -0.890625 C 2 -0.34375 1.984375 -0.3125 1.1875 -0.3125 C 1 -0.3125 0.921875 -0.3125 0.921875 -0.109375 C 0.921875 0 1.03125 0 1.0625 0 C 1.328125 0 2.03125 -0.03125 2.3125 -0.03125 C 2.59375 -0.03125 3.3125 0 3.59375 0 C 3.65625 0 3.78125 0 3.78125 -0.203125 C 3.78125 -0.3125 3.6875 -0.3125 3.5 -0.3125 C 3.484375 -0.3125 3.296875 -0.3125 3.125 -0.328125 C 2.90625 -0.34375 2.84375 -0.375 2.84375 -0.484375 C 2.84375 -0.5625 2.9375 -0.90625 2.984375 -1.109375 L 3.34375 -2.515625 C 3.390625 -2.71875 3.40625 -2.734375 3.484375 -2.828125 Z M 5.953125 -5.671875 "
           id="path1659" />
      </symbol>
      <symbol
         overflow="visible"
         id="symbol7935">
        <path
           style="stroke:none;"
           d=""
           id="path5391" />
      </symbol>
      <symbol
         overflow="visible"
         id="symbol5013">
        <path
           style="stroke:none;"
           d="M 7.109375 -4.1875 C 7.171875 -4.453125 7.1875 -4.515625 7.703125 -4.515625 C 7.859375 -4.515625 7.9375 -4.515625 7.9375 -4.65625 C 7.9375 -4.765625 7.859375 -4.765625 7.734375 -4.765625 L 6.78125 -4.765625 C 6.578125 -4.765625 6.578125 -4.75 6.484375 -4.625 L 3.796875 -0.640625 L 3.109375 -4.578125 C 3.078125 -4.75 3.078125 -4.765625 2.859375 -4.765625 L 1.875 -4.765625 C 1.734375 -4.765625 1.640625 -4.765625 1.640625 -4.609375 C 1.640625 -4.515625 1.71875 -4.515625 1.875 -4.515625 C 1.984375 -4.515625 2.015625 -4.515625 2.140625 -4.5 C 2.28125 -4.484375 2.296875 -4.46875 2.296875 -4.390625 C 2.296875 -4.390625 2.296875 -4.34375 2.265625 -4.25 L 1.390625 -0.75 C 1.328125 -0.515625 1.21875 -0.265625 0.65625 -0.25 C 0.609375 -0.25 0.515625 -0.25 0.515625 -0.09375 C 0.515625 -0.09375 0.515625 0 0.625 0 C 0.828125 0 1.125 -0.03125 1.34375 -0.03125 C 1.515625 -0.03125 1.921875 0 2.078125 0 C 2.125 0 2.21875 0 2.21875 -0.15625 C 2.21875 -0.25 2.125 -0.25 2.0625 -0.25 C 1.625 -0.265625 1.625 -0.453125 1.625 -0.546875 C 1.625 -0.578125 1.625 -0.609375 1.65625 -0.71875 L 2.578125 -4.421875 L 3.328125 -0.1875 C 3.359375 -0.0625 3.359375 0 3.46875 0 C 3.5625 0 3.625 -0.078125 3.671875 -0.15625 L 6.59375 -4.5 L 6.609375 -4.484375 L 5.625 -0.546875 C 5.5625 -0.3125 5.546875 -0.25 5.015625 -0.25 C 4.890625 -0.25 4.796875 -0.25 4.796875 -0.09375 C 4.796875 -0.09375 4.796875 0 4.90625 0 C 5.046875 0 5.203125 -0.015625 5.34375 -0.015625 C 5.484375 -0.015625 5.640625 -0.03125 5.78125 -0.03125 C 5.984375 -0.03125 6.46875 0 6.671875 0 C 6.703125 0 6.8125 0 6.8125 -0.15625 C 6.8125 -0.25 6.734375 -0.25 6.59375 -0.25 C 6.578125 -0.25 6.453125 -0.25 6.328125 -0.265625 C 6.171875 -0.28125 6.171875 -0.296875 6.171875 -0.375 C 6.171875 -0.40625 6.1875 -0.484375 6.1875 -0.515625 Z M 7.109375 -4.1875 "
           id="path5265" />
      </symbol>
    </g>
    <g
       id="g5637">
      <symbol
         overflow="visible"
         id="symbol759">
        <path
           style="stroke:none;"
           d=""
           id="path9777" />
      </symbol>
      <symbol
         overflow="visible"
         id="symbol9610">
        <path
           style="stroke:none;"
           d="M 3.015625 -3.15625 L 4.71875 -3.15625 C 6.125 -3.15625 7.515625 -4.1875 7.515625 -5.296875 C 7.515625 -6.078125 6.859375 -6.8125 5.546875 -6.8125 L 2.328125 -6.8125 C 2.140625 -6.8125 2.03125 -6.8125 2.03125 -6.625 C 2.03125 -6.5 2.109375 -6.5 2.3125 -6.5 C 2.4375 -6.5 2.625 -6.484375 2.734375 -6.484375 C 2.90625 -6.453125 2.953125 -6.4375 2.953125 -6.3125 C 2.953125 -6.28125 2.953125 -6.25 2.921875 -6.125 L 1.578125 -0.78125 C 1.484375 -0.390625 1.46875 -0.3125 0.671875 -0.3125 C 0.515625 -0.3125 0.40625 -0.3125 0.40625 -0.125 C 0.40625 0 0.515625 0 0.546875 0 C 0.828125 0 1.53125 -0.03125 1.8125 -0.03125 C 2.03125 -0.03125 2.25 -0.015625 2.453125 -0.015625 C 2.671875 -0.015625 2.890625 0 3.09375 0 C 3.171875 0 3.296875 0 3.296875 -0.203125 C 3.296875 -0.3125 3.203125 -0.3125 3.015625 -0.3125 C 2.65625 -0.3125 2.375 -0.3125 2.375 -0.484375 C 2.375 -0.546875 2.390625 -0.59375 2.40625 -0.65625 Z M 3.734375 -6.125 C 3.828125 -6.46875 3.84375 -6.5 4.28125 -6.5 L 5.234375 -6.5 C 6.0625 -6.5 6.59375 -6.234375 6.59375 -5.546875 C 6.59375 -5.15625 6.390625 -4.296875 6 -3.9375 C 5.5 -3.484375 4.90625 -3.40625 4.46875 -3.40625 L 3.0625 -3.40625 Z M 3.734375 -6.125 "
           id="path3379" />
      </symbol>
      <symbol
         overflow="visible"
         id="symbol4384">
        <path
           style="stroke:none;"
           d="M 3.015625 -3.234375 L 3.984375 -3.234375 C 4.734375 -3.234375 4.8125 -3.078125 4.8125 -2.796875 C 4.8125 -2.71875 4.8125 -2.609375 4.75 -2.296875 C 4.71875 -2.25 4.71875 -2.21875 4.71875 -2.1875 C 4.71875 -2.109375 4.78125 -2.078125 4.828125 -2.078125 C 4.9375 -2.078125 4.9375 -2.109375 4.984375 -2.28125 L 5.53125 -4.453125 C 5.5625 -4.5625 5.5625 -4.578125 5.5625 -4.609375 C 5.5625 -4.625 5.546875 -4.71875 5.4375 -4.71875 C 5.34375 -4.71875 5.328125 -4.671875 5.296875 -4.5 C 5.078125 -3.734375 4.859375 -3.546875 4 -3.546875 L 3.09375 -3.546875 L 3.734375 -6.078125 C 3.828125 -6.4375 3.84375 -6.46875 4.28125 -6.46875 L 5.59375 -6.46875 C 6.8125 -6.46875 7.046875 -6.140625 7.046875 -5.375 C 7.046875 -5.140625 7.046875 -5.109375 7.015625 -4.828125 C 7 -4.703125 7 -4.6875 7 -4.65625 C 7 -4.609375 7.03125 -4.53125 7.125 -4.53125 C 7.234375 -4.53125 7.234375 -4.59375 7.25 -4.78125 L 7.453125 -6.515625 C 7.484375 -6.78125 7.4375 -6.78125 7.1875 -6.78125 L 2.296875 -6.78125 C 2.109375 -6.78125 2 -6.78125 2 -6.578125 C 2 -6.46875 2.09375 -6.46875 2.28125 -6.46875 C 2.65625 -6.46875 2.9375 -6.46875 2.9375 -6.296875 C 2.9375 -6.25 2.9375 -6.234375 2.875 -6.046875 L 1.5625 -0.78125 C 1.46875 -0.390625 1.453125 -0.3125 0.65625 -0.3125 C 0.484375 -0.3125 0.375 -0.3125 0.375 -0.125 C 0.375 0 0.5 0 0.53125 0 C 0.8125 0 1.5625 -0.03125 1.84375 -0.03125 C 2.171875 -0.03125 3 0 3.328125 0 C 3.421875 0 3.53125 0 3.53125 -0.1875 C 3.53125 -0.265625 3.484375 -0.296875 3.484375 -0.296875 C 3.453125 -0.3125 3.421875 -0.3125 3.203125 -0.3125 C 2.984375 -0.3125 2.9375 -0.3125 2.6875 -0.328125 C 2.390625 -0.359375 2.359375 -0.40625 2.359375 -0.53125 C 2.359375 -0.546875 2.359375 -0.609375 2.40625 -0.75 Z M 3.015625 -3.234375 "
           id="path1088" />
      </symbol>
      <symbol
         overflow="visible"
         id="symbol4667">
        <path
           style="stroke:none;"
           d=""
           id="path8837" />
      </symbol>
      <symbol
         overflow="visible"
         id="symbol7996">
        <path
           style="stroke:none;"
           d="M 5.1875 -4.71875 C 5.1875 -4.84375 5.1875 -4.90625 5.09375 -4.90625 C 5.0625 -4.90625 5.03125 -4.90625 4.96875 -4.8125 L 4.59375 -4.28125 C 4.3125 -4.578125 3.828125 -4.90625 3.15625 -4.90625 C 1.6875 -4.90625 0.484375 -3.765625 0.484375 -2.390625 C 0.484375 -0.96875 1.71875 0.140625 3.15625 0.140625 C 4.390625 0.140625 5.1875 -0.78125 5.1875 -1.625 C 5.1875 -1.703125 5.171875 -1.765625 5.0625 -1.765625 C 5.03125 -1.765625 4.953125 -1.765625 4.953125 -1.671875 C 4.890625 -0.546875 3.9375 -0.109375 3.25 -0.109375 C 2.515625 -0.109375 1.234375 -0.5625 1.234375 -2.375 C 1.234375 -4.265625 2.578125 -4.640625 3.234375 -4.640625 C 3.9375 -4.640625 4.75 -4.1875 4.9375 -2.984375 C 4.953125 -2.90625 5.015625 -2.90625 5.0625 -2.90625 C 5.1875 -2.90625 5.1875 -2.953125 5.1875 -3.09375 Z M 5.1875 -4.71875 "
           id="path7142" />
      </symbol>
      <symbol
         overflow="visible"
         id="symbol4400">
        <path
           style="stroke:none;"
           d="M 3.59375 -2.109375 C 3.59375 -2.71875 3.296875 -3.078125 2.546875 -3.078125 C 1.921875 -3.078125 1.578125 -2.703125 1.421875 -2.4375 L 1.421875 -4.84375 L 0.375 -4.765625 L 0.375 -4.515625 C 0.84375 -4.515625 0.90625 -4.453125 0.90625 -4.125 L 0.90625 -0.546875 C 0.90625 -0.25 0.828125 -0.25 0.375 -0.25 L 0.375 0 C 0.390625 0 0.875 -0.03125 1.171875 -0.03125 C 1.421875 -0.03125 1.90625 0 1.96875 0 L 1.96875 -0.25 C 1.515625 -0.25 1.453125 -0.25 1.453125 -0.546875 L 1.453125 -1.8125 C 1.453125 -2.53125 2.03125 -2.875 2.484375 -2.875 C 2.96875 -2.875 3.03125 -2.5 3.03125 -2.140625 L 3.03125 -0.546875 C 3.03125 -0.25 2.96875 -0.25 2.515625 -0.25 L 2.515625 0 C 2.53125 0 3.015625 -0.03125 3.3125 -0.03125 C 3.5625 -0.03125 4.046875 0 4.109375 0 L 4.109375 -0.25 C 3.65625 -0.25 3.59375 -0.25 3.59375 -0.546875 Z M 3.59375 -2.109375 "
           id="path9515" />
      </symbol>
      <symbol
         overflow="visible"
         id="symbol7141">
        <path
           style="stroke:none;"
           d="M 1.46875 -4.296875 C 1.46875 -4.5 1.296875 -4.703125 1.0625 -4.703125 C 0.859375 -4.703125 0.671875 -4.53125 0.671875 -4.296875 C 0.671875 -4.046875 0.875 -3.890625 1.0625 -3.890625 C 1.296875 -3.890625 1.46875 -4.0625 1.46875 -4.296875 Z M 0.40625 -3 L 0.40625 -2.75 C 0.84375 -2.75 0.90625 -2.703125 0.90625 -2.359375 L 0.90625 -0.546875 C 0.90625 -0.25 0.84375 -0.25 0.390625 -0.25 L 0.390625 0 C 0.40625 0 0.890625 -0.03125 1.171875 -0.03125 C 1.421875 -0.03125 1.671875 -0.015625 1.90625 0 L 1.90625 -0.25 C 1.5 -0.25 1.4375 -0.25 1.4375 -0.546875 L 1.4375 -3.078125 Z M 0.40625 -3 "
           id="path3168" />
      </symbol>
      <symbol
         overflow="visible"
         id="symbol3059">
        <path
           style="stroke:none;"
           d="M 3.59375 -2.109375 C 3.59375 -2.71875 3.296875 -3.078125 2.546875 -3.078125 C 1.96875 -3.078125 1.609375 -2.765625 1.40625 -2.390625 L 1.40625 -3.078125 L 0.375 -3 L 0.375 -2.75 C 0.84375 -2.75 0.90625 -2.703125 0.90625 -2.359375 L 0.90625 -0.546875 C 0.90625 -0.25 0.828125 -0.25 0.375 -0.25 L 0.375 0 C 0.390625 0 0.875 -0.03125 1.171875 -0.03125 C 1.421875 -0.03125 1.90625 0 1.96875 0 L 1.96875 -0.25 C 1.515625 -0.25 1.453125 -0.25 1.453125 -0.546875 L 1.453125 -1.8125 C 1.453125 -2.53125 2.03125 -2.875 2.484375 -2.875 C 2.96875 -2.875 3.03125 -2.5 3.03125 -2.140625 L 3.03125 -0.546875 C 3.03125 -0.25 2.96875 -0.25 2.515625 -0.25 L 2.515625 0 C 2.53125 0 3.015625 -0.03125 3.3125 -0.03125 C 3.5625 -0.03125 4.046875 0 4.109375 0 L 4.109375 -0.25 C 3.65625 -0.25 3.59375 -0.25 3.59375 -0.546875 Z M 3.59375 -2.109375 "
           id="path8831" />
      </symbol>
      <symbol
         overflow="visible"
         id="symbol7312">
        <path
           style="stroke:none;"
           d="M 3.109375 -1.875 C 3.109375 -2.234375 3.109375 -2.5 2.78125 -2.765625 C 2.5 -3 2.171875 -3.109375 1.75 -3.109375 C 1.09375 -3.109375 0.625 -2.859375 0.625 -2.4375 C 0.625 -2.203125 0.78125 -2.09375 0.96875 -2.09375 C 1.15625 -2.09375 1.296875 -2.234375 1.296875 -2.421875 C 1.296875 -2.53125 1.234375 -2.6875 1.046875 -2.734375 C 1.296875 -2.90625 1.703125 -2.90625 1.734375 -2.90625 C 2.125 -2.90625 2.5625 -2.65625 2.5625 -2.0625 L 2.5625 -1.859375 C 2.171875 -1.84375 1.71875 -1.8125 1.203125 -1.625 C 0.578125 -1.40625 0.390625 -1.015625 0.390625 -0.703125 C 0.390625 -0.109375 1.109375 0.0625 1.609375 0.0625 C 2.15625 0.0625 2.484375 -0.25 2.640625 -0.515625 C 2.65625 -0.234375 2.84375 0.03125 3.171875 0.03125 C 3.1875 0.03125 3.859375 0.03125 3.859375 -0.625 L 3.859375 -1.015625 L 3.625 -1.015625 L 3.625 -0.640625 C 3.625 -0.5625 3.625 -0.234375 3.359375 -0.234375 C 3.109375 -0.234375 3.109375 -0.5625 3.109375 -0.640625 Z M 2.5625 -0.984375 C 2.5625 -0.3125 1.96875 -0.125 1.65625 -0.125 C 1.296875 -0.125 0.96875 -0.359375 0.96875 -0.703125 C 0.96875 -1.09375 1.296875 -1.625 2.5625 -1.671875 Z M 2.5625 -0.984375 "
           id="path9900" />
      </symbol>
    </g>
    <g
       id="g8012">
      <symbol
         overflow="visible"
         id="symbol7184">
        <path
           style="stroke:none;"
           d=""
           id="path9152" />
      </symbol>
      <symbol
         overflow="visible"
         id="symbol7825">
        <path
           style="stroke:none;"
           d="M 2.9375 -6.375 C 2.9375 -6.625 2.9375 -6.640625 2.703125 -6.640625 C 2.078125 -6 1.203125 -6 0.890625 -6 L 0.890625 -5.6875 C 1.09375 -5.6875 1.671875 -5.6875 2.1875 -5.953125 L 2.1875 -0.78125 C 2.1875 -0.421875 2.15625 -0.3125 1.265625 -0.3125 L 0.953125 -0.3125 L 0.953125 0 C 1.296875 -0.03125 2.15625 -0.03125 2.5625 -0.03125 C 2.953125 -0.03125 3.828125 -0.03125 4.171875 0 L 4.171875 -0.3125 L 3.859375 -0.3125 C 2.953125 -0.3125 2.9375 -0.421875 2.9375 -0.78125 Z M 2.9375 -6.375 "
           id="path6406" />
      </symbol>
      <symbol
         overflow="visible"
         id="symbol4788">
        <path
           style="stroke:none;"
           d="M 4.578125 -3.1875 C 4.578125 -3.984375 4.53125 -4.78125 4.1875 -5.515625 C 3.734375 -6.484375 2.90625 -6.640625 2.5 -6.640625 C 1.890625 -6.640625 1.171875 -6.375 0.75 -5.453125 C 0.4375 -4.765625 0.390625 -3.984375 0.390625 -3.1875 C 0.390625 -2.4375 0.421875 -1.546875 0.84375 -0.78125 C 1.265625 0.015625 2 0.21875 2.484375 0.21875 C 3.015625 0.21875 3.78125 0.015625 4.21875 -0.9375 C 4.53125 -1.625 4.578125 -2.40625 4.578125 -3.1875 Z M 2.484375 0 C 2.09375 0 1.5 -0.25 1.328125 -1.203125 C 1.21875 -1.796875 1.21875 -2.71875 1.21875 -3.3125 C 1.21875 -3.953125 1.21875 -4.609375 1.296875 -5.140625 C 1.484375 -6.328125 2.234375 -6.421875 2.484375 -6.421875 C 2.8125 -6.421875 3.46875 -6.234375 3.65625 -5.25 C 3.765625 -4.6875 3.765625 -3.9375 3.765625 -3.3125 C 3.765625 -2.5625 3.765625 -1.890625 3.65625 -1.25 C 3.5 -0.296875 2.9375 0 2.484375 0 Z M 2.484375 0 "
           id="path2207" />
      </symbol>
      <symbol
         overflow="visible"
         id="symbol3353">
        <path
           style="stroke:none;"
           d=""
           id="path9902" />
      </symbol>
      <symbol
         overflow="visible"
         id="symbol5953">
        <path
           style="stroke:none;"
           d="M 2.03125 -0.015625 C 2.03125 -0.671875 1.78125 -1.0625 1.390625 -1.0625 C 1.0625 -1.0625 0.859375 -0.8125 0.859375 -0.53125 C 0.859375 -0.265625 1.0625 0 1.390625 0 C 1.5 0 1.640625 -0.046875 1.734375 -0.125 C 1.765625 -0.15625 1.78125 -0.15625 1.78125 -0.15625 C 1.796875 -0.15625 1.796875 -0.15625 1.796875 -0.015625 C 1.796875 0.734375 1.453125 1.328125 1.125 1.65625 C 1.015625 1.765625 1.015625 1.78125 1.015625 1.8125 C 1.015625 1.890625 1.0625 1.921875 1.109375 1.921875 C 1.21875 1.921875 2.03125 1.15625 2.03125 -0.015625 Z M 2.03125 -0.015625 "
           id="path8313" />
      </symbol>
      <symbol
         overflow="visible"
         id="symbol6887">
        <path
           style="stroke:none;"
           d="M 1.78125 -1.140625 C 1.390625 -0.484375 1 -0.34375 0.5625 -0.3125 C 0.4375 -0.296875 0.34375 -0.296875 0.34375 -0.109375 C 0.34375 -0.046875 0.40625 0 0.484375 0 C 0.75 0 1.0625 -0.03125 1.328125 -0.03125 C 1.671875 -0.03125 2.015625 0 2.328125 0 C 2.390625 0 2.515625 0 2.515625 -0.1875 C 2.515625 -0.296875 2.4375 -0.3125 2.359375 -0.3125 C 2.140625 -0.328125 1.890625 -0.40625 1.890625 -0.65625 C 1.890625 -0.78125 1.953125 -0.890625 2.03125 -1.03125 L 2.796875 -2.296875 L 5.296875 -2.296875 C 5.3125 -2.09375 5.453125 -0.734375 5.453125 -0.640625 C 5.453125 -0.34375 4.9375 -0.3125 4.734375 -0.3125 C 4.59375 -0.3125 4.5 -0.3125 4.5 -0.109375 C 4.5 0 4.609375 0 4.640625 0 C 5.046875 0 5.46875 -0.03125 5.875 -0.03125 C 6.125 -0.03125 6.765625 0 7.015625 0 C 7.0625 0 7.1875 0 7.1875 -0.203125 C 7.1875 -0.3125 7.09375 -0.3125 6.953125 -0.3125 C 6.34375 -0.3125 6.34375 -0.375 6.3125 -0.671875 L 5.703125 -6.890625 C 5.6875 -7.09375 5.6875 -7.140625 5.515625 -7.140625 C 5.359375 -7.140625 5.3125 -7.0625 5.25 -6.96875 Z M 2.984375 -2.609375 L 4.9375 -5.90625 L 5.265625 -2.609375 Z M 2.984375 -2.609375 "
           id="path2088" />
      </symbol>
      <symbol
         overflow="visible"
         id="symbol3746">
        <path
           style="stroke:none;"
           d=""
           id="path9979" />
      </symbol>
      <symbol
         overflow="visible"
         id="symbol3500">
        <path
           style="stroke:none;"
           d="M 2.390625 -2.25 L 3.125 -2.25 C 3.65625 -2.25 3.75 -2.15625 3.75 -1.9375 C 3.75 -1.828125 3.75 -1.8125 3.703125 -1.609375 C 3.6875 -1.578125 3.671875 -1.546875 3.671875 -1.53125 C 3.671875 -1.46875 3.734375 -1.421875 3.796875 -1.421875 C 3.890625 -1.421875 3.890625 -1.46875 3.9375 -1.59375 L 4.3125 -3.0625 C 4.3125 -3.09375 4.328125 -3.1875 4.328125 -3.203125 C 4.328125 -3.28125 4.28125 -3.3125 4.21875 -3.3125 C 4.125 -3.3125 4.109375 -3.265625 4.078125 -3.140625 C 3.9375 -2.59375 3.734375 -2.5 3.140625 -2.5 L 2.453125 -2.5 L 2.890625 -4.25 C 2.9375 -4.453125 2.953125 -4.484375 3.234375 -4.484375 L 4.3125 -4.484375 C 5.234375 -4.484375 5.40625 -4.265625 5.40625 -3.671875 C 5.40625 -3.453125 5.375 -3.296875 5.375 -3.25 C 5.375 -3.1875 5.40625 -3.125 5.5 -3.125 C 5.609375 -3.125 5.609375 -3.1875 5.625 -3.3125 L 5.75 -4.515625 C 5.765625 -4.734375 5.71875 -4.734375 5.546875 -4.734375 L 1.828125 -4.734375 C 1.6875 -4.734375 1.609375 -4.734375 1.609375 -4.578125 C 1.609375 -4.484375 1.6875 -4.484375 1.828125 -4.484375 C 1.828125 -4.484375 1.96875 -4.484375 2.09375 -4.46875 C 2.234375 -4.453125 2.25 -4.4375 2.25 -4.375 C 2.25 -4.328125 2.234375 -4.25 2.21875 -4.21875 L 1.3125 -0.578125 C 1.234375 -0.296875 1.234375 -0.25 0.6875 -0.25 C 0.578125 -0.25 0.484375 -0.25 0.484375 -0.109375 C 0.484375 -0.03125 0.53125 0 0.59375 0 C 0.796875 0 1.3125 -0.03125 1.515625 -0.03125 L 2.046875 -0.015625 C 2.234375 -0.015625 2.421875 0 2.59375 0 C 2.640625 0 2.75 0 2.75 -0.15625 C 2.75 -0.25 2.671875 -0.25 2.515625 -0.25 C 2.5 -0.25 2.328125 -0.25 2.140625 -0.265625 C 2 -0.28125 1.9375 -0.28125 1.9375 -0.390625 C 1.9375 -0.40625 1.9375 -0.4375 1.953125 -0.515625 Z M 2.390625 -2.25 "
           id="path7446" />
      </symbol>
    </g>
    <g
       id="g3410">
      <symbol
         overflow="visible"
         id="symbol1674">
        <path
           style="stroke:none;"
           d=""
           id="path2811" />
      </symbol>
      <symbol
         overflow="visible"
         id="symbol2409">
        <path
           style="stroke:none;"
           d="M 1.625 -4.5625 C 1.171875 -4.859375 1.125 -5.1875 1.125 -5.359375 C 1.125 -5.96875 1.78125 -6.390625 2.484375 -6.390625 C 3.203125 -6.390625 3.84375 -5.875 3.84375 -5.15625 C 3.84375 -4.578125 3.453125 -4.109375 2.859375 -3.765625 Z M 3.078125 -3.609375 C 3.796875 -3.984375 4.28125 -4.5 4.28125 -5.15625 C 4.28125 -6.078125 3.40625 -6.640625 2.5 -6.640625 C 1.5 -6.640625 0.6875 -5.90625 0.6875 -4.96875 C 0.6875 -4.796875 0.703125 -4.34375 1.125 -3.875 C 1.234375 -3.765625 1.609375 -3.515625 1.859375 -3.34375 C 1.28125 -3.046875 0.421875 -2.5 0.421875 -1.5 C 0.421875 -0.453125 1.4375 0.21875 2.484375 0.21875 C 3.609375 0.21875 4.5625 -0.609375 4.5625 -1.671875 C 4.5625 -2.03125 4.453125 -2.484375 4.0625 -2.90625 C 3.875 -3.109375 3.71875 -3.203125 3.078125 -3.609375 Z M 2.078125 -3.1875 L 3.3125 -2.40625 C 3.59375 -2.21875 4.0625 -1.921875 4.0625 -1.3125 C 4.0625 -0.578125 3.3125 -0.0625 2.5 -0.0625 C 1.640625 -0.0625 0.921875 -0.671875 0.921875 -1.5 C 0.921875 -2.078125 1.234375 -2.71875 2.078125 -3.1875 Z M 2.078125 -3.1875 "
           id="path5782" />
      </symbol>
      <symbol
         overflow="visible"
         id="symbol2808">
        <path
           style="stroke:none;"
           d="M 4.578125 -3.1875 C 4.578125 -3.984375 4.53125 -4.78125 4.1875 -5.515625 C 3.734375 -6.484375 2.90625 -6.640625 2.5 -6.640625 C 1.890625 -6.640625 1.171875 -6.375 0.75 -5.453125 C 0.4375 -4.765625 0.390625 -3.984375 0.390625 -3.1875 C 0.390625 -2.4375 0.421875 -1.546875 0.84375 -0.78125 C 1.265625 0.015625 2 0.21875 2.484375 0.21875 C 3.015625 0.21875 3.78125 0.015625 4.21875 -0.9375 C 4.53125 -1.625 4.578125 -2.40625 4.578125 -3.1875 Z M 2.484375 0 C 2.09375 0 1.5 -0.25 1.328125 -1.203125 C 1.21875 -1.796875 1.21875 -2.71875 1.21875 -3.3125 C 1.21875 -3.953125 1.21875 -4.609375 1.296875 -5.140625 C 1.484375 -6.328125 2.234375 -6.421875 2.484375 -6.421875 C 2.8125 -6.421875 3.46875 -6.234375 3.65625 -5.25 C 3.765625 -4.6875 3.765625 -3.9375 3.765625 -3.3125 C 3.765625 -2.5625 3.765625 -1.890625 3.65625 -1.25 C 3.5 -0.296875 2.9375 0 2.484375 0 Z M 2.484375 0 "
           id="path9041" />
      </symbol>
      <symbol
         overflow="visible"
         id="symbol9762">
        <path
           style="stroke:none;"
           d=""
           id="path9466" />
      </symbol>
      <symbol
         overflow="visible"
         id="symbol4223">
        <path
           style="stroke:none;"
           d="M 2.03125 -0.015625 C 2.03125 -0.671875 1.78125 -1.0625 1.390625 -1.0625 C 1.0625 -1.0625 0.859375 -0.8125 0.859375 -0.53125 C 0.859375 -0.265625 1.0625 0 1.390625 0 C 1.5 0 1.640625 -0.046875 1.734375 -0.125 C 1.765625 -0.15625 1.78125 -0.15625 1.78125 -0.15625 C 1.796875 -0.15625 1.796875 -0.15625 1.796875 -0.015625 C 1.796875 0.734375 1.453125 1.328125 1.125 1.65625 C 1.015625 1.765625 1.015625 1.78125 1.015625 1.8125 C 1.015625 1.890625 1.0625 1.921875 1.109375 1.921875 C 1.21875 1.921875 2.03125 1.15625 2.03125 -0.015625 Z M 2.03125 -0.015625 "
           id="path766" />
      </symbol>
      <symbol
         overflow="visible"
         id="symbol872">
        <path
           style="stroke:none;"
           d="M 1.78125 -1.140625 C 1.390625 -0.484375 1 -0.34375 0.5625 -0.3125 C 0.4375 -0.296875 0.34375 -0.296875 0.34375 -0.109375 C 0.34375 -0.046875 0.40625 0 0.484375 0 C 0.75 0 1.0625 -0.03125 1.328125 -0.03125 C 1.671875 -0.03125 2.015625 0 2.328125 0 C 2.390625 0 2.515625 0 2.515625 -0.1875 C 2.515625 -0.296875 2.4375 -0.3125 2.359375 -0.3125 C 2.140625 -0.328125 1.890625 -0.40625 1.890625 -0.65625 C 1.890625 -0.78125 1.953125 -0.890625 2.03125 -1.03125 L 2.796875 -2.296875 L 5.296875 -2.296875 C 5.3125 -2.09375 5.453125 -0.734375 5.453125 -0.640625 C 5.453125 -0.34375 4.9375 -0.3125 4.734375 -0.3125 C 4.59375 -0.3125 4.5 -0.3125 4.5 -0.109375 C 4.5 0 4.609375 0 4.640625 0 C 5.046875 0 5.46875 -0.03125 5.875 -0.03125 C 6.125 -0.03125 6.765625 0 7.015625 0 C 7.0625 0 7.1875 0 7.1875 -0.203125 C 7.1875 -0.3125 7.09375 -0.3125 6.953125 -0.3125 C 6.34375 -0.3125 6.34375 -0.375 6.3125 -0.671875 L 5.703125 -6.890625 C 5.6875 -7.09375 5.6875 -7.140625 5.515625 -7.140625 C 5.359375 -7.140625 5.3125 -7.0625 5.25 -6.96875 Z M 2.984375 -2.609375 L 4.9375 -5.90625 L 5.265625 -2.609375 Z M 2.984375 -2.609375 "
           id="path9954" />
      </symbol>
      <symbol
         overflow="visible"
         id="symbol4266">
        <path
           style="stroke:none;"
           d=""
           id="path1320" />
      </symbol>
      <symbol
         overflow="visible"
         id="symbol861">
        <path
           style="stroke:none;"
           d="M 7.109375 -4.1875 C 7.171875 -4.453125 7.1875 -4.515625 7.703125 -4.515625 C 7.859375 -4.515625 7.9375 -4.515625 7.9375 -4.65625 C 7.9375 -4.765625 7.859375 -4.765625 7.734375 -4.765625 L 6.78125 -4.765625 C 6.578125 -4.765625 6.578125 -4.75 6.484375 -4.625 L 3.796875 -0.640625 L 3.109375 -4.578125 C 3.078125 -4.75 3.078125 -4.765625 2.859375 -4.765625 L 1.875 -4.765625 C 1.734375 -4.765625 1.640625 -4.765625 1.640625 -4.609375 C 1.640625 -4.515625 1.71875 -4.515625 1.875 -4.515625 C 1.984375 -4.515625 2.015625 -4.515625 2.140625 -4.5 C 2.28125 -4.484375 2.296875 -4.46875 2.296875 -4.390625 C 2.296875 -4.390625 2.296875 -4.34375 2.265625 -4.25 L 1.390625 -0.75 C 1.328125 -0.515625 1.21875 -0.265625 0.65625 -0.25 C 0.609375 -0.25 0.515625 -0.25 0.515625 -0.09375 C 0.515625 -0.09375 0.515625 0 0.625 0 C 0.828125 0 1.125 -0.03125 1.34375 -0.03125 C 1.515625 -0.03125 1.921875 0 2.078125 0 C 2.125 0 2.21875 0 2.21875 -0.15625 C 2.21875 -0.25 2.125 -0.25 2.0625 -0.25 C 1.625 -0.265625 1.625 -0.453125 1.625 -0.546875 C 1.625 -0.578125 1.625 -0.609375 1.65625 -0.71875 L 2.578125 -4.421875 L 3.328125 -0.1875 C 3.359375 -0.0625 3.359375 0 3.46875 0 C 3.5625 0 3.625 -0.078125 3.671875 -0.15625 L 6.59375 -4.5 L 6.609375 -4.484375 L 5.625 -0.546875 C 5.5625 -0.3125 5.546875 -0.25 5.015625 -0.25 C 4.890625 -0.25 4.796875 -0.25 4.796875 -0.09375 C 4.796875 -0.09375 4.796875 0 4.90625 0 C 5.046875 0 5.203125 -0.015625 5.34375 -0.015625 C 5.484375 -0.015625 5.640625 -0.03125 5.78125 -0.03125 C 5.984375 -0.03125 6.46875 0 6.671875 0 C 6.703125 0 6.8125 0 6.8125 -0.15625 C 6.8125 -0.25 6.734375 -0.25 6.59375 -0.25 C 6.578125 -0.25 6.453125 -0.25 6.328125 -0.265625 C 6.171875 -0.28125 6.171875 -0.296875 6.171875 -0.375 C 6.171875 -0.40625 6.1875 -0.484375 6.1875 -0.515625 Z M 7.109375 -4.1875 "
           id="path6434" />
      </symbol>
    </g>
    <g
       id="g6931">
      <symbol
         overflow="visible"
         id="symbol2559">
        <path
           style="stroke:none;"
           d=""
           id="path8997" />
      </symbol>
      <symbol
         overflow="visible"
         id="symbol8506">
        <path
           style="stroke:none;"
           d="M 1.265625 -0.765625 L 2.328125 -1.796875 C 3.875 -3.171875 4.46875 -3.703125 4.46875 -4.703125 C 4.46875 -5.84375 3.578125 -6.640625 2.359375 -6.640625 C 1.234375 -6.640625 0.5 -5.71875 0.5 -4.828125 C 0.5 -4.28125 1 -4.28125 1.03125 -4.28125 C 1.203125 -4.28125 1.546875 -4.390625 1.546875 -4.8125 C 1.546875 -5.0625 1.359375 -5.328125 1.015625 -5.328125 C 0.9375 -5.328125 0.921875 -5.328125 0.890625 -5.3125 C 1.109375 -5.96875 1.65625 -6.328125 2.234375 -6.328125 C 3.140625 -6.328125 3.5625 -5.515625 3.5625 -4.703125 C 3.5625 -3.90625 3.078125 -3.125 2.515625 -2.5 L 0.609375 -0.375 C 0.5 -0.265625 0.5 -0.234375 0.5 0 L 4.203125 0 L 4.46875 -1.734375 L 4.234375 -1.734375 C 4.171875 -1.4375 4.109375 -1 4 -0.84375 C 3.9375 -0.765625 3.28125 -0.765625 3.0625 -0.765625 Z M 1.265625 -0.765625 "
           id="path1637" />
      </symbol>
      <symbol
         overflow="visible"
         id="symbol9144">
        <path
           style="stroke:none;"
           d="M 2.9375 -6.375 C 2.9375 -6.625 2.9375 -6.640625 2.703125 -6.640625 C 2.078125 -6 1.203125 -6 0.890625 -6 L 0.890625 -5.6875 C 1.09375 -5.6875 1.671875 -5.6875 2.1875 -5.953125 L 2.1875 -0.78125 C 2.1875 -0.421875 2.15625 -0.3125 1.265625 -0.3125 L 0.953125 -0.3125 L 0.953125 0 C 1.296875 -0.03125 2.15625 -0.03125 2.5625 -0.03125 C 2.953125 -0.03125 3.828125 -0.03125 4.171875 0 L 4.171875 -0.3125 L 3.859375 -0.3125 C 2.953125 -0.3125 2.9375 -0.421875 2.9375 -0.78125 Z M 2.9375 -6.375 "
           id="path2710" />
      </symbol>
      <symbol
         overflow="visible"
         id="symbol2395">
        <path
           style="stroke:none;"
           d="M 1.3125 -3.265625 L 1.3125 -3.515625 C 1.3125 -6.03125 2.546875 -6.390625 3.0625 -6.390625 C 3.296875 -6.390625 3.71875 -6.328125 3.9375 -5.984375 C 3.78125 -5.984375 3.390625 -5.984375 3.390625 -5.546875 C 3.390625 -5.234375 3.625 -5.078125 3.84375 -5.078125 C 4 -5.078125 4.3125 -5.171875 4.3125 -5.5625 C 4.3125 -6.15625 3.875 -6.640625 3.046875 -6.640625 C 1.765625 -6.640625 0.421875 -5.359375 0.421875 -3.15625 C 0.421875 -0.484375 1.578125 0.21875 2.5 0.21875 C 3.609375 0.21875 4.5625 -0.71875 4.5625 -2.03125 C 4.5625 -3.296875 3.671875 -4.25 2.5625 -4.25 C 1.890625 -4.25 1.515625 -3.75 1.3125 -3.265625 Z M 2.5 -0.0625 C 1.875 -0.0625 1.578125 -0.65625 1.515625 -0.8125 C 1.328125 -1.28125 1.328125 -2.078125 1.328125 -2.25 C 1.328125 -3.03125 1.65625 -4.03125 2.546875 -4.03125 C 2.71875 -4.03125 3.171875 -4.03125 3.484375 -3.40625 C 3.65625 -3.046875 3.65625 -2.53125 3.65625 -2.046875 C 3.65625 -1.5625 3.65625 -1.0625 3.484375 -0.703125 C 3.1875 -0.109375 2.734375 -0.0625 2.5 -0.0625 Z M 2.5 -0.0625 "
           id="path5102" />
      </symbol>
      <symbol
         overflow="visible"
         id="symbol1207">
        <path
           style="stroke:none;"
           d=""
           id="path5426" />
      </symbol>
      <symbol
         overflow="visible"
         id="symbol5584">
        <path
           style="stroke:none;"
           d="M 1.78125 -1.140625 C 1.390625 -0.484375 1 -0.34375 0.5625 -0.3125 C 0.4375 -0.296875 0.34375 -0.296875 0.34375 -0.109375 C 0.34375 -0.046875 0.40625 0 0.484375 0 C 0.75 0 1.0625 -0.03125 1.328125 -0.03125 C 1.671875 -0.03125 2.015625 0 2.328125 0 C 2.390625 0 2.515625 0 2.515625 -0.1875 C 2.515625 -0.296875 2.4375 -0.3125 2.359375 -0.3125 C 2.140625 -0.328125 1.890625 -0.40625 1.890625 -0.65625 C 1.890625 -0.78125 1.953125 -0.890625 2.03125 -1.03125 L 2.796875 -2.296875 L 5.296875 -2.296875 C 5.3125 -2.09375 5.453125 -0.734375 5.453125 -0.640625 C 5.453125 -0.34375 4.9375 -0.3125 4.734375 -0.3125 C 4.59375 -0.3125 4.5 -0.3125 4.5 -0.109375 C 4.5 0 4.609375 0 4.640625 0 C 5.046875 0 5.46875 -0.03125 5.875 -0.03125 C 6.125 -0.03125 6.765625 0 7.015625 0 C 7.0625 0 7.1875 0 7.1875 -0.203125 C 7.1875 -0.3125 7.09375 -0.3125 6.953125 -0.3125 C 6.34375 -0.3125 6.34375 -0.375 6.3125 -0.671875 L 5.703125 -6.890625 C 5.6875 -7.09375 5.6875 -7.140625 5.515625 -7.140625 C 5.359375 -7.140625 5.3125 -7.0625 5.25 -6.96875 Z M 2.984375 -2.609375 L 4.9375 -5.90625 L 5.265625 -2.609375 Z M 2.984375 -2.609375 "
           id="path4772" />
      </symbol>
      <symbol
         overflow="visible"
         id="symbol1525">
        <path
           style="stroke:none;"
           d=""
           id="path3282" />
      </symbol>
      <symbol
         overflow="visible"
         id="symbol7763">
        <path
           style="stroke:none;"
           d="M 7.109375 -4.1875 C 7.171875 -4.453125 7.1875 -4.515625 7.703125 -4.515625 C 7.859375 -4.515625 7.9375 -4.515625 7.9375 -4.65625 C 7.9375 -4.765625 7.859375 -4.765625 7.734375 -4.765625 L 6.78125 -4.765625 C 6.578125 -4.765625 6.578125 -4.75 6.484375 -4.625 L 3.796875 -0.640625 L 3.109375 -4.578125 C 3.078125 -4.75 3.078125 -4.765625 2.859375 -4.765625 L 1.875 -4.765625 C 1.734375 -4.765625 1.640625 -4.765625 1.640625 -4.609375 C 1.640625 -4.515625 1.71875 -4.515625 1.875 -4.515625 C 1.984375 -4.515625 2.015625 -4.515625 2.140625 -4.5 C 2.28125 -4.484375 2.296875 -4.46875 2.296875 -4.390625 C 2.296875 -4.390625 2.296875 -4.34375 2.265625 -4.25 L 1.390625 -0.75 C 1.328125 -0.515625 1.21875 -0.265625 0.65625 -0.25 C 0.609375 -0.25 0.515625 -0.25 0.515625 -0.09375 C 0.515625 -0.09375 0.515625 0 0.625 0 C 0.828125 0 1.125 -0.03125 1.34375 -0.03125 C 1.515625 -0.03125 1.921875 0 2.078125 0 C 2.125 0 2.21875 0 2.21875 -0.15625 C 2.21875 -0.25 2.125 -0.25 2.0625 -0.25 C 1.625 -0.265625 1.625 -0.453125 1.625 -0.546875 C 1.625 -0.578125 1.625 -0.609375 1.65625 -0.71875 L 2.578125 -4.421875 L 3.328125 -0.1875 C 3.359375 -0.0625 3.359375 0 3.46875 0 C 3.5625 0 3.625 -0.078125 3.671875 -0.15625 L 6.59375 -4.5 L 6.609375 -4.484375 L 5.625 -0.546875 C 5.5625 -0.3125 5.546875 -0.25 5.015625 -0.25 C 4.890625 -0.25 4.796875 -0.25 4.796875 -0.09375 C 4.796875 -0.09375 4.796875 0 4.90625 0 C 5.046875 0 5.203125 -0.015625 5.34375 -0.015625 C 5.484375 -0.015625 5.640625 -0.03125 5.78125 -0.03125 C 5.984375 -0.03125 6.46875 0 6.671875 0 C 6.703125 0 6.8125 0 6.8125 -0.15625 C 6.8125 -0.25 6.734375 -0.25 6.59375 -0.25 C 6.578125 -0.25 6.453125 -0.25 6.328125 -0.265625 C 6.171875 -0.28125 6.171875 -0.296875 6.171875 -0.375 C 6.171875 -0.40625 6.1875 -0.484375 6.1875 -0.515625 Z M 7.109375 -4.1875 "
           id="path5017" />
      </symbol>
    </g>
    <g
       id="g7358">
      <symbol
         overflow="visible"
         id="symbol5511">
        <path
           style="stroke:none;"
           d=""
           id="path9665" />
      </symbol>
      <symbol
         overflow="visible"
         id="symbol2836">
        <path
           style="stroke:none;"
           d="M 2.9375 -6.375 C 2.9375 -6.625 2.9375 -6.640625 2.703125 -6.640625 C 2.078125 -6 1.203125 -6 0.890625 -6 L 0.890625 -5.6875 C 1.09375 -5.6875 1.671875 -5.6875 2.1875 -5.953125 L 2.1875 -0.78125 C 2.1875 -0.421875 2.15625 -0.3125 1.265625 -0.3125 L 0.953125 -0.3125 L 0.953125 0 C 1.296875 -0.03125 2.15625 -0.03125 2.5625 -0.03125 C 2.953125 -0.03125 3.828125 -0.03125 4.171875 0 L 4.171875 -0.3125 L 3.859375 -0.3125 C 2.953125 -0.3125 2.9375 -0.421875 2.9375 -0.78125 Z M 2.9375 -6.375 "
           id="path3089" />
      </symbol>
      <symbol
         overflow="visible"
         id="symbol1753">
        <path
           style="stroke:none;"
           d="M 2.9375 -1.640625 L 2.9375 -0.78125 C 2.9375 -0.421875 2.90625 -0.3125 2.171875 -0.3125 L 1.96875 -0.3125 L 1.96875 0 C 2.375 -0.03125 2.890625 -0.03125 3.3125 -0.03125 C 3.734375 -0.03125 4.25 -0.03125 4.671875 0 L 4.671875 -0.3125 L 4.453125 -0.3125 C 3.71875 -0.3125 3.703125 -0.421875 3.703125 -0.78125 L 3.703125 -1.640625 L 4.6875 -1.640625 L 4.6875 -1.953125 L 3.703125 -1.953125 L 3.703125 -6.484375 C 3.703125 -6.6875 3.703125 -6.75 3.53125 -6.75 C 3.453125 -6.75 3.421875 -6.75 3.34375 -6.625 L 0.28125 -1.953125 L 0.28125 -1.640625 Z M 2.984375 -1.953125 L 0.5625 -1.953125 L 2.984375 -5.671875 Z M 2.984375 -1.953125 "
           id="path5397" />
      </symbol>
      <symbol
         overflow="visible"
         id="symbol8540">
        <path
           style="stroke:none;"
           d=""
           id="path522" />
      </symbol>
      <symbol
         overflow="visible"
         id="symbol4727">
        <path
           style="stroke:none;"
           d="M 1.78125 -1.140625 C 1.390625 -0.484375 1 -0.34375 0.5625 -0.3125 C 0.4375 -0.296875 0.34375 -0.296875 0.34375 -0.109375 C 0.34375 -0.046875 0.40625 0 0.484375 0 C 0.75 0 1.0625 -0.03125 1.328125 -0.03125 C 1.671875 -0.03125 2.015625 0 2.328125 0 C 2.390625 0 2.515625 0 2.515625 -0.1875 C 2.515625 -0.296875 2.4375 -0.3125 2.359375 -0.3125 C 2.140625 -0.328125 1.890625 -0.40625 1.890625 -0.65625 C 1.890625 -0.78125 1.953125 -0.890625 2.03125 -1.03125 L 2.796875 -2.296875 L 5.296875 -2.296875 C 5.3125 -2.09375 5.453125 -0.734375 5.453125 -0.640625 C 5.453125 -0.34375 4.9375 -0.3125 4.734375 -0.3125 C 4.59375 -0.3125 4.5 -0.3125 4.5 -0.109375 C 4.5 0 4.609375 0 4.640625 0 C 5.046875 0 5.46875 -0.03125 5.875 -0.03125 C 6.125 -0.03125 6.765625 0 7.015625 0 C 7.0625 0 7.1875 0 7.1875 -0.203125 C 7.1875 -0.3125 7.09375 -0.3125 6.953125 -0.3125 C 6.34375 -0.3125 6.34375 -0.375 6.3125 -0.671875 L 5.703125 -6.890625 C 5.6875 -7.09375 5.6875 -7.140625 5.515625 -7.140625 C 5.359375 -7.140625 5.3125 -7.0625 5.25 -6.96875 Z M 2.984375 -2.609375 L 4.9375 -5.90625 L 5.265625 -2.609375 Z M 2.984375 -2.609375 "
           id="path5451" />
      </symbol>
      <symbol
         overflow="visible"
         id="symbol1565">
        <path
           style="stroke:none;"
           d=""
           id="path7325" />
      </symbol>
      <symbol
         overflow="visible"
         id="symbol7980">
        <path
           style="stroke:none;"
           d="M 7.109375 -4.1875 C 7.171875 -4.453125 7.1875 -4.515625 7.703125 -4.515625 C 7.859375 -4.515625 7.9375 -4.515625 7.9375 -4.65625 C 7.9375 -4.765625 7.859375 -4.765625 7.734375 -4.765625 L 6.78125 -4.765625 C 6.578125 -4.765625 6.578125 -4.75 6.484375 -4.625 L 3.796875 -0.640625 L 3.109375 -4.578125 C 3.078125 -4.75 3.078125 -4.765625 2.859375 -4.765625 L 1.875 -4.765625 C 1.734375 -4.765625 1.640625 -4.765625 1.640625 -4.609375 C 1.640625 -4.515625 1.71875 -4.515625 1.875 -4.515625 C 1.984375 -4.515625 2.015625 -4.515625 2.140625 -4.5 C 2.28125 -4.484375 2.296875 -4.46875 2.296875 -4.390625 C 2.296875 -4.390625 2.296875 -4.34375 2.265625 -4.25 L 1.390625 -0.75 C 1.328125 -0.515625 1.21875 -0.265625 0.65625 -0.25 C 0.609375 -0.25 0.515625 -0.25 0.515625 -0.09375 C 0.515625 -0.09375 0.515625 0 0.625 0 C 0.828125 0 1.125 -0.03125 1.34375 -0.03125 C 1.515625 -0.03125 1.921875 0 2.078125 0 C 2.125 0 2.21875 0 2.21875 -0.15625 C 2.21875 -0.25 2.125 -0.25 2.0625 -0.25 C 1.625 -0.265625 1.625 -0.453125 1.625 -0.546875 C 1.625 -0.578125 1.625 -0.609375 1.65625 -0.71875 L 2.578125 -4.421875 L 3.328125 -0.1875 C 3.359375 -0.0625 3.359375 0 3.46875 0 C 3.5625 0 3.625 -0.078125 3.671875 -0.15625 L 6.59375 -4.5 L 6.609375 -4.484375 L 5.625 -0.546875 C 5.5625 -0.3125 5.546875 -0.25 5.015625 -0.25 C 4.890625 -0.25 4.796875 -0.25 4.796875 -0.09375 C 4.796875 -0.09375 4.796875 0 4.90625 0 C 5.046875 0 5.203125 -0.015625 5.34375 -0.015625 C 5.484375 -0.015625 5.640625 -0.03125 5.78125 -0.03125 C 5.984375 -0.03125 6.46875 0 6.671875 0 C 6.703125 0 6.8125 0 6.8125 -0.15625 C 6.8125 -0.25 6.734375 -0.25 6.59375 -0.25 C 6.578125 -0.25 6.453125 -0.25 6.328125 -0.265625 C 6.171875 -0.28125 6.171875 -0.296875 6.171875 -0.375 C 6.171875 -0.40625 6.1875 -0.484375 6.1875 -0.515625 Z M 7.109375 -4.1875 "
           id="path5530" />
      </symbol>
    </g>
    <g
       id="g3182">
      <symbol
         overflow="visible"
         id="symbol6971">
        <path
           style="stroke:none;"
           d=""
           id="path7520" />
      </symbol>
      <symbol
         overflow="visible"
         id="symbol5698">
        <path
           style="stroke:none;"
           d="M 2.9375 -6.375 C 2.9375 -6.625 2.9375 -6.640625 2.703125 -6.640625 C 2.078125 -6 1.203125 -6 0.890625 -6 L 0.890625 -5.6875 C 1.09375 -5.6875 1.671875 -5.6875 2.1875 -5.953125 L 2.1875 -0.78125 C 2.1875 -0.421875 2.15625 -0.3125 1.265625 -0.3125 L 0.953125 -0.3125 L 0.953125 0 C 1.296875 -0.03125 2.15625 -0.03125 2.5625 -0.03125 C 2.953125 -0.03125 3.828125 -0.03125 4.171875 0 L 4.171875 -0.3125 L 3.859375 -0.3125 C 2.953125 -0.3125 2.9375 -0.421875 2.9375 -0.78125 Z M 2.9375 -6.375 "
           id="path2400" />
      </symbol>
      <symbol
         overflow="visible"
         id="symbol366">
        <path
           style="stroke:none;"
           d="M 2.9375 -1.640625 L 2.9375 -0.78125 C 2.9375 -0.421875 2.90625 -0.3125 2.171875 -0.3125 L 1.96875 -0.3125 L 1.96875 0 C 2.375 -0.03125 2.890625 -0.03125 3.3125 -0.03125 C 3.734375 -0.03125 4.25 -0.03125 4.671875 0 L 4.671875 -0.3125 L 4.453125 -0.3125 C 3.71875 -0.3125 3.703125 -0.421875 3.703125 -0.78125 L 3.703125 -1.640625 L 4.6875 -1.640625 L 4.6875 -1.953125 L 3.703125 -1.953125 L 3.703125 -6.484375 C 3.703125 -6.6875 3.703125 -6.75 3.53125 -6.75 C 3.453125 -6.75 3.421875 -6.75 3.34375 -6.625 L 0.28125 -1.953125 L 0.28125 -1.640625 Z M 2.984375 -1.953125 L 0.5625 -1.953125 L 2.984375 -5.671875 Z M 2.984375 -1.953125 "
           id="path2639" />
      </symbol>
      <symbol
         overflow="visible"
         id="symbol2490">
        <path
           style="stroke:none;"
           d=""
           id="path4684" />
      </symbol>
      <symbol
         overflow="visible"
         id="symbol2422">
        <path
           style="stroke:none;"
           d="M 1.78125 -1.140625 C 1.390625 -0.484375 1 -0.34375 0.5625 -0.3125 C 0.4375 -0.296875 0.34375 -0.296875 0.34375 -0.109375 C 0.34375 -0.046875 0.40625 0 0.484375 0 C 0.75 0 1.0625 -0.03125 1.328125 -0.03125 C 1.671875 -0.03125 2.015625 0 2.328125 0 C 2.390625 0 2.515625 0 2.515625 -0.1875 C 2.515625 -0.296875 2.4375 -0.3125 2.359375 -0.3125 C 2.140625 -0.328125 1.890625 -0.40625 1.890625 -0.65625 C 1.890625 -0.78125 1.953125 -0.890625 2.03125 -1.03125 L 2.796875 -2.296875 L 5.296875 -2.296875 C 5.3125 -2.09375 5.453125 -0.734375 5.453125 -0.640625 C 5.453125 -0.34375 4.9375 -0.3125 4.734375 -0.3125 C 4.59375 -0.3125 4.5 -0.3125 4.5 -0.109375 C 4.5 0 4.609375 0 4.640625 0 C 5.046875 0 5.46875 -0.03125 5.875 -0.03125 C 6.125 -0.03125 6.765625 0 7.015625 0 C 7.0625 0 7.1875 0 7.1875 -0.203125 C 7.1875 -0.3125 7.09375 -0.3125 6.953125 -0.3125 C 6.34375 -0.3125 6.34375 -0.375 6.3125 -0.671875 L 5.703125 -6.890625 C 5.6875 -7.09375 5.6875 -7.140625 5.515625 -7.140625 C 5.359375 -7.140625 5.3125 -7.0625 5.25 -6.96875 Z M 2.984375 -2.609375 L 4.9375 -5.90625 L 5.265625 -2.609375 Z M 2.984375 -2.609375 "
           id="path1794" />
      </symbol>
      <symbol
         overflow="visible"
         id="symbol234">
        <path
           style="stroke:none;"
           d=""
           id="path1778" />
      </symbol>
      <symbol
         overflow="visible"
         id="symbol586">
        <path
           style="stroke:none;"
           d="M 2.390625 -2.25 L 3.125 -2.25 C 3.65625 -2.25 3.75 -2.15625 3.75 -1.9375 C 3.75 -1.828125 3.75 -1.8125 3.703125 -1.609375 C 3.6875 -1.578125 3.671875 -1.546875 3.671875 -1.53125 C 3.671875 -1.46875 3.734375 -1.421875 3.796875 -1.421875 C 3.890625 -1.421875 3.890625 -1.46875 3.9375 -1.59375 L 4.3125 -3.0625 C 4.3125 -3.09375 4.328125 -3.1875 4.328125 -3.203125 C 4.328125 -3.28125 4.28125 -3.3125 4.21875 -3.3125 C 4.125 -3.3125 4.109375 -3.265625 4.078125 -3.140625 C 3.9375 -2.59375 3.734375 -2.5 3.140625 -2.5 L 2.453125 -2.5 L 2.890625 -4.25 C 2.9375 -4.453125 2.953125 -4.484375 3.234375 -4.484375 L 4.3125 -4.484375 C 5.234375 -4.484375 5.40625 -4.265625 5.40625 -3.671875 C 5.40625 -3.453125 5.375 -3.296875 5.375 -3.25 C 5.375 -3.1875 5.40625 -3.125 5.5 -3.125 C 5.609375 -3.125 5.609375 -3.1875 5.625 -3.3125 L 5.75 -4.515625 C 5.765625 -4.734375 5.71875 -4.734375 5.546875 -4.734375 L 1.828125 -4.734375 C 1.6875 -4.734375 1.609375 -4.734375 1.609375 -4.578125 C 1.609375 -4.484375 1.6875 -4.484375 1.828125 -4.484375 C 1.828125 -4.484375 1.96875 -4.484375 2.09375 -4.46875 C 2.234375 -4.453125 2.25 -4.4375 2.25 -4.375 C 2.25 -4.328125 2.234375 -4.25 2.21875 -4.21875 L 1.3125 -0.578125 C 1.234375 -0.296875 1.234375 -0.25 0.6875 -0.25 C 0.578125 -0.25 0.484375 -0.25 0.484375 -0.109375 C 0.484375 -0.03125 0.53125 0 0.59375 0 C 0.796875 0 1.3125 -0.03125 1.515625 -0.03125 L 2.046875 -0.015625 C 2.234375 -0.015625 2.421875 0 2.59375 0 C 2.640625 0 2.75 0 2.75 -0.15625 C 2.75 -0.25 2.671875 -0.25 2.515625 -0.25 C 2.5 -0.25 2.328125 -0.25 2.140625 -0.265625 C 2 -0.28125 1.9375 -0.28125 1.9375 -0.390625 C 1.9375 -0.40625 1.9375 -0.4375 1.953125 -0.515625 Z M 2.390625 -2.25 "
           id="path5140" />
      </symbol>
    </g>
    <g
       id="g7784">
      <symbol
         overflow="visible"
         id="symbol2893">
        <path
           style="stroke:none;"
           d=""
           id="path6162" />
      </symbol>
      <symbol
         overflow="visible"
         id="symbol6617">
        <path
           style="stroke:none;"
           d="M 3.015625 -3.15625 L 4.71875 -3.15625 C 6.125 -3.15625 7.515625 -4.1875 7.515625 -5.296875 C 7.515625 -6.078125 6.859375 -6.8125 5.546875 -6.8125 L 2.328125 -6.8125 C 2.140625 -6.8125 2.03125 -6.8125 2.03125 -6.625 C 2.03125 -6.5 2.109375 -6.5 2.3125 -6.5 C 2.4375 -6.5 2.625 -6.484375 2.734375 -6.484375 C 2.90625 -6.453125 2.953125 -6.4375 2.953125 -6.3125 C 2.953125 -6.28125 2.953125 -6.25 2.921875 -6.125 L 1.578125 -0.78125 C 1.484375 -0.390625 1.46875 -0.3125 0.671875 -0.3125 C 0.515625 -0.3125 0.40625 -0.3125 0.40625 -0.125 C 0.40625 0 0.515625 0 0.546875 0 C 0.828125 0 1.53125 -0.03125 1.8125 -0.03125 C 2.03125 -0.03125 2.25 -0.015625 2.453125 -0.015625 C 2.671875 -0.015625 2.890625 0 3.09375 0 C 3.171875 0 3.296875 0 3.296875 -0.203125 C 3.296875 -0.3125 3.203125 -0.3125 3.015625 -0.3125 C 2.65625 -0.3125 2.375 -0.3125 2.375 -0.484375 C 2.375 -0.546875 2.390625 -0.59375 2.40625 -0.65625 Z M 3.734375 -6.125 C 3.828125 -6.46875 3.84375 -6.5 4.28125 -6.5 L 5.234375 -6.5 C 6.0625 -6.5 6.59375 -6.234375 6.59375 -5.546875 C 6.59375 -5.15625 6.390625 -4.296875 6 -3.9375 C 5.5 -3.484375 4.90625 -3.40625 4.46875 -3.40625 L 3.0625 -3.40625 Z M 3.734375 -6.125 "
           id="path6481" />
      </symbol>
      <symbol
         overflow="visible"
         id="symbol2249">
        <path
           style="stroke:none;"
           d="M 3.015625 -3.234375 L 3.984375 -3.234375 C 4.734375 -3.234375 4.8125 -3.078125 4.8125 -2.796875 C 4.8125 -2.71875 4.8125 -2.609375 4.75 -2.296875 C 4.71875 -2.25 4.71875 -2.21875 4.71875 -2.1875 C 4.71875 -2.109375 4.78125 -2.078125 4.828125 -2.078125 C 4.9375 -2.078125 4.9375 -2.109375 4.984375 -2.28125 L 5.53125 -4.453125 C 5.5625 -4.5625 5.5625 -4.578125 5.5625 -4.609375 C 5.5625 -4.625 5.546875 -4.71875 5.4375 -4.71875 C 5.34375 -4.71875 5.328125 -4.671875 5.296875 -4.5 C 5.078125 -3.734375 4.859375 -3.546875 4 -3.546875 L 3.09375 -3.546875 L 3.734375 -6.078125 C 3.828125 -6.4375 3.84375 -6.46875 4.28125 -6.46875 L 5.59375 -6.46875 C 6.8125 -6.46875 7.046875 -6.140625 7.046875 -5.375 C 7.046875 -5.140625 7.046875 -5.109375 7.015625 -4.828125 C 7 -4.703125 7 -4.6875 7 -4.65625 C 7 -4.609375 7.03125 -4.53125 7.125 -4.53125 C 7.234375 -4.53125 7.234375 -4.59375 7.25 -4.78125 L 7.453125 -6.515625 C 7.484375 -6.78125 7.4375 -6.78125 7.1875 -6.78125 L 2.296875 -6.78125 C 2.109375 -6.78125 2 -6.78125 2 -6.578125 C 2 -6.46875 2.09375 -6.46875 2.28125 -6.46875 C 2.65625 -6.46875 2.9375 -6.46875 2.9375 -6.296875 C 2.9375 -6.25 2.9375 -6.234375 2.875 -6.046875 L 1.5625 -0.78125 C 1.46875 -0.390625 1.453125 -0.3125 0.65625 -0.3125 C 0.484375 -0.3125 0.375 -0.3125 0.375 -0.125 C 0.375 0 0.5 0 0.53125 0 C 0.8125 0 1.5625 -0.03125 1.84375 -0.03125 C 2.171875 -0.03125 3 0 3.328125 0 C 3.421875 0 3.53125 0 3.53125 -0.1875 C 3.53125 -0.265625 3.484375 -0.296875 3.484375 -0.296875 C 3.453125 -0.3125 3.421875 -0.3125 3.203125 -0.3125 C 2.984375 -0.3125 2.9375 -0.3125 2.6875 -0.328125 C 2.390625 -0.359375 2.359375 -0.40625 2.359375 -0.53125 C 2.359375 -0.546875 2.359375 -0.609375 2.40625 -0.75 Z M 3.015625 -3.234375 "
           id="path9294" />
      </symbol>
      <symbol
         overflow="visible"
         id="symbol1342">
        <path
           style="stroke:none;"
           d=""
           id="path448" />
      </symbol>
      <symbol
         overflow="visible"
         id="symbol5909">
        <path
           style="stroke:none;"
           d="M 5.1875 -4.71875 C 5.1875 -4.84375 5.1875 -4.90625 5.09375 -4.90625 C 5.0625 -4.90625 5.03125 -4.90625 4.96875 -4.8125 L 4.59375 -4.28125 C 4.3125 -4.578125 3.828125 -4.90625 3.15625 -4.90625 C 1.6875 -4.90625 0.484375 -3.765625 0.484375 -2.390625 C 0.484375 -0.96875 1.71875 0.140625 3.15625 0.140625 C 4.390625 0.140625 5.1875 -0.78125 5.1875 -1.625 C 5.1875 -1.703125 5.171875 -1.765625 5.0625 -1.765625 C 5.03125 -1.765625 4.953125 -1.765625 4.953125 -1.671875 C 4.890625 -0.546875 3.9375 -0.109375 3.25 -0.109375 C 2.515625 -0.109375 1.234375 -0.5625 1.234375 -2.375 C 1.234375 -4.265625 2.578125 -4.640625 3.234375 -4.640625 C 3.9375 -4.640625 4.75 -4.1875 4.9375 -2.984375 C 4.953125 -2.90625 5.015625 -2.90625 5.0625 -2.90625 C 5.1875 -2.90625 5.1875 -2.953125 5.1875 -3.09375 Z M 5.1875 -4.71875 "
           id="path1266" />
      </symbol>
      <symbol
         overflow="visible"
         id="symbol2736">
        <path
           style="stroke:none;"
           d="M 3.109375 -1.875 C 3.109375 -2.234375 3.109375 -2.5 2.78125 -2.765625 C 2.5 -3 2.171875 -3.109375 1.75 -3.109375 C 1.09375 -3.109375 0.625 -2.859375 0.625 -2.4375 C 0.625 -2.203125 0.78125 -2.09375 0.96875 -2.09375 C 1.15625 -2.09375 1.296875 -2.234375 1.296875 -2.421875 C 1.296875 -2.53125 1.234375 -2.6875 1.046875 -2.734375 C 1.296875 -2.90625 1.703125 -2.90625 1.734375 -2.90625 C 2.125 -2.90625 2.5625 -2.65625 2.5625 -2.0625 L 2.5625 -1.859375 C 2.171875 -1.84375 1.71875 -1.8125 1.203125 -1.625 C 0.578125 -1.40625 0.390625 -1.015625 0.390625 -0.703125 C 0.390625 -0.109375 1.109375 0.0625 1.609375 0.0625 C 2.15625 0.0625 2.484375 -0.25 2.640625 -0.515625 C 2.65625 -0.234375 2.84375 0.03125 3.171875 0.03125 C 3.1875 0.03125 3.859375 0.03125 3.859375 -0.625 L 3.859375 -1.015625 L 3.625 -1.015625 L 3.625 -0.640625 C 3.625 -0.5625 3.625 -0.234375 3.359375 -0.234375 C 3.109375 -0.234375 3.109375 -0.5625 3.109375 -0.640625 Z M 2.5625 -0.984375 C 2.5625 -0.3125 1.96875 -0.125 1.65625 -0.125 C 1.296875 -0.125 0.96875 -0.359375 0.96875 -0.703125 C 0.96875 -1.09375 1.296875 -1.625 2.5625 -1.671875 Z M 2.5625 -0.984375 "
           id="path529" />
      </symbol>
      <symbol
         overflow="visible"
         id="symbol2907">
        <path
           style="stroke:none;"
           d="M 5.734375 -2.109375 C 5.734375 -2.71875 5.421875 -3.078125 4.6875 -3.078125 C 4.125 -3.078125 3.75 -2.78125 3.5625 -2.421875 C 3.421875 -2.921875 3.046875 -3.078125 2.546875 -3.078125 C 1.96875 -3.078125 1.609375 -2.765625 1.40625 -2.390625 L 1.40625 -3.078125 L 0.375 -3 L 0.375 -2.75 C 0.84375 -2.75 0.90625 -2.703125 0.90625 -2.359375 L 0.90625 -0.546875 C 0.90625 -0.25 0.828125 -0.25 0.375 -0.25 L 0.375 0 C 0.390625 0 0.875 -0.03125 1.171875 -0.03125 C 1.421875 -0.03125 1.90625 0 1.96875 0 L 1.96875 -0.25 C 1.515625 -0.25 1.453125 -0.25 1.453125 -0.546875 L 1.453125 -1.8125 C 1.453125 -2.53125 2.03125 -2.875 2.484375 -2.875 C 2.96875 -2.875 3.03125 -2.5 3.03125 -2.140625 L 3.03125 -0.546875 C 3.03125 -0.25 2.96875 -0.25 2.515625 -0.25 L 2.515625 0 C 2.53125 0 3.015625 -0.03125 3.3125 -0.03125 C 3.5625 -0.03125 4.046875 0 4.109375 0 L 4.109375 -0.25 C 3.65625 -0.25 3.59375 -0.25 3.59375 -0.546875 L 3.59375 -1.8125 C 3.59375 -2.53125 4.171875 -2.875 4.625 -2.875 C 5.109375 -2.875 5.171875 -2.5 5.171875 -2.140625 L 5.171875 -0.546875 C 5.171875 -0.25 5.109375 -0.25 4.65625 -0.25 L 4.65625 0 C 4.671875 0 5.15625 -0.03125 5.453125 -0.03125 C 5.703125 -0.03125 6.1875 0 6.25 0 L 6.25 -0.25 C 5.796875 -0.25 5.734375 -0.25 5.734375 -0.546875 Z M 5.734375 -2.109375 "
           id="path2550" />
      </symbol>
      <symbol
         overflow="visible"
         id="symbol8392">
        <path
           style="stroke:none;"
           d="M 3.0625 -1.59375 C 3.21875 -1.59375 3.265625 -1.59375 3.265625 -1.734375 C 3.265625 -2.359375 2.921875 -3.109375 1.875 -3.109375 C 0.96875 -3.109375 0.265625 -2.390625 0.265625 -1.53125 C 0.265625 -0.640625 1.046875 0.0625 1.96875 0.0625 C 2.90625 0.0625 3.265625 -0.6875 3.265625 -0.84375 C 3.265625 -0.859375 3.25 -0.9375 3.140625 -0.9375 C 3.046875 -0.9375 3.03125 -0.890625 3.015625 -0.828125 C 2.796875 -0.265625 2.265625 -0.15625 2.015625 -0.15625 C 1.6875 -0.15625 1.375 -0.296875 1.171875 -0.5625 C 0.90625 -0.890625 0.90625 -1.3125 0.90625 -1.59375 Z M 0.90625 -1.765625 C 0.984375 -2.75 1.609375 -2.90625 1.875 -2.90625 C 2.734375 -2.90625 2.765625 -1.9375 2.78125 -1.765625 Z M 0.90625 -1.765625 "
           id="path8711" />
      </symbol>
      <symbol
         overflow="visible"
         id="symbol8122">
        <path
           style="stroke:none;"
           d="M 1.390625 -1.59375 C 1.390625 -2.171875 1.65625 -2.875 2.328125 -2.875 C 2.265625 -2.828125 2.203125 -2.734375 2.203125 -2.625 C 2.203125 -2.390625 2.390625 -2.3125 2.515625 -2.3125 C 2.6875 -2.3125 2.84375 -2.421875 2.84375 -2.625 C 2.84375 -2.859375 2.609375 -3.078125 2.28125 -3.078125 C 1.9375 -3.078125 1.546875 -2.859375 1.34375 -2.328125 L 1.34375 -3.078125 L 0.34375 -3 L 0.34375 -2.75 C 0.8125 -2.75 0.859375 -2.703125 0.859375 -2.359375 L 0.859375 -0.546875 C 0.859375 -0.25 0.796875 -0.25 0.34375 -0.25 L 0.34375 0 C 0.375 0 0.84375 -0.03125 1.140625 -0.03125 C 1.4375 -0.03125 1.734375 -0.015625 2.046875 0 L 2.046875 -0.25 L 1.90625 -0.25 C 1.390625 -0.25 1.390625 -0.328125 1.390625 -0.5625 Z M 1.390625 -1.59375 "
           id="path6357" />
      </symbol>
      <symbol
         overflow="visible"
         id="symbol7897">
        <path
           style="stroke:none;"
           d="M 3.6875 -1.484375 C 3.6875 -2.359375 2.9375 -3.109375 1.984375 -3.109375 C 1.015625 -3.109375 0.265625 -2.359375 0.265625 -1.484375 C 0.265625 -0.625 1.03125 0.0625 1.984375 0.0625 C 2.921875 0.0625 3.6875 -0.625 3.6875 -1.484375 Z M 1.984375 -0.15625 C 1.71875 -0.15625 1.34375 -0.234375 1.109375 -0.578125 C 0.921875 -0.859375 0.90625 -1.21875 0.90625 -1.546875 C 0.90625 -1.84375 0.90625 -2.265625 1.15625 -2.5625 C 1.328125 -2.765625 1.625 -2.90625 1.984375 -2.90625 C 2.390625 -2.90625 2.6875 -2.71875 2.84375 -2.5 C 3.03125 -2.234375 3.046875 -1.875 3.046875 -1.546875 C 3.046875 -1.21875 3.03125 -0.84375 2.828125 -0.5625 C 2.640625 -0.296875 2.328125 -0.15625 1.984375 -0.15625 Z M 1.984375 -0.15625 "
           id="path2902" />
      </symbol>
      <symbol
         overflow="visible"
         id="symbol9341">
        <path
           style="stroke:none;"
           d="M 3.59375 -2.109375 C 3.59375 -2.71875 3.296875 -3.078125 2.546875 -3.078125 C 1.96875 -3.078125 1.609375 -2.765625 1.40625 -2.390625 L 1.40625 -3.078125 L 0.375 -3 L 0.375 -2.75 C 0.84375 -2.75 0.90625 -2.703125 0.90625 -2.359375 L 0.90625 -0.546875 C 0.90625 -0.25 0.828125 -0.25 0.375 -0.25 L 0.375 0 C 0.390625 0 0.875 -0.03125 1.171875 -0.03125 C 1.421875 -0.03125 1.90625 0 1.96875 0 L 1.96875 -0.25 C 1.515625 -0.25 1.453125 -0.25 1.453125 -0.546875 L 1.453125 -1.8125 C 1.453125 -2.53125 2.03125 -2.875 2.484375 -2.875 C 2.96875 -2.875 3.03125 -2.5 3.03125 -2.140625 L 3.03125 -0.546875 C 3.03125 -0.25 2.96875 -0.25 2.515625 -0.25 L 2.515625 0 C 2.53125 0 3.015625 -0.03125 3.3125 -0.03125 C 3.5625 -0.03125 4.046875 0 4.109375 0 L 4.109375 -0.25 C 3.65625 -0.25 3.59375 -0.25 3.59375 -0.546875 Z M 3.59375 -2.109375 "
           id="path4963" />
      </symbol>
    </g>
  </defs>
  <metadata
     id="metadata5">
    <rdf:RDF>
      <cc:Work
         rdf:about="">
        <dc:format>image/svg+xml</dc:format>
        <dc:type
           rdf:resource="http://purl.org/dc/dcmitype/StillImage" />
        <dc:title></dc:title>
      </cc:Work>
    </rdf:RDF>
  </metadata>
  <g
     inkscape:label="Layer 1"
     inkscape:groupmode="layer"
     id="layer1"
     transform="translate(0,-87)">
    <path
       style="fill:none;stroke:#000000;stroke-width:1.06500006;stroke-linecap:butt;stroke-linejoin:miter;stroke-miterlimit:4;stroke-dasharray:none;stroke-opacity:1"
       d="m 133.44827,137.68024 0.19893,95.28657 89.72923,0.0145"
       id="path3713-3"
       inkscape:connector-curvature="0"
       sodipodi:nodetypes="ccc" />
    <path
       style="fill:none;stroke:#000000;stroke-width:0.765;stroke-linecap:butt;stroke-linejoin:miter;stroke-miterlimit:4;stroke-dasharray:none;stroke-opacity:1"
       d="m 133.38672,153.45996 c 40.34134,4.79946 47.14502,27.25178 55.14645,79.2357"
       id="path7728"
       inkscape:connector-curvature="0"
       sodipodi:nodetypes="cc" />
    <text
       xml:space="preserve"
       id="text852"
       style="font-size:5.64444px;line-height:1.25;font-family:sans-serif;white-space:pre;shape-inside:url(#rect854);" />
    <g
       inkscape:label=""
       transform="matrix(0.73176252,0,0,0.73994844,58.214623,74.68567)"
       id="g879">
      <g
         id="g5473">
        <g
           style="fill:#000000;fill-opacity:1"
           id="g2223">
          <use
             xlink:href="#symbol2413"
             x="91.925003"
             y="81.962997"
             id="use1592"
             width="100%"
             height="100%" />
        </g>
        <g
           style="fill:#000000;fill-opacity:1"
           id="g2960">
          <use
             xlink:href="#symbol7685"
             x="97.709"
             y="83.457001"
             id="use3724"
             width="100%"
             height="100%" />
        </g>
      </g>
    </g>
    <g
       inkscape:label=""
       transform="matrix(0.73176252,0,0,0.73994844,158.67101,177.64225)"
       id="g935">
      <g
         id="g9957">
        <g
           style="fill:#000000;fill-opacity:1"
           id="g5656">
          <use
             xlink:href="#symbol5867"
             x="91.925003"
             y="81.962997"
             id="use347"
             width="100%"
             height="100%" />
        </g>
        <g
           style="fill:#000000;fill-opacity:1"
           id="g8982">
          <use
             xlink:href="#symbol5013"
             x="97.709"
             y="83.457001"
             id="use4568"
             width="100%"
             height="100%" />
        </g>
      </g>
    </g>
    <g
       inkscape:label=""
       transform="matrix(0.73176252,0,0,0.73994844,99.425777,102.33068)"
       id="g1023">
      <g
         id="g4311">
        <g
           style="fill:#000000;fill-opacity:1"
           id="g9607">
          <use
             xlink:href="#symbol9610"
             x="91.925003"
             y="81.962997"
             id="use8017"
             width="100%"
             height="100%" />
        </g>
        <g
           style="fill:#000000;fill-opacity:1"
           id="g7159">
          <use
             xlink:href="#symbol9610"
             x="99.705788"
             y="81.962997"
             id="use4735"
             width="100%"
             height="100%" />
        </g>
        <g
           style="fill:#000000;fill-opacity:1"
           id="g9411">
          <use
             xlink:href="#symbol4384"
             x="107.48658"
             y="81.962997"
             id="use6782"
             width="100%"
             height="100%" />
        </g>
        <g
           style="fill:#000000;fill-opacity:1"
           id="g2708">
          <use
             xlink:href="#symbol7996"
             x="113.892"
             y="83.457001"
             id="use2428"
             width="100%"
             height="100%" />
          <use
             xlink:href="#symbol4400"
             x="119.57913"
             y="83.457001"
             id="use1530"
             width="100%"
             height="100%" />
          <use
             xlink:href="#symbol7141"
             x="123.9796"
             y="83.457001"
             id="use4584"
             width="100%"
             height="100%" />
          <use
             xlink:href="#symbol3059"
             x="126.23493"
             y="83.457001"
             id="use1886"
             width="100%"
             height="100%" />
          <use
             xlink:href="#symbol7312"
             x="130.63539"
             y="83.457001"
             id="use6443"
             width="100%"
             height="100%" />
        </g>
      </g>
    </g>
    <path
       style="fill:none;stroke:#000000;stroke-width:0.765;stroke-linecap:butt;stroke-linejoin:miter;stroke-miterlimit:4;stroke-dasharray:none;stroke-opacity:1"
       d="m 133.38672,220.78489 c 15.54613,-1.61172 35.93789,3.38208 35.83524,11.74599"
       id="path1087"
       sodipodi:nodetypes="cc" />
    <g
       inkscape:label=""
       transform="matrix(0.60969656,0,0,0.64810345,49.306863,103.20629)"
       id="g1203">
      <g
         id="g5996">
        <g
           style="fill:#000000;fill-opacity:1"
           id="g7545">
          <use
             xlink:href="#symbol7825"
             x="91.925003"
             y="81.962997"
             id="use6309"
             width="100%"
             height="100%" />
          <use
             xlink:href="#symbol4788"
             x="96.906303"
             y="81.962997"
             id="use9391"
             width="100%"
             height="100%" />
        </g>
        <g
           style="fill:#000000;fill-opacity:1"
           id="g7612">
          <use
             xlink:href="#symbol5953"
             x="101.888"
             y="81.962997"
             id="use1010"
             width="100%"
             height="100%" />
        </g>
        <g
           style="fill:#000000;fill-opacity:1"
           id="g6456">
          <use
             xlink:href="#symbol4788"
             x="106.316"
             y="81.962997"
             id="use9614"
             width="100%"
             height="100%" />
          <use
             xlink:href="#symbol4788"
             x="111.2973"
             y="81.962997"
             id="use7801"
             width="100%"
             height="100%" />
          <use
             xlink:href="#symbol4788"
             x="116.2786"
             y="81.962997"
             id="use7180"
             width="100%"
             height="100%" />
        </g>
        <g
           style="fill:#000000;fill-opacity:1"
           id="g2347">
          <use
             xlink:href="#symbol6887"
             x="121.26"
             y="81.962997"
             id="use1035"
             width="100%"
             height="100%" />
        </g>
        <g
           style="fill:#000000;fill-opacity:1"
           id="g3067">
          <use
             xlink:href="#symbol3500"
             x="128.73199"
             y="83.457001"
             id="use1837"
             width="100%"
             height="100%" />
        </g>
      </g>
    </g>
    <g
       inkscape:label=""
       transform="matrix(0.60969656,0,0,0.64810345,123.74667,189.20715)"
       id="g1390">
      <g
         id="g5599">
        <g
           style="fill:#000000;fill-opacity:1"
           id="g5230">
          <use
             xlink:href="#symbol2409"
             x="91.925003"
             y="81.962997"
             id="use6570"
             width="100%"
             height="100%" />
        </g>
        <g
           style="fill:#000000;fill-opacity:1"
           id="g7417">
          <use
             xlink:href="#symbol4223"
             x="96.906998"
             y="81.962997"
             id="use8148"
             width="100%"
             height="100%" />
        </g>
        <g
           style="fill:#000000;fill-opacity:1"
           id="g6781">
          <use
             xlink:href="#symbol2808"
             x="101.334"
             y="81.962997"
             id="use1048"
             width="100%"
             height="100%" />
          <use
             xlink:href="#symbol2808"
             x="106.3153"
             y="81.962997"
             id="use5925"
             width="100%"
             height="100%" />
          <use
             xlink:href="#symbol2808"
             x="111.2966"
             y="81.962997"
             id="use8422"
             width="100%"
             height="100%" />
        </g>
        <g
           style="fill:#000000;fill-opacity:1"
           id="g4172">
          <use
             xlink:href="#symbol872"
             x="116.278"
             y="81.962997"
             id="use4537"
             width="100%"
             height="100%" />
        </g>
        <g
           style="fill:#000000;fill-opacity:1"
           id="g9972">
          <use
             xlink:href="#symbol861"
             x="123.75"
             y="83.457001"
             id="use1385"
             width="100%"
             height="100%" />
        </g>
      </g>
    </g>
    <g
       inkscape:label=""
       transform="matrix(0.60969656,0,0,0.64810345,100.27954,189.44063)"
       id="g1601">
      <g
         id="g9275">
        <g
           style="fill:#000000;fill-opacity:1"
           id="g2103">
          <use
             xlink:href="#symbol8506"
             x="91.925003"
             y="81.962997"
             id="use7623"
             width="100%"
             height="100%" />
          <use
             xlink:href="#symbol9144"
             x="96.906303"
             y="81.962997"
             id="use1144"
             width="100%"
             height="100%" />
          <use
             xlink:href="#symbol2395"
             x="101.8876"
             y="81.962997"
             id="use7857"
             width="100%"
             height="100%" />
        </g>
        <g
           style="fill:#000000;fill-opacity:1"
           id="g2431">
          <use
             xlink:href="#symbol5584"
             x="106.869"
             y="81.962997"
             id="use7048"
             width="100%"
             height="100%" />
        </g>
        <g
           style="fill:#000000;fill-opacity:1"
           id="g9406">
          <use
             xlink:href="#symbol7763"
             x="114.341"
             y="83.457001"
             id="use8829"
             width="100%"
             height="100%" />
        </g>
      </g>
    </g>
    <g
       inkscape:label=""
       transform="matrix(0.70076937,0,0,0.67720843,46.290483,167.51915)"
       id="g2078">
      <g
         id="g5970">
        <g
           style="fill:#000000;fill-opacity:1"
           id="g2761">
          <use
             xlink:href="#symbol5698"
             x="91.925003"
             y="81.962997"
             id="use8780"
             width="100%"
             height="100%" />
          <use
             xlink:href="#symbol366"
             x="96.906303"
             y="81.962997"
             id="use463"
             width="100%"
             height="100%" />
          <use
             xlink:href="#symbol366"
             x="101.8876"
             y="81.962997"
             id="use9533"
             width="100%"
             height="100%" />
        </g>
        <g
           style="fill:#000000;fill-opacity:1"
           id="g9314">
          <use
             xlink:href="#symbol2422"
             x="106.869"
             y="81.962997"
             id="use6196"
             width="100%"
             height="100%" />
        </g>
        <g
           style="fill:#000000;fill-opacity:1"
           id="g4591">
          <use
             xlink:href="#symbol586"
             x="114.341"
             y="83.457001"
             id="use2705"
             width="100%"
             height="100%" />
        </g>
      </g>
    </g>
    <g
       inkscape:label=""
       transform="matrix(0.719046,0,0,0.76431676,72.329889,153.91178)"
       id="g2350">
      <g
         id="g5244">
        <g
           style="fill:#000000;fill-opacity:1"
           id="g112">
          <use
             xlink:href="#symbol6617"
             x="91.925003"
             y="81.962997"
             id="use5354"
             width="100%"
             height="100%" />
        </g>
        <g
           style="fill:#000000;fill-opacity:1"
           id="g7825">
          <use
             xlink:href="#symbol6617"
             x="99.705788"
             y="81.962997"
             id="use4959"
             width="100%"
             height="100%" />
        </g>
        <g
           style="fill:#000000;fill-opacity:1"
           id="g7475">
          <use
             xlink:href="#symbol2249"
             x="107.48658"
             y="81.962997"
             id="use2669"
             width="100%"
             height="100%" />
        </g>
        <g
           style="fill:#000000;fill-opacity:1"
           id="g104">
          <use
             xlink:href="#symbol5909"
             x="113.892"
             y="83.457001"
             id="use1948"
             width="100%"
             height="100%" />
          <use
             xlink:href="#symbol2736"
             x="119.57913"
             y="83.457001"
             id="use3489"
             width="100%"
             height="100%" />
          <use
             xlink:href="#symbol2907"
             x="123.55071"
             y="83.457001"
             id="use1937"
             width="100%"
             height="100%" />
          <use
             xlink:href="#symbol8392"
             x="130.09563"
             y="83.457001"
             id="use4834"
             width="100%"
             height="100%" />
          <use
             xlink:href="#symbol8122"
             x="133.63762"
             y="83.457001"
             id="use2795"
             width="100%"
             height="100%" />
          <use
             xlink:href="#symbol7897"
             x="136.75072"
             y="83.457001"
             id="use5462"
             width="100%"
             height="100%" />
        </g>
        <g
           style="fill:#000000;fill-opacity:1"
           id="g826">
          <use
             xlink:href="#symbol7897"
             x="140.93849"
             y="83.457001"
             id="use2751"
             width="100%"
             height="100%" />
          <use
             xlink:href="#symbol9341"
             x="144.91006"
             y="83.457001"
             id="use6992"
             width="100%"
             height="100%" />
        </g>
      </g>
    </g>
  </g>
</svg>
