<?xml version="1.0" encoding="UTF-8" standalone="no"?>
<svg
   xmlns:dc="http://purl.org/dc/elements/1.1/"
   xmlns:cc="http://creativecommons.org/ns#"
   xmlns:rdf="http://www.w3.org/1999/02/22-rdf-syntax-ns#"
   xmlns:svg="http://www.w3.org/2000/svg"
   xmlns="http://www.w3.org/2000/svg"
   xmlns:xlink="http://www.w3.org/1999/xlink"
   xmlns:sodipodi="http://sodipodi.sourceforge.net/DTD/sodipodi-0.dtd"
   xmlns:inkscape="http://www.inkscape.org/namespaces/inkscape"
   width="297mm"
   height="210mm"
   viewBox="0 0 297 210"
   version="1.1"
   id="svg1307"
   sodipodi:docname="wrk8_3.svg"
   inkscape:version="1.0.1 (3bc2e813f5, 2020-09-07)">
  <defs
     id="defs1301">
    <rect
       x="9.3499373"
       y="77.982456"
       width="17.506266"
       height="13.527569"
       id="rect2404" />
    <rect
       x="9.1510025"
       y="83.154762"
       width="19.495614"
       height="12.930764"
       id="rect2398" />
    <rect
       x="14.522243"
       y="78.579261"
       width="19.097744"
       height="22.081767"
       id="rect2392" />
    <rect
       x="7.7584586"
       y="55.10495"
       width="19.296679"
       height="11.737155"
       id="rect2386" />
    <rect
       x="4.5755013"
       y="79.573935"
       width="23.076441"
       height="15.516917"
       id="rect2380" />
    <rect
       x="11.93609"
       y="114.38753"
       width="20.689223"
       height="29.442356"
       id="rect2370" />
    <rect
       x="9.1510025"
       y="118.16729"
       width="31.829574"
       height="32.227444"
       id="rect2364" />
    <rect
       x="5.7691103"
       y="126.12469"
       width="28.646617"
       height="32.227444"
       id="rect2292" />
    <rect
       x="143.43202"
       y="175.06266"
       width="31.630639"
       height="12.33396"
       id="rect2286" />
    <rect
       x="9.9467419"
       y="93.499373"
       width="26.259398"
       height="17.108396"
       id="rect2274" />
    <rect
       x="21.484962"
       y="49.136905"
       width="22.479637"
       height="21.087093"
       id="rect2123" />
    <rect
       x="13.129699"
       y="81.762218"
       width="26.657268"
       height="24.66792"
       id="rect2117" />
    <g
       id="g1824">
      <symbol
         overflow="visible"
         id="symbol282">
        <path
           style="stroke:none;"
           d=""
           id="path24" />
      </symbol>
      <symbol
         overflow="visible"
         id="symbol9354">
        <path
           style="stroke:none;"
           d="M 4.359375 -0.0625 C 5.90625 -0.640625 7.375 -2.421875 7.375 -4.34375 C 7.375 -5.953125 6.3125 -7.03125 4.828125 -7.03125 C 2.6875 -7.03125 0.484375 -4.765625 0.484375 -2.4375 C 0.484375 -0.78125 1.609375 0.21875 3.046875 0.21875 C 3.296875 0.21875 3.625 0.171875 4.015625 0.0625 C 3.984375 0.6875 3.984375 0.703125 3.984375 0.84375 C 3.984375 1.15625 3.984375 1.9375 4.8125 1.9375 C 5.984375 1.9375 6.46875 0.109375 6.46875 0 C 6.46875 -0.0625 6.40625 -0.09375 6.359375 -0.09375 C 6.28125 -0.09375 6.265625 -0.046875 6.234375 0.015625 C 6 0.71875 5.421875 0.96875 5.078125 0.96875 C 4.609375 0.96875 4.46875 0.703125 4.359375 -0.0625 Z M 2.484375 -0.140625 C 1.703125 -0.453125 1.359375 -1.21875 1.359375 -2.125 C 1.359375 -2.8125 1.625 -4.234375 2.375 -5.296875 C 3.109375 -6.3125 4.046875 -6.78125 4.78125 -6.78125 C 5.765625 -6.78125 6.5 -6 6.5 -4.671875 C 6.5 -3.671875 5.984375 -1.328125 4.3125 -0.40625 C 4.265625 -0.75 4.171875 -1.46875 3.4375 -1.46875 C 2.90625 -1.46875 2.421875 -0.984375 2.421875 -0.453125 C 2.421875 -0.265625 2.484375 -0.15625 2.484375 -0.140625 Z M 3.09375 -0.03125 C 2.953125 -0.03125 2.640625 -0.03125 2.640625 -0.453125 C 2.640625 -0.859375 3.015625 -1.25 3.4375 -1.25 C 3.859375 -1.25 4.046875 -1.015625 4.046875 -0.40625 C 4.046875 -0.265625 4.03125 -0.25 3.9375 -0.203125 C 3.671875 -0.09375 3.375 -0.03125 3.09375 -0.03125 Z M 3.09375 -0.03125 "
           id="path6269" />
      </symbol>
    </g>
    <g
       id="g9779">
      <symbol
         overflow="visible"
         id="symbol9855">
        <path
           style="stroke:none;"
           d=""
           id="path7247" />
      </symbol>
      <symbol
         overflow="visible"
         id="symbol8328">
        <path
           style="stroke:none;"
           d="M 3.015625 -3.15625 L 4.71875 -3.15625 C 6.125 -3.15625 7.515625 -4.1875 7.515625 -5.296875 C 7.515625 -6.078125 6.859375 -6.8125 5.546875 -6.8125 L 2.328125 -6.8125 C 2.140625 -6.8125 2.03125 -6.8125 2.03125 -6.625 C 2.03125 -6.5 2.109375 -6.5 2.3125 -6.5 C 2.4375 -6.5 2.625 -6.484375 2.734375 -6.484375 C 2.90625 -6.453125 2.953125 -6.4375 2.953125 -6.3125 C 2.953125 -6.28125 2.953125 -6.25 2.921875 -6.125 L 1.578125 -0.78125 C 1.484375 -0.390625 1.46875 -0.3125 0.671875 -0.3125 C 0.515625 -0.3125 0.40625 -0.3125 0.40625 -0.125 C 0.40625 0 0.515625 0 0.546875 0 C 0.828125 0 1.53125 -0.03125 1.8125 -0.03125 C 2.03125 -0.03125 2.25 -0.015625 2.453125 -0.015625 C 2.671875 -0.015625 2.890625 0 3.09375 0 C 3.171875 0 3.296875 0 3.296875 -0.203125 C 3.296875 -0.3125 3.203125 -0.3125 3.015625 -0.3125 C 2.65625 -0.3125 2.375 -0.3125 2.375 -0.484375 C 2.375 -0.546875 2.390625 -0.59375 2.40625 -0.65625 Z M 3.734375 -6.125 C 3.828125 -6.46875 3.84375 -6.5 4.28125 -6.5 L 5.234375 -6.5 C 6.0625 -6.5 6.59375 -6.234375 6.59375 -5.546875 C 6.59375 -5.15625 6.390625 -4.296875 6 -3.9375 C 5.5 -3.484375 4.90625 -3.40625 4.46875 -3.40625 L 3.0625 -3.40625 Z M 3.734375 -6.125 "
           id="path3226" />
      </symbol>
    </g>
    <rect
       x="11.176365"
       y="61.812141"
       width="25.545977"
       height="13.685345"
       id="rect1178" />
    <rect
       x="11.176365"
       y="61.812141"
       width="25.545977"
       height="13.685345"
       id="rect1995" />
    <rect
       x="7.9831176"
       y="111.07938"
       width="21.440374"
       height="23.493176"
       id="rect1184" />
    <rect
       x="7.9831176"
       y="111.07938"
       width="21.440374"
       height="23.493176"
       id="rect2024" />
    <rect
       x="2.965158"
       y="91.235634"
       width="31.020115"
       height="22.35273"
       id="rect1192" />
    <rect
       x="2.965158"
       y="91.235634"
       width="31.020115"
       height="22.35273"
       id="rect2068" />
    <g
       id="g9521">
      <symbol
         overflow="visible"
         id="symbol3923">
        <path
           style="stroke:none;"
           d=""
           id="path1647" />
      </symbol>
      <symbol
         overflow="visible"
         id="symbol1004">
        <path
           style="stroke:none;"
           d="M 1.578125 -0.78125 C 1.484375 -0.390625 1.46875 -0.3125 0.671875 -0.3125 C 0.515625 -0.3125 0.40625 -0.3125 0.40625 -0.125 C 0.40625 0 0.484375 0 0.671875 0 L 3.984375 0 C 6.046875 0 8.015625 -2.109375 8.015625 -4.28125 C 8.015625 -5.6875 7.171875 -6.8125 5.671875 -6.8125 L 2.328125 -6.8125 C 2.140625 -6.8125 2.03125 -6.8125 2.03125 -6.625 C 2.03125 -6.5 2.109375 -6.5 2.3125 -6.5 C 2.4375 -6.5 2.625 -6.484375 2.734375 -6.484375 C 2.90625 -6.453125 2.953125 -6.4375 2.953125 -6.3125 C 2.953125 -6.28125 2.953125 -6.25 2.921875 -6.125 Z M 3.734375 -6.125 C 3.828125 -6.46875 3.84375 -6.5 4.28125 -6.5 L 5.34375 -6.5 C 6.3125 -6.5 7.140625 -5.96875 7.140625 -4.65625 C 7.140625 -4.171875 6.953125 -2.53125 6.09375 -1.4375 C 5.8125 -1.0625 5.03125 -0.3125 3.796875 -0.3125 L 2.671875 -0.3125 C 2.53125 -0.3125 2.515625 -0.3125 2.453125 -0.3125 C 2.359375 -0.328125 2.328125 -0.34375 2.328125 -0.421875 C 2.328125 -0.453125 2.328125 -0.46875 2.375 -0.640625 Z M 3.734375 -6.125 "
           id="path5009" />
      </symbol>
    </g>
    <g
       id="g5784">
      <symbol
         overflow="visible"
         id="symbol6969">
        <path
           style="stroke:none;"
           d=""
           id="path1008" />
      </symbol>
      <symbol
         overflow="visible"
         id="symbol8938">
        <path
           style="stroke:none;"
           d="M 6.4375 -6.921875 C 6.4375 -6.953125 6.40625 -7.03125 6.3125 -7.03125 C 6.265625 -7.03125 6.265625 -7.015625 6.140625 -6.875 L 5.65625 -6.3125 C 5.40625 -6.78125 4.890625 -7.03125 4.234375 -7.03125 C 2.96875 -7.03125 1.78125 -5.875 1.78125 -4.671875 C 1.78125 -3.875 2.296875 -3.40625 2.8125 -3.265625 L 3.875 -2.984375 C 4.25 -2.890625 4.796875 -2.734375 4.796875 -1.921875 C 4.796875 -1.03125 3.984375 -0.09375 3 -0.09375 C 2.359375 -0.09375 1.25 -0.3125 1.25 -1.546875 C 1.25 -1.78125 1.3125 -2.03125 1.3125 -2.078125 C 1.328125 -2.125 1.328125 -2.140625 1.328125 -2.15625 C 1.328125 -2.25 1.265625 -2.265625 1.21875 -2.265625 C 1.171875 -2.265625 1.140625 -2.25 1.109375 -2.21875 C 1.078125 -2.1875 0.515625 0.09375 0.515625 0.125 C 0.515625 0.171875 0.5625 0.21875 0.625 0.21875 C 0.671875 0.21875 0.6875 0.203125 0.8125 0.0625 L 1.296875 -0.5 C 1.71875 0.078125 2.40625 0.21875 2.984375 0.21875 C 4.34375 0.21875 5.515625 -1.109375 5.515625 -2.34375 C 5.515625 -3.03125 5.171875 -3.375 5.03125 -3.515625 C 4.796875 -3.734375 4.640625 -3.78125 3.765625 -4 C 3.53125 -4.0625 3.1875 -4.171875 3.09375 -4.1875 C 2.828125 -4.28125 2.484375 -4.5625 2.484375 -5.09375 C 2.484375 -5.90625 3.28125 -6.75 4.234375 -6.75 C 5.046875 -6.75 5.65625 -6.3125 5.65625 -5.203125 C 5.65625 -4.890625 5.625 -4.703125 5.625 -4.640625 C 5.625 -4.640625 5.625 -4.546875 5.734375 -4.546875 C 5.84375 -4.546875 5.859375 -4.578125 5.890625 -4.75 Z M 6.4375 -6.921875 "
           id="path3425" />
      </symbol>
    </g>
    <rect
       x="7.0707617"
       y="76.637932"
       width="20.528017"
       height="11.632543"
       id="rect1240" />
    <rect
       x="7.0707617"
       y="76.637932"
       width="20.528017"
       height="11.632543"
       id="rect2305" />
    <rect
       x="8.2112064"
       y="111.53556"
       width="23.721264"
       height="11.632543"
       id="rect1252" />
    <rect
       x="8.2112064"
       y="111.53556"
       width="23.721264"
       height="11.632543"
       id="rect2334" />
  </defs>
  <sodipodi:namedview
     id="base"
     pagecolor="#ffffff"
     bordercolor="#666666"
     borderopacity="1.0"
     inkscape:pageopacity="0.0"
     inkscape:pageshadow="2"
     inkscape:zoom="1.33"
     inkscape:cx="400"
     inkscape:cy="413.25382"
     inkscape:document-units="mm"
     inkscape:current-layer="layer1"
     inkscape:document-rotation="0"
     showgrid="false"
     inkscape:window-width="1920"
     inkscape:window-height="1017"
     inkscape:window-x="-8"
     inkscape:window-y="-8"
     inkscape:window-maximized="1" />
  <metadata
     id="metadata1304">
    <rdf:RDF>
      <cc:Work
         rdf:about="">
        <dc:format>image/svg+xml</dc:format>
        <dc:type
           rdf:resource="http://purl.org/dc/dcmitype/StillImage" />
        <dc:title></dc:title>
      </cc:Work>
    </rdf:RDF>
  </metadata>
  <g
     inkscape:label="Layer 1"
     inkscape:groupmode="layer"
     id="layer1">
    <path
       style="fill:none;stroke:#000000;stroke-width:1.065;stroke-linecap:butt;stroke-linejoin:miter;stroke-miterlimit:4;stroke-dasharray:none;stroke-opacity:1"
       d="m 52.2702,33.263296 -0.22809,134.572554 150.08262,0.45618"
       id="path833"
       sodipodi:nodetypes="ccc" />
    <g
       inkscape:label=""
       transform="translate(113.81612,89.547749)"
       id="g1909">
      <g
         id="g7467">
        <g
           style="fill:#000000;fill-opacity:1"
           id="g437">
          <use
             xlink:href="#symbol9354"
             x="91.925003"
             y="81.962997"
             id="use3823"
             width="100%"
             height="100%" />
        </g>
      </g>
    </g>
    <g
       inkscape:label=""
       transform="translate(-47.89904,-51.183214)"
       id="g1943">
      <g
         id="g8127">
        <g
           style="fill:#000000;fill-opacity:1"
           id="g2833">
          <use
             xlink:href="#symbol8328"
             x="91.925003"
             y="81.962997"
             id="use9784"
             width="100%"
             height="100%" />
        </g>
      </g>
    </g>
    <path
       style="fill:none;stroke:#000000;stroke-width:0.865;stroke-linecap:butt;stroke-linejoin:miter;stroke-miterlimit:4;stroke-dasharray:none;stroke-opacity:1"
       d="M 52.232406,44.30759 190.71505,168.3709"
       id="path835"
       sodipodi:nodetypes="cc" />
    <path
       style="fill:none;stroke:#000000;stroke-width:0.865;stroke-linecap:butt;stroke-linejoin:miter;stroke-miterlimit:4;stroke-dasharray:none;stroke-opacity:1"
       d="M 70.107385,167.86414 168.69675,39.851278"
       id="path837"
       sodipodi:nodetypes="cc" />
    <text
       xml:space="preserve"
       id="text2121"
       style="font-size:5.64444px;line-height:1.25;font-family:sans-serif;white-space:pre;shape-inside:url(#rect2123);"
       transform="translate(16.710526,-7.5595238)"><tspan
         x="21.484375"
         y="54.286313"><tspan>400</tspan></tspan></text>
    <g
       inkscape:label=""
       transform="translate(95.886258,79.499774)"
       id="g2177">
      <g
         id="g8203">
        <g
           style="fill:#000000;fill-opacity:1"
           id="g422">
          <use
             xlink:href="#symbol1004"
             x="91.925003"
             y="81.962997"
             id="use746"
             width="100%"
             height="100%" />
        </g>
      </g>
    </g>
    <g
       inkscape:label=""
       transform="translate(76.788514,-31.704799)"
       id="g2255">
      <g
         id="g6413">
        <g
           style="fill:#000000;fill-opacity:1"
           id="g5311">
          <use
             xlink:href="#symbol8938"
             x="91.925003"
             y="81.962997"
             id="use6774"
             width="100%"
             height="100%" />
        </g>
      </g>
    </g>
    <text
       xml:space="preserve"
       id="text2272"
       style="font-size:5.64444px;line-height:1.25;font-family:sans-serif;white-space:pre;shape-inside:url(#rect2274);"
       transform="translate(28.646617,33.421053)"><tspan
         x="9.9472656"
         y="98.649594"><tspan>100</tspan></tspan></text>
    <path
       style="fill:none;stroke:#000000;stroke-width:0.465;stroke-linecap:butt;stroke-linejoin:miter;stroke-opacity:1;stroke-miterlimit:4;stroke-dasharray:0.93,0.465;stroke-dashoffset:0"
       d="m 52.717731,129.30764 94.692989,1e-5"
       id="path2278"
       sodipodi:nodetypes="cc" />
    <path
       style="fill:none;stroke:#000000;stroke-width:0.465;stroke-linecap:butt;stroke-linejoin:miter;stroke-opacity:1;stroke-miterlimit:4;stroke-dasharray:0.93,0.465;stroke-dashoffset:0"
       d="m 99.666352,129.10871 -10e-7,38.99123"
       id="path2280"
       sodipodi:nodetypes="cc" />
    <path
       style="fill:none;stroke:#000000;stroke-width:0.465;stroke-linecap:butt;stroke-linejoin:miter;stroke-opacity:1;stroke-miterlimit:4;stroke-dasharray:0.93,0.465;stroke-dashoffset:0"
       d="m 147.41072,129.30765 0.19893,38.59336"
       id="path2282"
       sodipodi:nodetypes="cc" />
    <text
       xml:space="preserve"
       id="text2284"
       style="font-size:5.64444px;line-height:1.25;font-family:sans-serif;white-space:pre;shape-inside:url(#rect2286);"
       transform="translate(2.5861529,-5.3712406)"><tspan
         x="143.43164"
         y="180.21209"><tspan>150</tspan></tspan></text>
    <text
       xml:space="preserve"
       id="text2290"
       style="font-size:5.64444px;line-height:1.25;font-family:sans-serif;white-space:pre;shape-inside:url(#rect2292);"
       transform="translate(86.138784,43.765664)"><tspan
         x="5.7695312"
         y="131.27459"><tspan>85</tspan></tspan></text>
    <text
       xml:space="preserve"
       id="text1238"
       style="font-size:5.64444px;line-height:1.25;font-family:sans-serif;white-space:pre;shape-inside:url(#rect1240);"
       transform="translate(23.144923,36.242642)"><tspan
         x="7.0703125"
         y="81.788266"><tspan>100.63</tspan></tspan></text>
    <text
       xml:space="preserve"
       id="text1250"
       style="font-size:5.64444px;line-height:1.25;font-family:sans-serif;white-space:pre;shape-inside:url(#rect1252);"
       transform="translate(24.821618,30.390643)"><tspan
         x="8.2109375"
         y="116.68475"><tspan>99.13</tspan></tspan></text>
    <path
       style="fill:none;stroke:#000000;stroke-width:0.465;stroke-linecap:butt;stroke-linejoin:miter;stroke-opacity:1;stroke-miterlimit:4;stroke-dasharray:0.93,0.465;stroke-dashoffset:0"
       d="m 52.717731,146.01817 112.597119,0"
       id="path2354"
       sodipodi:nodetypes="cc" />
    <path
       style="fill:none;stroke:#000000;stroke-width:0.465;stroke-linecap:butt;stroke-linejoin:miter;stroke-opacity:1;stroke-miterlimit:4;stroke-dasharray:0.93,0.465;stroke-dashoffset:0"
       d="m 52.319861,115.38221 79.772869,0.19893"
       id="path2356" />
    <path
       style="fill:none;stroke:#000000;stroke-width:0.465;stroke-linecap:butt;stroke-linejoin:miter;stroke-opacity:1;stroke-miterlimit:4;stroke-dasharray:0.93,0.465;stroke-dashoffset:0"
       d="M 132.09273,115.58114 132.4906,167.901"
       id="path2358"
       sodipodi:nodetypes="cc" />
    <path
       style="fill:none;stroke:#000000;stroke-width:0.465;stroke-linecap:butt;stroke-linejoin:miter;stroke-miterlimit:4;stroke-dasharray:0.93, 0.465;stroke-dashoffset:0;stroke-opacity:1"
       d="m 110.2099,115.38221 0,52.12092"
       id="path2360"
       sodipodi:nodetypes="cc" />
    <text
       xml:space="preserve"
       id="text2362"
       style="font-size:5.64444px;line-height:1.25;font-family:sans-serif;white-space:pre;shape-inside:url(#rect2364);"
       transform="translate(112.19925,51.921992)"><tspan
         x="9.1503906"
         y="123.31756"><tspan>149.69</tspan></tspan></text>
    <text
       xml:space="preserve"
       id="text2368"
       style="font-size:5.64444px;line-height:1.25;font-family:sans-serif;white-space:pre;shape-inside:url(#rect2370);"
       transform="translate(89.719611,55.50282)"><tspan
         x="11.935547"
         y="119.53631"><tspan>85.22</tspan></tspan></text>
    <text
       xml:space="preserve"
       id="text2378"
       style="font-size:5.64444px;line-height:1.25;font-family:sans-serif;white-space:pre;shape-inside:url(#rect2380);"
       transform="translate(100.85996,42.37312)"><tspan
         x="4.5761719"
         y="84.723813"><tspan>b</tspan></tspan></text>
    <text
       xml:space="preserve"
       id="text2384"
       style="font-size:5.64444px;line-height:1.25;font-family:sans-serif;white-space:pre;shape-inside:url(#rect2386);"
       transform="translate(126.92043,66.2453)"><tspan
         x="7.7578125"
         y="60.255063"><tspan>d</tspan></tspan></text>
    <text
       xml:space="preserve"
       id="text2390"
       style="font-size:5.64444px;line-height:1.25;font-family:sans-serif;white-space:pre;shape-inside:url(#rect2392);"
       transform="translate(105.03759,56.696429)"><tspan
         x="14.521484"
         y="83.729672"><tspan>e</tspan></tspan></text>
    <text
       xml:space="preserve"
       id="text2396"
       style="font-size:5.64444px;line-height:1.25;font-family:sans-serif;white-space:pre;shape-inside:url(#rect2398);"
       transform="translate(69.030388,35.609336)"><tspan
         x="9.1503906"
         y="88.303891"><tspan>a</tspan></tspan></text>
    <text
       xml:space="preserve"
       id="text2402"
       style="font-size:5.64444px;line-height:1.25;font-family:sans-serif;white-space:pre;shape-inside:url(#rect2404);"
       transform="translate(109.6131,43.367794)"><tspan
         x="9.3496094"
         y="83.132016"><tspan>c</tspan></tspan></text>
  </g>
</svg>
