<?xml version="1.0" encoding="UTF-8" standalone="no"?>
<!-- Created with Inkscape (http://www.inkscape.org/) -->

<svg
   width="297mm"
   height="210mm"
   viewBox="0 0 297 210"
   version="1.1"
   id="svg1"
   inkscape:version="1.3.2 (091e20e, 2023-11-25, custom)"
   sodipodi:docname="production_function.svg"
   inkscape:export-filename="production_function.png"
   inkscape:export-xdpi="96"
   inkscape:export-ydpi="96"
   xmlns:inkscape="http://www.inkscape.org/namespaces/inkscape"
   xmlns:sodipodi="http://sodipodi.sourceforge.net/DTD/sodipodi-0.dtd"
   xmlns="http://www.w3.org/2000/svg"
   xmlns:svg="http://www.w3.org/2000/svg">
  <sodipodi:namedview
     id="namedview1"
     pagecolor="#ffffff"
     bordercolor="#666666"
     borderopacity="1.0"
     inkscape:showpageshadow="2"
     inkscape:pageopacity="0.0"
     inkscape:pagecheckerboard="0"
     inkscape:deskcolor="#d1d1d1"
     inkscape:document-units="mm"
     inkscape:zoom="1.0343948"
     inkscape:cx="561.19772"
     inkscape:cy="395.88366"
     inkscape:window-width="1920"
     inkscape:window-height="1017"
     inkscape:window-x="1912"
     inkscape:window-y="-8"
     inkscape:window-maximized="1"
     inkscape:current-layer="layer1" />
  <defs
     id="defs1" />
  <g
     inkscape:label="Layer 1"
     inkscape:groupmode="layer"
     id="layer1">
    <path
       id="path1"
       d="m 93.819828,62.870898 0.170809,109.285542 118.523703,0.19381"
       style="fill:none;stroke:#000000;stroke-width:0.391637;stroke-linecap:butt;stroke-linejoin:miter;stroke-miterlimit:4;stroke-dasharray:none;stroke-opacity:1"
       sodipodi:nodetypes="ccc" />
    <g
       inkscape:label=""
       transform="translate(75.073525,56.144729)"
       id="g10">
      <g
         fill="#000000"
         fill-opacity="1"
         id="g5"
         transform="matrix(0.352778,0,0,0.352778,-1.14957,-0.704673)">
        <g
           id="use4"
           transform="translate(1.993,20.559999)">
          <path
             d="m 11.046875,-9.96875 c 0.5,0 0.703125,0 0.703125,-0.46875 0,-0.25 -0.203125,-0.25 -0.640625,-0.25 H 9.09375 c 0.46875,-2.546875 0.8125,-4.3125 1.015625,-5.09375 0.15625,-0.59375 0.671875,-1.171875 1.3125,-1.171875 0.515625,0 1.046875,0.21875 1.296875,0.453125 -0.96875,0.09375 -1.265625,0.8125 -1.265625,1.234375 0,0.5 0.375,0.796875 0.84375,0.796875 0.484375,0 1.234375,-0.421875 1.234375,-1.359375 0,-1.046875 -1.046875,-1.625 -2.125,-1.625 -1.078125,0 -2.109375,0.796875 -2.609375,1.765625 -0.453125,0.875 -0.6875,1.765625 -1.265625,5 H 5.875 c -0.46875,0 -0.71875,0 -0.71875,0.453125 0,0.265625 0.140625,0.265625 0.640625,0.265625 h 1.59375 C 6.9375,-7.65625 5.921875,-2.0625 5.359375,0.59375 4.9375,2.75 4.5625,4.5625 3.328125,4.5625 c -0.078125,0 -0.796875,0 -1.25,-0.46875 C 3.34375,3.984375 3.34375,2.90625 3.34375,2.875 3.34375,2.375 2.96875,2.078125 2.5,2.078125 2,2.078125 1.265625,2.5 1.265625,3.4375 c 0,1.078125 1.09375,1.625 2.0625,1.625 2.515625,0 3.5625,-4.546875 3.828125,-5.78125 0.453125,-1.90625 1.671875,-8.5 1.796875,-9.25 z m 0,0"
             id="path8" />
        </g>
      </g>
      <g
         fill="#000000"
         fill-opacity="1"
         id="g6"
         transform="matrix(0.352778,0,0,0.352778,-1.14957,-0.704673)">
        <g
           id="use5"
           transform="translate(16.601999,20.559999)">
          <path
             d="m 7.578125,6.046875 c 0,-0.03125 0,-0.078125 -0.0625,-0.15625 -1.140625,-1.15625 -4.1875,-4.328125 -4.1875,-12.0625 0,-7.734375 2.984375,-10.875 4.203125,-12.109375 0,-0.03125 0.046875,-0.07813 0.046875,-0.15625 0,-0.07813 -0.0625,-0.125 -0.171875,-0.125 -0.265625,0 -2.375,1.828125 -3.59375,4.5625 -1.234375,2.75 -1.578125,5.421875 -1.578125,7.8125 0,1.78125 0.171875,4.796875 1.65625,8 1.1875,2.578125 3.21875,4.375 3.515625,4.375 0.125,0 0.171875,-0.046875 0.171875,-0.140625 z m 0,0"
             id="path9" />
        </g>
      </g>
      <g
         fill="#000000"
         fill-opacity="1"
         id="g7"
         transform="matrix(0.352778,0,0,0.352778,-1.14957,-0.704673)">
        <g
           id="use6"
           transform="translate(25.379999,20.559999)">
          <path
             d="m 6.96875,-16.578125 c 0.015625,-0.09375 0.0625,-0.25 0.0625,-0.375 0,-0.25 -0.234375,-0.25 -0.296875,-0.25 -0.015625,0 -0.90625,0.07813 -1.359375,0.125 -0.421875,0.03125 -0.796875,0.07813 -1.234375,0.109375 -0.59375,0.04687 -0.765625,0.0625 -0.765625,0.515625 0,0.25 0.25,0.25 0.484375,0.25 1.265625,0 1.265625,0.21875 1.265625,0.46875 0,0.09375 0,0.140625 -0.125,0.59375 L 1.46875,-0.96875 c -0.109375,0.375 -0.109375,0.421875 -0.109375,0.578125 0,0.546875 0.421875,0.640625 0.671875,0.640625 0.6875,0 0.84375,-0.546875 1.046875,-1.3125 l 1.15625,-4.640625 C 6.015625,-5.5 7.09375,-4.765625 7.09375,-3.5625 c 0,0.140625 0,0.234375 -0.078125,0.609375 -0.109375,0.375 -0.109375,0.671875 -0.109375,0.796875 0,1.4375 0.953125,2.40625 2.21875,2.40625 1.140625,0 1.734375,-1.046875 1.921875,-1.390625 0.53125,-0.921875 0.84375,-2.296875 0.84375,-2.40625 0,-0.125 -0.09375,-0.21875 -0.25,-0.21875 -0.21875,0 -0.234375,0.09375 -0.34375,0.5 -0.34375,1.28125 -0.859375,3.015625 -2.125,3.015625 -0.5,0 -0.828125,-0.25 -0.828125,-1.1875 0,-0.46875 0.109375,-1.015625 0.203125,-1.390625 0.109375,-0.4375 0.109375,-0.46875 0.109375,-0.765625 0,-1.46875 -1.328125,-2.28125 -3.59375,-2.578125 0.890625,-0.546875 1.78125,-1.515625 2.125,-1.875 1.40625,-1.59375 2.375,-2.390625 3.515625,-2.390625 0.578125,0 0.71875,0.15625 0.890625,0.296875 -0.90625,0.109375 -1.265625,0.75 -1.265625,1.25 0,0.59375 0.46875,0.78125 0.828125,0.78125 0.671875,0 1.265625,-0.5625 1.265625,-1.359375 0,-0.71875 -0.578125,-1.453125 -1.6875,-1.453125 -1.359375,0 -2.484375,0.953125 -4.234375,2.9375 -0.25,0.296875 -1.171875,1.25 -2.09375,1.59375 z m 0,0"
             id="path10" />
        </g>
      </g>
      <g
         fill="#000000"
         fill-opacity="1"
         id="g8"
         transform="matrix(0.352778,0,0,0.352778,-1.14957,-0.704673)">
        <g
           id="use7"
           transform="translate(38.834999,20.559999)">
          <path
             d="m 6.515625,-6.171875 c 0,-1.78125 -0.171875,-4.8125 -1.65625,-8 C 3.671875,-16.75 1.640625,-18.5625 1.34375,-18.5625 c -0.078125,0 -0.171875,0.03125 -0.171875,0.15625 0,0.04687 0.015625,0.0625 0.046875,0.125 1.1875,1.234375 4.203125,4.375 4.203125,12.09375 0,7.71875 -3,10.875 -4.203125,12.109375 C 1.1875,5.96875 1.171875,6 1.171875,6.046875 c 0,0.125 0.09375,0.140625 0.171875,0.140625 0.265625,0 2.375,-1.828125 3.59375,-4.546875 1.234375,-2.75 1.578125,-5.4375 1.578125,-7.8125 z m 0,0"
             id="path11" />
        </g>
      </g>
    </g>
    <g
       inkscape:label=""
       transform="translate(216.2672,172.52719)"
       id="g11">
      <g
         fill="#000000"
         fill-opacity="1"
         id="g2"
         transform="matrix(0.352778,0,0,0.352778,-1.18264,-0.706217)">
        <g
           id="use1"
           transform="translate(1.993,19.205)">
          <path
             d="m 6.96875,-16.578125 c 0.015625,-0.09375 0.0625,-0.25 0.0625,-0.375 0,-0.25 -0.234375,-0.25 -0.296875,-0.25 -0.015625,0 -0.90625,0.07813 -1.359375,0.125 -0.421875,0.03125 -0.796875,0.07813 -1.234375,0.109375 -0.59375,0.04687 -0.765625,0.0625 -0.765625,0.515625 0,0.25 0.25,0.25 0.484375,0.25 1.265625,0 1.265625,0.21875 1.265625,0.46875 0,0.09375 0,0.140625 -0.125,0.59375 L 1.46875,-0.96875 c -0.109375,0.375 -0.109375,0.421875 -0.109375,0.578125 0,0.546875 0.421875,0.640625 0.671875,0.640625 0.6875,0 0.84375,-0.546875 1.046875,-1.3125 l 1.15625,-4.640625 C 6.015625,-5.5 7.09375,-4.765625 7.09375,-3.5625 c 0,0.140625 0,0.234375 -0.078125,0.609375 -0.109375,0.375 -0.109375,0.671875 -0.109375,0.796875 0,1.4375 0.953125,2.40625 2.21875,2.40625 1.140625,0 1.734375,-1.046875 1.921875,-1.390625 0.53125,-0.921875 0.84375,-2.296875 0.84375,-2.40625 0,-0.125 -0.09375,-0.21875 -0.25,-0.21875 -0.21875,0 -0.234375,0.09375 -0.34375,0.5 -0.34375,1.28125 -0.859375,3.015625 -2.125,3.015625 -0.5,0 -0.828125,-0.25 -0.828125,-1.1875 0,-0.46875 0.109375,-1.015625 0.203125,-1.390625 0.109375,-0.4375 0.109375,-0.46875 0.109375,-0.765625 0,-1.46875 -1.328125,-2.28125 -3.59375,-2.578125 0.890625,-0.546875 1.78125,-1.515625 2.125,-1.875 1.40625,-1.59375 2.375,-2.390625 3.515625,-2.390625 0.578125,0 0.71875,0.15625 0.890625,0.296875 -0.90625,0.109375 -1.265625,0.75 -1.265625,1.25 0,0.59375 0.46875,0.78125 0.828125,0.78125 0.671875,0 1.265625,-0.5625 1.265625,-1.359375 0,-0.71875 -0.578125,-1.453125 -1.6875,-1.453125 -1.359375,0 -2.484375,0.953125 -4.234375,2.9375 -0.25,0.296875 -1.171875,1.25 -2.09375,1.59375 z m 0,0"
             id="path2" />
        </g>
      </g>
    </g>
    <path
       style="fill:none;stroke:#000000;stroke-width:0.665;stroke-linecap:butt;stroke-linejoin:miter;stroke-opacity:1;stroke-dasharray:none"
       d="M 94.384899,171.37637 C 112.58329,115.90724 154.29101,97.427668 199.76858,96.686971"
       id="path12"
       sodipodi:nodetypes="cc" />
  </g>
</svg>
