<?xml version="1.0" encoding="UTF-8" standalone="no"?>
<!-- Created with Inkscape (http://www.inkscape.org/) -->

<svg
   width="297mm"
   height="210mm"
   viewBox="0 0 297 210"
   version="1.1"
   id="svg1"
   inkscape:version="1.3.2 (091e20e, 2023-11-25, custom)"
   sodipodi:docname="market_loans.svg"
   xmlns:inkscape="http://www.inkscape.org/namespaces/inkscape"
   xmlns:sodipodi="http://sodipodi.sourceforge.net/DTD/sodipodi-0.dtd"
   xmlns="http://www.w3.org/2000/svg"
   xmlns:svg="http://www.w3.org/2000/svg"
   xmlns:ns3="http://www.iki.fi/pav/software/textext/">
  <sodipodi:namedview
     id="namedview1"
     pagecolor="#ffffff"
     bordercolor="#666666"
     borderopacity="1.0"
     inkscape:showpageshadow="2"
     inkscape:pageopacity="0.0"
     inkscape:pagecheckerboard="false"
     inkscape:deskcolor="#d1d1d1"
     inkscape:document-units="mm"
     inkscape:zoom="1.4627806"
     inkscape:cx="388.64339"
     inkscape:cy="490.50419"
     inkscape:window-width="1920"
     inkscape:window-height="1017"
     inkscape:window-x="-8"
     inkscape:window-y="-8"
     inkscape:window-maximized="1"
     inkscape:current-layer="layer1" />
  <defs
     id="defs1">
    <rect
       x="235.3399"
       y="176.65414"
       width="37.598682"
       height="13.726504"
       id="rect919" />
    <rect
       x="43.765663"
       y="31.431704"
       width="36.405075"
       height="20.689222"
       id="rect913" />
    <rect
       x="152.58302"
       y="60.874062"
       width="42.969925"
       height="27.850878"
       id="rect905" />
    <rect
       x="174.86372"
       y="127.11936"
       width="33.023182"
       height="22.081766"
       id="rect899" />
    <rect
       x="152.58302"
       y="60.874062"
       width="42.969925"
       height="27.850878"
       id="rect905-9" />
  </defs>
  <g
     inkscape:label="Layer 1"
     inkscape:groupmode="layer"
     id="layer1">
    <path
       style="fill:none;stroke:#000000;stroke-width:0.965;stroke-linecap:butt;stroke-linejoin:miter;stroke-miterlimit:4;stroke-dasharray:none;stroke-opacity:1"
       d="M 41.61148,32.819877 41.301073,180.62159 236.54538,180.3935"
       id="path833"
       sodipodi:nodetypes="ccc" />
    <path
       style="fill:none;stroke:#000000;stroke-width:0.565;stroke-linecap:butt;stroke-linejoin:miter;stroke-miterlimit:4;stroke-dasharray:0.565, 1.13;stroke-dashoffset:0;stroke-opacity:1"
       d="m 41.97942,117.77649 93.14844,0.12791"
       id="path893"
       sodipodi:nodetypes="cc" />
    <path
       style="fill:none;stroke:#000000;stroke-width:0.923989;stroke-linecap:butt;stroke-linejoin:miter;stroke-miterlimit:4;stroke-dasharray:none;stroke-opacity:1"
       d="M 63.476686,180.30893 222.67061,40.226596"
       id="path895"
       sodipodi:nodetypes="cc" />
    <text
       xml:space="preserve"
       id="text897"
       style="font-size:5.64444px;line-height:1.25;font-family:sans-serif;white-space:pre;shape-inside:url(#rect899);display:inline"
       x="12.518089"
       y="0"
       transform="translate(9.5234576,23.373513)"><tspan
         x="179.5349"
         y="132.26873"
         id="tspan19"><tspan
           style="text-align:center;text-anchor:middle"
           id="tspan18">Demand </tspan></tspan><tspan
         x="178.23817"
         y="139.32429"
         id="tspan21"><tspan
           style="text-align:center;text-anchor:middle"
           id="tspan20">for Loans</tspan></tspan></text>
    <text
       xml:space="preserve"
       id="text903"
       style="font-size:5.64444px;line-height:1.25;font-family:sans-serif;white-space:pre;shape-inside:url(#rect905);display:inline"
       x="13.280144"
       y="0"
       transform="translate(1.7410849,-48.274562)"><tspan
         x="160.69451"
         y="66.024594"
         id="tspan23"><tspan
           style="text-align:center;text-anchor:middle"
           id="tspan22">Supply of </tspan></tspan><tspan
         x="165.83321"
         y="73.080144"
         id="tspan25"><tspan
           style="text-align:center;text-anchor:middle"
           id="tspan24">Loans</tspan></tspan></text>
    <text
       xml:space="preserve"
       id="text911"
       style="font-size:5.64444px;line-height:1.25;font-family:sans-serif;white-space:pre;shape-inside:url(#rect913);display:inline"
       transform="translate(-20.116771,-8.0029232)"><tspan
         x="43.765625"
         y="36.581235"
         id="tspan26">interest rate</tspan></text>
    <text
       xml:space="preserve"
       id="text917"
       style="font-size:5.64444px;line-height:1.25;font-family:sans-serif;white-space:pre;shape-inside:url(#rect919);display:inline"
       x="15.319638"
       y="0"
       transform="translate(1.3681924,-0.8412692)"><tspan
         x="238.79934"
         y="181.80389"
         id="tspan28"><tspan
           style="text-align:center;text-anchor:middle"
           id="tspan27">bank loans</tspan></tspan></text>
    <path
       style="fill:none;stroke:#000000;stroke-width:0.860751;stroke-linecap:butt;stroke-linejoin:miter;stroke-miterlimit:4;stroke-dasharray:none;stroke-opacity:1"
       d="M 200.84356,180.29143 58.217671,44.4798"
       id="path895-5"
       sodipodi:nodetypes="cc" />
    <path
       style="fill:none;stroke:#000000;stroke-width:0.923989;stroke-linecap:butt;stroke-linejoin:miter;stroke-miterlimit:4;stroke-dasharray:none;stroke-opacity:1"
       d="M 41.73145,157.11653 200.92537,17.034197"
       id="path895-9"
       sodipodi:nodetypes="cc" />
    <text
       xml:space="preserve"
       id="text903-8"
       style="font-size:5.64444px;line-height:1.25;font-family:sans-serif;white-space:pre;shape-inside:url(#rect905-9);display:inline"
       x="13.280144"
       y="0"
       transform="translate(24.973397,-29.332784)"><tspan
         x="162.79464"
         y="66.024594"
         id="tspan30"><tspan
           style="text-align:center;text-anchor:middle"
           id="tspan29">Riskless </tspan></tspan><tspan
         x="160.69451"
         y="73.080144"
         id="tspan32"><tspan
           style="text-align:center;text-anchor:middle"
           id="tspan31">Supply of </tspan></tspan><tspan
         x="165.83321"
         y="80.135693"
         id="tspan34"><tspan
           style="text-align:center;text-anchor:middle"
           id="tspan33">Loans</tspan></tspan></text>
    <path
       style="fill:none;stroke:#000000;stroke-width:0.565;stroke-linecap:butt;stroke-linejoin:miter;stroke-miterlimit:4;stroke-dasharray:0.565, 1.13;stroke-dashoffset:0;stroke-opacity:1"
       d="M 40.957708,95.477701 111.85166,95.221912"
       id="path893-4"
       sodipodi:nodetypes="cc" />
    <g
       transform="matrix(1.05833,0,0,1.05833,30.08269,91.006114)"
       ns3:version="1.10.2"
       ns3:texconverter="pdflatex"
       ns3:pdfconverter="inkscape"
       ns3:text="$i_{L}$"
       ns3:preamble="C:\Users\PHBS\AppData\Roaming\inkscape\extensions\textext\default_packages.tex"
       ns3:scale="3.0"
       ns3:alignment="middle center"
       ns3:stroke-to-path="0"
       id="g8338"
       ns3:jacobian_sqrt="1.05833">
      <defs
         id="id-df0af18b-45a4-4bb0-b382-12bb8e761b99" />
      <g
         fill="#000000"
         fill-opacity="1"
         id="id-3094656c-3ff8-42f7-a675-0f55beebb81d"
         transform="translate(-149.009,-128.171)">
        <g
           transform="translate(148.712,134.765)"
           id="g1645">
          <path
             d="m 2.828125,-6.234375 c 0,-0.203125 -0.140625,-0.359375 -0.359375,-0.359375 -0.28125,0 -0.546875,0.265625 -0.546875,0.53125 0,0.1875 0.140625,0.359375 0.375,0.359375 0.234375,0 0.53125,-0.234375 0.53125,-0.53125 z m -0.75,3.75 c 0.109375,-0.28125 0.109375,-0.3125 0.21875,-0.578125 0.078125,-0.203125 0.125,-0.34375 0.125,-0.53125 0,-0.4375 -0.3125,-0.8125 -0.8125,-0.8125 -0.9375,0 -1.3125,1.453125 -1.3125,1.53125 0,0.109375 0.09375,0.109375 0.109375,0.109375 0.109375,0 0.109375,-0.03125 0.15625,-0.1875 0.28125,-0.9375 0.671875,-1.234375 1.015625,-1.234375 0.078125,0 0.25,0 0.25,0.3125 0,0.21875 -0.078125,0.421875 -0.109375,0.53125 -0.078125,0.25 -0.53125,1.40625 -0.6875,1.84375 -0.109375,0.25 -0.234375,0.578125 -0.234375,0.796875 0,0.46875 0.34375,0.8125 0.8125,0.8125 0.9375,0 1.3125,-1.4375 1.3125,-1.53125 0,-0.109375 -0.09375,-0.109375 -0.125,-0.109375 -0.09375,0 -0.09375,0.03125 -0.140625,0.1875 -0.1875,0.625 -0.515625,1.234375 -1.015625,1.234375 -0.171875,0 -0.25,-0.09375 -0.25,-0.328125 0,-0.25 0.0625,-0.390625 0.296875,-1 z m 0,0"
             id="id-def8420d-f630-4886-bd87-e0eb32243ae5" />
        </g>
      </g>
      <g
         fill="#000000"
         fill-opacity="1"
         id="id-8799d098-d18b-4d49-9bb0-1c447294803b"
         transform="translate(-149.009,-128.171)">
        <g
           transform="translate(152.145,136.259)"
           id="g7436">
          <path
             d="m 2.875,-4.1875 c 0.0625,-0.25 0.078125,-0.328125 0.71875,-0.328125 0.21875,0 0.28125,0 0.28125,-0.140625 0,-0.015625 0,-0.109375 -0.109375,-0.109375 -0.15625,0 -0.34375,0.015625 -0.515625,0.03125 -0.171875,0 -0.390625,0 -0.5625,0 -0.140625,0 -0.328125,0 -0.484375,0 -0.140625,0 -0.3125,-0.03125 -0.453125,-0.03125 -0.03125,0 -0.140625,0 -0.140625,0.15625 0,0.09375 0.078125,0.09375 0.21875,0.09375 0.015625,0 0.140625,0 0.265625,0.015625 0.15625,0.015625 0.171875,0.03125 0.171875,0.109375 0,0 0,0.046875 -0.03125,0.140625 l -0.9375,3.703125 C 1.234375,-0.3125 1.21875,-0.25 0.6875,-0.25 c -0.109375,0 -0.203125,0 -0.203125,0.140625 C 0.484375,0 0.5625,0 0.6875,0 h 3.5 c 0.1875,0 0.1875,0 0.25,-0.140625 0.0625,-0.1875 0.59375,-1.53125 0.59375,-1.59375 0,-0.015625 -0.015625,-0.09375 -0.125,-0.09375 -0.078125,0 -0.09375,0.03125 -0.140625,0.140625 C 4.5,-1.03125 4.1875,-0.25 2.921875,-0.25 H 2.125 c -0.203125,0 -0.21875,-0.015625 -0.21875,-0.078125 0,0 0,-0.03125 0.03125,-0.140625 z m 0,0"
             id="id-55c1ade3-2655-490a-903b-009d5c7921a0" />
        </g>
      </g>
    </g>
    <g
       transform="matrix(1.05833,0,0,1.05833,27.170361,111.73987)"
       ns3:version="1.10.2"
       ns3:texconverter="pdflatex"
       ns3:pdfconverter="inkscape"
       ns3:text="$i_{rf}$"
       ns3:preamble="C:\Users\PHBS\AppData\Roaming\inkscape\extensions\textext\default_packages.tex"
       ns3:scale="3.0"
       ns3:alignment="middle center"
       ns3:stroke-to-path="0"
       id="g484"
       ns3:jacobian_sqrt="1.05833">
      <defs
         id="id-f6059713-2829-43eb-b5ad-446b8fb15a20" />
      <g
         fill="#000000"
         fill-opacity="1"
         id="id-86350e0a-d2f0-4271-a1e6-d90a976415fb"
         transform="translate(-149.009,-128.171)">
        <g
           transform="translate(148.712,134.765)"
           id="g3099">
          <path
             d="m 2.828125,-6.234375 c 0,-0.203125 -0.140625,-0.359375 -0.359375,-0.359375 -0.28125,0 -0.546875,0.265625 -0.546875,0.53125 0,0.1875 0.140625,0.359375 0.375,0.359375 0.234375,0 0.53125,-0.234375 0.53125,-0.53125 z m -0.75,3.75 c 0.109375,-0.28125 0.109375,-0.3125 0.21875,-0.578125 0.078125,-0.203125 0.125,-0.34375 0.125,-0.53125 0,-0.4375 -0.3125,-0.8125 -0.8125,-0.8125 -0.9375,0 -1.3125,1.453125 -1.3125,1.53125 0,0.109375 0.09375,0.109375 0.109375,0.109375 0.109375,0 0.109375,-0.03125 0.15625,-0.1875 0.28125,-0.9375 0.671875,-1.234375 1.015625,-1.234375 0.078125,0 0.25,0 0.25,0.3125 0,0.21875 -0.078125,0.421875 -0.109375,0.53125 -0.078125,0.25 -0.53125,1.40625 -0.6875,1.84375 -0.109375,0.25 -0.234375,0.578125 -0.234375,0.796875 0,0.46875 0.34375,0.8125 0.8125,0.8125 0.9375,0 1.3125,-1.4375 1.3125,-1.53125 0,-0.109375 -0.09375,-0.109375 -0.125,-0.109375 -0.09375,0 -0.09375,0.03125 -0.140625,0.1875 -0.1875,0.625 -0.515625,1.234375 -1.015625,1.234375 -0.171875,0 -0.25,-0.09375 -0.25,-0.328125 0,-0.25 0.0625,-0.390625 0.296875,-1 z m 0,0"
             id="id-667469e4-b6c7-4943-84de-6eeda4b11b38" />
        </g>
      </g>
      <g
         fill="#000000"
         fill-opacity="1"
         id="id-0c6c9f59-6248-4778-8d62-170c6332787c"
         transform="translate(-149.009,-128.171)">
        <g
           transform="translate(152.145,136.259)"
           id="g2690">
          <path
             d="m 1.640625,-1.40625 c 0,-0.046875 0.171875,-0.671875 0.171875,-0.703125 0.015625,-0.0625 0.21875,-0.40625 0.453125,-0.578125 0.0625,-0.046875 0.25,-0.1875 0.5625,-0.1875 0.0625,0 0.234375,0 0.375,0.09375 -0.21875,0.0625 -0.296875,0.265625 -0.296875,0.390625 0,0.140625 0.109375,0.25 0.265625,0.25 0.171875,0 0.390625,-0.125 0.390625,-0.421875 0,-0.359375 -0.375,-0.515625 -0.734375,-0.515625 -0.359375,0 -0.671875,0.15625 -0.984375,0.5 -0.125,-0.421875 -0.546875,-0.5 -0.71875,-0.5 -0.25,0 -0.421875,0.171875 -0.546875,0.359375 -0.15625,0.265625 -0.25,0.671875 -0.25,0.71875 0,0.078125 0.09375,0.078125 0.125,0.078125 0.09375,0 0.09375,-0.015625 0.140625,-0.203125 0.109375,-0.421875 0.25,-0.75 0.515625,-0.75 0.1875,0 0.234375,0.15625 0.234375,0.34375 0,0.125 -0.0625,0.390625 -0.125,0.578125 -0.046875,0.1875 -0.109375,0.46875 -0.140625,0.625 L 0.84375,-0.4375 C 0.828125,-0.34375 0.78125,-0.171875 0.78125,-0.15625 0.78125,0 0.90625,0.0625 1.015625,0.0625 1.125,0.0625 1.265625,0 1.3125,-0.125 1.328125,-0.171875 1.40625,-0.484375 1.453125,-0.65625 Z m 0,0"
             id="id-4e983ad4-d3b5-4225-a0c3-905ee756ccfb" />
        </g>
      </g>
      <g
         fill="#000000"
         fill-opacity="1"
         id="id-d320222f-fd18-4e49-bedd-75c8969e1724"
         transform="translate(-149.009,-128.171)">
        <g
           transform="translate(156.06,136.259)"
           id="g4249">
          <path
             d="M 2.84375,-2.75 H 3.515625 C 3.65625,-2.75 3.75,-2.75 3.75,-2.90625 3.75,-3 3.65625,-3 3.53125,-3 H 2.890625 c 0.15625,-0.890625 0.203125,-1.203125 0.265625,-1.40625 0.03125,-0.15625 0.1875,-0.296875 0.359375,-0.296875 0,0 0.1875,0 0.328125,0.078125 -0.296875,0.09375 -0.3125,0.34375 -0.3125,0.375 0,0.15625 0.125,0.265625 0.28125,0.265625 0.1875,0 0.390625,-0.15625 0.390625,-0.421875 0,-0.328125 -0.328125,-0.5 -0.6875,-0.5 -0.3125,0 -0.65625,0.171875 -0.84375,0.515625 C 2.53125,-4.125 2.484375,-3.8125 2.328125,-3 H 1.78125 c -0.140625,0 -0.234375,0 -0.234375,0.15625 0,0.09375 0.09375,0.09375 0.21875,0.09375 H 2.28125 c 0,0.046875 -0.4375,2.546875 -0.609375,3.296875 -0.03125,0.15625 -0.15625,0.671875 -0.484375,0.671875 -0.015625,0 -0.171875,0 -0.3125,-0.078125 0.28125,-0.09375 0.3125,-0.34375 0.3125,-0.375 C 1.1875,0.609375 1.0625,0.5 0.90625,0.5 c -0.1875,0 -0.390625,0.15625 -0.390625,0.421875 0,0.3125 0.328125,0.5 0.671875,0.5 0.4375,0 0.75,-0.453125 0.828125,-0.609375 0.25,-0.46875 0.421875,-1.328125 0.4375,-1.40625 z m 0,0"
             id="id-0e08fdbf-da04-4f68-b899-ca237f0fa70e" />
        </g>
      </g>
    </g>
    <path
       style="fill:none;stroke:#000000;stroke-width:0.565;stroke-linecap:butt;stroke-linejoin:miter;stroke-miterlimit:4;stroke-dasharray:0.565, 1.13;stroke-dashoffset:0;stroke-opacity:1"
       d="m 135.03216,117.86839 0.0258,62.45067"
       id="path893-0"
       sodipodi:nodetypes="cc" />
    <g
       transform="matrix(1.05833,0,0,1.05833,131.47965,182.96937)"
       ns3:version="1.10.2"
       ns3:texconverter="pdflatex"
       ns3:pdfconverter="inkscape"
       ns3:text="$L$"
       ns3:preamble="C:\Users\PHBS\AppData\Roaming\inkscape\extensions\textext\default_packages.tex"
       ns3:scale="3.0"
       ns3:alignment="middle center"
       ns3:stroke-to-path="0"
       id="g5575"
       ns3:jacobian_sqrt="1.05833">
      <defs
         id="id-59a2ef07-9f00-4593-8531-d83d83990697" />
      <g
         fill="#000000"
         fill-opacity="1"
         id="id-f534afbd-4cc8-48cc-8b83-8e17728c8b23"
         transform="translate(-149.103,-127.953)">
        <g
           transform="translate(148.712,134.765)"
           id="g1837">
          <path
             d="M 3.734375,-6.03125 C 3.8125,-6.390625 3.84375,-6.5 4.78125,-6.5 c 0.296875,0 0.375,0 0.375,-0.1875 0,-0.125 -0.109375,-0.125 -0.15625,-0.125 -0.328125,0 -1.140625,0.03125 -1.46875,0.03125 -0.296875,0 -1.03125,-0.03125 -1.328125,-0.03125 -0.0625,0 -0.1875,0 -0.1875,0.203125 0,0.109375 0.09375,0.109375 0.28125,0.109375 0.015625,0 0.203125,0 0.375,0.015625 0.171875,0.03125 0.265625,0.03125 0.265625,0.171875 0,0.03125 0,0.0625 -0.03125,0.1875 L 1.5625,-0.78125 c -0.09375,0.390625 -0.109375,0.46875 -0.90625,0.46875 -0.171875,0 -0.265625,0 -0.265625,0.203125 C 0.390625,0 0.484375,0 0.65625,0 h 4.625 C 5.515625,0 5.515625,0 5.578125,-0.171875 L 6.375,-2.328125 c 0.03125,-0.109375 0.03125,-0.125 0.03125,-0.140625 0,-0.03125 -0.03125,-0.109375 -0.109375,-0.109375 -0.09375,0 -0.109375,0.0625 -0.171875,0.21875 -0.34375,0.90625 -0.78125,2.046875 -2.5,2.046875 H 2.6875 c -0.140625,0 -0.171875,0 -0.21875,0 -0.109375,-0.015625 -0.140625,-0.03125 -0.140625,-0.109375 0,-0.03125 0,-0.046875 0.046875,-0.21875 z m 0,0"
             id="id-72a38267-8c88-47af-8c66-984691934fc3" />
        </g>
      </g>
    </g>
  </g>
</svg>
