<?xml version="1.0" encoding="UTF-8" standalone="no"?>
<svg
   xmlns:dc="http://purl.org/dc/elements/1.1/"
   xmlns:cc="http://creativecommons.org/ns#"
   xmlns:rdf="http://www.w3.org/1999/02/22-rdf-syntax-ns#"
   xmlns:svg="http://www.w3.org/2000/svg"
   xmlns="http://www.w3.org/2000/svg"
   xmlns:sodipodi="http://sodipodi.sourceforge.net/DTD/sodipodi-0.dtd"
   xmlns:inkscape="http://www.inkscape.org/namespaces/inkscape"
   width="297mm"
   height="210mm"
   viewBox="0 0 297 210"
   version="1.1"
   id="svg8"
   sodipodi:docname="market_reserves_8.svg"
   inkscape:version="1.0.1 (3bc2e813f5, 2020-09-07)"
   inkscape:export-filename="C:\Users\PHBS\Desktop\Macro (Internationals)\figs_MII\market_reserves_8.png"
   inkscape:export-xdpi="96"
   inkscape:export-ydpi="96">
  <defs
     id="defs2">
    <rect
       x="155.96491"
       y="74.600564"
       width="40.582707"
       height="20.689223"
       id="rect955" />
    <rect
       x="235.33991"
       y="176.65414"
       width="37.598684"
       height="13.726504"
       id="rect919" />
    <rect
       x="43.765664"
       y="31.431704"
       width="36.405075"
       height="20.689223"
       id="rect913" />
    <rect
       x="152.58302"
       y="60.87406"
       width="42.969925"
       height="27.850877"
       id="rect905" />
    <rect
       x="174.86372"
       y="127.11936"
       width="33.023183"
       height="22.081766"
       id="rect899" />
    <rect
       x="91.112155"
       y="60.675125"
       width="36.007206"
       height="20.490288"
       id="rect889" />
    <rect
       x="103.24718"
       y="67.239975"
       width="30.635965"
       height="22.081767"
       id="rect883" />
    <rect
       x="9.3499373"
       y="53.115602"
       width="25.463659"
       height="20.490288"
       id="rect877" />
    <g
       id="g9390">
      <symbol
         overflow="visible"
         id="symbol6443">
        <path
           style="stroke:none;"
           d=""
           id="path661" />
      </symbol>
      <symbol
         overflow="visible"
         id="symbol903">
        <path
           style="stroke:none;"
           d="M 2.828125 -6.234375 C 2.828125 -6.4375 2.6875 -6.59375 2.46875 -6.59375 C 2.1875 -6.59375 1.921875 -6.328125 1.921875 -6.0625 C 1.921875 -5.875 2.0625 -5.703125 2.296875 -5.703125 C 2.53125 -5.703125 2.828125 -5.9375 2.828125 -6.234375 Z M 2.078125 -2.484375 C 2.1875 -2.765625 2.1875 -2.796875 2.296875 -3.0625 C 2.375 -3.265625 2.421875 -3.40625 2.421875 -3.59375 C 2.421875 -4.03125 2.109375 -4.40625 1.609375 -4.40625 C 0.671875 -4.40625 0.296875 -2.953125 0.296875 -2.875 C 0.296875 -2.765625 0.390625 -2.765625 0.40625 -2.765625 C 0.515625 -2.765625 0.515625 -2.796875 0.5625 -2.953125 C 0.84375 -3.890625 1.234375 -4.1875 1.578125 -4.1875 C 1.65625 -4.1875 1.828125 -4.1875 1.828125 -3.875 C 1.828125 -3.65625 1.75 -3.453125 1.71875 -3.34375 C 1.640625 -3.09375 1.1875 -1.9375 1.03125 -1.5 C 0.921875 -1.25 0.796875 -0.921875 0.796875 -0.703125 C 0.796875 -0.234375 1.140625 0.109375 1.609375 0.109375 C 2.546875 0.109375 2.921875 -1.328125 2.921875 -1.421875 C 2.921875 -1.53125 2.828125 -1.53125 2.796875 -1.53125 C 2.703125 -1.53125 2.703125 -1.5 2.65625 -1.34375 C 2.46875 -0.71875 2.140625 -0.109375 1.640625 -0.109375 C 1.46875 -0.109375 1.390625 -0.203125 1.390625 -0.4375 C 1.390625 -0.6875 1.453125 -0.828125 1.6875 -1.4375 Z M 2.078125 -2.484375 "
           id="path9406" />
      </symbol>
      <symbol
         overflow="visible"
         id="symbol6295">
        <path
           style="stroke:none;"
           d=""
           id="path6062" />
      </symbol>
      <symbol
         overflow="visible"
         id="symbol4143">
        <path
           style="stroke:none;"
           d="M 3.984375 -4.625 C 3.984375 -4.640625 4 -4.734375 4 -4.734375 C 4 -4.78125 3.984375 -4.84375 3.890625 -4.84375 C 3.75 -4.84375 3.171875 -4.78125 3 -4.765625 C 2.953125 -4.765625 2.84375 -4.75 2.84375 -4.609375 C 2.84375 -4.515625 2.953125 -4.515625 3.03125 -4.515625 C 3.359375 -4.515625 3.359375 -4.453125 3.359375 -4.40625 C 3.359375 -4.359375 3.359375 -4.3125 3.34375 -4.25 L 2.9375 -2.65625 C 2.796875 -2.890625 2.5625 -3.078125 2.21875 -3.078125 C 1.328125 -3.078125 0.421875 -2.09375 0.421875 -1.09375 C 0.421875 -0.40625 0.875 0.0625 1.484375 0.0625 C 1.859375 0.0625 2.1875 -0.140625 2.46875 -0.421875 C 2.59375 0 3 0.0625 3.1875 0.0625 C 3.4375 0.0625 3.609375 -0.078125 3.734375 -0.296875 C 3.890625 -0.578125 3.984375 -0.96875 3.984375 -1 C 3.984375 -1.09375 3.890625 -1.09375 3.875 -1.09375 C 3.765625 -1.09375 3.765625 -1.0625 3.71875 -0.875 C 3.625 -0.53125 3.5 -0.125 3.203125 -0.125 C 3.03125 -0.125 2.96875 -0.28125 2.96875 -0.46875 C 2.96875 -0.59375 2.984375 -0.65625 3.015625 -0.75 Z M 2.5 -0.875 C 2.453125 -0.671875 2.296875 -0.53125 2.140625 -0.40625 C 2.078125 -0.34375 1.796875 -0.125 1.5 -0.125 C 1.234375 -0.125 0.984375 -0.3125 0.984375 -0.796875 C 0.984375 -1.171875 1.1875 -1.9375 1.359375 -2.21875 C 1.671875 -2.78125 2.03125 -2.875 2.21875 -2.875 C 2.703125 -2.875 2.84375 -2.34375 2.84375 -2.265625 C 2.84375 -2.25 2.828125 -2.1875 2.828125 -2.171875 Z M 2.5 -0.875 "
           id="path7360" />
      </symbol>
    </g>
  </defs>
  <sodipodi:namedview
     id="base"
     pagecolor="#ffffff"
     bordercolor="#666666"
     borderopacity="1.0"
     inkscape:pageopacity="0.0"
     inkscape:pageshadow="2"
     inkscape:zoom="1.33"
     inkscape:cx="421.66696"
     inkscape:cy="396.40135"
     inkscape:document-units="mm"
     inkscape:current-layer="layer1"
     inkscape:document-rotation="0"
     showgrid="false"
     inkscape:window-width="1920"
     inkscape:window-height="1017"
     inkscape:window-x="-8"
     inkscape:window-y="-8"
     inkscape:window-maximized="1" />
  <metadata
     id="metadata5">
    <rdf:RDF>
      <cc:Work
         rdf:about="">
        <dc:format>image/svg+xml</dc:format>
        <dc:type
           rdf:resource="http://purl.org/dc/dcmitype/StillImage" />
        <dc:title></dc:title>
      </cc:Work>
    </rdf:RDF>
  </metadata>
  <g
     inkscape:label="Layer 1"
     inkscape:groupmode="layer"
     id="layer1">
    <path
       style="fill:none;stroke:#000000;stroke-width:0.965;stroke-linecap:butt;stroke-linejoin:miter;stroke-miterlimit:4;stroke-dasharray:none;stroke-opacity:1"
       d="M 36.065657,39.231321 35.75525,187.03304 230.99956,186.80495"
       id="path833"
       sodipodi:nodetypes="ccc" />
    <path
       style="fill:none;stroke:#000000;stroke-width:0.665;stroke-linecap:butt;stroke-linejoin:miter;stroke-miterlimit:4;stroke-dasharray:none;stroke-opacity:1"
       d="m 35.98334,58.884711 c 22.493556,-2.001446 36.503417,5.019782 43.566729,13.328634 l 70.820851,75.197375 c 15.76737,19.02671 49.17442,19.13961 71.61654,18.8988"
       id="path835"
       sodipodi:nodetypes="cccc" />
    <text
       xml:space="preserve"
       id="text875"
       style="font-size:5.64444px;line-height:1.25;font-family:sans-serif;white-space:pre;shape-inside:url(#rect877);"
       x="11.721584"
       y="0"
       transform="translate(-1.193609,1.9893484)"><tspan
         x="10.324618"
         y="58.264828"><tspan
           style="text-align:center;text-anchor:middle">SLF rate</tspan></tspan></text>
    <text
       xml:space="preserve"
       id="text881"
       style="font-size:5.64444px;line-height:1.25;font-family:sans-serif;white-space:pre;shape-inside:url(#rect883);"
       x="15.166677"
       y="0"
       transform="translate(-94.494046,97.47807)"><tspan
         x="111.40928"
         y="72.389828"><tspan
           style="text-align:center;text-anchor:middle">IOER</tspan></tspan></text>
    <text
       xml:space="preserve"
       id="text887"
       style="font-size:5.64444px;line-height:1.25;font-family:sans-serif;white-space:pre;shape-inside:url(#rect889);fill:#ff0000;"
       transform="translate(-80.170739,47.943295)"
       inkscape:export-xdpi="96"
       inkscape:export-ydpi="96"><tspan
         x="91.111328"
         y="65.825375"><tspan
           style="fill:#000000">DROO7</tspan></tspan></text>
    <path
       style="fill:none;stroke:#000000;stroke-width:0.56499997;stroke-linecap:butt;stroke-linejoin:miter;stroke-opacity:1;stroke-miterlimit:4;stroke-dasharray:0.56499997,1.12999994;stroke-dashoffset:0"
       d="m 35.410402,166.90632 193.165718,1e-5"
       id="path893"
       sodipodi:nodetypes="cc" />
    <path
       style="fill:none;stroke:#000000;stroke-width:0.665;stroke-linecap:butt;stroke-linejoin:miter;stroke-opacity:1;stroke-miterlimit:4;stroke-dasharray:none"
       d="M 117.37155,186.79981 117.17261,34.415727"
       id="path895"
       sodipodi:nodetypes="cc" />
    <text
       xml:space="preserve"
       id="text897"
       style="font-size:5.64444px;line-height:1.25;font-family:sans-serif;white-space:pre;shape-inside:url(#rect899);"
       x="12.518089"
       y="0"
       transform="translate(14.721178,13.925439)"><tspan
         x="179.5349"
         y="132.26873"><tspan
           style="text-align:center;text-anchor:middle">Demand </tspan></tspan><tspan
         x="187.46551"
         y="139.32429"><tspan
           style="text-align:center;text-anchor:middle">for </tspan></tspan><tspan
         x="178.64745"
         y="146.37985"><tspan
           style="text-align:center;text-anchor:middle">Reserves</tspan></tspan></text>
    <text
       xml:space="preserve"
       id="text903"
       style="font-size:5.64444px;line-height:1.25;font-family:sans-serif;white-space:pre;shape-inside:url(#rect905);"
       x="13.280144"
       y="0"
       transform="translate(-38.593358,-26.259398)"><tspan
         x="160.69451"
         y="66.024594"><tspan
           style="text-align:center;text-anchor:middle">Supply of </tspan></tspan><tspan
         x="161.34081"
         y="73.080144"><tspan
           style="text-align:center;text-anchor:middle">Reserves</tspan></tspan></text>
    <path
       style="fill:none;stroke:#000000;stroke-width:0.665;stroke-linecap:butt;stroke-linejoin:miter;stroke-opacity:1;stroke-miterlimit:4;stroke-dasharray:0.665,1.33;stroke-dashoffset:0"
       d="M 117.17262,112.19925 36.206141,112.00031"
       id="path909"
       sodipodi:nodetypes="cc" />
    <text
       xml:space="preserve"
       id="text911"
       style="font-size:5.64444px;line-height:1.25;font-family:sans-serif;white-space:pre;shape-inside:url(#rect913);"
       transform="translate(-25.662594,-1.5914787)"><tspan
         x="43.765625"
         y="36.581235"><tspan>interest rate</tspan></tspan></text>
    <text
       xml:space="preserve"
       id="text917"
       style="font-size:5.64444px;line-height:1.25;font-family:sans-serif;white-space:pre;shape-inside:url(#rect919);"
       x="15.319638"
       y="0"
       transform="translate(-4.1776316,5.5701754)"><tspan
         x="238.76213"
         y="181.80389"><tspan
           style="text-align:center;text-anchor:middle">quantity of </tspan></tspan><tspan
         x="242.10112"
         y="188.85945"><tspan
           style="text-align:center;text-anchor:middle">reserves</tspan></tspan></text>
  </g>
</svg>
