<?xml version="1.0" encoding="UTF-8" standalone="no"?>
<!-- Created with Inkscape (http://www.inkscape.org/) -->

<svg
   width="297mm"
   height="210mm"
   viewBox="0 0 297 210"
   version="1.1"
   id="svg1"
   inkscape:version="1.3.2 (091e20e, 2023-11-25, custom)"
   sodipodi:docname="budget_line_inflation.svg"
   inkscape:export-filename="budget_line_inflation.png"
   inkscape:export-xdpi="96"
   inkscape:export-ydpi="96"
   xmlns:inkscape="http://www.inkscape.org/namespaces/inkscape"
   xmlns:sodipodi="http://sodipodi.sourceforge.net/DTD/sodipodi-0.dtd"
   xmlns="http://www.w3.org/2000/svg"
   xmlns:svg="http://www.w3.org/2000/svg">
  <sodipodi:namedview
     id="namedview1"
     pagecolor="#ffffff"
     bordercolor="#666666"
     borderopacity="1.0"
     inkscape:showpageshadow="2"
     inkscape:pageopacity="0.0"
     inkscape:pagecheckerboard="0"
     inkscape:deskcolor="#d1d1d1"
     inkscape:document-units="mm"
     inkscape:zoom="1.2646927"
     inkscape:cx="397.32973"
     inkscape:cy="296.11937"
     inkscape:window-width="1920"
     inkscape:window-height="1017"
     inkscape:window-x="1912"
     inkscape:window-y="-8"
     inkscape:window-maximized="1"
     inkscape:current-layer="layer1" />
  <defs
     id="defs1" />
  <g
     inkscape:label="Layer 1"
     inkscape:groupmode="layer"
     id="layer1">
    <path
       id="path1"
       d="m 66.833157,12.528883 0.169963,115.177277 118.52355,0.19381"
       style="fill:none;stroke:#000000;stroke-width:0.391637;stroke-linecap:butt;stroke-linejoin:miter;stroke-miterlimit:4;stroke-dasharray:none;stroke-opacity:1" />
    <path
       id="path2"
       d="M 66.662119,33.082928 134.6994,104.94141"
       style="fill:none;stroke:#000000;stroke-width:0.530268;stroke-linecap:butt;stroke-linejoin:miter;stroke-miterlimit:4;stroke-dasharray:none;stroke-opacity:1"
       sodipodi:nodetypes="cc" />
    <path
       id="path3"
       d="m 191.22889,123.5344 h -0.0563 l -0.0295,0.003 h -0.0268 l -0.0268,0.002 -0.0277,0.005 -0.027,0.004 -0.0114,0.004 -0.0144,0.003 -0.0268,0.008 -0.0135,0.005 -0.0124,0.003 -0.0135,0.007 -0.0135,0.006 -0.0114,0.007 -0.0135,0.009 -0.0142,0.009 -0.0117,0.009 -0.0136,0.0112 -0.0133,0.008 -0.0117,0.0134 -0.0135,0.0112 -0.0259,0.0294 c -0.15572,0.16637 -0.17266,0.35304 -0.17266,0.4285 0,0.26817 0.17266,0.38852 0.35792,0.38852 0.28075,0 0.54548,-0.26711 0.54548,-0.70685 0,-0.5415 -0.45617,-0.94961 -1.14751,-0.94961 -1.30873,0 -2.59776,1.58111 -2.59776,3.13965 0,0.9944 0.56265,1.86967 1.56978,1.86967 1.38658,0 2.20251,-1.173 2.20251,-1.3056 0,-0.0643 -0.0582,-0.14494 -0.1145,-0.14494 -0.0493,0 -0.068,0.0246 -0.12892,0.11128 -0.76737,1.09457 -1.82306,1.09457 -1.93756,1.09457 -0.61189,0 -0.87477,-0.53968 -0.87477,-1.20585 0,-0.45075 0.19327,-1.52675 0.52417,-2.21117 0.30229,-0.63034 0.83378,-1.10587 1.36689,-1.10587 0.3309,0 0.69936,0.14177 0.83539,0.43971 z"
       style="fill:#000000;fill-opacity:1;fill-rule:evenodd;stroke:none;stroke-width:0.0244532" />
    <path
       id="path4"
       d="m 193.86603,124.4719 v -0.0848 l -0.002,-0.007 v -0.0133 l -0.002,-0.006 v -0.0113 l -0.003,-0.007 v -0.004 l -0.002,-0.006 v -0.005 l -0.002,-0.009 -0.004,-0.008 -0.004,-0.007 -0.004,-0.006 -0.004,-0.007 -0.004,-0.006 -0.005,-0.005 -0.007,-0.004 -0.005,-0.004 -0.008,-0.003 -0.008,-0.003 -0.01,-0.004 h -0.007 l -0.007,-0.003 h -0.005 l -0.004,-0.003 h -0.0234 l -0.008,-0.003 h -0.0751 c -0.43647,0.48847 -1.05019,0.49553 -1.33025,0.49553 v 0.27764 c 0.16281,0 0.61097,0 0.98126,-0.21542 v 3.94543 c 0,0.25807 0,0.35804 -0.67807,0.35804 h -0.25487 v 0.27733 c 0.12091,-0.007 0.95447,-0.0316 1.20773,-0.0316 0.21022,0 1.0653,0.0245 1.21461,0.0316 v -0.27733 h -0.25854 c -0.67967,0 -0.67967,-0.1 -0.67967,-0.35804 z"
       style="fill:#000000;fill-opacity:1;fill-rule:evenodd;stroke:none;stroke-width:0.0244532" />
    <path
       id="path5"
       d="m 61.528437,5.1042034 h -0.05725 l -0.02862,0.00311 h -0.02771 l -0.02675,0.00207 -0.02773,0.00414 -0.02684,0.00392 -0.01163,0.00526 -0.0135,0.00207 -0.01422,0.00392 -0.01351,0.00526 -0.01333,0.00392 -0.01163,0.00414 -0.01351,0.00703 -0.01422,0.00629 -0.01161,0.00703 -0.01333,0.00914 -0.01351,0.0081 -0.01163,0.0094 -0.01422,0.011228 -0.0135,0.00914 -0.01173,0.013057 -0.01323,0.011228 -0.02521,0.028719 c -0.156383,0.1663337 -0.173375,0.352773 -0.173375,0.4282368 0,0.2684307 0.173375,0.3888072 0.357718,0.3888072 0.28098,0 0.545657,-0.2663419 0.545657,-0.7058065 0,-0.5418236 -0.455203,-0.9507372 -1.146777,-0.9507372 -1.308678,0 -2.597778,1.5810799 -2.597778,3.139443 0,0.9956498 0.562648,1.8698795 1.569072,1.8698795 1.386608,0 2.202322,-1.1721676 2.202322,-1.3055995 0,-0.064233 -0.05815,-0.1438774 -0.114499,-0.1438774 -0.0483,0 -0.06797,0.024545 -0.128721,0.1112376 -0.766685,1.0943523 -1.822138,1.0943523 -1.937531,1.0943523 -0.610966,0 -0.874039,-0.5394728 -0.874039,-1.2055899 0,-0.4509537 0.192312,-1.5280725 0.523214,-2.2124678 0.302507,-0.6303435 0.833783,-1.105581 1.367807,-1.105581 0.330879,0 0.698719,0.1428321 0.835385,0.4394645 z"
       style="fill:#000000;fill-opacity:1;fill-rule:evenodd;stroke:none;stroke-width:0.0244532" />
    <path
       id="path6"
       d="m 65.317648,9.5526399 h -0.229892 c -0.01967,0.1712953 -0.08926,0.6282541 -0.177015,0.7058071 -0.05109,0.04491 -0.574282,0.04491 -0.670003,0.04491 h -1.250629 c 0.713102,-0.717297 0.951053,-0.9335038 1.35796,-1.2975047 0.502651,-0.4590489 0.969579,-0.9363753 0.969579,-1.673778 0,-0.9353311 -0.716513,-1.5077057 -1.586706,-1.5077057 -0.839965,0 -1.412461,0.6721223 -1.412461,1.3831516 0,0.3948131 0.292431,0.4355475 0.362298,0.4355475 0.161902,0 0.358612,-0.1336931 0.358612,-0.4110023 0,-0.1378715 -0.04928,-0.4091749 -0.401641,-0.4091749 0.211114,-0.5475682 0.671881,-0.7188626 0.991929,-0.7188626 0.679049,0 1.031477,0.60162 1.031477,1.2280464 0,0.6752556 -0.420418,1.2076789 -0.638677,1.4849879 L 62.38899,10.660307 c -0.07051,0.0692 -0.07051,0.08669 -0.07051,0.301855 h 2.79719 z"
       style="fill:#000000;fill-opacity:1;fill-rule:evenodd;stroke:none;stroke-width:0.0244532" />
    <path
       id="path11"
       d="M 90.832189,31.149859 C 101.5532,79.282854 117.24949,94.240059 160.0149,102.66613"
       style="fill:none;stroke:#000000;stroke-width:0.511539;stroke-linecap:butt;stroke-linejoin:miter;stroke-miterlimit:4;stroke-dasharray:none;stroke-opacity:1" />
    <path
       id="path14"
       d="m 113.59628,80.49132 c 0,1.017061 -0.76142,1.842193 -1.70055,1.842193 -0.93935,0 -1.70055,-0.825132 -1.70055,-1.842193 0,-1.016804 0.7612,-1.841944 1.70055,-1.841944 0.93913,0 1.70055,0.82514 1.70055,1.841944 z"
       style="fill:#000000;fill-opacity:1;fill-rule:nonzero;stroke:#000000;stroke-width:0.460953;stroke-linecap:butt;stroke-linejoin:miter;stroke-miterlimit:4;stroke-dasharray:none;stroke-opacity:1" />
    <path
       id="path19"
       d="M 111.72582,127.12468 111.89573,80.975953 67.00312,80.782204"
       style="fill:none;stroke:#000000;stroke-width:0.530268;stroke-linecap:butt;stroke-linejoin:miter;stroke-miterlimit:4;stroke-dasharray:0.530268, 1.59081;stroke-dashoffset:0;stroke-opacity:1" />
    <path
       id="path20"
       d="m 111.42789,132.48181 h -0.0564 l -0.0296,0.003 h -0.0268 l -0.0279,0.002 -0.0401,0.006 -0.0144,0.003 -0.0117,0.005 -0.0133,0.003 -0.0135,0.004 -0.0133,0.005 -0.0144,0.003 -0.0117,0.004 -0.0133,0.007 -0.0135,0.006 -0.0117,0.007 -0.0142,0.009 -0.0135,0.008 -0.0114,0.009 -0.0135,0.0113 -0.0136,0.009 -0.0114,0.0134 -0.0144,0.0113 -0.0249,0.0284 c -0.15572,0.16637 -0.17359,0.35301 -0.17359,0.4285 0,0.26815 0.17359,0.38852 0.35862,0.38852 0.28006,0 0.54479,-0.26603 0.54479,-0.70576 0,-0.54161 -0.45526,-0.95073 -1.14683,-0.95073 -1.3085,0 -2.59754,1.581 -2.59754,3.13965 0,0.99541 0.56265,1.86967 1.5698,1.86967 1.38658,0 2.20228,-1.17198 2.20228,-1.30559 0,-0.0642 -0.0582,-0.14393 -0.11542,-0.14393 -0.0483,0 -0.068,0.0246 -0.12778,0.11128 -0.7676,1.09435 -1.82306,1.09435 -1.93756,1.09435 -0.6119,0 -0.87477,-0.53947 -0.87477,-1.20563 0,-0.45065 0.19304,-1.52776 0.52417,-2.21219 0.30137,-0.63035 0.83355,-1.10586 1.36667,-1.10586 0.33113,0 0.69959,0.14291 0.83562,0.43972 z"
       style="fill:#000000;fill-opacity:1;fill-rule:evenodd;stroke:none;stroke-width:0.0244532" />
    <path
       id="path21"
       d="m 113.98259,130.76627 0.0511,-0.0277 0.0499,-0.0246 0.0474,-0.0243 0.0467,-0.0214 0.0447,-0.0224 0.0428,-0.0225 0.0412,-0.0196 0.0403,-0.0204 0.0394,-0.0172 0.0366,-0.0183 0.0348,-0.0176 0.0357,-0.0151 0.0332,-0.0186 0.0305,-0.013 0.0313,-0.0154 0.0293,-0.0133 0.027,-0.0134 0.0277,-0.013 0.0268,-0.0134 0.0259,-0.0113 0.0234,-0.0133 0.0231,-0.0113 0.0216,-0.0113 0.0215,-0.009 0.0216,-0.0113 0.0196,-0.008 0.0366,-0.0203 0.0348,-0.0176 0.0332,-0.0182 c 0.13054,-0.0604 0.19053,-0.0909 0.19053,-0.23971 0,-0.13057 -0.0877,-0.24674 -0.21022,-0.24674 -0.0483,0 -0.0599,0 -0.14221,0.0691 l -0.92332,0.70401 0.10214,-1.14344 c 0.0152,-0.13973 0,-0.33375 -0.20496,-0.33375 -0.0813,0 -0.21022,0.0625 -0.21022,0.23164 0,0.0705 0.0296,0.30184 0.0348,0.37947 0.0135,0.13056 0.0609,0.69063 0.076,0.86608 l -0.91667,-0.70401 c -0.0708,-0.0448 -0.0877,-0.0691 -0.14863,-0.0691 -0.12434,0 -0.21365,0.11617 -0.21365,0.24674 0,0.15515 0.0831,0.19267 0.14381,0.2243 l 1.0243,0.48675 c -0.55463,0.28151 -0.80583,0.38852 -0.97599,0.48124 -0.12778,0.0642 -0.19212,0.0961 -0.19212,0.23969 0,0.13372 0.0893,0.24704 0.21365,0.24704 0.0446,0 0.0609,0 0.14038,-0.0694 l 0.92492,-0.70369 -0.11084,1.24521 c 0,0.16952 0.12894,0.23163 0.21023,0.23163 0.0822,0 0.21022,-0.0621 0.21022,-0.23163 0,-0.0701 -0.0268,-0.30181 -0.0329,-0.37933 -0.0117,-0.13056 -0.0599,-0.68544 -0.0744,-0.86588 l 0.81409,0.62017 c 0.17541,0.15298 0.19144,0.15298 0.25144,0.15298 0.12251,0 0.21021,-0.11332 0.21021,-0.24704 0,-0.15482 -0.0815,-0.19268 -0.14151,-0.22431 z"
       style="fill:#000000;fill-opacity:1;fill-rule:evenodd;stroke:none;stroke-width:0.0244532" />
    <path
       id="path22"
       d="m 114.06481,134.51149 v -0.0846 l -0.003,-0.006 v -0.0134 l -0.002,-0.007 v -0.0112 l -0.002,-0.006 v -0.005 l -0.002,-0.004 v -0.006 l -0.002,-0.009 -0.004,-0.009 -0.004,-0.006 -0.003,-0.007 -0.004,-0.006 -0.004,-0.007 -0.007,-0.004 -0.005,-0.005 -0.007,-0.003 -0.007,-0.004 -0.008,-0.003 -0.01,-0.003 -0.004,-0.003 h -0.004 l -0.005,-0.003 h -0.01 l -0.007,-0.003 h -0.0249 l -0.005,-0.003 h -0.0705 c -0.43579,0.48858 -1.04927,0.4948 -1.33025,0.4948 v 0.27733 c 0.16373,0 0.61188,0 0.98218,-0.21307 v 3.94423 c 0,0.25725 0,0.35721 -0.67807,0.35721 h -0.25487 v 0.27734 c 0.12067,-0.006 0.95447,-0.0306 1.2075,-0.0306 0.21022,0 1.06461,0.0246 1.21484,0.0306 v -0.27734 h -0.25945 c -0.67899,0 -0.67899,-0.1 -0.67899,-0.35721 z"
       style="fill:#000000;fill-opacity:1;fill-rule:evenodd;stroke:none;stroke-width:0.0244532" />
    <path
       id="path23"
       d="m 59.834309,78.977869 h -0.05636 l -0.02951,0.0015 h -0.02684 l -0.02764,0.003 -0.04035,0.0059 -0.0144,0.0022 -0.01145,0.0052 -0.01349,0.0022 -0.01351,0.0037 -0.01333,0.0052 -0.0144,0.0037 -0.01145,0.0045 -0.01351,0.0074 -0.01351,0.0059 -0.01145,0.0074 -0.01351,0.0091 -0.01422,0.0084 -0.01163,0.0091 -0.01349,0.01125 -0.01333,0.0091 -0.01163,0.01332 -0.01449,0.01021 -0.01163,0.01413 -0.01333,0.01539 c -0.155742,0.166334 -0.173535,0.35303 -0.173535,0.428499 0,0.268168 0.173535,0.388544 0.358611,0.388544 0.280088,0 0.545657,-0.26634 0.545657,-0.705808 0,-0.542605 -0.456119,-0.950735 -1.147487,-0.950735 -1.308701,0 -2.597792,1.581081 -2.597792,3.139705 0,0.994346 0.562662,1.869618 1.569796,1.869618 1.386607,0 2.202322,-1.172167 2.202322,-1.3056 0,-0.06424 -0.05796,-0.143876 -0.1145,-0.143876 -0.04903,0 -0.06869,0.02457 -0.128719,0.110191 -0.767603,1.095395 -1.823031,1.095395 -1.937531,1.095395 -0.61186,0 -0.874773,-0.539474 -0.874773,-1.205586 0,-0.450956 0.193045,-1.528076 0.524108,-2.212471 0.301362,-0.630346 0.833599,-1.10558 1.366936,-1.10558 0.33088,0 0.699338,0.142833 0.835386,0.439728 z"
       style="fill:#000000;fill-opacity:1;fill-rule:evenodd;stroke:none;stroke-width:0.0244532" />
    <path
       id="path24"
       d="m 62.38899,77.261001 0.05107,-0.02635 0.05109,-0.02457 0.04651,-0.02457 0.04642,-0.02139 0.04473,-0.02242 0.04303,-0.02243 0.04097,-0.02035 0.04035,-0.01932 0.03936,-0.01828 0.03666,-0.01747 0.0357,-0.01725 0.03506,-0.01643 0.03293,-0.01725 0.0314,-0.01332 0.0305,-0.01517 0.02951,-0.01332 0.02773,-0.01332 0.02674,-0.01436 0.02684,-0.01303 0.02583,-0.01044 0.02336,-0.01413 0.02336,-0.01021 0.02128,-0.01125 0.02157,-0.0091 0.02146,-0.01125 0.01977,-0.0094 0.03659,-0.01932 0.0348,-0.01828 0.03327,-0.01725 c 0.130506,-0.06032 0.19142,-0.09086 0.19142,-0.239708 0,-0.131605 -0.08775,-0.247013 -0.211205,-0.247013 -0.04829,0 -0.05992,0 -0.141247,0.06943 l -0.92332,0.70372 0.101172,-1.14344 c 0.01511,-0.139702 0,-0.333452 -0.204931,-0.333452 -0.08132,0 -0.21022,0.06217 -0.21022,0.23161 0,0.07025 0.02951,0.301854 0.03506,0.37941 0.01424,0.130561 0.06066,0.690398 0.07605,0.865872 l -0.916886,-0.70372 c -0.07076,-0.04493 -0.08775,-0.06943 -0.148666,-0.06943 -0.124345,0 -0.213631,0.115408 -0.213631,0.247013 0,0.154846 0.08399,0.192706 0.144017,0.224305 l 1.024057,0.486462 c -0.554612,0.281491 -0.805777,0.387766 -0.975739,0.481511 -0.12801,0.06424 -0.192335,0.09583 -0.192335,0.239707 0,0.133693 0.08929,0.246755 0.213631,0.246755 0.04488,0 0.06092,0 0.140606,-0.06921 l 0.924946,-0.703979 -0.111109,1.245541 c 0,0.169206 0.128902,0.23161 0.210219,0.23161 0.08246,0 0.210221,-0.0624 0.210221,-0.23161 0,-0.07054 -0.02675,-0.301854 -0.03293,-0.37941 -0.01173,-0.130561 -0.06002,-0.686482 -0.07353,-0.866131 l 0.814111,0.61911 c 0.175413,0.154061 0.190527,0.154061 0.250456,0.154061 0.123452,0 0.211205,-0.113062 0.211205,-0.246755 0,-0.155105 -0.08246,-0.192706 -0.142231,-0.224304 z"
       style="fill:#000000;fill-opacity:1;fill-rule:evenodd;stroke:none;stroke-width:0.0244532" />
    <path
       id="path25"
       d="m 63.624504,84.520396 h -0.229983 c -0.01969,0.168422 -0.08954,0.626424 -0.177222,0.703714 -0.0508,0.04493 -0.574991,0.04493 -0.66982,0.04493 h -1.250535 c 0.712848,-0.717037 0.949907,-0.933244 1.356997,-1.297243 0.502628,-0.456959 0.970563,-0.936375 0.970563,-1.671946 0,-0.937425 -0.717498,-1.509534 -1.587873,-1.509534 -0.839073,0 -1.411568,0.672122 -1.411568,1.383148 0,0.397686 0.29243,0.435553 0.362297,0.435553 0.161902,0 0.357879,-0.133699 0.357879,-0.411008 0,-0.137867 -0.0483,-0.409173 -0.400747,-0.409173 0.210221,-0.547565 0.671629,-0.717037 0.991151,-0.717037 0.679826,0 1.032277,0.599792 1.032277,1.228051 0,0.673166 -0.420441,1.205587 -0.638699,1.483155 l -1.634383,1.842987 c -0.06978,0.06943 -0.06978,0.08669 -0.06978,0.302113 h 2.796296 z"
       style="fill:#000000;fill-opacity:1;fill-rule:evenodd;stroke:none;stroke-width:0.0244532" />
    <path
       style="fill:none;stroke:#000000;stroke-width:0.565;stroke-linecap:butt;stroke-linejoin:miter;stroke-dasharray:none;stroke-opacity:1"
       d="m 134.44374,104.90865 v 22.41131"
       id="path46"
       sodipodi:nodetypes="cc" />
    <path
       style="fill:none;stroke:#000000;stroke-width:0.565;stroke-linecap:butt;stroke-linejoin:miter;stroke-dasharray:0.565, 1.13;stroke-dashoffset:0;stroke-opacity:1"
       d="m 134.76656,104.60381 25.10491,23.22204"
       id="path47"
       sodipodi:nodetypes="cc" />
    <g
       inkscape:label=""
       transform="matrix(1.1061646,0,0,1.0742011,131.73324,130.44091)"
       id="g48">
      <g
         fill="#000000"
         fill-opacity="1"
         id="g2"
         transform="matrix(0.352778,0,0,0.352778,-0.940109,-0.614936)">
        <g
           id="use1"
           transform="translate(1.993,12.665)">
          <path
             d="M 6.515625,2.78125 C 5.84375,3.71875 4.875,4.5625 3.671875,4.5625 3.375,4.5625 2.1875,4.515625 1.8125,3.375 1.890625,3.390625 2,3.390625 2.0625,3.390625 2.796875,3.390625 3.296875,2.75 3.296875,2.1875 3.296875,1.609375 2.828125,1.40625 2.453125,1.40625 2.0625,1.40625 1.1875,1.703125 1.1875,2.921875 1.1875,4.1875 2.25,5.0625 3.671875,5.0625 c 2.46875,0 4.984375,-2.28125 5.671875,-5.03125 l 2.421875,-9.671875 c 0.03125,-0.125 0.07813,-0.265625 0.07813,-0.421875 0,-0.375 -0.296875,-0.625 -0.671875,-0.625 -0.21875,0 -0.734375,0.109375 -0.9375,0.84375 l -1.82813,7.296875 c -0.125,0.4375 -0.125,0.484375 -0.328125,0.765625 -0.5,0.6875 -1.3125,1.53125 -2.5,1.53125 C 4.1875,-0.25 4.0625,-1.609375 4.0625,-2.28125 c 0,-1.40625 0.671875,-3.3125 1.34375,-5.109375 0.265625,-0.71875 0.421875,-1.0625 0.421875,-1.5625 0,-1.03125 -0.75,-1.96875 -1.96875,-1.96875 -2.265625,0 -3.1875,3.59375 -3.1875,3.78125 0,0.109375 0.09375,0.234375 0.265625,0.234375 0.234375,0 0.25,-0.109375 0.34375,-0.453125 0.609375,-2.078125 1.546875,-3.078125 2.515625,-3.078125 0.21875,0 0.640625,0 0.640625,0.828125 0,0.640625 -0.28125,1.359375 -0.640625,2.296875 -1.21875,3.25 -1.21875,4.0625 -1.21875,4.65625 0,2.359375 1.6875,2.90625 2.921875,2.90625 0.71875,0 1.609375,-0.21875 2.484375,-1.140625 L 8,-0.875 C 7.625,0.59375 7.390625,1.5625 6.515625,2.78125 Z m 0,0"
             id="path48" />
        </g>
      </g>
    </g>
    <g
       inkscape:label=""
       transform="matrix(0.89961518,0,0,0.94825697,10.962447,27.556676)"
       id="g49">
      <g
         inkscape:label=""
         transform="matrix(0.97079757,0,0,0.97340075,11.650954,-1.1511441)"
         id="g101">
        <g
           fill="#000000"
           fill-opacity="1"
           id="g10"
           transform="matrix(0.352778,0,0,0.352778,-1.12448,-0.614583)">
          <g
             id="use9"
             transform="translate(3.188,12.664)">
            <path
               d="m 5.453125,-10.6875 c 0,-0.09375 -0.078125,-0.234375 -0.28125,-0.234375 -0.171875,0 -2.5,0.21875 -2.875,0.234375 -0.265625,0.03125 -0.515625,0.0625 -0.515625,0.5 0,0.25 0.203125,0.25 0.546875,0.25 C 3.5,-9.9375 3.5625,-9.765625 3.5625,-9.484375 3.5625,-9.390625 3.515625,-9.09375 3.5,-9 l -2.1875,8.75 c 0,0.09375 0.078125,0.25 0.25,0.25 h 0.515625 c 0.34375,0 4.109375,-0.890625 7.015625,-3.859375 3.203125,-3.296875 3.640625,-6.34375 3.640625,-6.453125 0,-0.390625 -0.3125,-0.609375 -0.640625,-0.609375 -0.71875,0 -0.890625,0.65625 -0.9375,0.828125 C 9.6875,-4.90625 6.296875,-1.828125 3,-0.75 Z m 0,0"
               id="path81" />
          </g>
        </g>
        <g
           fill="#000000"
           fill-opacity="1"
           id="g11"
           transform="matrix(0.352778,0,0,0.352778,-1.12448,-0.614583)">
          <g
             id="use10"
             transform="translate(15.18,17.445999)">
            <path
               d="m 4.15625,-8.296875 h 1.890625 c 0.390625,0 0.609375,0 0.609375,-0.375 0,-0.234375 -0.125,-0.234375 -0.546875,-0.234375 h -1.8125 L 5.0625,-11.921875 c 0.078125,-0.28125 0.078125,-0.328125 0.078125,-0.46875 0,-0.328125 -0.265625,-0.515625 -0.53125,-0.515625 -0.171875,0 -0.640625,0.0625 -0.8125,0.71875 L 3,-8.90625 H 1.046875 c -0.40625,0 -0.59375,0 -0.59375,0.390625 0,0.21875 0.140625,0.21875 0.53125,0.21875 h 1.84375 L 1.46875,-2.84375 c -0.171875,0.71875 -0.234375,0.921875 -0.234375,1.1875 0,0.96875 0.6875,1.859375 1.84375,1.859375 2.09375,0 3.203125,-3.015625 3.203125,-3.15625 0,-0.125 -0.078125,-0.1875 -0.203125,-0.1875 -0.046875,0 -0.125,0 -0.171875,0.078125 -0.015625,0.03125 -0.046875,0.046875 -0.1875,0.375 -0.4375,1.03125 -1.375,2.484375 -2.578125,2.484375 -0.625,0 -0.65625,-0.515625 -0.65625,-0.96875 0,-0.03125 0,-0.421875 0.0625,-0.671875 z m 0,0"
               id="path82" />
          </g>
        </g>
        <g
           fill="#000000"
           fill-opacity="1"
           id="g85"
           transform="matrix(0.352778,0,0,0.352778,-1.12448,-0.614583)">
          <g
             id="g83"
             transform="translate(22.486,17.445999)">
            <path
               d="m 7.78125,-4.796875 h 5.484375 c 0.28125,0 0.640625,0 0.640625,-0.34375 0,-0.375 -0.328125,-0.375 -0.640625,-0.375 H 7.78125 v -5.46875 c 0,-0.296875 0,-0.640625 -0.34375,-0.640625 -0.375,0 -0.375,0.328125 -0.375,0.640625 v 5.46875 H 1.59375 c -0.296875,0 -0.640625,0 -0.640625,0.34375 0,0.375 0.328125,0.375 0.640625,0.375 H 7.0625 V 0.6875 c 0,0.28125 0,0.640625 0.359375,0.640625 0.359375,0 0.359375,-0.34375 0.359375,-0.640625 z m 0,0"
               id="path83" />
          </g>
          <g
             id="g84"
             transform="translate(37.358868,17.445999)">
            <path
               d="m 5.5,-13.203125 c 0,-0.4375 -0.03125,-0.453125 -0.3125,-0.453125 C 4.375,-12.6875 3.15625,-12.375 2,-12.328125 c -0.0625,0 -0.15625,0 -0.1875,0.03125 -0.015625,0.04687 -0.015625,0.09375 -0.015625,0.515625 0.640625,0 1.71875,-0.109375 2.546875,-0.609375 v 10.875 c 0,0.734375 -0.046875,0.984375 -1.828125,0.984375 H 1.90625 V 0 C 2.890625,-0.015625 3.921875,-0.046875 4.921875,-0.046875 5.90625,-0.046875 6.9375,-0.015625 7.9375,0 V -0.53125 H 7.3125 C 5.53125,-0.53125 5.5,-0.765625 5.5,-1.515625 Z m 0,0"
               id="path84" />
          </g>
        </g>
        <path
           fill-rule="nonzero"
           fill="#000000"
           fill-opacity="1"
           d="m 0,20.203187 h 44.148438 v -1.59375 H 0 Z m 0,0"
           id="path12"
           transform="scale(0.352778)" />
        <g
           fill="#000000"
           fill-opacity="1"
           id="g87"
           transform="matrix(0.352778,0,0,0.352778,-1.12448,-0.614583)">
          <g
             id="g86"
             transform="translate(15.363,35.893002)">
            <path
               d="m 5.453125,-10.6875 c 0,-0.09375 -0.078125,-0.234375 -0.28125,-0.234375 -0.171875,0 -2.5,0.21875 -2.875,0.234375 -0.265625,0.03125 -0.515625,0.0625 -0.515625,0.5 0,0.25 0.203125,0.25 0.546875,0.25 C 3.5,-9.9375 3.5625,-9.765625 3.5625,-9.484375 3.5625,-9.390625 3.515625,-9.09375 3.5,-9 l -2.1875,8.75 c 0,0.09375 0.078125,0.25 0.25,0.25 h 0.515625 c 0.34375,0 4.109375,-0.890625 7.015625,-3.859375 3.203125,-3.296875 3.640625,-6.34375 3.640625,-6.453125 0,-0.390625 -0.3125,-0.609375 -0.640625,-0.609375 -0.71875,0 -0.890625,0.65625 -0.9375,0.828125 C 9.6875,-4.90625 6.296875,-1.828125 3,-0.75 Z m 0,0"
               id="path85" />
          </g>
        </g>
        <g
           fill="#000000"
           fill-opacity="1"
           id="g89"
           transform="matrix(0.352778,0,0,0.352778,-1.12448,-0.614583)">
          <g
             id="g88"
             transform="translate(27.355,40.063999)">
            <path
               d="m 4.15625,-8.296875 h 1.890625 c 0.390625,0 0.609375,0 0.609375,-0.375 0,-0.234375 -0.125,-0.234375 -0.546875,-0.234375 h -1.8125 L 5.0625,-11.921875 c 0.078125,-0.28125 0.078125,-0.328125 0.078125,-0.46875 0,-0.328125 -0.265625,-0.515625 -0.53125,-0.515625 -0.171875,0 -0.640625,0.0625 -0.8125,0.71875 L 3,-8.90625 H 1.046875 c -0.40625,0 -0.59375,0 -0.59375,0.390625 0,0.21875 0.140625,0.21875 0.53125,0.21875 h 1.84375 L 1.46875,-2.84375 c -0.171875,0.71875 -0.234375,0.921875 -0.234375,1.1875 0,0.96875 0.6875,1.859375 1.84375,1.859375 2.09375,0 3.203125,-3.015625 3.203125,-3.15625 0,-0.125 -0.078125,-0.1875 -0.203125,-0.1875 -0.046875,0 -0.125,0 -0.171875,0.078125 -0.015625,0.03125 -0.046875,0.046875 -0.1875,0.375 -0.4375,1.03125 -1.375,2.484375 -2.578125,2.484375 -0.625,0 -0.65625,-0.515625 -0.65625,-0.96875 0,-0.03125 0,-0.421875 0.0625,-0.671875 z m 0,0"
               id="path87" />
          </g>
        </g>
        <g
           fill="#000000"
           fill-opacity="1"
           id="g91"
           transform="matrix(0.352778,0,0,0.352778,-1.12448,-0.614583)">
          <g
             id="g90"
             transform="translate(48.528999,27.346001)">
            <path
               d="M 6.515625,2.78125 C 5.84375,3.71875 4.875,4.5625 3.671875,4.5625 3.375,4.5625 2.1875,4.515625 1.8125,3.375 1.890625,3.390625 2,3.390625 2.0625,3.390625 2.796875,3.390625 3.296875,2.75 3.296875,2.1875 3.296875,1.609375 2.828125,1.40625 2.453125,1.40625 2.0625,1.40625 1.1875,1.703125 1.1875,2.921875 1.1875,4.1875 2.25,5.0625 3.671875,5.0625 c 2.46875,0 4.984375,-2.28125 5.671875,-5.03125 l 2.421875,-9.671875 c 0.03125,-0.125 0.07813,-0.265625 0.07813,-0.421875 0,-0.375 -0.296875,-0.625 -0.671875,-0.625 -0.21875,0 -0.734375,0.109375 -0.9375,0.84375 l -1.82813,7.296875 c -0.125,0.4375 -0.125,0.484375 -0.328125,0.765625 -0.5,0.6875 -1.3125,1.53125 -2.5,1.53125 C 4.1875,-0.25 4.0625,-1.609375 4.0625,-2.28125 c 0,-1.40625 0.671875,-3.3125 1.34375,-5.109375 0.265625,-0.71875 0.421875,-1.0625 0.421875,-1.5625 0,-1.03125 -0.75,-1.96875 -1.96875,-1.96875 -2.265625,0 -3.1875,3.59375 -3.1875,3.78125 0,0.109375 0.09375,0.234375 0.265625,0.234375 0.234375,0 0.25,-0.109375 0.34375,-0.453125 0.609375,-2.078125 1.546875,-3.078125 2.515625,-3.078125 0.21875,0 0.640625,0 0.640625,0.828125 0,0.640625 -0.28125,1.359375 -0.640625,2.296875 -1.21875,3.25 -1.21875,4.0625 -1.21875,4.65625 0,2.359375 1.6875,2.90625 2.921875,2.90625 0.71875,0 1.609375,-0.21875 2.484375,-1.140625 L 8,-0.875 C 7.625,0.59375 7.390625,1.5625 6.515625,2.78125 Z m 0,0"
               id="path89" />
          </g>
        </g>
        <g
           fill="#000000"
           fill-opacity="1"
           id="g93"
           transform="matrix(0.352778,0,0,0.352778,-1.12448,-0.614583)">
          <g
             id="g92"
             transform="translate(66.761002,27.346001)">
            <path
               d="m 9.34375,-5.75 h 6.5625 c 0.34375,0 0.765625,0 0.765625,-0.421875 0,-0.4375 -0.390625,-0.4375 -0.765625,-0.4375 H 9.34375 V -13.1875 c 0,-0.34375 0,-0.765625 -0.421875,-0.765625 -0.453125,0 -0.453125,0.390625 -0.453125,0.765625 v 6.578125 h -6.5625 c -0.34375,0 -0.765625,0 -0.765625,0.421875 0,0.4375 0.390625,0.4375 0.765625,0.4375 h 6.5625 v 6.5625 c 0,0.359375 0,0.78125 0.421875,0.78125 0.453125,0 0.453125,-0.40625 0.453125,-0.78125 z m 0,0"
               id="path91" />
          </g>
        </g>
        <g
           fill="#000000"
           fill-opacity="1"
           id="g95"
           transform="matrix(0.352778,0,0,0.352778,-1.12448,-0.614583)">
          <g
             id="g94"
             transform="translate(90.112,27.346001)">
            <path
               d="m 7.453125,-2.953125 c -0.125,0.421875 -0.125,0.46875 -0.46875,0.953125 -0.546875,0.6875 -1.625,1.75 -2.796875,1.75 -1.015625,0 -1.578125,-0.921875 -1.578125,-2.375 0,-1.359375 0.765625,-4.140625 1.234375,-5.1875 0.84375,-1.734375 2,-2.625 2.96875,-2.625 1.640625,0 1.953125,2.03125 1.953125,2.234375 0,0.03125 -0.0625,0.34375 -0.09375,0.390625 z m 1.59375,-6.34375 c -0.28125,-0.640625 -0.9375,-1.625 -2.234375,-1.625 -2.796875,0 -5.828125,3.609375 -5.828125,7.28125 0,2.453125 1.4375,3.890625 3.125,3.890625 1.375,0 2.53125,-1.0625 3.21875,-1.890625 C 7.578125,-0.171875 8.75,0.25 9.484375,0.25 c 0.75,0 1.34375,-0.453125 1.796875,-1.34375 0.390625,-0.84375 0.734375,-2.34375 0.734375,-2.453125 0,-0.125 -0.09375,-0.21875 -0.25,-0.21875 -0.21875,0 -0.25,0.125 -0.34375,0.5 C 11.046875,-1.8125 10.578125,-0.25 9.5625,-0.25 c -0.71875,0 -0.765625,-0.640625 -0.765625,-1.140625 0,-0.5625 0.078125,-0.84375 0.296875,-1.8125 0.171875,-0.609375 0.296875,-1.15625 0.5,-1.875 0.90625,-3.71875 1.140625,-4.609375 1.140625,-4.765625 0,-0.34375 -0.28125,-0.609375 -0.640625,-0.609375 -0.796875,0 -1,0.859375 -1.046875,1.15625 z m 0,0"
               id="path93" />
          </g>
        </g>
        <g
           fill="#000000"
           fill-opacity="1"
           id="g97"
           transform="matrix(0.352778,0,0,0.352778,-1.12448,-0.614583)">
          <g
             id="g96"
             transform="translate(102.852,34.785999)">
            <path
               d="m 4.984375,-9.96875 h 2.28125 c 0.46875,0 0.71875,0 0.71875,-0.4375 0,-0.28125 -0.15625,-0.28125 -0.65625,-0.28125 H 5.15625 l 0.921875,-3.609375 c 0.09375,-0.34375 0.09375,-0.390625 0.09375,-0.578125 0,-0.390625 -0.328125,-0.609375 -0.640625,-0.609375 -0.203125,0 -0.765625,0.07813 -0.96875,0.859375 l -0.96875,3.9375 H 1.265625 c -0.5,0 -0.71875,0 -0.71875,0.484375 0,0.234375 0.171875,0.234375 0.640625,0.234375 h 2.203125 l -1.625,6.546875 c -0.203125,0.875 -0.28125,1.125 -0.28125,1.4375 0,1.171875 0.8125,2.234375 2.203125,2.234375 2.5,0 3.84375,-3.625 3.84375,-3.796875 0,-0.140625 -0.09375,-0.21875 -0.25,-0.21875 -0.046875,0 -0.140625,0 -0.1875,0.09375 C 7.0625,-3.640625 7.03125,-3.625 6.859375,-3.21875 6.34375,-1.984375 5.203125,-0.25 3.765625,-0.25 c -0.75,0 -0.796875,-0.625 -0.796875,-1.15625 0,-0.03125 0,-0.5 0.078125,-0.796875 z m 0,0"
               id="path95" />
          </g>
        </g>
        <g
           fill="#000000"
           fill-opacity="1"
           id="g100"
           transform="matrix(0.352778,0,0,0.352778,-1.12448,-0.614583)">
          <g
             id="g98"
             transform="translate(111.616,34.785999)">
            <path
               d="m 9.34375,-5.75 h 6.5625 c 0.34375,0 0.765625,0 0.765625,-0.421875 0,-0.4375 -0.390625,-0.4375 -0.765625,-0.4375 H 9.34375 V -13.1875 c 0,-0.34375 0,-0.765625 -0.421875,-0.765625 -0.453125,0 -0.453125,0.390625 -0.453125,0.765625 v 6.578125 h -6.5625 c -0.34375,0 -0.765625,0 -0.765625,0.421875 0,0.4375 0.390625,0.4375 0.765625,0.4375 h 6.5625 v 6.5625 c 0,0.359375 0,0.78125 0.421875,0.78125 0.453125,0 0.453125,-0.40625 0.453125,-0.78125 z m 0,0"
               id="path97" />
          </g>
          <g
             id="g99"
             transform="translate(129.45775,34.785999)">
            <path
               d="m 6.59375,-15.828125 c 0,-0.53125 -0.03125,-0.546875 -0.375,-0.546875 -0.96875,1.15625 -2.421875,1.53125 -3.8125,1.578125 -0.078125,0 -0.203125,0 -0.21875,0.04687 -0.03125,0.0625 -0.03125,0.109375 -0.03125,0.625 0.765625,0 2.0625,-0.15625 3.046875,-0.75 v 13.0625 c 0,0.875 -0.046875,1.171875 -2.1875,1.171875 H 2.28125 V 0 c 1.1875,-0.03125 2.421875,-0.046875 3.609375,-0.046875 1.203125,0 2.4375,0.015625 3.625,0.046875 v -0.640625 h -0.75 c -2.125,0 -2.171875,-0.28125 -2.171875,-1.171875 z m 0,0"
               id="path98" />
          </g>
        </g>
      </g>
    </g>
  </g>
</svg>
